M48
;DRILL file {KiCad 4.0.7} date 04/12/19 18:27:07
;FORMAT={-:-/ absolute / inch / decimal}
FMAT,2
INCH,TZ
T1C0.016
T2C0.020
%
G90
G05
M72
T1
X0.6571Y-4.7617
X0.6879Y-3.1189
X0.7257Y-2.5322
X0.739Y-2.8842
X0.7691Y-3.2375
X0.7726Y-2.6495
X0.781Y-2.2975
X0.8144Y-0.9869
X0.8249Y-4.175
X0.8355Y-3.4709
X0.8375Y-2.8842
X0.8433Y-2.918
X0.8435Y-2.5334
X0.8454Y-1.8281
X0.849Y-0.9326
X0.8501Y-3.0217
X0.8539Y-2.494
X0.8584Y-4.527
X0.8733Y-2.6899
X0.8775Y-2.8165
X0.8826Y-5.2311
X0.8851Y-2.5835
X0.8903Y-2.2975
X0.8903Y-7.1086
X0.8968Y-3.1224
X0.8982Y-3.4391
X0.9083Y-2.8641
X0.9181Y-2.5743
X0.9192Y-3.6365
X0.9222Y-1.9455
X0.9303Y-2.8131
X0.9355Y-3.0915
X0.9415Y-3.1993
X0.9538Y-3.625
X0.9571Y-3.0592
X0.963Y-3.574
X0.9634Y-5.5831
X0.9745Y-2.9822
X0.9751Y-2.8786
X0.9773Y-3.5428
X0.9782Y-2.4903
X0.9821Y-2.2185
X0.9824Y-2.4119
X0.984Y-2.7619
X1.008Y-6.0525
X1.0204Y-1.703
X1.0415Y-3.3203
X1.0732Y-3.4786
X1.0771Y-3.5196
X1.0888Y-6.8409
X1.1257Y-0.6569
X1.1257Y-0.8894
X1.1257Y-1.1241
X1.1376Y-1.0205
X1.1395Y-3.38
X1.1424Y-3.308
X1.1509Y-2.1026
X1.1579Y-2.1375
X1.1669Y-0.8718
X1.1951Y-0.7949
X1.2014Y-2.021
X1.2076Y-0.7459
X1.2336Y-1.7075
X1.3306Y-3.1009
X1.3457Y-7.2521
X1.3611Y-1.7108
X1.3858Y-3.9158
X1.3935Y-7.377
X1.425Y-6.3355
X1.4327Y-6.483
X1.4361Y-6.5218
X1.494Y-4.1864
X1.5Y-5.5373
X1.5Y-6.2515
X1.5Y-6.2874
X1.5Y-7.0872
X1.5035Y-2.9919
X1.5052Y-3.7516
X1.5301Y-5.4999
X1.5526Y-4.2509
X1.5998Y-4.0544
X1.6098Y-7.1213
X1.6395Y-3.9395
X1.6543Y-3.7615
X1.7143Y-3.2401
X1.8029Y-3.7345
X1.9179Y-2.9505
X2.0426Y-3.2752
X2.0609Y-1.1391
X2.0674Y-1.7108
X2.0674Y-2.976
X2.0805Y-5.5759
X2.1851Y-7.1086
X2.1914Y-2.5259
X2.2602Y-6.5446
X2.2815Y-6.7388
X2.3004Y-3.3506
X2.343Y-6.7733
X2.3508Y-4.5965
X2.3704Y-2.3474
X2.3916Y-3.6424
X2.3938Y-5.2267
X2.3987Y-5.8559
X2.3987Y-5.8883
X2.3987Y-6.7362
X2.4205Y-3.5991
X2.4211Y-0.894
X2.4256Y-5.0992
X2.4329Y-3.6329
X2.4452Y-5.2267
X2.4511Y-2.8574
X2.458Y-2.4221
X2.4628Y-2.9101
X2.4733Y-4.1808
X2.4894Y-4.3661
X2.4934Y-5.2267
X2.4935Y-2.3857
X2.495Y-3.9662
X2.5009Y-5.8755
X2.5009Y-6.7949
X2.5213Y-3.8132
X2.5221Y-4.2017
X2.5291Y-5.6913
X2.5344Y-2.1861
X2.5378Y-2.1479
X2.5431Y-2.3389
X2.55Y-3.3097
X2.6139Y-2.9315
X2.6473Y-2.2035
X2.6644Y-1.6967
X2.6698Y-2.0901
X2.6698Y-2.5074
X2.7204Y-3.0225
X2.7394Y-1.8727
X2.7399Y-2.9648
X2.7399Y-3.1189
X2.7549Y-3.1643
X2.77Y-1.7108
X2.8Y-3.4806
X2.8288Y-1.1581
X2.8859Y-3.2221
X2.8913Y-1.0067
X2.892Y-1.8012
X2.9Y-2.2901
X2.9172Y-4.2522
X2.9205Y-4.1836
X2.9956Y-2.1479
X2.9956Y-2.2901
X2.9958Y-2.0889
X3.009Y-2.1861
X3.018Y-1.2794
X3.0213Y-1.9455
X3.0213Y-2.4661
X3.0213Y-3.1019
X3.0213Y-3.3181
X3.0213Y-3.6941
X3.0213Y-4.0576
X3.036Y-4.3159
X3.0618Y-4.9745
X3.0985Y-4.2855
X3.1132Y-4.882
X3.1141Y-2.0255
X3.1142Y-4.8243
X3.118Y-3.7887
X3.159Y-3.8368
X3.2153Y-1.8022
X3.2153Y-3.2221
X3.2223Y-0.835
X3.2388Y-4.3067
X3.2405Y-5.0888
X3.2468Y-4.2241
X3.25Y-3.7056
X3.25Y-3.9403
X3.2502Y-1.6972
X3.2623Y-4.5035
X3.268Y-4.1071
X3.2748Y-2.4483
X3.2785Y-1.9688
X3.2785Y-2.4114
X3.2809Y-2.3755
X3.3086Y-1.7788
X3.3729Y-1.3207
X3.3729Y-1.6974
X3.3807Y-1.788
X3.4023Y-7.1579
X3.4451Y-2.7645
X3.471Y-2.3087
X3.4731Y-1.8718
X3.5Y-5.5373
X3.5Y-6.2515
X3.5Y-6.2874
X3.5Y-7.0872
X3.5Y-7.1477
X3.5306Y-5.4999
X3.5571Y-2.5628
X3.6Y-3.7056
X3.6Y-3.9403
X3.6479Y-2.5622
X3.6684Y-2.6287
X3.6972Y-3.7056
X3.7244Y-1.3207
X3.7244Y-1.6967
X3.7244Y-2.0628
X3.7244Y-3.3181
X3.7244Y-3.9085
X3.7244Y-4.0576
X3.7244Y-4.5049
X3.7244Y-4.879
X3.95Y-3.7056
X3.95Y-3.9403
X3.9506Y-5.6145
X3.9512Y-2.5479
X3.9643Y-1.6913
X3.9643Y-2.2847
X3.9691Y-1.9223
X3.9691Y-2.1306
X4.0684Y-3.3858
X4.076Y-4.0491
X4.076Y-4.5049
X4.076Y-4.671
X4.1619Y-2.2847
X4.1749Y-1.5823
X4.1858Y-3.5025
X4.2Y-5.8242
X4.2297Y-5.2127
X4.2567Y-1.3755
X4.2986Y-2.9134
X4.3Y-3.7056
X4.3Y-3.9403
X4.3143Y-4.4994
X4.318Y-4.1071
X4.351Y-4.8435
X4.3918Y-1.3914
X4.4215Y-3.5902
X4.4276Y-1.372
X4.4276Y-1.4908
X4.4276Y-3.3181
X4.4364Y-3.2383
X4.5392Y-2.1861
X4.5392Y-2.4025
X4.55Y-5.8169
X4.55Y-5.8883
X4.55Y-6.7362
X4.5792Y-4.8435
X4.5838Y-1.955
X4.5911Y-5.1525
X4.6083Y-2.2282
X4.6124Y-2.5623
X4.6248Y-1.442
X4.65Y-1.8535
X4.65Y-3.3181
X4.65Y-3.7056
X4.65Y-3.9403
X4.6635Y-1.4715
X4.665Y-5.9351
X4.6691Y-1.3223
X4.745Y-3.5902
X4.7746Y-1.3717
X4.7746Y-2.0264
X4.7791Y-1.9455
X4.7791Y-2.09
X4.7791Y-2.6495
X4.7791Y-3.6738
X4.7791Y-4.0491
X4.7791Y-4.5049
X4.7791Y-4.671
X4.7794Y-2.185
X4.865Y-1.6913
X4.8663Y-3.421
X4.9617Y-3.4394
X4.9878Y-3.5029
X4.9933Y-4.1982
X5.Y-3.7056
X5.Y-3.9403
X5.0055Y-3.3127
X5.01Y-0.6838
X5.0541Y-4.0328
X5.1277Y-6.7565
X5.1307Y-1.3207
X5.1307Y-1.4761
X5.1307Y-1.6967
X5.1307Y-1.9141
X5.1307Y-2.7345
X5.1307Y-4.3048
X5.1307Y-4.671
X5.131Y-4.9589
X5.1404Y-2.0536
X5.1462Y-3.3756
X5.2024Y-4.1778
X5.2102Y-2.1097
X5.2295Y-3.9913
X5.2309Y-3.7056
X5.2309Y-4.2923
X5.2454Y-6.2896
X5.2454Y-7.1086
X5.2773Y-5.9215
X5.2897Y-3.9662
X5.3149Y-5.5455
X5.3168Y-3.5613
X5.3441Y-2.4516
X5.3466Y-5.7004
X5.35Y-6.7866
X5.3532Y-2.4114
X5.3544Y-5.4878
X5.361Y-4.7769
X5.3631Y-6.5149
X5.3632Y-1.9083
X5.3635Y-1.4715
X5.3643Y-1.6913
X5.3691Y-1.3223
X5.3691Y-2.1306
X5.3939Y-4.6074
X5.396Y-2.3989
X5.4019Y-6.6657
X5.4019Y-6.8922
X5.4234Y-1.9688
X5.4511Y-4.5049
X5.4511Y-4.671
X5.4652Y-4.1836
X5.4684Y-2.9985
X5.4684Y-3.3181
X5.4684Y-3.4709
X5.4822Y-5.8002
X5.4822Y-6.1583
X5.4822Y-6.3936
X5.484Y-2.1995
X5.484Y-2.5322
X5.4853Y-5.0133
X5.5134Y-4.5684
X5.529Y-2.7999
X5.529Y-4.0231
X5.5968Y-2.7994
X5.6089Y-4.1731
X5.6413Y-3.9662
X5.6639Y-4.2241
X5.7045Y-1.9153
X5.7118Y-2.0911
X5.7123Y-6.5913
X5.7126Y-5.2348
X5.713Y-3.1245
X5.7135Y-1.4715
X5.7143Y-1.6913
X5.7162Y-7.2259
X5.7191Y-1.3223
X5.7422Y-0.7354
X5.762Y-4.0397
X5.7677Y-3.5741
X5.7863Y-0.7022
X5.8337Y-5.9667
X5.8339Y-0.7354
X5.8339Y-2.2901
X5.8339Y-2.7248
X5.8339Y-3.9403
X5.8339Y-5.7004
X5.8339Y-6.9873
X5.9179Y-3.1524
X5.9319Y-3.7127
X5.9768Y-3.3598
X5.9862Y-4.3564
X5.9928Y-4.5596
X5.9928Y-4.6261
X6.0391Y-4.3245
X6.05Y-2.4562
X6.05Y-5.3422
X6.05Y-5.9471
X6.05Y-5.8002
X6.0545Y-1.9153
X6.0618Y-2.0911
X6.0635Y-1.4715
X6.0643Y-1.6913
X6.0643Y-2.2847
X6.0645Y-3.7162
X6.0691Y-1.3223
X6.2174Y-6.13
X6.2815Y-4.2966
X6.2855Y-6.4109
X6.2899Y-4.393
X6.3047Y-4.1836
X6.3047Y-6.2896
X6.3405Y-4.4414
X6.3444Y-3.9662
X6.3621Y-6.7322
X6.4015Y-3.7056
X6.4113Y-3.6272
X6.4135Y-1.4715
X6.4143Y-1.6913
X6.4191Y-1.3223
X6.4458Y-2.5622
X6.4601Y-3.5544
X6.4717Y-6.6657
X6.4855Y-6.058
X6.5402Y-1.9141
X6.5402Y-3.3181
X6.5402Y-3.7056
X6.5402Y-5.3484
X6.614Y-2.1289
X6.6228Y-5.7948
X6.635Y-2.3087
X6.6371Y-2.5322
X6.6579Y-4.6261
X6.6794Y-3.8154
X6.7519Y-5.9647
X6.7555Y-1.9087
X6.7555Y-3.9061
X6.7567Y-3.1152
X6.7594Y-3.3729
X6.7615Y-5.2351
X6.7618Y-2.0911
X6.7628Y-3.467
X6.7635Y-5.6052
X6.7635Y-1.4715
X6.7643Y-1.6913
X6.7691Y-1.3223
X6.7756Y-2.4114
X6.7756Y-2.9239
X6.7756Y-4.1836
X6.7756Y-5.9215
X6.849Y-3.515
X6.8933Y-3.3314
X6.8933Y-4.1288
X6.8933Y-4.2875
X6.8933Y-4.5049
X6.9876Y-2.5311
X6.9887Y-4.8577
X6.9887Y-6.4104
X7.0101Y-6.2894
X7.0103Y-6.0723
X7.0436Y-3.3572
X7.0475Y-6.6657
X7.0475Y-6.7322
X7.1046Y-5.8096
X7.1055Y-1.9087
X7.1114Y-4.671
X7.1118Y-2.0911
X7.1135Y-1.4715
X7.1143Y-1.6913
X7.1143Y-4.2821
X7.1143Y-4.4994
X7.1145Y-2.3122
X7.1191Y-1.3223
X7.1191Y-4.128
X7.1287Y-3.8154
X7.2111Y-2.858
X7.2464Y-2.7964
X7.2464Y-5.3484
X7.2464Y-5.5992
X7.3391Y-5.2231
X7.3641Y-5.7004
X7.4545Y-1.3153
X7.4555Y-1.9087
X7.4618Y-2.0911
X7.4628Y-3.467
X7.4635Y-1.4715
X7.4643Y-1.6913
X7.4643Y-5.5775
X7.4645Y-2.3122
X7.4645Y-3.7162
X7.4818Y-3.2124
X7.5327Y-4.4089
X7.5641Y-2.8039
X7.6538Y-3.0137
X7.6907Y-2.5311
X7.6918Y-6.4104
X7.6961Y-3.0131
X7.7132Y-6.2894
X7.7134Y-6.0723
X7.7149Y-6.7322
X7.7483Y-6.6657
X7.7971Y-4.0741
X7.8045Y-1.3153
X7.8055Y-1.9087
X7.8077Y-5.3868
X7.8077Y-5.8178
X7.8078Y-3.3132
X7.8118Y-2.0911
X7.8135Y-1.4715
X7.8143Y-1.6913
X7.8145Y-2.3122
X7.8349Y-7.3919
X7.8458Y-5.5455
X7.9526Y-0.7354
X7.9526Y-3.4709
X7.9526Y-6.9869
X8.0264Y-3.9186
X8.0703Y-0.6569
X8.1322Y-5.6037
X8.1429Y-4.1869
X8.1558Y-3.9062
X8.1563Y-1.3156
X8.1606Y-5.2535
X8.1615Y-4.0892
X8.1631Y-3.4671
X8.1638Y-1.4716
X8.1646Y-1.6914
X8.1646Y-4.2822
X8.188Y-3.2124
X8.2181Y-4.8435
X8.2185Y-5.1275
X8.304Y-1.9141
X8.304Y-4.5049
X8.3057Y-0.7893
X8.3629Y-2.1312
X8.3928Y-2.3087
X8.3938Y-2.5311
X8.3949Y-6.4104
X8.4165Y-6.0723
X8.4165Y-6.2872
X8.418Y-6.6657
X8.418Y-6.7322
X8.4196Y-4.6074
X8.5069Y-1.3158
X8.5069Y-1.9091
X8.5069Y-3.3132
X8.5069Y-3.9066
X8.5108Y-5.8178
X8.5114Y-4.671
X8.5143Y-3.4675
X8.5149Y-1.472
X8.5158Y-1.6918
X8.5158Y-4.2826
X8.516Y-3.0967
X8.5164Y-3.1655
X8.5172Y-5.3281
X8.5172Y-5.7004
X8.5411Y-1.591
X8.5411Y-4.4089
X8.581Y-6.6657
X8.6261Y-2.2973
X8.6588Y-2.0628
X8.6588Y-2.3066
X8.6588Y-4.0604
X8.6588Y-5.2311
X8.6842Y-5.0888
X8.7724Y-5.0129
X8.7765Y-1.7741
X8.7765Y-2.1861
X8.823Y-4.2501
X8.8328Y-5.2663
X8.8581Y-1.9095
X8.8581Y-3.9069
X8.8581Y-4.5003
X8.8592Y-4.6847
X8.8638Y-4.09
X8.8655Y-3.495
X8.8669Y-4.283
X8.895Y-7.1117
X8.9212Y-3.1555
X9.012Y-5.4658
X9.0335Y-1.6452
X9.098Y-1.3168
X9.098Y-1.7172
X9.098Y-5.5974
X9.098Y-6.4125
X9.1197Y-6.0723
X9.1197Y-6.2872
X9.1197Y-6.7322
X9.1211Y-6.6657
X9.1297Y-1.7976
X9.2077Y-3.4346
X9.2093Y-3.9073
X9.2139Y-5.8178
X9.215Y-4.0904
X9.2171Y-4.688
X9.2181Y-4.2834
X9.2324Y-1.8211
X9.2474Y-0.7623
X9.2474Y-1.3755
X9.2474Y-4.4089
X9.2474Y-7.2259
X9.2594Y-3.2221
X9.3651Y-5.5831
X9.3651Y-6.987
X9.372Y-3.1227
X9.4343Y-1.9455
X9.4496Y-1.7108
X9.4981Y-2.0353
X9.535Y-1.0092
X9.5631Y-3.4767
X9.5691Y-3.1225
X9.6204Y-6.9278
X9.7182Y-4.6444
X9.8011Y-1.3168
X9.8011Y-3.9075
X9.8011Y-5.5974
X9.8153Y-1.9587
X9.8207Y-3.8061
X9.8221Y-4.3986
X9.8221Y-6.5047
X9.8228Y-1.5878
X9.8228Y-2.1906
X9.8228Y-4.1836
X9.8228Y-6.0723
X9.8228Y-6.2872
X9.8242Y-4.5596
X9.8242Y-6.6657
X9.8242Y-6.7322
X9.8874Y-2.9861
X9.9071Y-2.2901
X9.9131Y-2.6868
X9.9171Y-3.4931
X9.9171Y-5.801
X9.9536Y-0.8259
X9.9536Y-2.9958
X9.9536Y-6.0723
X9.9593Y-5.1046
X9.9759Y-3.1555
X9.9791Y-4.567
X9.9798Y-4.6172
X9.9804Y-3.9662
X9.9804Y-4.1836
X9.9804Y-4.4088
X9.9872Y-1.9688
X9.9872Y-5.7004
X9.9872Y-6.2896
X9.9872Y-6.6657
X10.0713Y-1.7108
X10.0713Y-2.2975
X10.0713Y-1.5829
X10.0901Y-6.5117
X10.1032Y-3.0016
X10.1066Y-1.7108
X10.1527Y-6.5735
X10.189Y-2.0353
X10.189Y-4.5596
X10.2336Y-6.789
X10.4244Y-2.5322
X10.4244Y-4.7617
X10.4244Y-6.7565
X10.4563Y-6.5055
T2
X1.05Y-2.
X1.05Y-2.0394
X1.05Y-2.0787
X1.05Y-2.1181
X1.05Y-2.1575
X1.05Y-2.1969
X1.05Y-2.2362
X1.05Y-2.2756
X1.05Y-2.315
X1.05Y-2.3543
X1.05Y-2.3937
X1.05Y-2.4331
X1.05Y-2.4724
X1.05Y-2.5118
X1.05Y-2.5512
X1.05Y-2.5906
X1.05Y-2.6299
X1.05Y-2.6693
X1.05Y-2.7087
X1.05Y-2.748
X1.05Y-2.7874
X1.05Y-2.8268
X1.05Y-2.8661
X1.05Y-2.9055
X1.05Y-2.9449
X1.05Y-2.9843
X1.05Y-3.0236
X1.05Y-3.063
X1.05Y-3.1024
X1.05Y-3.1417
X1.05Y-3.1811
X1.05Y-3.2205
X1.05Y-3.6
X1.05Y-3.6394
X1.05Y-3.6787
X1.05Y-3.7181
X1.05Y-3.7575
X1.05Y-3.7969
X1.05Y-3.8362
X1.05Y-3.8756
X1.05Y-3.915
X1.05Y-3.9543
X1.0894Y-2.
X1.0894Y-2.0394
X1.0894Y-2.0787
X1.0894Y-2.1181
X1.0894Y-2.1575
X1.0894Y-2.1969
X1.0894Y-2.2362
X1.0894Y-2.2756
X1.0894Y-2.315
X1.0894Y-2.3543
X1.0894Y-2.3937
X1.0894Y-2.4331
X1.0894Y-2.4724
X1.0894Y-2.5118
X1.0894Y-2.5512
X1.0894Y-2.5906
X1.0894Y-2.6299
X1.0894Y-2.6693
X1.0894Y-2.7087
X1.0894Y-2.748
X1.0894Y-2.7874
X1.0894Y-2.8268
X1.0894Y-2.8661
X1.0894Y-2.9055
X1.0894Y-2.9449
X1.0894Y-2.9843
X1.0894Y-3.0236
X1.0894Y-3.063
X1.0894Y-3.1024
X1.0894Y-3.1417
X1.0894Y-3.1811
X1.0894Y-3.2205
X1.0894Y-3.6
X1.0894Y-3.6394
X1.0894Y-3.6787
X1.0894Y-3.7181
X1.0894Y-3.7575
X1.0894Y-3.7969
X1.0894Y-3.8362
X1.0894Y-3.8756
X1.0894Y-3.915
X1.0894Y-3.9543
T0
M30
