G04 #@! TF.FileFunction,Copper,L2,Bot,Signal*
%FSLAX46Y46*%
G04 Gerber Fmt 4.6, Leading zero omitted, Abs format (unit mm)*
G04 Created by KiCad (PCBNEW 4.0.7) date 04/05/19 11:13:47*
%MOMM*%
%LPD*%
G01*
G04 APERTURE LIST*
%ADD10C,0.100000*%
%ADD11R,0.850000X0.850000*%
%ADD12O,0.850000X0.850000*%
%ADD13C,0.600000*%
%ADD14C,0.250000*%
G04 APERTURE END LIST*
D10*
D11*
X26670000Y-50800000D03*
D12*
X27670000Y-50800000D03*
X26670000Y-51800000D03*
X27670000Y-51800000D03*
X26670000Y-52800000D03*
X27670000Y-52800000D03*
X26670000Y-53800000D03*
X27670000Y-53800000D03*
X26670000Y-54800000D03*
X27670000Y-54800000D03*
X26670000Y-55800000D03*
X27670000Y-55800000D03*
X26670000Y-56800000D03*
X27670000Y-56800000D03*
X26670000Y-57800000D03*
X27670000Y-57800000D03*
X26670000Y-58800000D03*
X27670000Y-58800000D03*
X26670000Y-59800000D03*
X27670000Y-59800000D03*
X26670000Y-60800000D03*
X27670000Y-60800000D03*
X26670000Y-61800000D03*
X27670000Y-61800000D03*
X26670000Y-62800000D03*
X27670000Y-62800000D03*
X26670000Y-63800000D03*
X27670000Y-63800000D03*
X26670000Y-64800000D03*
X27670000Y-64800000D03*
X26670000Y-65800000D03*
X27670000Y-65800000D03*
X26670000Y-66800000D03*
X27670000Y-66800000D03*
X26670000Y-67800000D03*
X27670000Y-67800000D03*
X26670000Y-68800000D03*
X27670000Y-68800000D03*
X26670000Y-69800000D03*
X27670000Y-69800000D03*
X26670000Y-70800000D03*
X27670000Y-70800000D03*
X26670000Y-71800000D03*
X27670000Y-71800000D03*
X26670000Y-72800000D03*
X27670000Y-72800000D03*
X26670000Y-73800000D03*
X27670000Y-73800000D03*
X26670000Y-74800000D03*
X27670000Y-74800000D03*
X26670000Y-75800000D03*
X27670000Y-75800000D03*
X26670000Y-76800000D03*
X27670000Y-76800000D03*
X26670000Y-77800000D03*
X27670000Y-77800000D03*
X26670000Y-78800000D03*
X27670000Y-78800000D03*
X26670000Y-79800000D03*
X27670000Y-79800000D03*
X26670000Y-80800000D03*
X27670000Y-80800000D03*
X26670000Y-81800000D03*
X27670000Y-81800000D03*
D11*
X26670000Y-91440000D03*
D12*
X27670000Y-91440000D03*
X26670000Y-92440000D03*
X27670000Y-92440000D03*
X26670000Y-93440000D03*
X27670000Y-93440000D03*
X26670000Y-94440000D03*
X27670000Y-94440000D03*
X26670000Y-95440000D03*
X27670000Y-95440000D03*
X26670000Y-96440000D03*
X27670000Y-96440000D03*
X26670000Y-97440000D03*
X27670000Y-97440000D03*
X26670000Y-98440000D03*
X27670000Y-98440000D03*
X26670000Y-99440000D03*
X27670000Y-99440000D03*
X26670000Y-100440000D03*
X27670000Y-100440000D03*
D13*
X67199200Y-48549700D03*
X67106300Y-34334000D03*
X66317500Y-67187100D03*
X64971700Y-53927600D03*
X75110000Y-55992500D03*
X74155900Y-48438800D03*
X74947800Y-34428000D03*
X75382700Y-66654400D03*
X84952400Y-38100000D03*
X84952400Y-53340000D03*
X84952400Y-48344600D03*
X92890000Y-55880000D03*
X92768300Y-49632300D03*
X91802900Y-42959400D03*
X94074200Y-34133400D03*
X31514800Y-51116900D03*
X103136200Y-48369400D03*
X102814400Y-53340000D03*
X102742200Y-38162300D03*
X111645000Y-48260000D03*
X111633900Y-53340000D03*
X111645000Y-40473700D03*
X109670600Y-34020800D03*
X51279000Y-50391700D03*
X118111000Y-43097200D03*
X118423600Y-33699300D03*
X118515000Y-58474000D03*
X118111000Y-52858200D03*
X30714200Y-49033600D03*
X80040400Y-49771100D03*
X129414100Y-53392800D03*
X130168600Y-42946600D03*
X128880400Y-34384900D03*
X129414100Y-58303400D03*
X138314200Y-38100000D03*
X137340000Y-45385400D03*
X138304800Y-53340000D03*
X82799800Y-33201900D03*
X148010700Y-42928700D03*
X148181700Y-33546400D03*
X148160700Y-52737000D03*
X148160700Y-46434700D03*
X154153500Y-37147900D03*
X154153500Y-43180000D03*
X136251000Y-20014700D03*
X156412400Y-53353600D03*
X163962900Y-51697700D03*
X166064900Y-37438300D03*
X162924700Y-58740800D03*
X65604900Y-55800000D03*
X173472100Y-62121700D03*
X175089000Y-53087700D03*
X174790700Y-48310500D03*
X174517500Y-37257800D03*
X181790000Y-40640000D03*
X181790000Y-60960000D03*
X181790000Y-50007700D03*
X180818000Y-33020000D03*
X169016300Y-51692400D03*
X65610100Y-56800000D03*
X183285700Y-19520600D03*
X190599700Y-34374300D03*
X192692300Y-58420000D03*
X189728500Y-64216600D03*
X199570000Y-60960000D03*
X200549300Y-53340000D03*
X147540500Y-40784200D03*
X33630300Y-57800000D03*
X198463100Y-42958400D03*
X198598000Y-33020000D03*
X209808700Y-38100000D03*
X201849200Y-18873100D03*
X209808700Y-48260000D03*
X207487000Y-64076100D03*
X209808700Y-58168400D03*
X217350000Y-60960000D03*
X217236100Y-51988900D03*
X202570900Y-20590700D03*
X63326800Y-20716700D03*
X216392200Y-38100000D03*
X216328600Y-33392800D03*
X227198100Y-53340000D03*
X227706300Y-38100000D03*
X227198100Y-48442100D03*
X225284600Y-63500000D03*
X236110700Y-53340000D03*
X235146700Y-62121900D03*
X235130000Y-67210400D03*
X236600400Y-41849200D03*
X234034100Y-33546400D03*
X208583500Y-17797400D03*
X65893000Y-17984900D03*
X244103700Y-46883700D03*
X244103700Y-54729000D03*
X243043600Y-63500000D03*
X244103700Y-36626500D03*
X251569400Y-68580000D03*
X252821200Y-61248500D03*
X252821200Y-51697700D03*
X251893200Y-43102000D03*
X255075500Y-33546400D03*
X49591000Y-68326000D03*
X44742100Y-63438400D03*
X67044800Y-17556500D03*
X65254300Y-99234800D03*
X65254300Y-93980000D03*
X76108200Y-105492900D03*
X74158200Y-83820000D03*
X76134800Y-114379100D03*
X76108200Y-94056600D03*
X84964900Y-119380000D03*
X85118600Y-94339600D03*
X82747700Y-79935200D03*
X84971300Y-104140000D03*
X93840700Y-104140000D03*
X93840700Y-93853800D03*
X78429600Y-66547700D03*
X93840700Y-109220000D03*
X92714600Y-80091700D03*
X102738200Y-93980000D03*
X102738200Y-114423200D03*
X70969900Y-85553900D03*
X60840000Y-80298400D03*
X101780000Y-118012200D03*
X102738200Y-104039400D03*
X110869200Y-107867900D03*
X111635600Y-104157800D03*
X82445900Y-67271000D03*
X112009800Y-94032100D03*
X111631800Y-78615500D03*
X120531400Y-93961300D03*
X115505000Y-97595800D03*
X120521900Y-109220000D03*
X25465100Y-89932500D03*
X129401900Y-104045400D03*
X130243500Y-93831400D03*
X130212100Y-84280700D03*
X129401900Y-109406700D03*
X67812300Y-67582400D03*
X135141600Y-86318100D03*
X117321100Y-76781500D03*
X138320800Y-114058300D03*
X136268600Y-108222700D03*
X126531200Y-70495300D03*
X145278900Y-104140000D03*
X137395200Y-80150200D03*
X146233400Y-118011100D03*
X146233400Y-111982700D03*
X155120000Y-111955900D03*
X155120000Y-121807400D03*
X154156200Y-104084800D03*
X152605000Y-96520000D03*
X156099400Y-88900000D03*
X130884800Y-97245000D03*
X22494400Y-85760000D03*
X166119900Y-84280700D03*
X166119900Y-78760200D03*
X163250000Y-70895600D03*
X164962400Y-109130600D03*
X164962400Y-113828700D03*
X172900000Y-96520000D03*
X173856500Y-88900000D03*
X172900000Y-110604900D03*
X135943900Y-96621000D03*
X24914500Y-87295800D03*
X181790000Y-110588200D03*
X181787400Y-102787200D03*
X189726500Y-110123200D03*
X189726500Y-93980000D03*
X189726500Y-104140000D03*
X179033300Y-76505200D03*
X186099200Y-71571000D03*
X198589400Y-83820000D03*
X198576100Y-114987600D03*
X200921300Y-108902700D03*
X200599100Y-99300100D03*
X209423900Y-93939100D03*
X210651300Y-100083700D03*
X213955100Y-117503200D03*
X205647400Y-126251400D03*
X46225800Y-121229400D03*
X165131900Y-72362600D03*
X216382300Y-104140000D03*
X217350000Y-96840500D03*
X224309600Y-76051000D03*
X226264600Y-85201700D03*
X225264900Y-119380000D03*
X225260200Y-114357700D03*
X226240000Y-96911500D03*
X234884300Y-111982700D03*
X236178100Y-104140000D03*
X236110500Y-78760100D03*
X236178100Y-83820000D03*
X223805600Y-72149800D03*
X234176200Y-119380000D03*
X243069000Y-109278500D03*
X243069000Y-114663700D03*
X243069000Y-99242900D03*
X246660700Y-78595100D03*
X252910000Y-91440000D03*
X252910000Y-97684400D03*
X252910000Y-80102600D03*
X251914200Y-73271200D03*
X252889000Y-118000900D03*
X136367200Y-168115000D03*
X136386600Y-162560000D03*
X45318300Y-119436500D03*
X147189100Y-152400000D03*
X147189100Y-162397200D03*
X145188500Y-147142600D03*
X145192300Y-166955700D03*
X156452600Y-152695500D03*
X156452600Y-159693700D03*
X156339100Y-167640000D03*
X156220800Y-142240000D03*
X46851100Y-127644700D03*
X164010000Y-170180000D03*
X164010000Y-160020000D03*
X164980600Y-152400000D03*
X164962400Y-142240000D03*
X173862300Y-157480000D03*
X171398800Y-164280400D03*
X47265400Y-156040300D03*
X175089000Y-147325900D03*
X172962900Y-171360800D03*
X173620100Y-133369700D03*
X181790000Y-170180000D03*
X180836900Y-162560000D03*
X180487100Y-152713400D03*
X180702900Y-142294400D03*
X189710300Y-157037200D03*
X191645100Y-147130200D03*
X190105200Y-174258600D03*
X55903200Y-80072100D03*
X198582700Y-157551400D03*
X200524300Y-147394100D03*
X200553200Y-162925400D03*
X210202800Y-150752200D03*
X195882100Y-126728500D03*
X50897700Y-114102500D03*
X207975700Y-138822100D03*
X207245400Y-166867300D03*
X210202800Y-157316500D03*
X217350000Y-154827400D03*
X219041200Y-146883100D03*
X218335200Y-162242500D03*
X227973600Y-160020000D03*
X52951500Y-82378000D03*
X224996200Y-152731000D03*
X225237900Y-142332500D03*
X228903600Y-157295200D03*
X228903600Y-138830200D03*
X169109600Y-74338900D03*
X51552600Y-127626100D03*
X57365000Y-129100300D03*
X52213800Y-128104100D03*
X115432600Y-174459500D03*
X54293600Y-81048100D03*
X27314100Y-152089900D03*
X27654400Y-173884100D03*
X51240400Y-142834300D03*
X41605700Y-167847600D03*
X49442900Y-134305800D03*
X39633000Y-153232300D03*
X78428600Y-173883800D03*
X63640600Y-121089500D03*
X87666500Y-146108300D03*
X64590500Y-122375000D03*
X103504600Y-166425700D03*
X70292000Y-141885500D03*
X48584800Y-134395100D03*
X31285800Y-133254500D03*
X40055300Y-158968800D03*
X42241600Y-178928600D03*
X40258400Y-140763000D03*
X92461300Y-154474500D03*
X86331900Y-145862200D03*
X40258400Y-153751000D03*
X252821200Y-77111100D03*
X248948300Y-22590700D03*
X50896300Y-140738800D03*
X57498800Y-85425000D03*
X249156500Y-135686200D03*
X251893200Y-132264100D03*
X260744100Y-33689200D03*
X260657700Y-84472500D03*
X255810900Y-135849700D03*
X41413500Y-159727600D03*
X59399600Y-87325900D03*
X250010000Y-138541300D03*
X248948300Y-142210900D03*
X250435000Y-85206400D03*
X246461100Y-38969900D03*
X253882000Y-142668100D03*
X40753100Y-181263400D03*
X61640800Y-89567100D03*
X250110200Y-148716000D03*
X240862400Y-40473700D03*
X237855400Y-89241700D03*
X255339300Y-147771700D03*
X61006800Y-95155500D03*
X60927800Y-149563500D03*
X142351200Y-99060000D03*
X136347600Y-97881100D03*
X151264400Y-99032600D03*
X165310000Y-97103200D03*
X237512700Y-105107400D03*
X170000000Y-44562600D03*
X240862400Y-150534800D03*
X255339300Y-150752200D03*
X60987300Y-172400000D03*
X63735600Y-100425300D03*
X249057900Y-157480000D03*
X261123800Y-105973300D03*
X262767600Y-54363300D03*
X86308400Y-138498400D03*
X81462100Y-105492900D03*
X257877900Y-157416700D03*
X249036000Y-162560000D03*
X231274600Y-162898700D03*
X255419200Y-114971500D03*
X257877900Y-162674200D03*
X262070200Y-55896700D03*
X230935700Y-167121000D03*
X223169500Y-115655900D03*
X249218800Y-168919600D03*
X111214300Y-181990800D03*
X119208700Y-176550200D03*
X214552400Y-115663300D03*
X223340000Y-59785200D03*
X257877900Y-167817500D03*
X120887400Y-125238900D03*
X114435400Y-150375900D03*
X112460100Y-69441700D03*
X132794200Y-169377500D03*
X111648000Y-138663900D03*
D14*
X64971700Y-50777200D02*
X64971700Y-53927600D01*
X67199200Y-48549700D02*
X64971700Y-50777200D01*
X64971700Y-65841300D02*
X66317500Y-67187100D01*
X64971700Y-53927600D02*
X64971700Y-65841300D01*
X67199200Y-34426900D02*
X67106300Y-34334000D01*
X67199200Y-48549700D02*
X67199200Y-34426900D01*
X75110000Y-49392900D02*
X75110000Y-55992500D01*
X74155900Y-48438800D02*
X75110000Y-49392900D01*
X74155900Y-35219900D02*
X74155900Y-48438800D01*
X74947800Y-34428000D02*
X74155900Y-35219900D01*
X75382700Y-56265200D02*
X75110000Y-55992500D01*
X75382700Y-66654400D02*
X75382700Y-56265200D01*
X84952400Y-38100000D02*
X84952400Y-48344600D01*
X84952400Y-48344600D02*
X84952400Y-53340000D01*
X92768300Y-55758300D02*
X92768300Y-49632300D01*
X92890000Y-55880000D02*
X92768300Y-55758300D01*
X91802900Y-48666900D02*
X91802900Y-42959400D01*
X92768300Y-49632300D02*
X91802900Y-48666900D01*
X94074200Y-40688100D02*
X94074200Y-34133400D01*
X91802900Y-42959400D02*
X94074200Y-40688100D01*
X26670000Y-52800000D02*
X25919700Y-52800000D01*
X31434300Y-51036400D02*
X31514800Y-51116900D01*
X29532900Y-51036400D02*
X31434300Y-51036400D01*
X28540300Y-50043800D02*
X29532900Y-51036400D01*
X26098600Y-50043800D02*
X28540300Y-50043800D01*
X25919700Y-50222700D02*
X26098600Y-50043800D01*
X25919700Y-52800000D02*
X25919700Y-50222700D01*
X103136200Y-53018200D02*
X102814400Y-53340000D01*
X103136200Y-48369400D02*
X103136200Y-53018200D01*
X102742200Y-47975400D02*
X102742200Y-38162300D01*
X103136200Y-48369400D02*
X102742200Y-47975400D01*
X111645000Y-48260000D02*
X111645000Y-40473700D01*
X111645000Y-53328900D02*
X111633900Y-53340000D01*
X111645000Y-48260000D02*
X111645000Y-53328900D01*
X109670600Y-38499300D02*
X109670600Y-34020800D01*
X111645000Y-40473700D02*
X109670600Y-38499300D01*
X109156200Y-33506400D02*
X109670600Y-34020800D01*
X83379700Y-33506400D02*
X109156200Y-33506400D01*
X83058900Y-33827200D02*
X83379700Y-33506400D01*
X77253800Y-33827200D02*
X83058900Y-33827200D01*
X77123300Y-33696700D02*
X77253800Y-33827200D01*
X66853900Y-33696700D02*
X77123300Y-33696700D01*
X51279000Y-49271600D02*
X66853900Y-33696700D01*
X51279000Y-50391700D02*
X51279000Y-49271600D01*
X118111000Y-43097200D02*
X118111000Y-52858200D01*
X86800500Y-56531200D02*
X80040400Y-49771100D01*
X118111000Y-56531200D02*
X86800500Y-56531200D01*
X118515000Y-56935200D02*
X118111000Y-56531200D01*
X118515000Y-58474000D02*
X118515000Y-56935200D01*
X118111000Y-56531200D02*
X118111000Y-52858200D01*
X26670000Y-53800000D02*
X25919700Y-53800000D01*
X118423600Y-42784600D02*
X118423600Y-33699300D01*
X118111000Y-43097200D02*
X118423600Y-42784600D01*
X26426700Y-49033600D02*
X30714200Y-49033600D01*
X25453400Y-50006900D02*
X26426700Y-49033600D01*
X25453400Y-53333700D02*
X25453400Y-50006900D01*
X25919700Y-53800000D02*
X25453400Y-53333700D01*
X130168600Y-52638300D02*
X130168600Y-42946600D01*
X129414100Y-53392800D02*
X130168600Y-52638300D01*
X129414100Y-53392800D02*
X129414100Y-58303400D01*
X130168600Y-35673100D02*
X128880400Y-34384900D01*
X130168600Y-42946600D02*
X130168600Y-35673100D01*
X137340000Y-52375200D02*
X138304800Y-53340000D01*
X137340000Y-45385400D02*
X137340000Y-52375200D01*
X82945700Y-33056000D02*
X82799800Y-33201900D01*
X129072800Y-33056000D02*
X82945700Y-33056000D01*
X136215500Y-40198700D02*
X129072800Y-33056000D01*
X138314200Y-38100000D02*
X136215500Y-40198700D01*
X136215500Y-44260900D02*
X137340000Y-45385400D01*
X136215500Y-40198700D02*
X136215500Y-44260900D01*
X148181700Y-42757700D02*
X148181700Y-33546400D01*
X148010700Y-42928700D02*
X148181700Y-42757700D01*
X148160700Y-43078700D02*
X148160700Y-46434700D01*
X148010700Y-42928700D02*
X148160700Y-43078700D01*
X148160700Y-46434700D02*
X148160700Y-52737000D01*
X131566500Y-16931200D02*
X148181700Y-33546400D01*
X65943500Y-16931200D02*
X131566500Y-16931200D01*
X50726200Y-32148500D02*
X65943500Y-16931200D01*
X50726200Y-32678200D02*
X50726200Y-32148500D01*
X32140100Y-51264300D02*
X50726200Y-32678200D01*
X32140100Y-51376000D02*
X32140100Y-51264300D01*
X31773900Y-51742200D02*
X32140100Y-51376000D01*
X31662200Y-51742200D02*
X31773900Y-51742200D01*
X28604400Y-54800000D02*
X31662200Y-51742200D01*
X27670000Y-54800000D02*
X28604400Y-54800000D01*
X154153500Y-43180000D02*
X154153500Y-37147900D01*
X156412400Y-45438900D02*
X154153500Y-43180000D01*
X156412400Y-53353600D02*
X156412400Y-45438900D01*
X153384200Y-37147900D02*
X136251000Y-20014700D01*
X154153500Y-37147900D02*
X153384200Y-37147900D01*
X166064900Y-49595700D02*
X166064900Y-37438300D01*
X163962900Y-51697700D02*
X166064900Y-49595700D01*
X162924700Y-58740800D02*
X162779500Y-58595500D01*
X163962900Y-57412100D02*
X163962900Y-51697700D01*
X162779500Y-58595500D02*
X163962900Y-57412100D01*
X66617000Y-56812100D02*
X65604900Y-55800000D01*
X66617000Y-58779200D02*
X66617000Y-56812100D01*
X75151100Y-67313300D02*
X66617000Y-58779200D01*
X75669400Y-67313300D02*
X75151100Y-67313300D01*
X76035600Y-66947100D02*
X75669400Y-67313300D01*
X76035600Y-66736200D02*
X76035600Y-66947100D01*
X77999800Y-64772000D02*
X76035600Y-66736200D01*
X78438300Y-64772000D02*
X77999800Y-64772000D01*
X78556200Y-64654100D02*
X78438300Y-64772000D01*
X156720900Y-64654100D02*
X78556200Y-64654100D01*
X162779500Y-58595500D02*
X156720900Y-64654100D01*
X175089000Y-60504800D02*
X173472100Y-62121700D01*
X175089000Y-53087700D02*
X175089000Y-60504800D01*
X175089000Y-48608800D02*
X174790700Y-48310500D01*
X175089000Y-53087700D02*
X175089000Y-48608800D01*
X174790700Y-37531000D02*
X174517500Y-37257800D01*
X174790700Y-48310500D02*
X174790700Y-37531000D01*
X25003000Y-55883300D02*
X25919700Y-56800000D01*
X25003000Y-49820400D02*
X25003000Y-55883300D01*
X58342500Y-16480900D02*
X25003000Y-49820400D01*
X153740600Y-16480900D02*
X58342500Y-16480900D01*
X174517500Y-37257800D02*
X153740600Y-16480900D01*
X26670000Y-56800000D02*
X25919700Y-56800000D01*
X181790000Y-50007700D02*
X181790000Y-60960000D01*
X181790000Y-40640000D02*
X181790000Y-50007700D01*
X180818000Y-39668000D02*
X180818000Y-33020000D01*
X181790000Y-40640000D02*
X180818000Y-39668000D01*
X65610100Y-58473000D02*
X65610100Y-56800000D01*
X74900800Y-67763700D02*
X65610100Y-58473000D01*
X75855900Y-67763700D02*
X74900800Y-67763700D01*
X76485900Y-67133700D02*
X75855900Y-67763700D01*
X76485900Y-66922800D02*
X76485900Y-67133700D01*
X78186400Y-65222300D02*
X76485900Y-66922800D01*
X157425700Y-65222300D02*
X78186400Y-65222300D01*
X169016300Y-53631700D02*
X157425700Y-65222300D01*
X169016300Y-51692400D02*
X169016300Y-53631700D01*
X192692300Y-36466900D02*
X190599700Y-34374300D01*
X192692300Y-58420000D02*
X192692300Y-36466900D01*
X192692300Y-61252800D02*
X192692300Y-58420000D01*
X189728500Y-64216600D02*
X192692300Y-61252800D01*
X183285700Y-27060300D02*
X183285700Y-19520600D01*
X190599700Y-34374300D02*
X183285700Y-27060300D01*
X199570000Y-54319300D02*
X200549300Y-53340000D01*
X199570000Y-60960000D02*
X199570000Y-54319300D01*
X198463100Y-51253800D02*
X198463100Y-42958400D01*
X200549300Y-53340000D02*
X198463100Y-51253800D01*
X198463100Y-33154900D02*
X198598000Y-33020000D01*
X198463100Y-42958400D02*
X198463100Y-33154900D01*
X58870400Y-32559900D02*
X33630300Y-57800000D01*
X139316200Y-32559900D02*
X58870400Y-32559900D01*
X147540500Y-40784200D02*
X139316200Y-32559900D01*
X209808700Y-38100000D02*
X209808700Y-48260000D01*
X209808700Y-61754400D02*
X209808700Y-58168400D01*
X207487000Y-64076100D02*
X209808700Y-61754400D01*
X209808700Y-58168400D02*
X209808700Y-48260000D01*
X201849200Y-30140500D02*
X201849200Y-18873100D01*
X209808700Y-38100000D02*
X201849200Y-30140500D01*
X27670000Y-58800000D02*
X28420300Y-58800000D01*
X217350000Y-52102800D02*
X217350000Y-60960000D01*
X217236100Y-51988900D02*
X217350000Y-52102800D01*
X217236100Y-38943900D02*
X217236100Y-51988900D01*
X216392200Y-38100000D02*
X217236100Y-38943900D01*
X216328600Y-38036400D02*
X216392200Y-38100000D01*
X216328600Y-33392800D02*
X216328600Y-38036400D01*
X63326800Y-23893500D02*
X63326800Y-20716700D01*
X28420300Y-58800000D02*
X63326800Y-23893500D01*
X215373000Y-33392800D02*
X202570900Y-20590700D01*
X216328600Y-33392800D02*
X215373000Y-33392800D01*
X227198100Y-53340000D02*
X227198100Y-48442100D01*
X227706300Y-47933900D02*
X227706300Y-38100000D01*
X227198100Y-48442100D02*
X227706300Y-47933900D01*
X24491500Y-58371800D02*
X25919700Y-59800000D01*
X24491500Y-49695000D02*
X24491500Y-58371800D01*
X58155900Y-16030600D02*
X24491500Y-49695000D01*
X205636900Y-16030600D02*
X58155900Y-16030600D01*
X227706300Y-38100000D02*
X205636900Y-16030600D01*
X26670000Y-59800000D02*
X25919700Y-59800000D01*
X227198100Y-61586500D02*
X225284600Y-63500000D01*
X227198100Y-53340000D02*
X227198100Y-61586500D01*
X235146700Y-54304000D02*
X236110700Y-53340000D01*
X235146700Y-62121900D02*
X235146700Y-54304000D01*
X236110700Y-42338900D02*
X236600400Y-41849200D01*
X236110700Y-53340000D02*
X236110700Y-42338900D01*
X27670000Y-59800000D02*
X28420300Y-59800000D01*
X234034100Y-39282900D02*
X234034100Y-33546400D01*
X236600400Y-41849200D02*
X234034100Y-39282900D01*
X224332500Y-33546400D02*
X208583500Y-17797400D01*
X234034100Y-33546400D02*
X224332500Y-33546400D01*
X65892900Y-17984900D02*
X65893000Y-17984900D01*
X65892900Y-22327400D02*
X65892900Y-17984900D01*
X28420300Y-59800000D02*
X65892900Y-22327400D01*
X235146700Y-67193700D02*
X235130000Y-67210400D01*
X235146700Y-62121900D02*
X235146700Y-67193700D01*
X244103700Y-46883700D02*
X244103700Y-54729000D01*
X26670000Y-60800000D02*
X25919700Y-60800000D01*
X244103700Y-46883700D02*
X244103700Y-36626500D01*
X24041100Y-58921400D02*
X25919700Y-60800000D01*
X24041100Y-49446700D02*
X24041100Y-58921400D01*
X57912400Y-15575400D02*
X24041100Y-49446700D01*
X223052600Y-15575400D02*
X57912400Y-15575400D01*
X244103700Y-36626500D02*
X223052600Y-15575400D01*
X243043600Y-55789100D02*
X243043600Y-63500000D01*
X244103700Y-54729000D02*
X243043600Y-55789100D01*
X252821200Y-61248500D02*
X252821200Y-51697700D01*
X251893200Y-50769700D02*
X251893200Y-43102000D01*
X252821200Y-51697700D02*
X251893200Y-50769700D01*
X255075500Y-39919700D02*
X255075500Y-33546400D01*
X251893200Y-43102000D02*
X255075500Y-39919700D01*
X252821200Y-67328200D02*
X251569400Y-68580000D01*
X252821200Y-61248500D02*
X252821200Y-67328200D01*
X49591000Y-68287300D02*
X49591000Y-68326000D01*
X44742100Y-63438400D02*
X49591000Y-68287300D01*
X27670000Y-61800000D02*
X28420300Y-61800000D01*
X67044800Y-23175500D02*
X28420300Y-61800000D01*
X67044800Y-17556500D02*
X67044800Y-23175500D01*
X65254300Y-93980000D02*
X65254300Y-99234800D01*
X53138200Y-62800000D02*
X74158200Y-83820000D01*
X27670000Y-62800000D02*
X53138200Y-62800000D01*
X76134800Y-105519500D02*
X76108200Y-105492900D01*
X76134800Y-114379100D02*
X76134800Y-105519500D01*
X76108200Y-105492900D02*
X76108200Y-94056600D01*
X76108200Y-85770000D02*
X74158200Y-83820000D01*
X76108200Y-94056600D02*
X76108200Y-85770000D01*
X82747700Y-91968700D02*
X82747700Y-79935200D01*
X85118600Y-94339600D02*
X82747700Y-91968700D01*
X84964900Y-104146400D02*
X84964900Y-119380000D01*
X84971300Y-104140000D02*
X84964900Y-104146400D01*
X84971300Y-94486900D02*
X84971300Y-104140000D01*
X85118600Y-94339600D02*
X84971300Y-94486900D01*
X93840700Y-104140000D02*
X93840700Y-93853800D01*
X93840700Y-104140000D02*
X93840700Y-109220000D01*
X92714600Y-92727700D02*
X92714600Y-80091700D01*
X93840700Y-93853800D02*
X92714600Y-92727700D01*
X91973600Y-80091700D02*
X92714600Y-80091700D01*
X78429600Y-66547700D02*
X91973600Y-80091700D01*
X66095500Y-85553900D02*
X70969900Y-85553900D01*
X60840000Y-80298400D02*
X66095500Y-85553900D01*
X102738200Y-117054000D02*
X101780000Y-118012200D01*
X102738200Y-114423200D02*
X102738200Y-117054000D01*
X102738200Y-114423200D02*
X102738200Y-104039400D01*
X102738200Y-104039400D02*
X102738200Y-93980000D01*
X112009800Y-103783600D02*
X112009800Y-94032100D01*
X111635600Y-104157800D02*
X112009800Y-103783600D01*
X112009800Y-78993500D02*
X111631800Y-78615500D01*
X112009800Y-94032100D02*
X112009800Y-78993500D01*
X111635600Y-107101500D02*
X110869200Y-107867900D01*
X111635600Y-104157800D02*
X111635600Y-107101500D01*
X100287300Y-67271000D02*
X82445900Y-67271000D01*
X111631800Y-78615500D02*
X100287300Y-67271000D01*
X26670000Y-65800000D02*
X25919700Y-65800000D01*
X21815400Y-86282800D02*
X25465100Y-89932500D01*
X21815400Y-69904300D02*
X21815400Y-86282800D01*
X25919700Y-65800000D02*
X21815400Y-69904300D01*
X117342600Y-97595800D02*
X115505000Y-97595800D01*
X117342600Y-97150100D02*
X117342600Y-97595800D01*
X120531400Y-93961300D02*
X117342600Y-97150100D01*
X117342600Y-106040700D02*
X120521900Y-109220000D01*
X117342600Y-97595800D02*
X117342600Y-106040700D01*
X130243500Y-103203800D02*
X129401900Y-104045400D01*
X130243500Y-93831400D02*
X130243500Y-103203800D01*
X129401900Y-104045400D02*
X129401900Y-109406700D01*
X130243500Y-84312100D02*
X130212100Y-84280700D01*
X130243500Y-93831400D02*
X130243500Y-84312100D01*
X68443900Y-68214000D02*
X67812300Y-67582400D01*
X76042500Y-68214000D02*
X68443900Y-68214000D01*
X76936200Y-67320300D02*
X76042500Y-68214000D01*
X76936200Y-67109400D02*
X76936200Y-67320300D01*
X78173000Y-65872600D02*
X76936200Y-67109400D01*
X109837500Y-65872600D02*
X78173000Y-65872600D01*
X116695700Y-72730800D02*
X109837500Y-65872600D01*
X116695700Y-77077100D02*
X116695700Y-72730800D01*
X123899300Y-84280700D02*
X116695700Y-77077100D01*
X130212100Y-84280700D02*
X123899300Y-84280700D01*
X136268600Y-112006100D02*
X136268600Y-108222700D01*
X138320800Y-114058300D02*
X136268600Y-112006100D01*
X134799200Y-106753300D02*
X136268600Y-108222700D01*
X134799200Y-86660500D02*
X134799200Y-106753300D01*
X135141600Y-86318100D02*
X134799200Y-86660500D01*
X125605000Y-76781500D02*
X117321100Y-76781500D01*
X135141600Y-86318100D02*
X125605000Y-76781500D01*
X146233400Y-118011100D02*
X146233400Y-111982700D01*
X146233400Y-105094500D02*
X145278900Y-104140000D01*
X146233400Y-111982700D02*
X146233400Y-105094500D01*
X135766900Y-79731000D02*
X135766900Y-80150200D01*
X126531200Y-70495300D02*
X135766900Y-79731000D01*
X135766900Y-80150200D02*
X137395200Y-80150200D01*
X141085100Y-104140000D02*
X145278900Y-104140000D01*
X135249500Y-98304400D02*
X141085100Y-104140000D01*
X135249500Y-96412300D02*
X135249500Y-98304400D01*
X135766900Y-95894900D02*
X135249500Y-96412300D01*
X135766900Y-80150200D02*
X135766900Y-95894900D01*
X154156200Y-110992100D02*
X154156200Y-104084800D01*
X155120000Y-111955900D02*
X154156200Y-110992100D01*
X26670000Y-67800000D02*
X25919700Y-67800000D01*
X155120000Y-111955900D02*
X155120000Y-118644200D01*
X155120000Y-118644200D02*
X155120000Y-121807400D01*
X130884800Y-107507200D02*
X130884800Y-97245000D01*
X142021800Y-118644200D02*
X130884800Y-107507200D01*
X155120000Y-118644200D02*
X142021800Y-118644200D01*
X22494400Y-71225300D02*
X22494400Y-85760000D01*
X25919700Y-67800000D02*
X22494400Y-71225300D01*
X152605000Y-92394400D02*
X156099400Y-88900000D01*
X152605000Y-96520000D02*
X152605000Y-92394400D01*
X166119900Y-84280700D02*
X166119900Y-78760200D01*
X166119900Y-107973100D02*
X166119900Y-84280700D01*
X164962400Y-109130600D02*
X166119900Y-107973100D01*
X164962400Y-113828700D02*
X164962400Y-109130600D01*
X163250000Y-75890300D02*
X166119900Y-78760200D01*
X163250000Y-70895600D02*
X163250000Y-75890300D01*
X23126500Y-71593200D02*
X25919700Y-68800000D01*
X23126500Y-85507800D02*
X23126500Y-71593200D01*
X24914500Y-87295800D02*
X23126500Y-85507800D01*
X172900000Y-96520000D02*
X172900000Y-110604900D01*
X135699800Y-96865100D02*
X135943900Y-96621000D01*
X135699800Y-98117800D02*
X135699800Y-96865100D01*
X137351400Y-99769400D02*
X135699800Y-98117800D01*
X150755700Y-99769400D02*
X137351400Y-99769400D01*
X155946200Y-104959900D02*
X150755700Y-99769400D01*
X155946200Y-105754200D02*
X155946200Y-104959900D01*
X164670100Y-114478100D02*
X155946200Y-105754200D01*
X169026800Y-114478100D02*
X164670100Y-114478100D01*
X172900000Y-110604900D02*
X169026800Y-114478100D01*
X26670000Y-68800000D02*
X25919700Y-68800000D01*
X172900000Y-89856500D02*
X173856500Y-88900000D01*
X172900000Y-96520000D02*
X172900000Y-89856500D01*
X181790000Y-110588200D02*
X181787400Y-110585600D01*
X181787400Y-110585600D02*
X181787400Y-102787200D01*
X47540300Y-68800000D02*
X27670000Y-68800000D01*
X74743900Y-96003600D02*
X47540300Y-68800000D01*
X74743900Y-127181500D02*
X74743900Y-96003600D01*
X83984900Y-136422500D02*
X74743900Y-127181500D01*
X83985000Y-136422500D02*
X83984900Y-136422500D01*
X85567200Y-138004700D02*
X83985000Y-136422500D01*
X85567200Y-138641700D02*
X85567200Y-138004700D01*
X86250900Y-139325400D02*
X85567200Y-138641700D01*
X153047600Y-139325400D02*
X86250900Y-139325400D01*
X181787400Y-110585600D02*
X153047600Y-139325400D01*
X189726500Y-104140000D02*
X189726500Y-110123200D01*
X189726500Y-104140000D02*
X189726500Y-93980000D01*
X179033300Y-83286800D02*
X179033300Y-76505200D01*
X189726500Y-93980000D02*
X179033300Y-83286800D01*
X200921300Y-112642400D02*
X200921300Y-108902700D01*
X198576100Y-114987600D02*
X200921300Y-112642400D01*
X200599100Y-108580500D02*
X200599100Y-99300100D01*
X200921300Y-108902700D02*
X200599100Y-108580500D01*
X200599100Y-86070900D02*
X198468800Y-83940600D01*
X200599100Y-99300100D02*
X200599100Y-86070900D01*
X198468700Y-83940600D02*
X198468800Y-83940600D01*
X198468700Y-83940500D02*
X198468700Y-83940600D01*
X186099200Y-71571000D02*
X198468700Y-83940500D01*
X198468800Y-83940600D02*
X198589400Y-83820000D01*
X210651300Y-95166500D02*
X210651300Y-100083700D01*
X209423900Y-93939100D02*
X210651300Y-95166500D01*
X210651300Y-114199400D02*
X213955100Y-117503200D01*
X210651300Y-100083700D02*
X210651300Y-114199400D01*
X26670000Y-70800000D02*
X25919700Y-70800000D01*
X205647400Y-125810900D02*
X205647400Y-126251400D01*
X213955100Y-117503200D02*
X205647400Y-125810900D01*
X31923600Y-106927200D02*
X46225800Y-121229400D01*
X31923600Y-93290600D02*
X31923600Y-106927200D01*
X23576900Y-84943900D02*
X31923600Y-93290600D01*
X23576900Y-73142800D02*
X23576900Y-84943900D01*
X25919700Y-70800000D02*
X23576900Y-73142800D01*
X216382300Y-96840500D02*
X216382300Y-104140000D01*
X190428300Y-70886500D02*
X216382300Y-96840500D01*
X166608000Y-70886500D02*
X190428300Y-70886500D01*
X165131900Y-72362600D02*
X166608000Y-70886500D01*
X216382300Y-96840500D02*
X217350000Y-96840500D01*
X226264600Y-96886900D02*
X226240000Y-96911500D01*
X226264600Y-85201700D02*
X226264600Y-96886900D01*
X226240000Y-113377900D02*
X225260200Y-114357700D01*
X226240000Y-96911500D02*
X226240000Y-113377900D01*
X226264600Y-78006000D02*
X224309600Y-76051000D01*
X226264600Y-85201700D02*
X226264600Y-78006000D01*
X225260200Y-119375300D02*
X225264900Y-119380000D01*
X225260200Y-114357700D02*
X225260200Y-119375300D01*
X236178100Y-110688900D02*
X236178100Y-104140000D01*
X234884300Y-111982700D02*
X236178100Y-110688900D01*
X236178100Y-104140000D02*
X236178100Y-83820000D01*
X236178100Y-78827700D02*
X236110500Y-78760100D01*
X236178100Y-83820000D02*
X236178100Y-78827700D01*
X230415900Y-78760100D02*
X223805600Y-72149800D01*
X236110500Y-78760100D02*
X230415900Y-78760100D01*
X234884300Y-118671900D02*
X234176200Y-119380000D01*
X234884300Y-111982700D02*
X234884300Y-118671900D01*
X243069000Y-114663700D02*
X243069000Y-109278500D01*
X243069000Y-109278500D02*
X243069000Y-99242900D01*
X246660700Y-95651200D02*
X246660700Y-78595100D01*
X243069000Y-99242900D02*
X246660700Y-95651200D01*
X252910000Y-97684400D02*
X252910000Y-91440000D01*
X252910000Y-91440000D02*
X252910000Y-80102600D01*
X252889000Y-97705400D02*
X252910000Y-97684400D01*
X252889000Y-118000900D02*
X252889000Y-97705400D01*
X251914200Y-79106800D02*
X251914200Y-73271200D01*
X252910000Y-80102600D02*
X251914200Y-79106800D01*
X136367200Y-162579400D02*
X136367200Y-168115000D01*
X136386600Y-162560000D02*
X136367200Y-162579400D01*
X26670000Y-74800000D02*
X25919700Y-74800000D01*
X45318300Y-106048400D02*
X45318300Y-119436500D01*
X24039500Y-84769600D02*
X45318300Y-106048400D01*
X24039500Y-76680200D02*
X24039500Y-84769600D01*
X25919700Y-74800000D02*
X24039500Y-76680200D01*
X147189100Y-152400000D02*
X147189100Y-162397200D01*
X145188500Y-150399400D02*
X145188500Y-147142600D01*
X147189100Y-152400000D02*
X145188500Y-150399400D01*
X147189100Y-164958900D02*
X145192300Y-166955700D01*
X147189100Y-162397200D02*
X147189100Y-164958900D01*
X52882400Y-74800000D02*
X27670000Y-74800000D01*
X74293600Y-96211200D02*
X52882400Y-74800000D01*
X74293600Y-127368100D02*
X74293600Y-96211200D01*
X83798300Y-136872800D02*
X74293600Y-127368100D01*
X83798400Y-136872800D02*
X83798300Y-136872800D01*
X85116900Y-138191300D02*
X83798400Y-136872800D01*
X85116900Y-138828300D02*
X85116900Y-138191300D01*
X86322200Y-140033600D02*
X85116900Y-138828300D01*
X102565800Y-140033600D02*
X86322200Y-140033600D01*
X132535100Y-170002900D02*
X102565800Y-140033600D01*
X142145100Y-170002900D02*
X132535100Y-170002900D01*
X145192300Y-166955700D02*
X142145100Y-170002900D01*
X156452600Y-159693700D02*
X156452600Y-152695500D01*
X26670000Y-75800000D02*
X25919700Y-75800000D01*
X46851100Y-106307400D02*
X46851100Y-127644700D01*
X24490000Y-83946300D02*
X46851100Y-106307400D01*
X24490000Y-77229700D02*
X24490000Y-83946300D01*
X25919700Y-75800000D02*
X24490000Y-77229700D01*
X156452600Y-142471800D02*
X156220800Y-142240000D01*
X156452600Y-152695500D02*
X156452600Y-142471800D01*
X156452600Y-167526500D02*
X156339100Y-167640000D01*
X156452600Y-159693700D02*
X156452600Y-167526500D01*
X164010000Y-160020000D02*
X164010000Y-170180000D01*
X164010000Y-153370600D02*
X164980600Y-152400000D01*
X164010000Y-160020000D02*
X164010000Y-153370600D01*
X53223800Y-75800000D02*
X27670000Y-75800000D01*
X73843200Y-96419400D02*
X53223800Y-75800000D01*
X73843200Y-127554600D02*
X73843200Y-96419400D01*
X83611700Y-137323100D02*
X73843200Y-127554600D01*
X83611800Y-137323100D02*
X83611700Y-137323100D01*
X84666600Y-138377900D02*
X83611800Y-137323100D01*
X84666600Y-139014900D02*
X84666600Y-138377900D01*
X86135600Y-140483900D02*
X84666600Y-139014900D01*
X102379200Y-140483900D02*
X86135600Y-140483900D01*
X132437000Y-170541700D02*
X102379200Y-140483900D01*
X163648300Y-170541700D02*
X132437000Y-170541700D01*
X164010000Y-170180000D02*
X163648300Y-170541700D01*
X164980600Y-142258200D02*
X164962400Y-142240000D01*
X164980600Y-152400000D02*
X164980600Y-142258200D01*
X26670000Y-76800000D02*
X25919700Y-76800000D01*
X175089000Y-156253300D02*
X175089000Y-147325900D01*
X173862300Y-157480000D02*
X175089000Y-156253300D01*
X172614400Y-171012300D02*
X172614400Y-164280400D01*
X172962900Y-171360800D02*
X172614400Y-171012300D01*
X171398800Y-164280400D02*
X172614400Y-164280400D01*
X172614400Y-158727900D02*
X173862300Y-157480000D01*
X172614400Y-164280400D02*
X172614400Y-158727900D01*
X24988300Y-77731400D02*
X25919700Y-76800000D01*
X24988300Y-83807700D02*
X24988300Y-77731400D01*
X47479400Y-106298800D02*
X24988300Y-83807700D01*
X47479400Y-128316000D02*
X47479400Y-106298800D01*
X50637200Y-131473800D02*
X47479400Y-128316000D01*
X50637200Y-140113600D02*
X50637200Y-131473800D01*
X50271000Y-140479800D02*
X50637200Y-140113600D01*
X50271000Y-140997800D02*
X50271000Y-140479800D01*
X50637300Y-141364100D02*
X50271000Y-140997800D01*
X50733100Y-141364100D02*
X50637300Y-141364100D01*
X51865700Y-142496700D02*
X50733100Y-141364100D01*
X51865700Y-151440000D02*
X51865700Y-142496700D01*
X47265400Y-156040300D02*
X51865700Y-151440000D01*
X175089000Y-134838600D02*
X173620100Y-133369700D01*
X175089000Y-147325900D02*
X175089000Y-134838600D01*
X180836900Y-169226900D02*
X181790000Y-170180000D01*
X180836900Y-162560000D02*
X180836900Y-169226900D01*
X180487100Y-162210200D02*
X180487100Y-152713400D01*
X180836900Y-162560000D02*
X180487100Y-162210200D01*
X180702900Y-152497600D02*
X180702900Y-142294400D01*
X180487100Y-152713400D02*
X180702900Y-152497600D01*
X53586800Y-76800000D02*
X27670000Y-76800000D01*
X73365500Y-96578700D02*
X53586800Y-76800000D01*
X73365500Y-127713800D02*
X73365500Y-96578700D01*
X83425100Y-137773400D02*
X73365500Y-127713800D01*
X83425200Y-137773400D02*
X83425100Y-137773400D01*
X84216300Y-138564500D02*
X83425200Y-137773400D01*
X84216300Y-139201500D02*
X84216300Y-138564500D01*
X85949000Y-140934200D02*
X84216300Y-139201500D01*
X102192600Y-140934200D02*
X85949000Y-140934200D01*
X133249200Y-171990800D02*
X102192600Y-140934200D01*
X178073000Y-171990800D02*
X133249200Y-171990800D01*
X180836900Y-169226900D02*
X178073000Y-171990800D01*
X189710300Y-149065000D02*
X189710300Y-157037200D01*
X191645100Y-147130200D02*
X189710300Y-149065000D01*
X189710300Y-157037200D02*
X189710300Y-172441100D01*
X189710300Y-173863700D02*
X189710300Y-172441100D01*
X190105200Y-174258600D02*
X189710300Y-173863700D01*
X72915100Y-97084000D02*
X55903200Y-80072100D01*
X72915100Y-127900300D02*
X72915100Y-97084000D01*
X83238500Y-138223700D02*
X72915100Y-127900300D01*
X83238600Y-138223700D02*
X83238500Y-138223700D01*
X83238600Y-138860700D02*
X83238600Y-138223700D01*
X85762400Y-141384500D02*
X83238600Y-138860700D01*
X101723200Y-141384500D02*
X85762400Y-141384500D01*
X132779800Y-172441100D02*
X101723200Y-141384500D01*
X189710300Y-172441100D02*
X132779800Y-172441100D01*
X200524300Y-155609800D02*
X198582700Y-157551400D01*
X200524300Y-147394100D02*
X200524300Y-155609800D01*
X27670000Y-77800000D02*
X28420300Y-77800000D01*
X198582700Y-160954900D02*
X198582700Y-157551400D01*
X200553200Y-162925400D02*
X198582700Y-160954900D01*
X52699500Y-77800000D02*
X28420300Y-77800000D01*
X72464800Y-97565300D02*
X52699500Y-77800000D01*
X72464800Y-128723800D02*
X72464800Y-97565300D01*
X85960200Y-142219200D02*
X72464800Y-128723800D01*
X89308300Y-142219200D02*
X85960200Y-142219200D01*
X121973200Y-174884100D02*
X89308300Y-142219200D01*
X190419300Y-174884100D02*
X121973200Y-174884100D01*
X200553200Y-164750200D02*
X190419300Y-174884100D01*
X200553200Y-162925400D02*
X200553200Y-164750200D01*
X26670000Y-78800000D02*
X25919700Y-78800000D01*
X210202800Y-141049200D02*
X207975700Y-138822100D01*
X210202800Y-150752200D02*
X210202800Y-141049200D01*
X210202800Y-163909900D02*
X210202800Y-157316500D01*
X207245400Y-166867300D02*
X210202800Y-163909900D01*
X210202800Y-157316500D02*
X210202800Y-150752200D01*
X195882100Y-126728500D02*
X207975700Y-138822100D01*
X50897700Y-109080200D02*
X50897700Y-114102500D01*
X25438600Y-83621100D02*
X50897700Y-109080200D01*
X25438600Y-79281100D02*
X25438600Y-83621100D01*
X25919700Y-78800000D02*
X25438600Y-79281100D01*
X219041200Y-153136200D02*
X219041200Y-146883100D01*
X217350000Y-154827400D02*
X219041200Y-153136200D01*
X218335200Y-162242500D02*
X217350000Y-161257300D01*
X217350000Y-161257300D02*
X217350000Y-154827400D01*
X53039100Y-78800000D02*
X27670000Y-78800000D01*
X72000800Y-97761700D02*
X53039100Y-78800000D01*
X72000800Y-128896700D02*
X72000800Y-97761700D01*
X85839400Y-142735300D02*
X72000800Y-128896700D01*
X88269200Y-142735300D02*
X85839400Y-142735300D01*
X120912400Y-175378500D02*
X88269200Y-142735300D01*
X203228800Y-175378500D02*
X120912400Y-175378500D01*
X217350000Y-161257300D02*
X203228800Y-175378500D01*
X224996200Y-160020000D02*
X227973600Y-160020000D01*
X224996200Y-160020000D02*
X224996200Y-152731000D01*
X225237900Y-152489300D02*
X225237900Y-142332500D01*
X224996200Y-152731000D02*
X225237900Y-152489300D01*
X55336300Y-82378000D02*
X52951500Y-82378000D01*
X70715700Y-97757400D02*
X55336300Y-82378000D01*
X70715700Y-128954400D02*
X70715700Y-97757400D01*
X85397300Y-143636000D02*
X70715700Y-128954400D01*
X86078600Y-143636000D02*
X85397300Y-143636000D01*
X88291800Y-145849200D02*
X86078600Y-143636000D01*
X88291800Y-148214900D02*
X88291800Y-145849200D01*
X115963600Y-175886700D02*
X88291800Y-148214900D01*
X209129500Y-175886700D02*
X115963600Y-175886700D01*
X224996200Y-160020000D02*
X209129500Y-175886700D01*
X228903600Y-157295200D02*
X228903600Y-138830200D01*
X217341900Y-138830200D02*
X228903600Y-138830200D01*
X186433400Y-107921700D02*
X217341900Y-138830200D01*
X186433400Y-91662700D02*
X186433400Y-107921700D01*
X169109600Y-74338900D02*
X186433400Y-91662700D01*
X26670000Y-80800000D02*
X25919700Y-80800000D01*
X51552600Y-108809300D02*
X51552600Y-127626100D01*
X25919700Y-83176400D02*
X51552600Y-108809300D01*
X25919700Y-80800000D02*
X25919700Y-83176400D01*
X57365000Y-109744700D02*
X28420300Y-80800000D01*
X57365000Y-129100300D02*
X57365000Y-109744700D01*
X27670000Y-80800000D02*
X28420300Y-80800000D01*
X26670000Y-81800000D02*
X26670000Y-82550300D01*
X52213800Y-108094100D02*
X52213800Y-128104100D01*
X26670000Y-82550300D02*
X52213800Y-108094100D01*
X54650300Y-81048100D02*
X54293600Y-81048100D01*
X71517600Y-97915400D02*
X54650300Y-81048100D01*
X71517600Y-129119400D02*
X71517600Y-97915400D01*
X85583800Y-143185600D02*
X71517600Y-129119400D01*
X86265100Y-143185600D02*
X85583800Y-143185600D01*
X115432600Y-172353100D02*
X86265100Y-143185600D01*
X115432600Y-174459500D02*
X115432600Y-172353100D01*
X27670000Y-91440000D02*
X27670000Y-90689700D01*
X24077300Y-148853100D02*
X27314100Y-152089900D01*
X24077300Y-92692900D02*
X24077300Y-148853100D01*
X26080500Y-90689700D02*
X24077300Y-92692900D01*
X27670000Y-90689700D02*
X26080500Y-90689700D01*
X26670000Y-92440000D02*
X25919700Y-92440000D01*
X24558900Y-93800800D02*
X25919700Y-92440000D01*
X24558900Y-131811400D02*
X24558900Y-93800800D01*
X27939400Y-135191900D02*
X24558900Y-131811400D01*
X27939400Y-173599100D02*
X27939400Y-135191900D01*
X27654400Y-173884100D02*
X27939400Y-173599100D01*
X27670000Y-92440000D02*
X28420300Y-92440000D01*
X49820700Y-141414600D02*
X51240400Y-142834300D01*
X49820700Y-140293200D02*
X49820700Y-141414600D01*
X50105700Y-140008200D02*
X49820700Y-140293200D01*
X50105700Y-134046300D02*
X50105700Y-140008200D01*
X29885300Y-113825900D02*
X50105700Y-134046300D01*
X29885300Y-93905000D02*
X29885300Y-113825900D01*
X28420300Y-92440000D02*
X29885300Y-93905000D01*
X26670000Y-93440000D02*
X25919700Y-93440000D01*
X37706100Y-163948000D02*
X41605700Y-167847600D01*
X37706100Y-144226400D02*
X37706100Y-163948000D01*
X25009300Y-131529600D02*
X37706100Y-144226400D01*
X25009300Y-94350400D02*
X25009300Y-131529600D01*
X25919700Y-93440000D02*
X25009300Y-94350400D01*
X29033000Y-94052700D02*
X28420300Y-93440000D01*
X29033000Y-113895900D02*
X29033000Y-94052700D01*
X49442900Y-134305800D02*
X29033000Y-113895900D01*
X27670000Y-93440000D02*
X28420300Y-93440000D01*
X26670000Y-94440000D02*
X25919700Y-94440000D01*
X39633000Y-144873300D02*
X39633000Y-153232300D01*
X25459700Y-130700000D02*
X39633000Y-144873300D01*
X25459700Y-94900000D02*
X25459700Y-130700000D01*
X25919700Y-94440000D02*
X25459700Y-94900000D01*
X63640600Y-159095800D02*
X78428600Y-173883800D01*
X63640600Y-121089500D02*
X63640600Y-159095800D01*
X64590500Y-123544500D02*
X64590500Y-122375000D01*
X85853700Y-144807700D02*
X64590500Y-123544500D01*
X86365900Y-144807700D02*
X85853700Y-144807700D01*
X87666500Y-146108300D02*
X86365900Y-144807700D01*
X28420300Y-114230600D02*
X28420300Y-95440000D01*
X48584800Y-134395100D02*
X28420300Y-114230600D01*
X27670000Y-95440000D02*
X28420300Y-95440000D01*
X78964400Y-141885500D02*
X70292000Y-141885500D01*
X103504600Y-166425700D02*
X78964400Y-141885500D01*
X26670000Y-97440000D02*
X26294900Y-97440000D01*
X26544600Y-97190300D02*
X26670000Y-97190300D01*
X26294900Y-97440000D02*
X26544600Y-97190300D01*
X26670000Y-96440000D02*
X26670000Y-97190300D01*
X25919600Y-127888300D02*
X31285800Y-133254500D01*
X25919600Y-97815300D02*
X25919600Y-127888300D01*
X26294900Y-97440000D02*
X25919600Y-97815300D01*
X27670000Y-99440000D02*
X27670000Y-98440000D01*
X27670000Y-98440000D02*
X27670000Y-97440000D01*
X27670000Y-128174600D02*
X27670000Y-100440000D01*
X40258400Y-140763000D02*
X27670000Y-128174600D01*
X42241600Y-161440000D02*
X42241600Y-178928600D01*
X40055300Y-159253700D02*
X42241600Y-161440000D01*
X40055300Y-158968800D02*
X40055300Y-159253700D01*
X40258400Y-158765700D02*
X40258400Y-153751000D01*
X40055300Y-158968800D02*
X40258400Y-158765700D01*
X40258400Y-153751000D02*
X40258400Y-140763000D01*
X86331900Y-148345100D02*
X86331900Y-145862200D01*
X92461300Y-154474500D02*
X86331900Y-148345100D01*
X252821200Y-72530700D02*
X252821200Y-77111100D01*
X250944100Y-70653600D02*
X252821200Y-72530700D01*
X250944100Y-24586500D02*
X250944100Y-70653600D01*
X248948300Y-22590700D02*
X250944100Y-24586500D01*
X251893200Y-132949500D02*
X251893200Y-132264100D01*
X249156500Y-135686200D02*
X251893200Y-132949500D01*
X253579000Y-77868900D02*
X252821200Y-77111100D01*
X253579000Y-130578300D02*
X253579000Y-77868900D01*
X251893200Y-132264100D02*
X253579000Y-130578300D01*
X57990300Y-85916500D02*
X57498800Y-85425000D01*
X57990300Y-133644800D02*
X57990300Y-85916500D01*
X50896300Y-140738800D02*
X57990300Y-133644800D01*
X260744100Y-84386100D02*
X260657700Y-84472500D01*
X260744100Y-33689200D02*
X260744100Y-84386100D01*
X44478900Y-159727600D02*
X41413500Y-159727600D01*
X59399600Y-144806900D02*
X44478900Y-159727600D01*
X59399600Y-87325900D02*
X59399600Y-144806900D01*
X254256300Y-134295000D02*
X255810900Y-135849700D01*
X254282000Y-134269300D02*
X254256300Y-134295000D01*
X254282000Y-90848200D02*
X254282000Y-134269300D01*
X260657700Y-84472500D02*
X254282000Y-90848200D01*
X254256300Y-134295000D02*
X250010000Y-138541300D01*
X248523100Y-87118300D02*
X250435000Y-85206400D01*
X248523100Y-141785700D02*
X248523100Y-87118300D01*
X248948300Y-142210900D02*
X248523100Y-141785700D01*
X249405500Y-142668100D02*
X253882000Y-142668100D01*
X248948300Y-142210900D02*
X249405500Y-142668100D01*
X250435000Y-42943800D02*
X250435000Y-85206400D01*
X246461100Y-38969900D02*
X250435000Y-42943800D01*
X61640800Y-160491200D02*
X61640800Y-89567100D01*
X40868600Y-181263400D02*
X61640800Y-160491200D01*
X40753100Y-181263400D02*
X40868600Y-181263400D01*
X237944600Y-89241700D02*
X237855400Y-89241700D01*
X237944600Y-43391500D02*
X240862400Y-40473700D01*
X237944600Y-89241700D02*
X237944600Y-43391500D01*
X250110200Y-147771700D02*
X255339300Y-147771700D01*
X250110200Y-148716000D02*
X250110200Y-147771700D01*
X239534700Y-90831800D02*
X237944600Y-89241700D01*
X239534700Y-137196200D02*
X239534700Y-90831800D01*
X250110200Y-147771700D02*
X239534700Y-137196200D01*
X61006800Y-149484500D02*
X61006800Y-95155500D01*
X60927800Y-149563500D02*
X61006800Y-149484500D01*
X137526500Y-99060000D02*
X142351200Y-99060000D01*
X136347600Y-97881100D02*
X137526500Y-99060000D01*
X142378600Y-99032600D02*
X151264400Y-99032600D01*
X142351200Y-99060000D02*
X142378600Y-99032600D01*
X163380600Y-99032600D02*
X165310000Y-97103200D01*
X151264400Y-99032600D02*
X163380600Y-99032600D01*
X170000000Y-59892100D02*
X170000000Y-44562600D01*
X162594500Y-67297600D02*
X170000000Y-59892100D01*
X162594500Y-94387700D02*
X162594500Y-67297600D01*
X165310000Y-97103200D02*
X162594500Y-94387700D01*
X244074600Y-147322600D02*
X240862400Y-150534800D01*
X247504200Y-150752200D02*
X244074600Y-147322600D01*
X255339300Y-150752200D02*
X247504200Y-150752200D01*
X237512700Y-140760700D02*
X237512700Y-105107400D01*
X244074600Y-147322600D02*
X237512700Y-140760700D01*
X62955900Y-101205000D02*
X63735600Y-100425300D01*
X62955900Y-170431400D02*
X62955900Y-101205000D01*
X60987300Y-172400000D02*
X62955900Y-170431400D01*
X256487600Y-157416700D02*
X257877900Y-157416700D01*
X256424300Y-157480000D02*
X256487600Y-157416700D01*
X249057900Y-157480000D02*
X256424300Y-157480000D01*
X254763100Y-112334000D02*
X261123800Y-105973300D01*
X254763100Y-118818700D02*
X254763100Y-112334000D01*
X256487600Y-120543200D02*
X254763100Y-118818700D01*
X256487600Y-157416700D02*
X256487600Y-120543200D01*
X261444900Y-105652200D02*
X261123800Y-105973300D01*
X261444900Y-55585500D02*
X261444900Y-105652200D01*
X262667100Y-54363300D02*
X261444900Y-55585500D01*
X262767600Y-54363300D02*
X262667100Y-54363300D01*
X82231700Y-106262500D02*
X81462100Y-105492900D01*
X82231700Y-134032400D02*
X82231700Y-106262500D01*
X82231800Y-134032400D02*
X82231700Y-134032400D01*
X86308400Y-138109000D02*
X82231800Y-134032400D01*
X86308400Y-138498400D02*
X86308400Y-138109000D01*
X231613300Y-162560000D02*
X231274600Y-162898700D01*
X249036000Y-162560000D02*
X231613300Y-162560000D01*
X257877900Y-162560000D02*
X249036000Y-162560000D01*
X257877900Y-162560000D02*
X257877900Y-162674200D01*
X258552400Y-161885500D02*
X257877900Y-162560000D01*
X258552400Y-118104700D02*
X258552400Y-161885500D01*
X255419200Y-114971500D02*
X258552400Y-118104700D01*
X262070200Y-108320500D02*
X262070200Y-55896700D01*
X255419200Y-114971500D02*
X262070200Y-108320500D01*
X215268600Y-116379500D02*
X214552400Y-115663300D01*
X222616400Y-116379500D02*
X215268600Y-116379500D01*
X222616400Y-121099700D02*
X222616400Y-116379500D01*
X230644000Y-129127300D02*
X222616400Y-121099700D01*
X230644000Y-166829400D02*
X230644000Y-129127300D01*
X230644100Y-166829400D02*
X230644000Y-166829400D01*
X230935700Y-167121000D02*
X230644100Y-166829400D01*
X223169500Y-115826400D02*
X223169500Y-115655900D01*
X222616400Y-116379500D02*
X223169500Y-115826400D01*
X232734300Y-168919600D02*
X249218800Y-168919600D01*
X230935700Y-167121000D02*
X232734300Y-168919600D01*
X256775800Y-168919600D02*
X257877900Y-167817500D01*
X249218800Y-168919600D02*
X256775800Y-168919600D01*
X223169500Y-59955700D02*
X223340000Y-59785200D01*
X223169500Y-115655900D02*
X223169500Y-59955700D01*
X116654900Y-176550200D02*
X111214300Y-181990800D01*
X119208700Y-176550200D02*
X116654900Y-176550200D01*
X112781400Y-117132900D02*
X120887400Y-125238900D01*
X112781400Y-69763000D02*
X112781400Y-117132900D01*
X112460100Y-69441700D02*
X112781400Y-69763000D01*
X114435400Y-151018700D02*
X114435400Y-150375900D01*
X132794200Y-169377500D02*
X114435400Y-151018700D01*
X120887400Y-129424500D02*
X120887400Y-125238900D01*
X111648000Y-138663900D02*
X120887400Y-129424500D01*
M02*
