G04 #@! TF.FileFunction,Soldermask,Bot*
%FSLAX46Y46*%
G04 Gerber Fmt 4.6, Leading zero omitted, Abs format (unit mm)*
G04 Created by KiCad (PCBNEW 4.0.7) date 04/05/19 11:13:48*
%MOMM*%
%LPD*%
G01*
G04 APERTURE LIST*
%ADD10C,0.100000*%
%ADD11R,1.250000X1.250000*%
%ADD12O,1.250000X1.250000*%
G04 APERTURE END LIST*
D10*
D11*
X26670000Y-50800000D03*
D12*
X27670000Y-50800000D03*
X26670000Y-51800000D03*
X27670000Y-51800000D03*
X26670000Y-52800000D03*
X27670000Y-52800000D03*
X26670000Y-53800000D03*
X27670000Y-53800000D03*
X26670000Y-54800000D03*
X27670000Y-54800000D03*
X26670000Y-55800000D03*
X27670000Y-55800000D03*
X26670000Y-56800000D03*
X27670000Y-56800000D03*
X26670000Y-57800000D03*
X27670000Y-57800000D03*
X26670000Y-58800000D03*
X27670000Y-58800000D03*
X26670000Y-59800000D03*
X27670000Y-59800000D03*
X26670000Y-60800000D03*
X27670000Y-60800000D03*
X26670000Y-61800000D03*
X27670000Y-61800000D03*
X26670000Y-62800000D03*
X27670000Y-62800000D03*
X26670000Y-63800000D03*
X27670000Y-63800000D03*
X26670000Y-64800000D03*
X27670000Y-64800000D03*
X26670000Y-65800000D03*
X27670000Y-65800000D03*
X26670000Y-66800000D03*
X27670000Y-66800000D03*
X26670000Y-67800000D03*
X27670000Y-67800000D03*
X26670000Y-68800000D03*
X27670000Y-68800000D03*
X26670000Y-69800000D03*
X27670000Y-69800000D03*
X26670000Y-70800000D03*
X27670000Y-70800000D03*
X26670000Y-71800000D03*
X27670000Y-71800000D03*
X26670000Y-72800000D03*
X27670000Y-72800000D03*
X26670000Y-73800000D03*
X27670000Y-73800000D03*
X26670000Y-74800000D03*
X27670000Y-74800000D03*
X26670000Y-75800000D03*
X27670000Y-75800000D03*
X26670000Y-76800000D03*
X27670000Y-76800000D03*
X26670000Y-77800000D03*
X27670000Y-77800000D03*
X26670000Y-78800000D03*
X27670000Y-78800000D03*
X26670000Y-79800000D03*
X27670000Y-79800000D03*
X26670000Y-80800000D03*
X27670000Y-80800000D03*
X26670000Y-81800000D03*
X27670000Y-81800000D03*
D11*
X26670000Y-91440000D03*
D12*
X27670000Y-91440000D03*
X26670000Y-92440000D03*
X27670000Y-92440000D03*
X26670000Y-93440000D03*
X27670000Y-93440000D03*
X26670000Y-94440000D03*
X27670000Y-94440000D03*
X26670000Y-95440000D03*
X27670000Y-95440000D03*
X26670000Y-96440000D03*
X27670000Y-96440000D03*
X26670000Y-97440000D03*
X27670000Y-97440000D03*
X26670000Y-98440000D03*
X27670000Y-98440000D03*
X26670000Y-99440000D03*
X27670000Y-99440000D03*
X26670000Y-100440000D03*
X27670000Y-100440000D03*
M02*
