G04 #@! TF.FileFunction,Copper,L2,Bot,Signal*
%FSLAX46Y46*%
G04 Gerber Fmt 4.6, Leading zero omitted, Abs format (unit mm)*
G04 Created by KiCad (PCBNEW 4.0.7) date 04/12/19 18:07:42*
%MOMM*%
%LPD*%
G01*
G04 APERTURE LIST*
%ADD10C,0.100000*%
%ADD11R,0.850000X0.850000*%
%ADD12O,0.850000X0.850000*%
%ADD13C,0.600000*%
%ADD14C,0.250000*%
%ADD15C,0.254000*%
G04 APERTURE END LIST*
D10*
D11*
X26670000Y-50800000D03*
D12*
X27670000Y-50800000D03*
X26670000Y-51800000D03*
X27670000Y-51800000D03*
X26670000Y-52800000D03*
X27670000Y-52800000D03*
X26670000Y-53800000D03*
X27670000Y-53800000D03*
X26670000Y-54800000D03*
X27670000Y-54800000D03*
X26670000Y-55800000D03*
X27670000Y-55800000D03*
X26670000Y-56800000D03*
X27670000Y-56800000D03*
X26670000Y-57800000D03*
X27670000Y-57800000D03*
X26670000Y-58800000D03*
X27670000Y-58800000D03*
X26670000Y-59800000D03*
X27670000Y-59800000D03*
X26670000Y-60800000D03*
X27670000Y-60800000D03*
X26670000Y-61800000D03*
X27670000Y-61800000D03*
X26670000Y-62800000D03*
X27670000Y-62800000D03*
X26670000Y-63800000D03*
X27670000Y-63800000D03*
X26670000Y-64800000D03*
X27670000Y-64800000D03*
X26670000Y-65800000D03*
X27670000Y-65800000D03*
X26670000Y-66800000D03*
X27670000Y-66800000D03*
X26670000Y-67800000D03*
X27670000Y-67800000D03*
X26670000Y-68800000D03*
X27670000Y-68800000D03*
X26670000Y-69800000D03*
X27670000Y-69800000D03*
X26670000Y-70800000D03*
X27670000Y-70800000D03*
X26670000Y-71800000D03*
X27670000Y-71800000D03*
X26670000Y-72800000D03*
X27670000Y-72800000D03*
X26670000Y-73800000D03*
X27670000Y-73800000D03*
X26670000Y-74800000D03*
X27670000Y-74800000D03*
X26670000Y-75800000D03*
X27670000Y-75800000D03*
X26670000Y-76800000D03*
X27670000Y-76800000D03*
X26670000Y-77800000D03*
X27670000Y-77800000D03*
X26670000Y-78800000D03*
X27670000Y-78800000D03*
X26670000Y-79800000D03*
X27670000Y-79800000D03*
X26670000Y-80800000D03*
X27670000Y-80800000D03*
X26670000Y-81800000D03*
X27670000Y-81800000D03*
D11*
X26670000Y-91440000D03*
D12*
X27670000Y-91440000D03*
X26670000Y-92440000D03*
X27670000Y-92440000D03*
X26670000Y-93440000D03*
X27670000Y-93440000D03*
X26670000Y-94440000D03*
X27670000Y-94440000D03*
X26670000Y-95440000D03*
X27670000Y-95440000D03*
X26670000Y-96440000D03*
X27670000Y-96440000D03*
X26670000Y-97440000D03*
X27670000Y-97440000D03*
X26670000Y-98440000D03*
X27670000Y-98440000D03*
X26670000Y-99440000D03*
X27670000Y-99440000D03*
X26670000Y-100440000D03*
X27670000Y-100440000D03*
D13*
X67199200Y-48549700D03*
X67106300Y-34334000D03*
X66317500Y-67187100D03*
X64971700Y-53927600D03*
X75110000Y-55992500D03*
X74155900Y-48438800D03*
X74947800Y-34428000D03*
X75382700Y-66654400D03*
X84952400Y-38100000D03*
X84952400Y-53340000D03*
X84952400Y-48344600D03*
X92890000Y-55880000D03*
X92768300Y-49632300D03*
X91802900Y-42959400D03*
X94074200Y-34133400D03*
X31514800Y-51116900D03*
X103136200Y-48369400D03*
X102814400Y-53340000D03*
X102742200Y-38162300D03*
X111645000Y-48260000D03*
X111633900Y-53340000D03*
X111645000Y-40473700D03*
X109670600Y-34020800D03*
X51279000Y-50391700D03*
X118111000Y-43097200D03*
X118423600Y-33699300D03*
X118515000Y-58474000D03*
X118111000Y-52858200D03*
X30714200Y-49033600D03*
X80040400Y-49771100D03*
X129414100Y-53392800D03*
X130168600Y-42946600D03*
X128880400Y-34384900D03*
X129414100Y-58303400D03*
X138314200Y-38100000D03*
X137340000Y-45385400D03*
X138304800Y-53340000D03*
X82799800Y-33201900D03*
X148010700Y-42928700D03*
X148181700Y-33546400D03*
X148160700Y-52737000D03*
X148160700Y-46434700D03*
X154153500Y-37147900D03*
X154153500Y-43180000D03*
X136251000Y-20014700D03*
X156412400Y-53353600D03*
X163962900Y-51697700D03*
X166064900Y-37438300D03*
X162924700Y-58740800D03*
X65604900Y-55800000D03*
X173472100Y-62121700D03*
X175089000Y-53087700D03*
X174790700Y-48310500D03*
X174517500Y-37257800D03*
X181790000Y-40640000D03*
X181790000Y-60960000D03*
X181790000Y-50007700D03*
X180818000Y-33020000D03*
X169016300Y-51692400D03*
X65610100Y-56800000D03*
X183285700Y-19520600D03*
X190599700Y-34374300D03*
X192692300Y-58420000D03*
X189728500Y-64216600D03*
X199570000Y-60960000D03*
X200549300Y-53340000D03*
X147540500Y-40784200D03*
X33630300Y-57800000D03*
X198463100Y-42958400D03*
X198598000Y-33020000D03*
X209808700Y-38100000D03*
X201849200Y-18873100D03*
X209808700Y-48260000D03*
X207487000Y-64076100D03*
X209808700Y-58168400D03*
X217350000Y-60960000D03*
X217236100Y-51988900D03*
X202570900Y-20590700D03*
X63326800Y-20716700D03*
X216392200Y-38100000D03*
X216328600Y-33392800D03*
X227198100Y-53340000D03*
X227706300Y-38100000D03*
X227198100Y-48442100D03*
X225284600Y-63500000D03*
X236110700Y-53340000D03*
X235146700Y-62121900D03*
X235130000Y-67210400D03*
X236600400Y-41849200D03*
X234034100Y-33546400D03*
X208583500Y-17797400D03*
X65893000Y-17984900D03*
X244103700Y-46883700D03*
X244103700Y-54729000D03*
X243043600Y-63500000D03*
X244103700Y-36626500D03*
X251569400Y-68580000D03*
X252821200Y-61248500D03*
X252821200Y-51697700D03*
X251893200Y-43102000D03*
X255075500Y-33546400D03*
X49591000Y-68326000D03*
X44742100Y-63438400D03*
X67044800Y-17556500D03*
X65254300Y-99234800D03*
X65254300Y-93980000D03*
X76108200Y-105492900D03*
X74158200Y-83820000D03*
X76134800Y-114379100D03*
X76108200Y-94056600D03*
X84964900Y-119380000D03*
X85118600Y-94339600D03*
X82747700Y-79935200D03*
X84971300Y-104140000D03*
X93840700Y-104140000D03*
X93840700Y-93853800D03*
X78429600Y-66547700D03*
X93840700Y-109220000D03*
X92714600Y-80091700D03*
X102738200Y-93980000D03*
X102738200Y-114423200D03*
X70969900Y-85553900D03*
X60840000Y-80298400D03*
X101780000Y-118012200D03*
X102738200Y-104039400D03*
X110869200Y-107867900D03*
X111635600Y-104157800D03*
X82445900Y-67271000D03*
X112009800Y-94032100D03*
X111631800Y-78615500D03*
X120531400Y-93961300D03*
X115505000Y-97595800D03*
X120521900Y-109220000D03*
X25465100Y-89932500D03*
X129401900Y-104045400D03*
X130243500Y-93831400D03*
X130212100Y-84280700D03*
X129401900Y-109406700D03*
X67812300Y-67582400D03*
X135141600Y-86318100D03*
X117321100Y-76781500D03*
X138320800Y-114058300D03*
X136268600Y-108222700D03*
X126531200Y-70495300D03*
X145278900Y-104140000D03*
X137395200Y-80150200D03*
X146233400Y-118011100D03*
X146233400Y-111982700D03*
X155120000Y-111955900D03*
X155120000Y-121807400D03*
X154156200Y-104084800D03*
X152605000Y-96520000D03*
X156099400Y-88900000D03*
X130884800Y-97245000D03*
X22494400Y-85760000D03*
X166119900Y-84280700D03*
X166119900Y-78760200D03*
X163250000Y-70895600D03*
X164962400Y-109130600D03*
X164962400Y-113828700D03*
X172900000Y-96520000D03*
X173856500Y-88900000D03*
X172900000Y-110604900D03*
X135943900Y-96621000D03*
X24914500Y-87295800D03*
X181790000Y-110588200D03*
X181787400Y-102787200D03*
X189726500Y-110123200D03*
X189726500Y-93980000D03*
X189726500Y-104140000D03*
X179033300Y-76505200D03*
X186099200Y-71571000D03*
X198589400Y-83820000D03*
X198576100Y-114987600D03*
X200921300Y-108902700D03*
X200599100Y-99300100D03*
X209423900Y-93939100D03*
X210651300Y-100083700D03*
X213955100Y-117503200D03*
X205647400Y-126251400D03*
X46225800Y-121229400D03*
X165131900Y-72362600D03*
X216382300Y-104140000D03*
X217350000Y-96840500D03*
X224309600Y-76051000D03*
X226264600Y-85201700D03*
X225264900Y-119380000D03*
X225260200Y-114357700D03*
X226240000Y-96911500D03*
X234884300Y-111982700D03*
X236178100Y-104140000D03*
X236110500Y-78760100D03*
X236178100Y-83820000D03*
X223805600Y-72149800D03*
X234176200Y-119380000D03*
X243069000Y-109278500D03*
X243069000Y-114663700D03*
X243069000Y-99242900D03*
X246660700Y-78595100D03*
X252910000Y-91440000D03*
X252910000Y-97684400D03*
X252910000Y-80102600D03*
X251914200Y-73271200D03*
X252889000Y-118000900D03*
X136367200Y-168115000D03*
X136386600Y-162560000D03*
X45318300Y-119436500D03*
X147189100Y-152400000D03*
X147189100Y-162397200D03*
X145188500Y-147142600D03*
X145192300Y-166955700D03*
X156452600Y-152695500D03*
X156452600Y-159693700D03*
X156339100Y-167640000D03*
X156220800Y-142240000D03*
X46851100Y-127644700D03*
X164010000Y-170180000D03*
X164010000Y-160020000D03*
X164980600Y-152400000D03*
X164962400Y-142240000D03*
X173862300Y-157480000D03*
X171398800Y-164280400D03*
X47265400Y-156040300D03*
X175089000Y-147325900D03*
X172962900Y-171360800D03*
X173620100Y-133369700D03*
X181790000Y-170180000D03*
X180836900Y-162560000D03*
X180487100Y-152713400D03*
X180702900Y-142294400D03*
X189710300Y-157037200D03*
X191645100Y-147130200D03*
X190105200Y-174258600D03*
X55903200Y-80072100D03*
X198582700Y-157551400D03*
X200524300Y-147394100D03*
X200553200Y-162925400D03*
X210202800Y-150752200D03*
X195882100Y-126728500D03*
X50897700Y-114102500D03*
X207975700Y-138822100D03*
X207245400Y-166867300D03*
X210202800Y-157316500D03*
X217350000Y-154827400D03*
X219041200Y-146883100D03*
X218335200Y-162242500D03*
X227973600Y-160020000D03*
X52951500Y-82378000D03*
X224996200Y-152731000D03*
X225237900Y-142332500D03*
X228903600Y-157295200D03*
X228903600Y-138830200D03*
X169109600Y-74338900D03*
X51552600Y-127626100D03*
X57365000Y-129100300D03*
X52213800Y-128104100D03*
X115432600Y-174459500D03*
X54293600Y-81048100D03*
X27314100Y-152089900D03*
X27654400Y-173884100D03*
X51240400Y-142834300D03*
X41605700Y-167847600D03*
X49442900Y-134305800D03*
X39633000Y-153232300D03*
X78428600Y-173883800D03*
X63640600Y-121089500D03*
X87666500Y-146108300D03*
X64590500Y-122375000D03*
X103504600Y-166425700D03*
X70292000Y-141885500D03*
X48584800Y-134395100D03*
X31285800Y-133254500D03*
X40055300Y-158968800D03*
X42241600Y-178928600D03*
X40258400Y-140763000D03*
X92461300Y-154474500D03*
X86331900Y-145862200D03*
X40258400Y-153751000D03*
X252821200Y-77111100D03*
X248948300Y-22590700D03*
X50896300Y-140738800D03*
X57498800Y-85425000D03*
X249156500Y-135686200D03*
X251893200Y-132264100D03*
X260744100Y-33689200D03*
X260657700Y-84472500D03*
X255810900Y-135849700D03*
X41413500Y-159727600D03*
X59399600Y-87325900D03*
X250010000Y-138541300D03*
X248948300Y-142210900D03*
X250435000Y-85206400D03*
X246461100Y-38969900D03*
X253882000Y-142668100D03*
X40753100Y-181263400D03*
X61640800Y-89567100D03*
X250110200Y-148716000D03*
X240862400Y-40473700D03*
X237855400Y-89241700D03*
X255339300Y-147771700D03*
X61006800Y-95155500D03*
X60927800Y-149563500D03*
X142351200Y-99060000D03*
X136347600Y-97881100D03*
X151264400Y-99032600D03*
X165310000Y-97103200D03*
X237512700Y-105107400D03*
X170000000Y-44562600D03*
X240862400Y-150534800D03*
X255339300Y-150752200D03*
X60987300Y-172400000D03*
X63735600Y-100425300D03*
X249057900Y-157480000D03*
X261123800Y-105973300D03*
X262767600Y-54363300D03*
X86308400Y-138498400D03*
X81462100Y-105492900D03*
X257877900Y-157416700D03*
X249036000Y-162560000D03*
X231274600Y-162898700D03*
X255419200Y-114971500D03*
X257877900Y-162674200D03*
X262070200Y-55896700D03*
X230935700Y-167121000D03*
X223169500Y-115655900D03*
X249218800Y-168919600D03*
X111214300Y-181990800D03*
X119208700Y-176550200D03*
X214552400Y-115663300D03*
X223340000Y-59785200D03*
X257877900Y-167817500D03*
X120887400Y-125238900D03*
X114435400Y-150375900D03*
X112460100Y-69441700D03*
X132794200Y-169377500D03*
X111648000Y-138663900D03*
D14*
X64971700Y-50777200D02*
X64971700Y-53927600D01*
X67199200Y-48549700D02*
X64971700Y-50777200D01*
X64971700Y-65841300D02*
X66317500Y-67187100D01*
X64971700Y-53927600D02*
X64971700Y-65841300D01*
X67199200Y-34426900D02*
X67106300Y-34334000D01*
X67199200Y-48549700D02*
X67199200Y-34426900D01*
X75110000Y-49392900D02*
X75110000Y-55992500D01*
X74155900Y-48438800D02*
X75110000Y-49392900D01*
X74155900Y-35219900D02*
X74155900Y-48438800D01*
X74947800Y-34428000D02*
X74155900Y-35219900D01*
X75382700Y-56265200D02*
X75110000Y-55992500D01*
X75382700Y-66654400D02*
X75382700Y-56265200D01*
X84952400Y-38100000D02*
X84952400Y-48344600D01*
X84952400Y-48344600D02*
X84952400Y-53340000D01*
X92768300Y-55758300D02*
X92768300Y-49632300D01*
X92890000Y-55880000D02*
X92768300Y-55758300D01*
X91802900Y-48666900D02*
X91802900Y-42959400D01*
X92768300Y-49632300D02*
X91802900Y-48666900D01*
X94074200Y-40688100D02*
X94074200Y-34133400D01*
X91802900Y-42959400D02*
X94074200Y-40688100D01*
X26670000Y-52800000D02*
X25919700Y-52800000D01*
X31434300Y-51036400D02*
X31514800Y-51116900D01*
X29532900Y-51036400D02*
X31434300Y-51036400D01*
X28540300Y-50043800D02*
X29532900Y-51036400D01*
X26098600Y-50043800D02*
X28540300Y-50043800D01*
X25919700Y-50222700D02*
X26098600Y-50043800D01*
X25919700Y-52800000D02*
X25919700Y-50222700D01*
X103136200Y-53018200D02*
X102814400Y-53340000D01*
X103136200Y-48369400D02*
X103136200Y-53018200D01*
X102742200Y-47975400D02*
X102742200Y-38162300D01*
X103136200Y-48369400D02*
X102742200Y-47975400D01*
X111645000Y-48260000D02*
X111645000Y-40473700D01*
X111645000Y-53328900D02*
X111633900Y-53340000D01*
X111645000Y-48260000D02*
X111645000Y-53328900D01*
X109670600Y-38499300D02*
X109670600Y-34020800D01*
X111645000Y-40473700D02*
X109670600Y-38499300D01*
X109156200Y-33506400D02*
X109670600Y-34020800D01*
X83379700Y-33506400D02*
X109156200Y-33506400D01*
X83058900Y-33827200D02*
X83379700Y-33506400D01*
X77253800Y-33827200D02*
X83058900Y-33827200D01*
X77123300Y-33696700D02*
X77253800Y-33827200D01*
X66853900Y-33696700D02*
X77123300Y-33696700D01*
X51279000Y-49271600D02*
X66853900Y-33696700D01*
X51279000Y-50391700D02*
X51279000Y-49271600D01*
X118111000Y-43097200D02*
X118111000Y-52858200D01*
X86800500Y-56531200D02*
X80040400Y-49771100D01*
X118111000Y-56531200D02*
X86800500Y-56531200D01*
X118515000Y-56935200D02*
X118111000Y-56531200D01*
X118515000Y-58474000D02*
X118515000Y-56935200D01*
X118111000Y-56531200D02*
X118111000Y-52858200D01*
X26670000Y-53800000D02*
X25919700Y-53800000D01*
X118423600Y-42784600D02*
X118423600Y-33699300D01*
X118111000Y-43097200D02*
X118423600Y-42784600D01*
X26426700Y-49033600D02*
X30714200Y-49033600D01*
X25453400Y-50006900D02*
X26426700Y-49033600D01*
X25453400Y-53333700D02*
X25453400Y-50006900D01*
X25919700Y-53800000D02*
X25453400Y-53333700D01*
X130168600Y-52638300D02*
X130168600Y-42946600D01*
X129414100Y-53392800D02*
X130168600Y-52638300D01*
X129414100Y-53392800D02*
X129414100Y-58303400D01*
X130168600Y-35673100D02*
X128880400Y-34384900D01*
X130168600Y-42946600D02*
X130168600Y-35673100D01*
X137340000Y-52375200D02*
X138304800Y-53340000D01*
X137340000Y-45385400D02*
X137340000Y-52375200D01*
X82945700Y-33056000D02*
X82799800Y-33201900D01*
X129072800Y-33056000D02*
X82945700Y-33056000D01*
X136215500Y-40198700D02*
X129072800Y-33056000D01*
X138314200Y-38100000D02*
X136215500Y-40198700D01*
X136215500Y-44260900D02*
X137340000Y-45385400D01*
X136215500Y-40198700D02*
X136215500Y-44260900D01*
X148181700Y-42757700D02*
X148181700Y-33546400D01*
X148010700Y-42928700D02*
X148181700Y-42757700D01*
X148160700Y-43078700D02*
X148160700Y-46434700D01*
X148010700Y-42928700D02*
X148160700Y-43078700D01*
X148160700Y-46434700D02*
X148160700Y-52737000D01*
X131566500Y-16931200D02*
X148181700Y-33546400D01*
X65943500Y-16931200D02*
X131566500Y-16931200D01*
X50726200Y-32148500D02*
X65943500Y-16931200D01*
X50726200Y-32678200D02*
X50726200Y-32148500D01*
X32140100Y-51264300D02*
X50726200Y-32678200D01*
X32140100Y-51376000D02*
X32140100Y-51264300D01*
X31773900Y-51742200D02*
X32140100Y-51376000D01*
X31662200Y-51742200D02*
X31773900Y-51742200D01*
X28604400Y-54800000D02*
X31662200Y-51742200D01*
X27670000Y-54800000D02*
X28604400Y-54800000D01*
X154153500Y-43180000D02*
X154153500Y-37147900D01*
X156412400Y-45438900D02*
X154153500Y-43180000D01*
X156412400Y-53353600D02*
X156412400Y-45438900D01*
X153384200Y-37147900D02*
X136251000Y-20014700D01*
X154153500Y-37147900D02*
X153384200Y-37147900D01*
X166064900Y-49595700D02*
X166064900Y-37438300D01*
X163962900Y-51697700D02*
X166064900Y-49595700D01*
X162924700Y-58740800D02*
X162779500Y-58595500D01*
X163962900Y-57412100D02*
X163962900Y-51697700D01*
X162779500Y-58595500D02*
X163962900Y-57412100D01*
X66617000Y-56812100D02*
X65604900Y-55800000D01*
X66617000Y-58779200D02*
X66617000Y-56812100D01*
X75151100Y-67313300D02*
X66617000Y-58779200D01*
X75669400Y-67313300D02*
X75151100Y-67313300D01*
X76035600Y-66947100D02*
X75669400Y-67313300D01*
X76035600Y-66736200D02*
X76035600Y-66947100D01*
X77999800Y-64772000D02*
X76035600Y-66736200D01*
X78438300Y-64772000D02*
X77999800Y-64772000D01*
X78556200Y-64654100D02*
X78438300Y-64772000D01*
X156720900Y-64654100D02*
X78556200Y-64654100D01*
X162779500Y-58595500D02*
X156720900Y-64654100D01*
X175089000Y-60504800D02*
X173472100Y-62121700D01*
X175089000Y-53087700D02*
X175089000Y-60504800D01*
X175089000Y-48608800D02*
X174790700Y-48310500D01*
X175089000Y-53087700D02*
X175089000Y-48608800D01*
X174790700Y-37531000D02*
X174517500Y-37257800D01*
X174790700Y-48310500D02*
X174790700Y-37531000D01*
X25003000Y-55883300D02*
X25919700Y-56800000D01*
X25003000Y-49820400D02*
X25003000Y-55883300D01*
X58342500Y-16480900D02*
X25003000Y-49820400D01*
X153740600Y-16480900D02*
X58342500Y-16480900D01*
X174517500Y-37257800D02*
X153740600Y-16480900D01*
X26670000Y-56800000D02*
X25919700Y-56800000D01*
X181790000Y-50007700D02*
X181790000Y-60960000D01*
X181790000Y-40640000D02*
X181790000Y-50007700D01*
X180818000Y-39668000D02*
X180818000Y-33020000D01*
X181790000Y-40640000D02*
X180818000Y-39668000D01*
X65610100Y-58473000D02*
X65610100Y-56800000D01*
X74900800Y-67763700D02*
X65610100Y-58473000D01*
X75855900Y-67763700D02*
X74900800Y-67763700D01*
X76485900Y-67133700D02*
X75855900Y-67763700D01*
X76485900Y-66922800D02*
X76485900Y-67133700D01*
X78186400Y-65222300D02*
X76485900Y-66922800D01*
X157425700Y-65222300D02*
X78186400Y-65222300D01*
X169016300Y-53631700D02*
X157425700Y-65222300D01*
X169016300Y-51692400D02*
X169016300Y-53631700D01*
X192692300Y-36466900D02*
X190599700Y-34374300D01*
X192692300Y-58420000D02*
X192692300Y-36466900D01*
X192692300Y-61252800D02*
X192692300Y-58420000D01*
X189728500Y-64216600D02*
X192692300Y-61252800D01*
X183285700Y-27060300D02*
X183285700Y-19520600D01*
X190599700Y-34374300D02*
X183285700Y-27060300D01*
X199570000Y-54319300D02*
X200549300Y-53340000D01*
X199570000Y-60960000D02*
X199570000Y-54319300D01*
X198463100Y-51253800D02*
X198463100Y-42958400D01*
X200549300Y-53340000D02*
X198463100Y-51253800D01*
X198463100Y-33154900D02*
X198598000Y-33020000D01*
X198463100Y-42958400D02*
X198463100Y-33154900D01*
X58870400Y-32559900D02*
X33630300Y-57800000D01*
X139316200Y-32559900D02*
X58870400Y-32559900D01*
X147540500Y-40784200D02*
X139316200Y-32559900D01*
X209808700Y-38100000D02*
X209808700Y-48260000D01*
X209808700Y-61754400D02*
X209808700Y-58168400D01*
X207487000Y-64076100D02*
X209808700Y-61754400D01*
X209808700Y-58168400D02*
X209808700Y-48260000D01*
X201849200Y-30140500D02*
X201849200Y-18873100D01*
X209808700Y-38100000D02*
X201849200Y-30140500D01*
X27670000Y-58800000D02*
X28420300Y-58800000D01*
X217350000Y-52102800D02*
X217350000Y-60960000D01*
X217236100Y-51988900D02*
X217350000Y-52102800D01*
X217236100Y-38943900D02*
X217236100Y-51988900D01*
X216392200Y-38100000D02*
X217236100Y-38943900D01*
X216328600Y-38036400D02*
X216392200Y-38100000D01*
X216328600Y-33392800D02*
X216328600Y-38036400D01*
X63326800Y-23893500D02*
X63326800Y-20716700D01*
X28420300Y-58800000D02*
X63326800Y-23893500D01*
X215373000Y-33392800D02*
X202570900Y-20590700D01*
X216328600Y-33392800D02*
X215373000Y-33392800D01*
X227198100Y-53340000D02*
X227198100Y-48442100D01*
X227706300Y-47933900D02*
X227706300Y-38100000D01*
X227198100Y-48442100D02*
X227706300Y-47933900D01*
X24491500Y-58371800D02*
X25919700Y-59800000D01*
X24491500Y-49695000D02*
X24491500Y-58371800D01*
X58155900Y-16030600D02*
X24491500Y-49695000D01*
X205636900Y-16030600D02*
X58155900Y-16030600D01*
X227706300Y-38100000D02*
X205636900Y-16030600D01*
X26670000Y-59800000D02*
X25919700Y-59800000D01*
X227198100Y-61586500D02*
X225284600Y-63500000D01*
X227198100Y-53340000D02*
X227198100Y-61586500D01*
X235146700Y-54304000D02*
X236110700Y-53340000D01*
X235146700Y-62121900D02*
X235146700Y-54304000D01*
X236110700Y-42338900D02*
X236600400Y-41849200D01*
X236110700Y-53340000D02*
X236110700Y-42338900D01*
X27670000Y-59800000D02*
X28420300Y-59800000D01*
X234034100Y-39282900D02*
X234034100Y-33546400D01*
X236600400Y-41849200D02*
X234034100Y-39282900D01*
X224332500Y-33546400D02*
X208583500Y-17797400D01*
X234034100Y-33546400D02*
X224332500Y-33546400D01*
X65892900Y-17984900D02*
X65893000Y-17984900D01*
X65892900Y-22327400D02*
X65892900Y-17984900D01*
X28420300Y-59800000D02*
X65892900Y-22327400D01*
X235146700Y-67193700D02*
X235130000Y-67210400D01*
X235146700Y-62121900D02*
X235146700Y-67193700D01*
X244103700Y-46883700D02*
X244103700Y-54729000D01*
X26670000Y-60800000D02*
X25919700Y-60800000D01*
X244103700Y-46883700D02*
X244103700Y-36626500D01*
X24041100Y-58921400D02*
X25919700Y-60800000D01*
X24041100Y-49446700D02*
X24041100Y-58921400D01*
X57912400Y-15575400D02*
X24041100Y-49446700D01*
X223052600Y-15575400D02*
X57912400Y-15575400D01*
X244103700Y-36626500D02*
X223052600Y-15575400D01*
X243043600Y-55789100D02*
X243043600Y-63500000D01*
X244103700Y-54729000D02*
X243043600Y-55789100D01*
X252821200Y-61248500D02*
X252821200Y-51697700D01*
X251893200Y-50769700D02*
X251893200Y-43102000D01*
X252821200Y-51697700D02*
X251893200Y-50769700D01*
X255075500Y-39919700D02*
X255075500Y-33546400D01*
X251893200Y-43102000D02*
X255075500Y-39919700D01*
X252821200Y-67328200D02*
X251569400Y-68580000D01*
X252821200Y-61248500D02*
X252821200Y-67328200D01*
X49591000Y-68287300D02*
X49591000Y-68326000D01*
X44742100Y-63438400D02*
X49591000Y-68287300D01*
X27670000Y-61800000D02*
X28420300Y-61800000D01*
X67044800Y-23175500D02*
X28420300Y-61800000D01*
X67044800Y-17556500D02*
X67044800Y-23175500D01*
X65254300Y-93980000D02*
X65254300Y-99234800D01*
X53138200Y-62800000D02*
X74158200Y-83820000D01*
X27670000Y-62800000D02*
X53138200Y-62800000D01*
X76134800Y-105519500D02*
X76108200Y-105492900D01*
X76134800Y-114379100D02*
X76134800Y-105519500D01*
X76108200Y-105492900D02*
X76108200Y-94056600D01*
X76108200Y-85770000D02*
X74158200Y-83820000D01*
X76108200Y-94056600D02*
X76108200Y-85770000D01*
X82747700Y-91968700D02*
X82747700Y-79935200D01*
X85118600Y-94339600D02*
X82747700Y-91968700D01*
X84964900Y-104146400D02*
X84964900Y-119380000D01*
X84971300Y-104140000D02*
X84964900Y-104146400D01*
X84971300Y-94486900D02*
X84971300Y-104140000D01*
X85118600Y-94339600D02*
X84971300Y-94486900D01*
X93840700Y-104140000D02*
X93840700Y-93853800D01*
X93840700Y-104140000D02*
X93840700Y-109220000D01*
X92714600Y-92727700D02*
X92714600Y-80091700D01*
X93840700Y-93853800D02*
X92714600Y-92727700D01*
X91973600Y-80091700D02*
X92714600Y-80091700D01*
X78429600Y-66547700D02*
X91973600Y-80091700D01*
X66095500Y-85553900D02*
X70969900Y-85553900D01*
X60840000Y-80298400D02*
X66095500Y-85553900D01*
X102738200Y-117054000D02*
X101780000Y-118012200D01*
X102738200Y-114423200D02*
X102738200Y-117054000D01*
X102738200Y-114423200D02*
X102738200Y-104039400D01*
X102738200Y-104039400D02*
X102738200Y-93980000D01*
X112009800Y-103783600D02*
X112009800Y-94032100D01*
X111635600Y-104157800D02*
X112009800Y-103783600D01*
X112009800Y-78993500D02*
X111631800Y-78615500D01*
X112009800Y-94032100D02*
X112009800Y-78993500D01*
X111635600Y-107101500D02*
X110869200Y-107867900D01*
X111635600Y-104157800D02*
X111635600Y-107101500D01*
X100287300Y-67271000D02*
X82445900Y-67271000D01*
X111631800Y-78615500D02*
X100287300Y-67271000D01*
X26670000Y-65800000D02*
X25919700Y-65800000D01*
X21815400Y-86282800D02*
X25465100Y-89932500D01*
X21815400Y-69904300D02*
X21815400Y-86282800D01*
X25919700Y-65800000D02*
X21815400Y-69904300D01*
X117342600Y-97595800D02*
X115505000Y-97595800D01*
X117342600Y-97150100D02*
X117342600Y-97595800D01*
X120531400Y-93961300D02*
X117342600Y-97150100D01*
X117342600Y-106040700D02*
X120521900Y-109220000D01*
X117342600Y-97595800D02*
X117342600Y-106040700D01*
X130243500Y-103203800D02*
X129401900Y-104045400D01*
X130243500Y-93831400D02*
X130243500Y-103203800D01*
X129401900Y-104045400D02*
X129401900Y-109406700D01*
X130243500Y-84312100D02*
X130212100Y-84280700D01*
X130243500Y-93831400D02*
X130243500Y-84312100D01*
X68443900Y-68214000D02*
X67812300Y-67582400D01*
X76042500Y-68214000D02*
X68443900Y-68214000D01*
X76936200Y-67320300D02*
X76042500Y-68214000D01*
X76936200Y-67109400D02*
X76936200Y-67320300D01*
X78173000Y-65872600D02*
X76936200Y-67109400D01*
X109837500Y-65872600D02*
X78173000Y-65872600D01*
X116695700Y-72730800D02*
X109837500Y-65872600D01*
X116695700Y-77077100D02*
X116695700Y-72730800D01*
X123899300Y-84280700D02*
X116695700Y-77077100D01*
X130212100Y-84280700D02*
X123899300Y-84280700D01*
X136268600Y-112006100D02*
X136268600Y-108222700D01*
X138320800Y-114058300D02*
X136268600Y-112006100D01*
X134799200Y-106753300D02*
X136268600Y-108222700D01*
X134799200Y-86660500D02*
X134799200Y-106753300D01*
X135141600Y-86318100D02*
X134799200Y-86660500D01*
X125605000Y-76781500D02*
X117321100Y-76781500D01*
X135141600Y-86318100D02*
X125605000Y-76781500D01*
X146233400Y-118011100D02*
X146233400Y-111982700D01*
X146233400Y-105094500D02*
X145278900Y-104140000D01*
X146233400Y-111982700D02*
X146233400Y-105094500D01*
X135766900Y-79731000D02*
X135766900Y-80150200D01*
X126531200Y-70495300D02*
X135766900Y-79731000D01*
X135766900Y-80150200D02*
X137395200Y-80150200D01*
X141085100Y-104140000D02*
X145278900Y-104140000D01*
X135249500Y-98304400D02*
X141085100Y-104140000D01*
X135249500Y-96412300D02*
X135249500Y-98304400D01*
X135766900Y-95894900D02*
X135249500Y-96412300D01*
X135766900Y-80150200D02*
X135766900Y-95894900D01*
X154156200Y-110992100D02*
X154156200Y-104084800D01*
X155120000Y-111955900D02*
X154156200Y-110992100D01*
X26670000Y-67800000D02*
X25919700Y-67800000D01*
X155120000Y-111955900D02*
X155120000Y-118644200D01*
X155120000Y-118644200D02*
X155120000Y-121807400D01*
X130884800Y-107507200D02*
X130884800Y-97245000D01*
X142021800Y-118644200D02*
X130884800Y-107507200D01*
X155120000Y-118644200D02*
X142021800Y-118644200D01*
X22494400Y-71225300D02*
X22494400Y-85760000D01*
X25919700Y-67800000D02*
X22494400Y-71225300D01*
X152605000Y-92394400D02*
X156099400Y-88900000D01*
X152605000Y-96520000D02*
X152605000Y-92394400D01*
X166119900Y-84280700D02*
X166119900Y-78760200D01*
X166119900Y-107973100D02*
X166119900Y-84280700D01*
X164962400Y-109130600D02*
X166119900Y-107973100D01*
X164962400Y-113828700D02*
X164962400Y-109130600D01*
X163250000Y-75890300D02*
X166119900Y-78760200D01*
X163250000Y-70895600D02*
X163250000Y-75890300D01*
X23126500Y-71593200D02*
X25919700Y-68800000D01*
X23126500Y-85507800D02*
X23126500Y-71593200D01*
X24914500Y-87295800D02*
X23126500Y-85507800D01*
X172900000Y-96520000D02*
X172900000Y-110604900D01*
X135699800Y-96865100D02*
X135943900Y-96621000D01*
X135699800Y-98117800D02*
X135699800Y-96865100D01*
X137351400Y-99769400D02*
X135699800Y-98117800D01*
X150755700Y-99769400D02*
X137351400Y-99769400D01*
X155946200Y-104959900D02*
X150755700Y-99769400D01*
X155946200Y-105754200D02*
X155946200Y-104959900D01*
X164670100Y-114478100D02*
X155946200Y-105754200D01*
X169026800Y-114478100D02*
X164670100Y-114478100D01*
X172900000Y-110604900D02*
X169026800Y-114478100D01*
X26670000Y-68800000D02*
X25919700Y-68800000D01*
X172900000Y-89856500D02*
X173856500Y-88900000D01*
X172900000Y-96520000D02*
X172900000Y-89856500D01*
X181790000Y-110588200D02*
X181787400Y-110585600D01*
X181787400Y-110585600D02*
X181787400Y-102787200D01*
X47540300Y-68800000D02*
X27670000Y-68800000D01*
X74743900Y-96003600D02*
X47540300Y-68800000D01*
X74743900Y-127181500D02*
X74743900Y-96003600D01*
X83984900Y-136422500D02*
X74743900Y-127181500D01*
X83985000Y-136422500D02*
X83984900Y-136422500D01*
X85567200Y-138004700D02*
X83985000Y-136422500D01*
X85567200Y-138641700D02*
X85567200Y-138004700D01*
X86250900Y-139325400D02*
X85567200Y-138641700D01*
X153047600Y-139325400D02*
X86250900Y-139325400D01*
X181787400Y-110585600D02*
X153047600Y-139325400D01*
X189726500Y-104140000D02*
X189726500Y-110123200D01*
X189726500Y-104140000D02*
X189726500Y-93980000D01*
X179033300Y-83286800D02*
X179033300Y-76505200D01*
X189726500Y-93980000D02*
X179033300Y-83286800D01*
X200921300Y-112642400D02*
X200921300Y-108902700D01*
X198576100Y-114987600D02*
X200921300Y-112642400D01*
X200599100Y-108580500D02*
X200599100Y-99300100D01*
X200921300Y-108902700D02*
X200599100Y-108580500D01*
X200599100Y-86070900D02*
X198468800Y-83940600D01*
X200599100Y-99300100D02*
X200599100Y-86070900D01*
X198468700Y-83940600D02*
X198468800Y-83940600D01*
X198468700Y-83940500D02*
X198468700Y-83940600D01*
X186099200Y-71571000D02*
X198468700Y-83940500D01*
X198468800Y-83940600D02*
X198589400Y-83820000D01*
X210651300Y-95166500D02*
X210651300Y-100083700D01*
X209423900Y-93939100D02*
X210651300Y-95166500D01*
X210651300Y-114199400D02*
X213955100Y-117503200D01*
X210651300Y-100083700D02*
X210651300Y-114199400D01*
X26670000Y-70800000D02*
X25919700Y-70800000D01*
X205647400Y-125810900D02*
X205647400Y-126251400D01*
X213955100Y-117503200D02*
X205647400Y-125810900D01*
X31923600Y-106927200D02*
X46225800Y-121229400D01*
X31923600Y-93290600D02*
X31923600Y-106927200D01*
X23576900Y-84943900D02*
X31923600Y-93290600D01*
X23576900Y-73142800D02*
X23576900Y-84943900D01*
X25919700Y-70800000D02*
X23576900Y-73142800D01*
X216382300Y-96840500D02*
X216382300Y-104140000D01*
X190428300Y-70886500D02*
X216382300Y-96840500D01*
X166608000Y-70886500D02*
X190428300Y-70886500D01*
X165131900Y-72362600D02*
X166608000Y-70886500D01*
X216382300Y-96840500D02*
X217350000Y-96840500D01*
X226264600Y-96886900D02*
X226240000Y-96911500D01*
X226264600Y-85201700D02*
X226264600Y-96886900D01*
X226240000Y-113377900D02*
X225260200Y-114357700D01*
X226240000Y-96911500D02*
X226240000Y-113377900D01*
X226264600Y-78006000D02*
X224309600Y-76051000D01*
X226264600Y-85201700D02*
X226264600Y-78006000D01*
X225260200Y-119375300D02*
X225264900Y-119380000D01*
X225260200Y-114357700D02*
X225260200Y-119375300D01*
X236178100Y-110688900D02*
X236178100Y-104140000D01*
X234884300Y-111982700D02*
X236178100Y-110688900D01*
X236178100Y-104140000D02*
X236178100Y-83820000D01*
X236178100Y-78827700D02*
X236110500Y-78760100D01*
X236178100Y-83820000D02*
X236178100Y-78827700D01*
X230415900Y-78760100D02*
X223805600Y-72149800D01*
X236110500Y-78760100D02*
X230415900Y-78760100D01*
X234884300Y-118671900D02*
X234176200Y-119380000D01*
X234884300Y-111982700D02*
X234884300Y-118671900D01*
X243069000Y-114663700D02*
X243069000Y-109278500D01*
X243069000Y-109278500D02*
X243069000Y-99242900D01*
X246660700Y-95651200D02*
X246660700Y-78595100D01*
X243069000Y-99242900D02*
X246660700Y-95651200D01*
X252910000Y-97684400D02*
X252910000Y-91440000D01*
X252910000Y-91440000D02*
X252910000Y-80102600D01*
X252889000Y-97705400D02*
X252910000Y-97684400D01*
X252889000Y-118000900D02*
X252889000Y-97705400D01*
X251914200Y-79106800D02*
X251914200Y-73271200D01*
X252910000Y-80102600D02*
X251914200Y-79106800D01*
X136367200Y-162579400D02*
X136367200Y-168115000D01*
X136386600Y-162560000D02*
X136367200Y-162579400D01*
X26670000Y-74800000D02*
X25919700Y-74800000D01*
X45318300Y-106048400D02*
X45318300Y-119436500D01*
X24039500Y-84769600D02*
X45318300Y-106048400D01*
X24039500Y-76680200D02*
X24039500Y-84769600D01*
X25919700Y-74800000D02*
X24039500Y-76680200D01*
X147189100Y-152400000D02*
X147189100Y-162397200D01*
X145188500Y-150399400D02*
X145188500Y-147142600D01*
X147189100Y-152400000D02*
X145188500Y-150399400D01*
X147189100Y-164958900D02*
X145192300Y-166955700D01*
X147189100Y-162397200D02*
X147189100Y-164958900D01*
X52882400Y-74800000D02*
X27670000Y-74800000D01*
X74293600Y-96211200D02*
X52882400Y-74800000D01*
X74293600Y-127368100D02*
X74293600Y-96211200D01*
X83798300Y-136872800D02*
X74293600Y-127368100D01*
X83798400Y-136872800D02*
X83798300Y-136872800D01*
X85116900Y-138191300D02*
X83798400Y-136872800D01*
X85116900Y-138828300D02*
X85116900Y-138191300D01*
X86322200Y-140033600D02*
X85116900Y-138828300D01*
X102565800Y-140033600D02*
X86322200Y-140033600D01*
X132535100Y-170002900D02*
X102565800Y-140033600D01*
X142145100Y-170002900D02*
X132535100Y-170002900D01*
X145192300Y-166955700D02*
X142145100Y-170002900D01*
X156452600Y-159693700D02*
X156452600Y-152695500D01*
X26670000Y-75800000D02*
X25919700Y-75800000D01*
X46851100Y-106307400D02*
X46851100Y-127644700D01*
X24490000Y-83946300D02*
X46851100Y-106307400D01*
X24490000Y-77229700D02*
X24490000Y-83946300D01*
X25919700Y-75800000D02*
X24490000Y-77229700D01*
X156452600Y-142471800D02*
X156220800Y-142240000D01*
X156452600Y-152695500D02*
X156452600Y-142471800D01*
X156452600Y-167526500D02*
X156339100Y-167640000D01*
X156452600Y-159693700D02*
X156452600Y-167526500D01*
X164010000Y-160020000D02*
X164010000Y-170180000D01*
X164010000Y-153370600D02*
X164980600Y-152400000D01*
X164010000Y-160020000D02*
X164010000Y-153370600D01*
X53223800Y-75800000D02*
X27670000Y-75800000D01*
X73843200Y-96419400D02*
X53223800Y-75800000D01*
X73843200Y-127554600D02*
X73843200Y-96419400D01*
X83611700Y-137323100D02*
X73843200Y-127554600D01*
X83611800Y-137323100D02*
X83611700Y-137323100D01*
X84666600Y-138377900D02*
X83611800Y-137323100D01*
X84666600Y-139014900D02*
X84666600Y-138377900D01*
X86135600Y-140483900D02*
X84666600Y-139014900D01*
X102379200Y-140483900D02*
X86135600Y-140483900D01*
X132437000Y-170541700D02*
X102379200Y-140483900D01*
X163648300Y-170541700D02*
X132437000Y-170541700D01*
X164010000Y-170180000D02*
X163648300Y-170541700D01*
X164980600Y-142258200D02*
X164962400Y-142240000D01*
X164980600Y-152400000D02*
X164980600Y-142258200D01*
X26670000Y-76800000D02*
X25919700Y-76800000D01*
X175089000Y-156253300D02*
X175089000Y-147325900D01*
X173862300Y-157480000D02*
X175089000Y-156253300D01*
X172614400Y-171012300D02*
X172614400Y-164280400D01*
X172962900Y-171360800D02*
X172614400Y-171012300D01*
X171398800Y-164280400D02*
X172614400Y-164280400D01*
X172614400Y-158727900D02*
X173862300Y-157480000D01*
X172614400Y-164280400D02*
X172614400Y-158727900D01*
X24988300Y-77731400D02*
X25919700Y-76800000D01*
X24988300Y-83807700D02*
X24988300Y-77731400D01*
X47479400Y-106298800D02*
X24988300Y-83807700D01*
X47479400Y-128316000D02*
X47479400Y-106298800D01*
X50637200Y-131473800D02*
X47479400Y-128316000D01*
X50637200Y-140113600D02*
X50637200Y-131473800D01*
X50271000Y-140479800D02*
X50637200Y-140113600D01*
X50271000Y-140997800D02*
X50271000Y-140479800D01*
X50637300Y-141364100D02*
X50271000Y-140997800D01*
X50733100Y-141364100D02*
X50637300Y-141364100D01*
X51865700Y-142496700D02*
X50733100Y-141364100D01*
X51865700Y-151440000D02*
X51865700Y-142496700D01*
X47265400Y-156040300D02*
X51865700Y-151440000D01*
X175089000Y-134838600D02*
X173620100Y-133369700D01*
X175089000Y-147325900D02*
X175089000Y-134838600D01*
X180836900Y-169226900D02*
X181790000Y-170180000D01*
X180836900Y-162560000D02*
X180836900Y-169226900D01*
X180487100Y-162210200D02*
X180487100Y-152713400D01*
X180836900Y-162560000D02*
X180487100Y-162210200D01*
X180702900Y-152497600D02*
X180702900Y-142294400D01*
X180487100Y-152713400D02*
X180702900Y-152497600D01*
X53586800Y-76800000D02*
X27670000Y-76800000D01*
X73365500Y-96578700D02*
X53586800Y-76800000D01*
X73365500Y-127713800D02*
X73365500Y-96578700D01*
X83425100Y-137773400D02*
X73365500Y-127713800D01*
X83425200Y-137773400D02*
X83425100Y-137773400D01*
X84216300Y-138564500D02*
X83425200Y-137773400D01*
X84216300Y-139201500D02*
X84216300Y-138564500D01*
X85949000Y-140934200D02*
X84216300Y-139201500D01*
X102192600Y-140934200D02*
X85949000Y-140934200D01*
X133249200Y-171990800D02*
X102192600Y-140934200D01*
X178073000Y-171990800D02*
X133249200Y-171990800D01*
X180836900Y-169226900D02*
X178073000Y-171990800D01*
X189710300Y-149065000D02*
X189710300Y-157037200D01*
X191645100Y-147130200D02*
X189710300Y-149065000D01*
X189710300Y-157037200D02*
X189710300Y-172441100D01*
X189710300Y-173863700D02*
X189710300Y-172441100D01*
X190105200Y-174258600D02*
X189710300Y-173863700D01*
X72915100Y-97084000D02*
X55903200Y-80072100D01*
X72915100Y-127900300D02*
X72915100Y-97084000D01*
X83238500Y-138223700D02*
X72915100Y-127900300D01*
X83238600Y-138223700D02*
X83238500Y-138223700D01*
X83238600Y-138860700D02*
X83238600Y-138223700D01*
X85762400Y-141384500D02*
X83238600Y-138860700D01*
X101723200Y-141384500D02*
X85762400Y-141384500D01*
X132779800Y-172441100D02*
X101723200Y-141384500D01*
X189710300Y-172441100D02*
X132779800Y-172441100D01*
X200524300Y-155609800D02*
X198582700Y-157551400D01*
X200524300Y-147394100D02*
X200524300Y-155609800D01*
X27670000Y-77800000D02*
X28420300Y-77800000D01*
X198582700Y-160954900D02*
X198582700Y-157551400D01*
X200553200Y-162925400D02*
X198582700Y-160954900D01*
X52699500Y-77800000D02*
X28420300Y-77800000D01*
X72464800Y-97565300D02*
X52699500Y-77800000D01*
X72464800Y-128723800D02*
X72464800Y-97565300D01*
X85960200Y-142219200D02*
X72464800Y-128723800D01*
X89308300Y-142219200D02*
X85960200Y-142219200D01*
X121973200Y-174884100D02*
X89308300Y-142219200D01*
X190419300Y-174884100D02*
X121973200Y-174884100D01*
X200553200Y-164750200D02*
X190419300Y-174884100D01*
X200553200Y-162925400D02*
X200553200Y-164750200D01*
X26670000Y-78800000D02*
X25919700Y-78800000D01*
X210202800Y-141049200D02*
X207975700Y-138822100D01*
X210202800Y-150752200D02*
X210202800Y-141049200D01*
X210202800Y-163909900D02*
X210202800Y-157316500D01*
X207245400Y-166867300D02*
X210202800Y-163909900D01*
X210202800Y-157316500D02*
X210202800Y-150752200D01*
X195882100Y-126728500D02*
X207975700Y-138822100D01*
X50897700Y-109080200D02*
X50897700Y-114102500D01*
X25438600Y-83621100D02*
X50897700Y-109080200D01*
X25438600Y-79281100D02*
X25438600Y-83621100D01*
X25919700Y-78800000D02*
X25438600Y-79281100D01*
X219041200Y-153136200D02*
X219041200Y-146883100D01*
X217350000Y-154827400D02*
X219041200Y-153136200D01*
X218335200Y-162242500D02*
X217350000Y-161257300D01*
X217350000Y-161257300D02*
X217350000Y-154827400D01*
X53039100Y-78800000D02*
X27670000Y-78800000D01*
X72000800Y-97761700D02*
X53039100Y-78800000D01*
X72000800Y-128896700D02*
X72000800Y-97761700D01*
X85839400Y-142735300D02*
X72000800Y-128896700D01*
X88269200Y-142735300D02*
X85839400Y-142735300D01*
X120912400Y-175378500D02*
X88269200Y-142735300D01*
X203228800Y-175378500D02*
X120912400Y-175378500D01*
X217350000Y-161257300D02*
X203228800Y-175378500D01*
X224996200Y-160020000D02*
X227973600Y-160020000D01*
X224996200Y-160020000D02*
X224996200Y-152731000D01*
X225237900Y-152489300D02*
X225237900Y-142332500D01*
X224996200Y-152731000D02*
X225237900Y-152489300D01*
X55336300Y-82378000D02*
X52951500Y-82378000D01*
X70715700Y-97757400D02*
X55336300Y-82378000D01*
X70715700Y-128954400D02*
X70715700Y-97757400D01*
X85397300Y-143636000D02*
X70715700Y-128954400D01*
X86078600Y-143636000D02*
X85397300Y-143636000D01*
X88291800Y-145849200D02*
X86078600Y-143636000D01*
X88291800Y-148214900D02*
X88291800Y-145849200D01*
X115963600Y-175886700D02*
X88291800Y-148214900D01*
X209129500Y-175886700D02*
X115963600Y-175886700D01*
X224996200Y-160020000D02*
X209129500Y-175886700D01*
X228903600Y-157295200D02*
X228903600Y-138830200D01*
X217341900Y-138830200D02*
X228903600Y-138830200D01*
X186433400Y-107921700D02*
X217341900Y-138830200D01*
X186433400Y-91662700D02*
X186433400Y-107921700D01*
X169109600Y-74338900D02*
X186433400Y-91662700D01*
X26670000Y-80800000D02*
X25919700Y-80800000D01*
X51552600Y-108809300D02*
X51552600Y-127626100D01*
X25919700Y-83176400D02*
X51552600Y-108809300D01*
X25919700Y-80800000D02*
X25919700Y-83176400D01*
X57365000Y-109744700D02*
X28420300Y-80800000D01*
X57365000Y-129100300D02*
X57365000Y-109744700D01*
X27670000Y-80800000D02*
X28420300Y-80800000D01*
X26670000Y-81800000D02*
X26670000Y-82550300D01*
X52213800Y-108094100D02*
X52213800Y-128104100D01*
X26670000Y-82550300D02*
X52213800Y-108094100D01*
X54650300Y-81048100D02*
X54293600Y-81048100D01*
X71517600Y-97915400D02*
X54650300Y-81048100D01*
X71517600Y-129119400D02*
X71517600Y-97915400D01*
X85583800Y-143185600D02*
X71517600Y-129119400D01*
X86265100Y-143185600D02*
X85583800Y-143185600D01*
X115432600Y-172353100D02*
X86265100Y-143185600D01*
X115432600Y-174459500D02*
X115432600Y-172353100D01*
X27670000Y-91440000D02*
X27670000Y-90689700D01*
X24077300Y-148853100D02*
X27314100Y-152089900D01*
X24077300Y-92692900D02*
X24077300Y-148853100D01*
X26080500Y-90689700D02*
X24077300Y-92692900D01*
X27670000Y-90689700D02*
X26080500Y-90689700D01*
X26670000Y-92440000D02*
X25919700Y-92440000D01*
X24558900Y-93800800D02*
X25919700Y-92440000D01*
X24558900Y-131811400D02*
X24558900Y-93800800D01*
X27939400Y-135191900D02*
X24558900Y-131811400D01*
X27939400Y-173599100D02*
X27939400Y-135191900D01*
X27654400Y-173884100D02*
X27939400Y-173599100D01*
X27670000Y-92440000D02*
X28420300Y-92440000D01*
X49820700Y-141414600D02*
X51240400Y-142834300D01*
X49820700Y-140293200D02*
X49820700Y-141414600D01*
X50105700Y-140008200D02*
X49820700Y-140293200D01*
X50105700Y-134046300D02*
X50105700Y-140008200D01*
X29885300Y-113825900D02*
X50105700Y-134046300D01*
X29885300Y-93905000D02*
X29885300Y-113825900D01*
X28420300Y-92440000D02*
X29885300Y-93905000D01*
X26670000Y-93440000D02*
X25919700Y-93440000D01*
X37706100Y-163948000D02*
X41605700Y-167847600D01*
X37706100Y-144226400D02*
X37706100Y-163948000D01*
X25009300Y-131529600D02*
X37706100Y-144226400D01*
X25009300Y-94350400D02*
X25009300Y-131529600D01*
X25919700Y-93440000D02*
X25009300Y-94350400D01*
X29033000Y-94052700D02*
X28420300Y-93440000D01*
X29033000Y-113895900D02*
X29033000Y-94052700D01*
X49442900Y-134305800D02*
X29033000Y-113895900D01*
X27670000Y-93440000D02*
X28420300Y-93440000D01*
X26670000Y-94440000D02*
X25919700Y-94440000D01*
X39633000Y-144873300D02*
X39633000Y-153232300D01*
X25459700Y-130700000D02*
X39633000Y-144873300D01*
X25459700Y-94900000D02*
X25459700Y-130700000D01*
X25919700Y-94440000D02*
X25459700Y-94900000D01*
X63640600Y-159095800D02*
X78428600Y-173883800D01*
X63640600Y-121089500D02*
X63640600Y-159095800D01*
X64590500Y-123544500D02*
X64590500Y-122375000D01*
X85853700Y-144807700D02*
X64590500Y-123544500D01*
X86365900Y-144807700D02*
X85853700Y-144807700D01*
X87666500Y-146108300D02*
X86365900Y-144807700D01*
X28420300Y-114230600D02*
X28420300Y-95440000D01*
X48584800Y-134395100D02*
X28420300Y-114230600D01*
X27670000Y-95440000D02*
X28420300Y-95440000D01*
X78964400Y-141885500D02*
X70292000Y-141885500D01*
X103504600Y-166425700D02*
X78964400Y-141885500D01*
X26670000Y-97440000D02*
X26294900Y-97440000D01*
X26544600Y-97190300D02*
X26670000Y-97190300D01*
X26294900Y-97440000D02*
X26544600Y-97190300D01*
X26670000Y-96440000D02*
X26670000Y-97190300D01*
X25919600Y-127888300D02*
X31285800Y-133254500D01*
X25919600Y-97815300D02*
X25919600Y-127888300D01*
X26294900Y-97440000D02*
X25919600Y-97815300D01*
X27670000Y-99440000D02*
X27670000Y-98440000D01*
X27670000Y-98440000D02*
X27670000Y-97440000D01*
X27670000Y-128174600D02*
X27670000Y-100440000D01*
X40258400Y-140763000D02*
X27670000Y-128174600D01*
X42241600Y-161440000D02*
X42241600Y-178928600D01*
X40055300Y-159253700D02*
X42241600Y-161440000D01*
X40055300Y-158968800D02*
X40055300Y-159253700D01*
X40258400Y-158765700D02*
X40258400Y-153751000D01*
X40055300Y-158968800D02*
X40258400Y-158765700D01*
X40258400Y-153751000D02*
X40258400Y-140763000D01*
X86331900Y-148345100D02*
X86331900Y-145862200D01*
X92461300Y-154474500D02*
X86331900Y-148345100D01*
X252821200Y-72530700D02*
X252821200Y-77111100D01*
X250944100Y-70653600D02*
X252821200Y-72530700D01*
X250944100Y-24586500D02*
X250944100Y-70653600D01*
X248948300Y-22590700D02*
X250944100Y-24586500D01*
X251893200Y-132949500D02*
X251893200Y-132264100D01*
X249156500Y-135686200D02*
X251893200Y-132949500D01*
X253579000Y-77868900D02*
X252821200Y-77111100D01*
X253579000Y-130578300D02*
X253579000Y-77868900D01*
X251893200Y-132264100D02*
X253579000Y-130578300D01*
X57990300Y-85916500D02*
X57498800Y-85425000D01*
X57990300Y-133644800D02*
X57990300Y-85916500D01*
X50896300Y-140738800D02*
X57990300Y-133644800D01*
X260744100Y-84386100D02*
X260657700Y-84472500D01*
X260744100Y-33689200D02*
X260744100Y-84386100D01*
X44478900Y-159727600D02*
X41413500Y-159727600D01*
X59399600Y-144806900D02*
X44478900Y-159727600D01*
X59399600Y-87325900D02*
X59399600Y-144806900D01*
X254256300Y-134295000D02*
X255810900Y-135849700D01*
X254282000Y-134269300D02*
X254256300Y-134295000D01*
X254282000Y-90848200D02*
X254282000Y-134269300D01*
X260657700Y-84472500D02*
X254282000Y-90848200D01*
X254256300Y-134295000D02*
X250010000Y-138541300D01*
X248523100Y-87118300D02*
X250435000Y-85206400D01*
X248523100Y-141785700D02*
X248523100Y-87118300D01*
X248948300Y-142210900D02*
X248523100Y-141785700D01*
X249405500Y-142668100D02*
X253882000Y-142668100D01*
X248948300Y-142210900D02*
X249405500Y-142668100D01*
X250435000Y-42943800D02*
X250435000Y-85206400D01*
X246461100Y-38969900D02*
X250435000Y-42943800D01*
X61640800Y-160491200D02*
X61640800Y-89567100D01*
X40868600Y-181263400D02*
X61640800Y-160491200D01*
X40753100Y-181263400D02*
X40868600Y-181263400D01*
X237944600Y-89241700D02*
X237855400Y-89241700D01*
X237944600Y-43391500D02*
X240862400Y-40473700D01*
X237944600Y-89241700D02*
X237944600Y-43391500D01*
X250110200Y-147771700D02*
X255339300Y-147771700D01*
X250110200Y-148716000D02*
X250110200Y-147771700D01*
X239534700Y-90831800D02*
X237944600Y-89241700D01*
X239534700Y-137196200D02*
X239534700Y-90831800D01*
X250110200Y-147771700D02*
X239534700Y-137196200D01*
X61006800Y-149484500D02*
X61006800Y-95155500D01*
X60927800Y-149563500D02*
X61006800Y-149484500D01*
X137526500Y-99060000D02*
X142351200Y-99060000D01*
X136347600Y-97881100D02*
X137526500Y-99060000D01*
X142378600Y-99032600D02*
X151264400Y-99032600D01*
X142351200Y-99060000D02*
X142378600Y-99032600D01*
X163380600Y-99032600D02*
X165310000Y-97103200D01*
X151264400Y-99032600D02*
X163380600Y-99032600D01*
X170000000Y-59892100D02*
X170000000Y-44562600D01*
X162594500Y-67297600D02*
X170000000Y-59892100D01*
X162594500Y-94387700D02*
X162594500Y-67297600D01*
X165310000Y-97103200D02*
X162594500Y-94387700D01*
X244074600Y-147322600D02*
X240862400Y-150534800D01*
X247504200Y-150752200D02*
X244074600Y-147322600D01*
X255339300Y-150752200D02*
X247504200Y-150752200D01*
X237512700Y-140760700D02*
X237512700Y-105107400D01*
X244074600Y-147322600D02*
X237512700Y-140760700D01*
X62955900Y-101205000D02*
X63735600Y-100425300D01*
X62955900Y-170431400D02*
X62955900Y-101205000D01*
X60987300Y-172400000D02*
X62955900Y-170431400D01*
X256487600Y-157416700D02*
X257877900Y-157416700D01*
X256424300Y-157480000D02*
X256487600Y-157416700D01*
X249057900Y-157480000D02*
X256424300Y-157480000D01*
X254763100Y-112334000D02*
X261123800Y-105973300D01*
X254763100Y-118818700D02*
X254763100Y-112334000D01*
X256487600Y-120543200D02*
X254763100Y-118818700D01*
X256487600Y-157416700D02*
X256487600Y-120543200D01*
X261444900Y-105652200D02*
X261123800Y-105973300D01*
X261444900Y-55585500D02*
X261444900Y-105652200D01*
X262667100Y-54363300D02*
X261444900Y-55585500D01*
X262767600Y-54363300D02*
X262667100Y-54363300D01*
X82231700Y-106262500D02*
X81462100Y-105492900D01*
X82231700Y-134032400D02*
X82231700Y-106262500D01*
X82231800Y-134032400D02*
X82231700Y-134032400D01*
X86308400Y-138109000D02*
X82231800Y-134032400D01*
X86308400Y-138498400D02*
X86308400Y-138109000D01*
X231613300Y-162560000D02*
X231274600Y-162898700D01*
X249036000Y-162560000D02*
X231613300Y-162560000D01*
X257877900Y-162560000D02*
X249036000Y-162560000D01*
X257877900Y-162560000D02*
X257877900Y-162674200D01*
X258552400Y-161885500D02*
X257877900Y-162560000D01*
X258552400Y-118104700D02*
X258552400Y-161885500D01*
X255419200Y-114971500D02*
X258552400Y-118104700D01*
X262070200Y-108320500D02*
X262070200Y-55896700D01*
X255419200Y-114971500D02*
X262070200Y-108320500D01*
X215268600Y-116379500D02*
X214552400Y-115663300D01*
X222616400Y-116379500D02*
X215268600Y-116379500D01*
X222616400Y-121099700D02*
X222616400Y-116379500D01*
X230644000Y-129127300D02*
X222616400Y-121099700D01*
X230644000Y-166829400D02*
X230644000Y-129127300D01*
X230644100Y-166829400D02*
X230644000Y-166829400D01*
X230935700Y-167121000D02*
X230644100Y-166829400D01*
X223169500Y-115826400D02*
X223169500Y-115655900D01*
X222616400Y-116379500D02*
X223169500Y-115826400D01*
X232734300Y-168919600D02*
X249218800Y-168919600D01*
X230935700Y-167121000D02*
X232734300Y-168919600D01*
X256775800Y-168919600D02*
X257877900Y-167817500D01*
X249218800Y-168919600D02*
X256775800Y-168919600D01*
X223169500Y-59955700D02*
X223340000Y-59785200D01*
X223169500Y-115655900D02*
X223169500Y-59955700D01*
X116654900Y-176550200D02*
X111214300Y-181990800D01*
X119208700Y-176550200D02*
X116654900Y-176550200D01*
X112781400Y-117132900D02*
X120887400Y-125238900D01*
X112781400Y-69763000D02*
X112781400Y-117132900D01*
X112460100Y-69441700D02*
X112781400Y-69763000D01*
X114435400Y-151018700D02*
X114435400Y-150375900D01*
X132794200Y-169377500D02*
X114435400Y-151018700D01*
X120887400Y-129424500D02*
X120887400Y-125238900D01*
X111648000Y-138663900D02*
X120887400Y-129424500D01*
D15*
G36*
X23503699Y-48909299D02*
X23338952Y-49155861D01*
X23281100Y-49446700D01*
X23281100Y-58921400D01*
X23338952Y-59212239D01*
X23503699Y-59458801D01*
X25382299Y-61337401D01*
X25628861Y-61502148D01*
X25647733Y-61505902D01*
X25589233Y-61800000D01*
X25669921Y-62205644D01*
X25732968Y-62300000D01*
X25669921Y-62394356D01*
X25589233Y-62800000D01*
X25669921Y-63205644D01*
X25732968Y-63300000D01*
X25669921Y-63394356D01*
X25589233Y-63800000D01*
X25669921Y-64205644D01*
X25732968Y-64300000D01*
X25669921Y-64394356D01*
X25589233Y-64800000D01*
X25647733Y-65094098D01*
X25628861Y-65097852D01*
X25382299Y-65262599D01*
X21277999Y-69366899D01*
X21113252Y-69613461D01*
X21055400Y-69904300D01*
X21055400Y-86282800D01*
X21113252Y-86573639D01*
X21277999Y-86820201D01*
X24529978Y-90072180D01*
X24529938Y-90117667D01*
X24671983Y-90461443D01*
X24934773Y-90724692D01*
X24960163Y-90735235D01*
X23539899Y-92155499D01*
X23375152Y-92402061D01*
X23317300Y-92692900D01*
X23317300Y-148853100D01*
X23375152Y-149143939D01*
X23539899Y-149390501D01*
X26378978Y-152229580D01*
X26378938Y-152275067D01*
X26520983Y-152618843D01*
X26783773Y-152882092D01*
X27127301Y-153024738D01*
X27179400Y-153024783D01*
X27179400Y-173068694D01*
X27125457Y-173090983D01*
X26862208Y-173353773D01*
X26719562Y-173697301D01*
X26719238Y-174069267D01*
X26861283Y-174413043D01*
X27124073Y-174676292D01*
X27467601Y-174818938D01*
X27839567Y-174819262D01*
X28183343Y-174677217D01*
X28446592Y-174414427D01*
X28589238Y-174070899D01*
X28589328Y-173968093D01*
X28641548Y-173889939D01*
X28699400Y-173599100D01*
X28699400Y-136294502D01*
X36946100Y-144541202D01*
X36946100Y-163948000D01*
X37003952Y-164238839D01*
X37168699Y-164485401D01*
X40670578Y-167987280D01*
X40670538Y-168032767D01*
X40812583Y-168376543D01*
X41075373Y-168639792D01*
X41418901Y-168782438D01*
X41790867Y-168782762D01*
X42134643Y-168640717D01*
X42397892Y-168377927D01*
X42540538Y-168034399D01*
X42540862Y-167662433D01*
X42398817Y-167318657D01*
X42136027Y-167055408D01*
X41792499Y-166912762D01*
X41745623Y-166912721D01*
X38466100Y-163633198D01*
X38466100Y-144781202D01*
X38873000Y-145188102D01*
X38873000Y-152669837D01*
X38840808Y-152701973D01*
X38698162Y-153045501D01*
X38697838Y-153417467D01*
X38839883Y-153761243D01*
X39102673Y-154024492D01*
X39446201Y-154167138D01*
X39818167Y-154167462D01*
X40161943Y-154025417D01*
X40425192Y-153762627D01*
X40567838Y-153419099D01*
X40568162Y-153047133D01*
X40426117Y-152703357D01*
X40393000Y-152670182D01*
X40393000Y-144873300D01*
X40335148Y-144582461D01*
X40170401Y-144335899D01*
X26219700Y-130385198D01*
X26219700Y-129263202D01*
X30350678Y-133394180D01*
X30350638Y-133439667D01*
X30492683Y-133783443D01*
X30755473Y-134046692D01*
X31099001Y-134189338D01*
X31470967Y-134189662D01*
X31814743Y-134047617D01*
X32077992Y-133784827D01*
X32220638Y-133441299D01*
X32220962Y-133069333D01*
X32078917Y-132725557D01*
X31816127Y-132462308D01*
X31472599Y-132319662D01*
X31425723Y-132319621D01*
X26679600Y-127573498D01*
X26679600Y-101500000D01*
X26797002Y-101500000D01*
X26797002Y-101333630D01*
X26960065Y-101459554D01*
X27170000Y-101351981D01*
X27379935Y-101459554D01*
X27542998Y-101333630D01*
X27542998Y-101500000D01*
X27660300Y-101500000D01*
X27660300Y-114230600D01*
X27718152Y-114521439D01*
X27882899Y-114768001D01*
X47649678Y-134534780D01*
X47649638Y-134580267D01*
X47791683Y-134924043D01*
X48054473Y-135187292D01*
X48398001Y-135329938D01*
X48769967Y-135330262D01*
X49113743Y-135188217D01*
X49118477Y-135183491D01*
X49256101Y-135240638D01*
X49345700Y-135240716D01*
X49345700Y-139693398D01*
X49283299Y-139755799D01*
X49118552Y-140002361D01*
X49060700Y-140293200D01*
X49060700Y-141414600D01*
X49118552Y-141705439D01*
X49283299Y-141952001D01*
X50305278Y-142973980D01*
X50305238Y-143019467D01*
X50447283Y-143363243D01*
X50710073Y-143626492D01*
X51053601Y-143769138D01*
X51105700Y-143769183D01*
X51105700Y-151125198D01*
X47125720Y-155105178D01*
X47080233Y-155105138D01*
X46736457Y-155247183D01*
X46473208Y-155509973D01*
X46330562Y-155853501D01*
X46330238Y-156225467D01*
X46472283Y-156569243D01*
X46517330Y-156614368D01*
X44164098Y-158967600D01*
X41975963Y-158967600D01*
X41943827Y-158935408D01*
X41600299Y-158792762D01*
X41228333Y-158792438D01*
X40884557Y-158934483D01*
X40621308Y-159197273D01*
X40478662Y-159540801D01*
X40478338Y-159912767D01*
X40620383Y-160256543D01*
X40883173Y-160519792D01*
X41226701Y-160662438D01*
X41598667Y-160662762D01*
X41942443Y-160520717D01*
X41975618Y-160487600D01*
X44478900Y-160487600D01*
X44769739Y-160429748D01*
X45016301Y-160265001D01*
X59937001Y-145344301D01*
X60101748Y-145097740D01*
X60159600Y-144806900D01*
X60159600Y-95553552D01*
X60213683Y-95684443D01*
X60246800Y-95717618D01*
X60246800Y-148922175D01*
X60135608Y-149033173D01*
X59992962Y-149376701D01*
X59992638Y-149748667D01*
X60134683Y-150092443D01*
X60397473Y-150355692D01*
X60741001Y-150498338D01*
X60880800Y-150498460D01*
X60880800Y-160176398D01*
X40728820Y-180328378D01*
X40567933Y-180328238D01*
X40224157Y-180470283D01*
X39960908Y-180733073D01*
X39818262Y-181076601D01*
X39817938Y-181448567D01*
X39959983Y-181792343D01*
X40222773Y-182055592D01*
X40566301Y-182198238D01*
X40938267Y-182198562D01*
X41282043Y-182056517D01*
X41545292Y-181793727D01*
X41639179Y-181567623D01*
X62178201Y-161028601D01*
X62195900Y-161002113D01*
X62195900Y-170116598D01*
X60847620Y-171464878D01*
X60802133Y-171464838D01*
X60458357Y-171606883D01*
X60195108Y-171869673D01*
X60052462Y-172213201D01*
X60052138Y-172585167D01*
X60194183Y-172928943D01*
X60456973Y-173192192D01*
X60800501Y-173334838D01*
X61172467Y-173335162D01*
X61516243Y-173193117D01*
X61779492Y-172930327D01*
X61922138Y-172586799D01*
X61922179Y-172539923D01*
X63493301Y-170968801D01*
X63658048Y-170722239D01*
X63715900Y-170431400D01*
X63715900Y-160245902D01*
X77493478Y-174023480D01*
X77493438Y-174068967D01*
X77635483Y-174412743D01*
X77898273Y-174675992D01*
X78241801Y-174818638D01*
X78613767Y-174818962D01*
X78957543Y-174676917D01*
X79220792Y-174414127D01*
X79363438Y-174070599D01*
X79363762Y-173698633D01*
X79221717Y-173354857D01*
X78958927Y-173091608D01*
X78615399Y-172948962D01*
X78568523Y-172948921D01*
X64400600Y-158780998D01*
X64400600Y-142070667D01*
X69356838Y-142070667D01*
X69498883Y-142414443D01*
X69761673Y-142677692D01*
X70105201Y-142820338D01*
X70477167Y-142820662D01*
X70820943Y-142678617D01*
X70854118Y-142645500D01*
X78649598Y-142645500D01*
X102569478Y-166565380D01*
X102569438Y-166610867D01*
X102711483Y-166954643D01*
X102974273Y-167217892D01*
X103317801Y-167360538D01*
X103689767Y-167360862D01*
X104033543Y-167218817D01*
X104296792Y-166956027D01*
X104439438Y-166612499D01*
X104439762Y-166240533D01*
X104297717Y-165896757D01*
X104034927Y-165633508D01*
X103691399Y-165490862D01*
X103644523Y-165490821D01*
X79501801Y-141348099D01*
X79255239Y-141183352D01*
X78964400Y-141125500D01*
X70854463Y-141125500D01*
X70822327Y-141093308D01*
X70478799Y-140950662D01*
X70106833Y-140950338D01*
X69763057Y-141092383D01*
X69499808Y-141355173D01*
X69357162Y-141698701D01*
X69356838Y-142070667D01*
X64400600Y-142070667D01*
X64400600Y-124429402D01*
X85316299Y-145345101D01*
X85562861Y-145509848D01*
X85853700Y-145567700D01*
X86051098Y-145567700D01*
X86731378Y-146247980D01*
X86731338Y-146293467D01*
X86873383Y-146637243D01*
X87136173Y-146900492D01*
X87479701Y-147043138D01*
X87531800Y-147043183D01*
X87531800Y-148214900D01*
X87589652Y-148505739D01*
X87754399Y-148752301D01*
X115426199Y-176424101D01*
X115594046Y-176536252D01*
X111074620Y-181055678D01*
X111029133Y-181055638D01*
X110685357Y-181197683D01*
X110422108Y-181460473D01*
X110279462Y-181804001D01*
X110279138Y-182175967D01*
X110421183Y-182519743D01*
X110683973Y-182782992D01*
X111027501Y-182925638D01*
X111399467Y-182925962D01*
X111743243Y-182783917D01*
X112006492Y-182521127D01*
X112149138Y-182177599D01*
X112149179Y-182130723D01*
X116969702Y-177310200D01*
X118646237Y-177310200D01*
X118678373Y-177342392D01*
X119021901Y-177485038D01*
X119393867Y-177485362D01*
X119737643Y-177343317D01*
X120000892Y-177080527D01*
X120143538Y-176736999D01*
X120143617Y-176646700D01*
X209129500Y-176646700D01*
X209420339Y-176588848D01*
X209666901Y-176424101D01*
X225311002Y-160780000D01*
X227411137Y-160780000D01*
X227443273Y-160812192D01*
X227786801Y-160954838D01*
X228158767Y-160955162D01*
X228502543Y-160813117D01*
X228765792Y-160550327D01*
X228908438Y-160206799D01*
X228908762Y-159834833D01*
X228766717Y-159491057D01*
X228503927Y-159227808D01*
X228160399Y-159085162D01*
X227788433Y-159084838D01*
X227444657Y-159226883D01*
X227411482Y-159260000D01*
X225756200Y-159260000D01*
X225756200Y-153293463D01*
X225788392Y-153261327D01*
X225931038Y-152917799D01*
X225931146Y-152793462D01*
X225940048Y-152780140D01*
X225962264Y-152668452D01*
X225997900Y-152489300D01*
X225997900Y-142894963D01*
X226030092Y-142862827D01*
X226172738Y-142519299D01*
X226173062Y-142147333D01*
X226031017Y-141803557D01*
X225768227Y-141540308D01*
X225424699Y-141397662D01*
X225052733Y-141397338D01*
X224708957Y-141539383D01*
X224445708Y-141802173D01*
X224303062Y-142145701D01*
X224302738Y-142517667D01*
X224444783Y-142861443D01*
X224477900Y-142894618D01*
X224477900Y-151933485D01*
X224467257Y-151937883D01*
X224204008Y-152200673D01*
X224061362Y-152544201D01*
X224061038Y-152916167D01*
X224203083Y-153259943D01*
X224236200Y-153293118D01*
X224236200Y-159705198D01*
X208814698Y-175126700D01*
X204555402Y-175126700D01*
X217350000Y-162332102D01*
X217400078Y-162382180D01*
X217400038Y-162427667D01*
X217542083Y-162771443D01*
X217804873Y-163034692D01*
X218148401Y-163177338D01*
X218520367Y-163177662D01*
X218864143Y-163035617D01*
X219127392Y-162772827D01*
X219270038Y-162429299D01*
X219270362Y-162057333D01*
X219128317Y-161713557D01*
X218865527Y-161450308D01*
X218521999Y-161307662D01*
X218475123Y-161307621D01*
X218110000Y-160942498D01*
X218110000Y-155389863D01*
X218142192Y-155357727D01*
X218284838Y-155014199D01*
X218284879Y-154967323D01*
X219578601Y-153673601D01*
X219743348Y-153427039D01*
X219801200Y-153136200D01*
X219801200Y-147445563D01*
X219833392Y-147413427D01*
X219976038Y-147069899D01*
X219976362Y-146697933D01*
X219834317Y-146354157D01*
X219571527Y-146090908D01*
X219227999Y-145948262D01*
X218856033Y-145947938D01*
X218512257Y-146089983D01*
X218249008Y-146352773D01*
X218106362Y-146696301D01*
X218106038Y-147068267D01*
X218248083Y-147412043D01*
X218281200Y-147445218D01*
X218281200Y-152821398D01*
X217210320Y-153892278D01*
X217164833Y-153892238D01*
X216821057Y-154034283D01*
X216557808Y-154297073D01*
X216415162Y-154640601D01*
X216414838Y-155012567D01*
X216556883Y-155356343D01*
X216590000Y-155389518D01*
X216590000Y-160942498D01*
X202913998Y-174618500D01*
X191759702Y-174618500D01*
X201090601Y-165287601D01*
X201255348Y-165041039D01*
X201313200Y-164750200D01*
X201313200Y-163487863D01*
X201345392Y-163455727D01*
X201488038Y-163112199D01*
X201488362Y-162740233D01*
X201346317Y-162396457D01*
X201083527Y-162133208D01*
X200739999Y-161990562D01*
X200693123Y-161990521D01*
X199342700Y-160640098D01*
X199342700Y-158113863D01*
X199374892Y-158081727D01*
X199517538Y-157738199D01*
X199517579Y-157691323D01*
X201061701Y-156147201D01*
X201226448Y-155900639D01*
X201284300Y-155609800D01*
X201284300Y-147956563D01*
X201316492Y-147924427D01*
X201459138Y-147580899D01*
X201459462Y-147208933D01*
X201317417Y-146865157D01*
X201054627Y-146601908D01*
X200711099Y-146459262D01*
X200339133Y-146458938D01*
X199995357Y-146600983D01*
X199732108Y-146863773D01*
X199589462Y-147207301D01*
X199589138Y-147579267D01*
X199731183Y-147923043D01*
X199764300Y-147956218D01*
X199764300Y-155294998D01*
X198443020Y-156616278D01*
X198397533Y-156616238D01*
X198053757Y-156758283D01*
X197790508Y-157021073D01*
X197647862Y-157364601D01*
X197647538Y-157736567D01*
X197789583Y-158080343D01*
X197822700Y-158113518D01*
X197822700Y-160954900D01*
X197880552Y-161245739D01*
X198045299Y-161492301D01*
X199618078Y-163065080D01*
X199618038Y-163110567D01*
X199760083Y-163454343D01*
X199793200Y-163487518D01*
X199793200Y-164435398D01*
X190698803Y-173529795D01*
X190635527Y-173466408D01*
X190470300Y-173397799D01*
X190470300Y-157599663D01*
X190502492Y-157567527D01*
X190645138Y-157223999D01*
X190645462Y-156852033D01*
X190503417Y-156508257D01*
X190470300Y-156475082D01*
X190470300Y-149379802D01*
X191784780Y-148065322D01*
X191830267Y-148065362D01*
X192174043Y-147923317D01*
X192437292Y-147660527D01*
X192579938Y-147316999D01*
X192580262Y-146945033D01*
X192438217Y-146601257D01*
X192175427Y-146338008D01*
X191831899Y-146195362D01*
X191459933Y-146195038D01*
X191116157Y-146337083D01*
X190852908Y-146599873D01*
X190710262Y-146943401D01*
X190710221Y-146990277D01*
X189172899Y-148527599D01*
X189008152Y-148774161D01*
X188950300Y-149065000D01*
X188950300Y-156474737D01*
X188918108Y-156506873D01*
X188775462Y-156850401D01*
X188775138Y-157222367D01*
X188917183Y-157566143D01*
X188950300Y-157599318D01*
X188950300Y-171681100D01*
X179457502Y-171681100D01*
X180836900Y-170301702D01*
X180854878Y-170319680D01*
X180854838Y-170365167D01*
X180996883Y-170708943D01*
X181259673Y-170972192D01*
X181603201Y-171114838D01*
X181975167Y-171115162D01*
X182318943Y-170973117D01*
X182582192Y-170710327D01*
X182724838Y-170366799D01*
X182725162Y-169994833D01*
X182583117Y-169651057D01*
X182320327Y-169387808D01*
X181976799Y-169245162D01*
X181929923Y-169245121D01*
X181596900Y-168912098D01*
X181596900Y-163122463D01*
X181629092Y-163090327D01*
X181771738Y-162746799D01*
X181772062Y-162374833D01*
X181630017Y-162031057D01*
X181367227Y-161767808D01*
X181247100Y-161717927D01*
X181247100Y-153275863D01*
X181279292Y-153243727D01*
X181421938Y-152900199D01*
X181422110Y-152702664D01*
X181462900Y-152497600D01*
X181462900Y-142856863D01*
X181495092Y-142824727D01*
X181637738Y-142481199D01*
X181638062Y-142109233D01*
X181496017Y-141765457D01*
X181233227Y-141502208D01*
X180889699Y-141359562D01*
X180517733Y-141359238D01*
X180173957Y-141501283D01*
X179910708Y-141764073D01*
X179768062Y-142107601D01*
X179767738Y-142479567D01*
X179909783Y-142823343D01*
X179942900Y-142856518D01*
X179942900Y-151935513D01*
X179694908Y-152183073D01*
X179552262Y-152526601D01*
X179551938Y-152898567D01*
X179693983Y-153242343D01*
X179727100Y-153275518D01*
X179727100Y-162210200D01*
X179784952Y-162501039D01*
X179901798Y-162675912D01*
X179901738Y-162745167D01*
X180043783Y-163088943D01*
X180076900Y-163122118D01*
X180076900Y-168912098D01*
X177758198Y-171230800D01*
X173898014Y-171230800D01*
X173898062Y-171175633D01*
X173756017Y-170831857D01*
X173493227Y-170568608D01*
X173374400Y-170519266D01*
X173374400Y-159042702D01*
X174001980Y-158415122D01*
X174047467Y-158415162D01*
X174391243Y-158273117D01*
X174654492Y-158010327D01*
X174797138Y-157666799D01*
X174797179Y-157619923D01*
X175626401Y-156790701D01*
X175791148Y-156544139D01*
X175849000Y-156253300D01*
X175849000Y-147888363D01*
X175881192Y-147856227D01*
X176023838Y-147512699D01*
X176024162Y-147140733D01*
X175882117Y-146796957D01*
X175849000Y-146763782D01*
X175849000Y-134838600D01*
X175831583Y-134751038D01*
X175791148Y-134547760D01*
X175626401Y-134301199D01*
X174555222Y-133230020D01*
X174555262Y-133184533D01*
X174413217Y-132840757D01*
X174150427Y-132577508D01*
X173806899Y-132434862D01*
X173434933Y-132434538D01*
X173091157Y-132576583D01*
X172827908Y-132839373D01*
X172685262Y-133182901D01*
X172684938Y-133554867D01*
X172826983Y-133898643D01*
X173089773Y-134161892D01*
X173433301Y-134304538D01*
X173480177Y-134304579D01*
X174329000Y-135153402D01*
X174329000Y-146763437D01*
X174296808Y-146795573D01*
X174154162Y-147139101D01*
X174153838Y-147511067D01*
X174295883Y-147854843D01*
X174329000Y-147888018D01*
X174329000Y-155938498D01*
X173722620Y-156544878D01*
X173677133Y-156544838D01*
X173333357Y-156686883D01*
X173070108Y-156949673D01*
X172927462Y-157293201D01*
X172927421Y-157340077D01*
X172076999Y-158190499D01*
X171912252Y-158437061D01*
X171854400Y-158727900D01*
X171854400Y-163457178D01*
X171585599Y-163345562D01*
X171213633Y-163345238D01*
X170869857Y-163487283D01*
X170606608Y-163750073D01*
X170463962Y-164093601D01*
X170463638Y-164465567D01*
X170605683Y-164809343D01*
X170868473Y-165072592D01*
X171212001Y-165215238D01*
X171583967Y-165215562D01*
X171854400Y-165103822D01*
X171854400Y-171012300D01*
X171897863Y-171230800D01*
X163958667Y-171230800D01*
X164131814Y-171115107D01*
X164195167Y-171115162D01*
X164538943Y-170973117D01*
X164802192Y-170710327D01*
X164944838Y-170366799D01*
X164945162Y-169994833D01*
X164803117Y-169651057D01*
X164770000Y-169617882D01*
X164770000Y-160582463D01*
X164802192Y-160550327D01*
X164944838Y-160206799D01*
X164945162Y-159834833D01*
X164803117Y-159491057D01*
X164770000Y-159457882D01*
X164770000Y-153685402D01*
X165120280Y-153335122D01*
X165165767Y-153335162D01*
X165509543Y-153193117D01*
X165772792Y-152930327D01*
X165915438Y-152586799D01*
X165915762Y-152214833D01*
X165773717Y-151871057D01*
X165740600Y-151837882D01*
X165740600Y-142784295D01*
X165754592Y-142770327D01*
X165897238Y-142426799D01*
X165897562Y-142054833D01*
X165755517Y-141711057D01*
X165492727Y-141447808D01*
X165149199Y-141305162D01*
X164777233Y-141304838D01*
X164433457Y-141446883D01*
X164170208Y-141709673D01*
X164027562Y-142053201D01*
X164027238Y-142425167D01*
X164169283Y-142768943D01*
X164220600Y-142820350D01*
X164220600Y-151837537D01*
X164188408Y-151869673D01*
X164045762Y-152213201D01*
X164045721Y-152260077D01*
X163472599Y-152833199D01*
X163307852Y-153079761D01*
X163250000Y-153370600D01*
X163250000Y-159457537D01*
X163217808Y-159489673D01*
X163075162Y-159833201D01*
X163074838Y-160205167D01*
X163216883Y-160548943D01*
X163250000Y-160582118D01*
X163250000Y-169617537D01*
X163217808Y-169649673D01*
X163162985Y-169781700D01*
X143441102Y-169781700D01*
X145331980Y-167890822D01*
X145377467Y-167890862D01*
X145721243Y-167748817D01*
X145984492Y-167486027D01*
X146127138Y-167142499D01*
X146127179Y-167095623D01*
X147726501Y-165496301D01*
X147891248Y-165249739D01*
X147949100Y-164958900D01*
X147949100Y-162959663D01*
X147981292Y-162927527D01*
X148123938Y-162583999D01*
X148124262Y-162212033D01*
X147982217Y-161868257D01*
X147949100Y-161835082D01*
X147949100Y-152962463D01*
X147981292Y-152930327D01*
X148123938Y-152586799D01*
X148124262Y-152214833D01*
X147982217Y-151871057D01*
X147719427Y-151607808D01*
X147375899Y-151465162D01*
X147329023Y-151465121D01*
X145948500Y-150084598D01*
X145948500Y-147705063D01*
X145980692Y-147672927D01*
X146123338Y-147329399D01*
X146123662Y-146957433D01*
X145981617Y-146613657D01*
X145718827Y-146350408D01*
X145375299Y-146207762D01*
X145003333Y-146207438D01*
X144659557Y-146349483D01*
X144396308Y-146612273D01*
X144253662Y-146955801D01*
X144253338Y-147327767D01*
X144395383Y-147671543D01*
X144428500Y-147704718D01*
X144428500Y-150399400D01*
X144486352Y-150690239D01*
X144651099Y-150936801D01*
X146253978Y-152539680D01*
X146253938Y-152585167D01*
X146395983Y-152928943D01*
X146429100Y-152962118D01*
X146429100Y-161834737D01*
X146396908Y-161866873D01*
X146254262Y-162210401D01*
X146253938Y-162582367D01*
X146395983Y-162926143D01*
X146429100Y-162959318D01*
X146429100Y-164644098D01*
X145052620Y-166020578D01*
X145007133Y-166020538D01*
X144663357Y-166162583D01*
X144400108Y-166425373D01*
X144257462Y-166768901D01*
X144257421Y-166815777D01*
X141830298Y-169242900D01*
X133729318Y-169242900D01*
X133729362Y-169192333D01*
X133587317Y-168848557D01*
X133324527Y-168585308D01*
X132980999Y-168442662D01*
X132934123Y-168442621D01*
X132791669Y-168300167D01*
X135432038Y-168300167D01*
X135574083Y-168643943D01*
X135836873Y-168907192D01*
X136180401Y-169049838D01*
X136552367Y-169050162D01*
X136896143Y-168908117D01*
X137159392Y-168645327D01*
X137302038Y-168301799D01*
X137302362Y-167929833D01*
X137160317Y-167586057D01*
X137127200Y-167552882D01*
X137127200Y-163141829D01*
X137178792Y-163090327D01*
X137321438Y-162746799D01*
X137321762Y-162374833D01*
X137179717Y-162031057D01*
X136916927Y-161767808D01*
X136573399Y-161625162D01*
X136201433Y-161624838D01*
X135857657Y-161766883D01*
X135594408Y-162029673D01*
X135451762Y-162373201D01*
X135451438Y-162745167D01*
X135593483Y-163088943D01*
X135607200Y-163102684D01*
X135607200Y-167552537D01*
X135575008Y-167584673D01*
X135432362Y-167928201D01*
X135432038Y-168300167D01*
X132791669Y-168300167D01*
X115277511Y-150786009D01*
X115370238Y-150562699D01*
X115370562Y-150190733D01*
X115228517Y-149846957D01*
X114965727Y-149583708D01*
X114622199Y-149441062D01*
X114250233Y-149440738D01*
X113906457Y-149582783D01*
X113643208Y-149845573D01*
X113587275Y-149980273D01*
X106032169Y-142425167D01*
X155285638Y-142425167D01*
X155427683Y-142768943D01*
X155690473Y-143032192D01*
X155692600Y-143033075D01*
X155692600Y-152133037D01*
X155660408Y-152165173D01*
X155517762Y-152508701D01*
X155517438Y-152880667D01*
X155659483Y-153224443D01*
X155692600Y-153257618D01*
X155692600Y-159131237D01*
X155660408Y-159163373D01*
X155517762Y-159506901D01*
X155517438Y-159878867D01*
X155659483Y-160222643D01*
X155692600Y-160255818D01*
X155692600Y-166964235D01*
X155546908Y-167109673D01*
X155404262Y-167453201D01*
X155403938Y-167825167D01*
X155545983Y-168168943D01*
X155808773Y-168432192D01*
X156152301Y-168574838D01*
X156524267Y-168575162D01*
X156868043Y-168433117D01*
X157131292Y-168170327D01*
X157273938Y-167826799D01*
X157274262Y-167454833D01*
X157212600Y-167305599D01*
X157212600Y-160256163D01*
X157244792Y-160224027D01*
X157387438Y-159880499D01*
X157387762Y-159508533D01*
X157245717Y-159164757D01*
X157212600Y-159131582D01*
X157212600Y-153257963D01*
X157244792Y-153225827D01*
X157387438Y-152882299D01*
X157387762Y-152510333D01*
X157245717Y-152166557D01*
X157212600Y-152133382D01*
X157212600Y-142471800D01*
X157155847Y-142186488D01*
X157155962Y-142054833D01*
X157013917Y-141711057D01*
X156751127Y-141447808D01*
X156407599Y-141305162D01*
X156035633Y-141304838D01*
X155691857Y-141446883D01*
X155428608Y-141709673D01*
X155285962Y-142053201D01*
X155285638Y-142425167D01*
X106032169Y-142425167D01*
X103692402Y-140085400D01*
X153047600Y-140085400D01*
X153338439Y-140027548D01*
X153585001Y-139862801D01*
X166534135Y-126913667D01*
X194946938Y-126913667D01*
X195088983Y-127257443D01*
X195351773Y-127520692D01*
X195695301Y-127663338D01*
X195742177Y-127663379D01*
X207040578Y-138961780D01*
X207040538Y-139007267D01*
X207182583Y-139351043D01*
X207445373Y-139614292D01*
X207788901Y-139756938D01*
X207835777Y-139756979D01*
X209442800Y-141364002D01*
X209442800Y-150189737D01*
X209410608Y-150221873D01*
X209267962Y-150565401D01*
X209267638Y-150937367D01*
X209409683Y-151281143D01*
X209442800Y-151314318D01*
X209442800Y-156754037D01*
X209410608Y-156786173D01*
X209267962Y-157129701D01*
X209267638Y-157501667D01*
X209409683Y-157845443D01*
X209442800Y-157878618D01*
X209442800Y-163595098D01*
X207105720Y-165932178D01*
X207060233Y-165932138D01*
X206716457Y-166074183D01*
X206453208Y-166336973D01*
X206310562Y-166680501D01*
X206310238Y-167052467D01*
X206452283Y-167396243D01*
X206715073Y-167659492D01*
X207058601Y-167802138D01*
X207430567Y-167802462D01*
X207774343Y-167660417D01*
X208037592Y-167397627D01*
X208180238Y-167054099D01*
X208180279Y-167007223D01*
X210740201Y-164447301D01*
X210904948Y-164200740D01*
X210962800Y-163909900D01*
X210962800Y-157878963D01*
X210994992Y-157846827D01*
X211137638Y-157503299D01*
X211137962Y-157131333D01*
X210995917Y-156787557D01*
X210962800Y-156754382D01*
X210962800Y-151314663D01*
X210994992Y-151282527D01*
X211137638Y-150938999D01*
X211137962Y-150567033D01*
X210995917Y-150223257D01*
X210962800Y-150190082D01*
X210962800Y-141049200D01*
X210904948Y-140758361D01*
X210740201Y-140511799D01*
X208910822Y-138682420D01*
X208910862Y-138636933D01*
X208768817Y-138293157D01*
X208506027Y-138029908D01*
X208162499Y-137887262D01*
X208115623Y-137887221D01*
X196817222Y-126588820D01*
X196817262Y-126543333D01*
X196675217Y-126199557D01*
X196412427Y-125936308D01*
X196068899Y-125793662D01*
X195696933Y-125793338D01*
X195353157Y-125935383D01*
X195089908Y-126198173D01*
X194947262Y-126541701D01*
X194946938Y-126913667D01*
X166534135Y-126913667D01*
X181924484Y-111523318D01*
X181975167Y-111523362D01*
X182318943Y-111381317D01*
X182582192Y-111118527D01*
X182724838Y-110774999D01*
X182725162Y-110403033D01*
X182583117Y-110059257D01*
X182547400Y-110023478D01*
X182547400Y-103349663D01*
X182579592Y-103317527D01*
X182722238Y-102973999D01*
X182722562Y-102602033D01*
X182580517Y-102258257D01*
X182317727Y-101995008D01*
X181974199Y-101852362D01*
X181602233Y-101852038D01*
X181258457Y-101994083D01*
X180995208Y-102256873D01*
X180852562Y-102600401D01*
X180852238Y-102972367D01*
X180994283Y-103316143D01*
X181027400Y-103349318D01*
X181027400Y-110028333D01*
X180997808Y-110057873D01*
X180855162Y-110401401D01*
X180855126Y-110443072D01*
X152732798Y-138565400D01*
X112821302Y-138565400D01*
X121424801Y-129961901D01*
X121589548Y-129715339D01*
X121647400Y-129424500D01*
X121647400Y-125801363D01*
X121679592Y-125769227D01*
X121822238Y-125425699D01*
X121822562Y-125053733D01*
X121680517Y-124709957D01*
X121417727Y-124446708D01*
X121074199Y-124304062D01*
X121027323Y-124304021D01*
X113541400Y-116818098D01*
X113541400Y-97780967D01*
X114569838Y-97780967D01*
X114711883Y-98124743D01*
X114974673Y-98387992D01*
X115318201Y-98530638D01*
X115690167Y-98530962D01*
X116033943Y-98388917D01*
X116067118Y-98355800D01*
X116582600Y-98355800D01*
X116582600Y-106040700D01*
X116640452Y-106331539D01*
X116805199Y-106578101D01*
X119586778Y-109359680D01*
X119586738Y-109405167D01*
X119728783Y-109748943D01*
X119991573Y-110012192D01*
X120335101Y-110154838D01*
X120707067Y-110155162D01*
X121050843Y-110013117D01*
X121314092Y-109750327D01*
X121456738Y-109406799D01*
X121457062Y-109034833D01*
X121315017Y-108691057D01*
X121052227Y-108427808D01*
X120708699Y-108285162D01*
X120661823Y-108285121D01*
X118102600Y-105725898D01*
X118102600Y-97464902D01*
X120671080Y-94896422D01*
X120716567Y-94896462D01*
X121060343Y-94754417D01*
X121323592Y-94491627D01*
X121466238Y-94148099D01*
X121466562Y-93776133D01*
X121324517Y-93432357D01*
X121061727Y-93169108D01*
X120718199Y-93026462D01*
X120346233Y-93026138D01*
X120002457Y-93168183D01*
X119739208Y-93430973D01*
X119596562Y-93774501D01*
X119596521Y-93821377D01*
X116805199Y-96612699D01*
X116656128Y-96835800D01*
X116067463Y-96835800D01*
X116035327Y-96803608D01*
X115691799Y-96660962D01*
X115319833Y-96660638D01*
X114976057Y-96802683D01*
X114712808Y-97065473D01*
X114570162Y-97409001D01*
X114569838Y-97780967D01*
X113541400Y-97780967D01*
X113541400Y-70651302D01*
X115935700Y-73045602D01*
X115935700Y-77077100D01*
X115993552Y-77367939D01*
X116158299Y-77614501D01*
X123361899Y-84818101D01*
X123608461Y-84982848D01*
X123899300Y-85040700D01*
X129483500Y-85040700D01*
X129483500Y-93268937D01*
X129451308Y-93301073D01*
X129308662Y-93644601D01*
X129308338Y-94016567D01*
X129450383Y-94360343D01*
X129483500Y-94393518D01*
X129483500Y-102888998D01*
X129262220Y-103110278D01*
X129216733Y-103110238D01*
X128872957Y-103252283D01*
X128609708Y-103515073D01*
X128467062Y-103858601D01*
X128466738Y-104230567D01*
X128608783Y-104574343D01*
X128641900Y-104607518D01*
X128641900Y-108844237D01*
X128609708Y-108876373D01*
X128467062Y-109219901D01*
X128466738Y-109591867D01*
X128608783Y-109935643D01*
X128871573Y-110198892D01*
X129215101Y-110341538D01*
X129587067Y-110341862D01*
X129930843Y-110199817D01*
X130194092Y-109937027D01*
X130336738Y-109593499D01*
X130337062Y-109221533D01*
X130195017Y-108877757D01*
X130161900Y-108844582D01*
X130161900Y-107693713D01*
X130182652Y-107798039D01*
X130347399Y-108044601D01*
X141484399Y-119181601D01*
X141730960Y-119346348D01*
X141779214Y-119355946D01*
X142021800Y-119404200D01*
X154360000Y-119404200D01*
X154360000Y-121244937D01*
X154327808Y-121277073D01*
X154185162Y-121620601D01*
X154184838Y-121992567D01*
X154326883Y-122336343D01*
X154589673Y-122599592D01*
X154933201Y-122742238D01*
X155305167Y-122742562D01*
X155648943Y-122600517D01*
X155912192Y-122337727D01*
X156054838Y-121994199D01*
X156055162Y-121622233D01*
X155913117Y-121278457D01*
X155880000Y-121245282D01*
X155880000Y-112518363D01*
X155912192Y-112486227D01*
X156054838Y-112142699D01*
X156055162Y-111770733D01*
X155913117Y-111426957D01*
X155650327Y-111163708D01*
X155306799Y-111021062D01*
X155259923Y-111021021D01*
X154916200Y-110677298D01*
X154916200Y-105004703D01*
X155186200Y-105274703D01*
X155186200Y-105754200D01*
X155244052Y-106045039D01*
X155408799Y-106291601D01*
X164132699Y-115015501D01*
X164379261Y-115180248D01*
X164670100Y-115238100D01*
X169026800Y-115238100D01*
X169317639Y-115180248D01*
X169564201Y-115015501D01*
X173039680Y-111540022D01*
X173085167Y-111540062D01*
X173428943Y-111398017D01*
X173692192Y-111135227D01*
X173834838Y-110791699D01*
X173835162Y-110419733D01*
X173693117Y-110075957D01*
X173660000Y-110042782D01*
X173660000Y-97082463D01*
X173692192Y-97050327D01*
X173834838Y-96706799D01*
X173835162Y-96334833D01*
X173693117Y-95991057D01*
X173660000Y-95957882D01*
X173660000Y-90171302D01*
X173996180Y-89835122D01*
X174041667Y-89835162D01*
X174385443Y-89693117D01*
X174648692Y-89430327D01*
X174791338Y-89086799D01*
X174791662Y-88714833D01*
X174649617Y-88371057D01*
X174386827Y-88107808D01*
X174043299Y-87965162D01*
X173671333Y-87964838D01*
X173327557Y-88106883D01*
X173064308Y-88369673D01*
X172921662Y-88713201D01*
X172921621Y-88760077D01*
X172362599Y-89319099D01*
X172197852Y-89565661D01*
X172140000Y-89856500D01*
X172140000Y-95957537D01*
X172107808Y-95989673D01*
X171965162Y-96333201D01*
X171964838Y-96705167D01*
X172106883Y-97048943D01*
X172140000Y-97082118D01*
X172140000Y-110042437D01*
X172107808Y-110074573D01*
X171965162Y-110418101D01*
X171965121Y-110464977D01*
X168711998Y-113718100D01*
X165897497Y-113718100D01*
X165897562Y-113643533D01*
X165755517Y-113299757D01*
X165722400Y-113266582D01*
X165722400Y-109693063D01*
X165754592Y-109660927D01*
X165897238Y-109317399D01*
X165897279Y-109270523D01*
X166657301Y-108510501D01*
X166822048Y-108263940D01*
X166879900Y-107973100D01*
X166879900Y-84843163D01*
X166912092Y-84811027D01*
X167054738Y-84467499D01*
X167055062Y-84095533D01*
X166913017Y-83751757D01*
X166879900Y-83718582D01*
X166879900Y-79322663D01*
X166912092Y-79290527D01*
X167054738Y-78946999D01*
X167055062Y-78575033D01*
X166913017Y-78231257D01*
X166650227Y-77968008D01*
X166306699Y-77825362D01*
X166259824Y-77825321D01*
X164010000Y-75575498D01*
X164010000Y-74524067D01*
X168174438Y-74524067D01*
X168316483Y-74867843D01*
X168579273Y-75131092D01*
X168922801Y-75273738D01*
X168969677Y-75273779D01*
X185673400Y-91977502D01*
X185673400Y-107921700D01*
X185731252Y-108212539D01*
X185895999Y-108459101D01*
X216804499Y-139367601D01*
X217051061Y-139532348D01*
X217341900Y-139590200D01*
X228143600Y-139590200D01*
X228143600Y-156732737D01*
X228111408Y-156764873D01*
X227968762Y-157108401D01*
X227968438Y-157480367D01*
X228110483Y-157824143D01*
X228373273Y-158087392D01*
X228716801Y-158230038D01*
X229088767Y-158230362D01*
X229432543Y-158088317D01*
X229695792Y-157825527D01*
X229838438Y-157481999D01*
X229838762Y-157110033D01*
X229696717Y-156766257D01*
X229663600Y-156733082D01*
X229663600Y-139392663D01*
X229695792Y-139360527D01*
X229838438Y-139016999D01*
X229838762Y-138645033D01*
X229696717Y-138301257D01*
X229433927Y-138038008D01*
X229090399Y-137895362D01*
X228718433Y-137895038D01*
X228374657Y-138037083D01*
X228341482Y-138070200D01*
X217656702Y-138070200D01*
X206403879Y-126817377D01*
X206439592Y-126781727D01*
X206582238Y-126438199D01*
X206582562Y-126066233D01*
X206548736Y-125984366D01*
X214094780Y-118438322D01*
X214140267Y-118438362D01*
X214484043Y-118296317D01*
X214747292Y-118033527D01*
X214889938Y-117689999D01*
X214890262Y-117318033D01*
X214748217Y-116974257D01*
X214485427Y-116711008D01*
X214141899Y-116568362D01*
X214095023Y-116568321D01*
X213375169Y-115848467D01*
X213617238Y-115848467D01*
X213759283Y-116192243D01*
X214022073Y-116455492D01*
X214365601Y-116598138D01*
X214412477Y-116598179D01*
X214731199Y-116916901D01*
X214977761Y-117081648D01*
X215268600Y-117139500D01*
X221856400Y-117139500D01*
X221856400Y-121099700D01*
X221914252Y-121390539D01*
X222078999Y-121637101D01*
X229884000Y-129442102D01*
X229884000Y-166829400D01*
X229941852Y-167120239D01*
X230000623Y-167208197D01*
X230000538Y-167306167D01*
X230142583Y-167649943D01*
X230405373Y-167913192D01*
X230748901Y-168055838D01*
X230795777Y-168055879D01*
X232196899Y-169457001D01*
X232443461Y-169621748D01*
X232734300Y-169679600D01*
X248656337Y-169679600D01*
X248688473Y-169711792D01*
X249032001Y-169854438D01*
X249403967Y-169854762D01*
X249747743Y-169712717D01*
X249780918Y-169679600D01*
X256775800Y-169679600D01*
X257066639Y-169621748D01*
X257313201Y-169457001D01*
X258017580Y-168752622D01*
X258063067Y-168752662D01*
X258406843Y-168610617D01*
X258670092Y-168347827D01*
X258812738Y-168004299D01*
X258813062Y-167632333D01*
X258671017Y-167288557D01*
X258408227Y-167025308D01*
X258064699Y-166882662D01*
X257692733Y-166882338D01*
X257348957Y-167024383D01*
X257085708Y-167287173D01*
X256943062Y-167630701D01*
X256943021Y-167677577D01*
X256460998Y-168159600D01*
X249781263Y-168159600D01*
X249749127Y-168127408D01*
X249405599Y-167984762D01*
X249033633Y-167984438D01*
X248689857Y-168126483D01*
X248656682Y-168159600D01*
X233049102Y-168159600D01*
X231870822Y-166981320D01*
X231870862Y-166935833D01*
X231728817Y-166592057D01*
X231466027Y-166328808D01*
X231404000Y-166303052D01*
X231404000Y-163833813D01*
X231459767Y-163833862D01*
X231803543Y-163691817D01*
X232066792Y-163429027D01*
X232112064Y-163320000D01*
X248473537Y-163320000D01*
X248505673Y-163352192D01*
X248849201Y-163494838D01*
X249221167Y-163495162D01*
X249564943Y-163353117D01*
X249598118Y-163320000D01*
X257201436Y-163320000D01*
X257347573Y-163466392D01*
X257691101Y-163609038D01*
X258063067Y-163609362D01*
X258406843Y-163467317D01*
X258670092Y-163204527D01*
X258812738Y-162860999D01*
X258812878Y-162699824D01*
X259089801Y-162422901D01*
X259254548Y-162176339D01*
X259312400Y-161885500D01*
X259312400Y-118104700D01*
X259254548Y-117813861D01*
X259089801Y-117567299D01*
X256494002Y-114971500D01*
X262607601Y-108857901D01*
X262772348Y-108611340D01*
X262781946Y-108563086D01*
X262830200Y-108320500D01*
X262830200Y-56459163D01*
X262862392Y-56427027D01*
X263005038Y-56083499D01*
X263005362Y-55711533D01*
X262863317Y-55367757D01*
X262800436Y-55304766D01*
X262806867Y-55298335D01*
X262952767Y-55298462D01*
X263296543Y-55156417D01*
X263559792Y-54893627D01*
X263702438Y-54550099D01*
X263702762Y-54178133D01*
X263560717Y-53834357D01*
X263297927Y-53571108D01*
X262954399Y-53428462D01*
X262582433Y-53428138D01*
X262238657Y-53570183D01*
X261975408Y-53832973D01*
X261870869Y-54084729D01*
X261504100Y-54451498D01*
X261504100Y-34251663D01*
X261536292Y-34219527D01*
X261678938Y-33875999D01*
X261679262Y-33504033D01*
X261537217Y-33160257D01*
X261274427Y-32897008D01*
X260930899Y-32754362D01*
X260558933Y-32754038D01*
X260215157Y-32896083D01*
X259951908Y-33158873D01*
X259809262Y-33502401D01*
X259808938Y-33874367D01*
X259950983Y-34218143D01*
X259984100Y-34251318D01*
X259984100Y-83823788D01*
X259865508Y-83942173D01*
X259722862Y-84285701D01*
X259722821Y-84332577D01*
X254339000Y-89716398D01*
X254339000Y-77868900D01*
X254281148Y-77578061D01*
X254116401Y-77331499D01*
X253756322Y-76971420D01*
X253756362Y-76925933D01*
X253614317Y-76582157D01*
X253581200Y-76548982D01*
X253581200Y-72530700D01*
X253542591Y-72336599D01*
X253523348Y-72239860D01*
X253358601Y-71993299D01*
X251704100Y-70338798D01*
X251704100Y-69515118D01*
X251754567Y-69515162D01*
X252098343Y-69373117D01*
X252361592Y-69110327D01*
X252504238Y-68766799D01*
X252504279Y-68719923D01*
X253358601Y-67865601D01*
X253523348Y-67619039D01*
X253581200Y-67328200D01*
X253581200Y-61810963D01*
X253613392Y-61778827D01*
X253756038Y-61435299D01*
X253756362Y-61063333D01*
X253614317Y-60719557D01*
X253581200Y-60686382D01*
X253581200Y-52260163D01*
X253613392Y-52228027D01*
X253756038Y-51884499D01*
X253756362Y-51512533D01*
X253614317Y-51168757D01*
X253351527Y-50905508D01*
X253007999Y-50762862D01*
X252961123Y-50762821D01*
X252653200Y-50454898D01*
X252653200Y-43664463D01*
X252685392Y-43632327D01*
X252828038Y-43288799D01*
X252828079Y-43241923D01*
X255612901Y-40457101D01*
X255777648Y-40210539D01*
X255835500Y-39919700D01*
X255835500Y-34108863D01*
X255867692Y-34076727D01*
X256010338Y-33733199D01*
X256010662Y-33361233D01*
X255868617Y-33017457D01*
X255605827Y-32754208D01*
X255262299Y-32611562D01*
X254890333Y-32611238D01*
X254546557Y-32753283D01*
X254283308Y-33016073D01*
X254140662Y-33359601D01*
X254140338Y-33731567D01*
X254282383Y-34075343D01*
X254315500Y-34108518D01*
X254315500Y-39604898D01*
X251753520Y-42166878D01*
X251708033Y-42166838D01*
X251704100Y-42168463D01*
X251704100Y-24586500D01*
X251646248Y-24295661D01*
X251646248Y-24295660D01*
X251481501Y-24049099D01*
X249883422Y-22451020D01*
X249883462Y-22405533D01*
X249741417Y-22061757D01*
X249478627Y-21798508D01*
X249135099Y-21655862D01*
X248763133Y-21655538D01*
X248419357Y-21797583D01*
X248156108Y-22060373D01*
X248013462Y-22403901D01*
X248013138Y-22775867D01*
X248155183Y-23119643D01*
X248417973Y-23382892D01*
X248761501Y-23525538D01*
X248808377Y-23525579D01*
X250184100Y-24901302D01*
X250184100Y-41618098D01*
X247396222Y-38830220D01*
X247396262Y-38784733D01*
X247254217Y-38440957D01*
X246991427Y-38177708D01*
X246647899Y-38035062D01*
X246275933Y-38034738D01*
X245932157Y-38176783D01*
X245668908Y-38439573D01*
X245526262Y-38783101D01*
X245525938Y-39155067D01*
X245667983Y-39498843D01*
X245930773Y-39762092D01*
X246274301Y-39904738D01*
X246321177Y-39904779D01*
X249675000Y-43258602D01*
X249675000Y-84643937D01*
X249642808Y-84676073D01*
X249500162Y-85019601D01*
X249500121Y-85066477D01*
X247985699Y-86580899D01*
X247820952Y-86827461D01*
X247763100Y-87118300D01*
X247763100Y-141785700D01*
X247820952Y-142076539D01*
X247985699Y-142323101D01*
X248013178Y-142350580D01*
X248013138Y-142396067D01*
X248155183Y-142739843D01*
X248417973Y-143003092D01*
X248761501Y-143145738D01*
X248808377Y-143145779D01*
X248868099Y-143205501D01*
X249114660Y-143370248D01*
X249162914Y-143379846D01*
X249405500Y-143428100D01*
X253319537Y-143428100D01*
X253351673Y-143460292D01*
X253695201Y-143602938D01*
X254067167Y-143603262D01*
X254410943Y-143461217D01*
X254674192Y-143198427D01*
X254816838Y-142854899D01*
X254817162Y-142482933D01*
X254675117Y-142139157D01*
X254412327Y-141875908D01*
X254068799Y-141733262D01*
X253696833Y-141732938D01*
X253353057Y-141874983D01*
X253319882Y-141908100D01*
X249834857Y-141908100D01*
X249741417Y-141681957D01*
X249478627Y-141418708D01*
X249283100Y-141337518D01*
X249283100Y-139136576D01*
X249479673Y-139333492D01*
X249823201Y-139476138D01*
X250195167Y-139476462D01*
X250538943Y-139334417D01*
X250802192Y-139071627D01*
X250944838Y-138728099D01*
X250944879Y-138681223D01*
X254256283Y-135369819D01*
X254875778Y-135989355D01*
X254875738Y-136034867D01*
X255017783Y-136378643D01*
X255280573Y-136641892D01*
X255624101Y-136784538D01*
X255727600Y-136784628D01*
X255727600Y-146920533D01*
X255526099Y-146836862D01*
X255154133Y-146836538D01*
X254810357Y-146978583D01*
X254777182Y-147011700D01*
X250425002Y-147011700D01*
X240294700Y-136881398D01*
X240294700Y-99428067D01*
X242133838Y-99428067D01*
X242275883Y-99771843D01*
X242309000Y-99805018D01*
X242309000Y-108716037D01*
X242276808Y-108748173D01*
X242134162Y-109091701D01*
X242133838Y-109463667D01*
X242275883Y-109807443D01*
X242309000Y-109840618D01*
X242309000Y-114101237D01*
X242276808Y-114133373D01*
X242134162Y-114476901D01*
X242133838Y-114848867D01*
X242275883Y-115192643D01*
X242538673Y-115455892D01*
X242882201Y-115598538D01*
X243254167Y-115598862D01*
X243597943Y-115456817D01*
X243861192Y-115194027D01*
X244003838Y-114850499D01*
X244004162Y-114478533D01*
X243862117Y-114134757D01*
X243829000Y-114101582D01*
X243829000Y-109840963D01*
X243861192Y-109808827D01*
X244003838Y-109465299D01*
X244004162Y-109093333D01*
X243862117Y-108749557D01*
X243829000Y-108716382D01*
X243829000Y-99805363D01*
X243861192Y-99773227D01*
X244003838Y-99429699D01*
X244003879Y-99382823D01*
X247198101Y-96188601D01*
X247362848Y-95942039D01*
X247420700Y-95651200D01*
X247420700Y-79157563D01*
X247452892Y-79125427D01*
X247595538Y-78781899D01*
X247595862Y-78409933D01*
X247453817Y-78066157D01*
X247191027Y-77802908D01*
X246847499Y-77660262D01*
X246475533Y-77659938D01*
X246131757Y-77801983D01*
X245868508Y-78064773D01*
X245725862Y-78408301D01*
X245725538Y-78780267D01*
X245867583Y-79124043D01*
X245900700Y-79157218D01*
X245900700Y-95336398D01*
X242929320Y-98307778D01*
X242883833Y-98307738D01*
X242540057Y-98449783D01*
X242276808Y-98712573D01*
X242134162Y-99056101D01*
X242133838Y-99428067D01*
X240294700Y-99428067D01*
X240294700Y-90831800D01*
X240236848Y-90540961D01*
X240072101Y-90294399D01*
X238759810Y-88982108D01*
X238704600Y-88848489D01*
X238704600Y-43706302D01*
X241002080Y-41408822D01*
X241047567Y-41408862D01*
X241391343Y-41266817D01*
X241654592Y-41004027D01*
X241797238Y-40660499D01*
X241797562Y-40288533D01*
X241655517Y-39944757D01*
X241392727Y-39681508D01*
X241049199Y-39538862D01*
X240677233Y-39538538D01*
X240333457Y-39680583D01*
X240070208Y-39943373D01*
X239927562Y-40286901D01*
X239927521Y-40333777D01*
X237407199Y-42854099D01*
X237242452Y-43100661D01*
X237184600Y-43391500D01*
X237184600Y-88590193D01*
X237063208Y-88711373D01*
X236938100Y-89012665D01*
X236938100Y-84382463D01*
X236970292Y-84350327D01*
X237112938Y-84006799D01*
X237113262Y-83634833D01*
X236971217Y-83291057D01*
X236938100Y-83257882D01*
X236938100Y-79205155D01*
X237045338Y-78946899D01*
X237045662Y-78574933D01*
X236903617Y-78231157D01*
X236640827Y-77967908D01*
X236297299Y-77825262D01*
X235925333Y-77824938D01*
X235581557Y-77966983D01*
X235548382Y-78000100D01*
X230730702Y-78000100D01*
X224740722Y-72010120D01*
X224740762Y-71964633D01*
X224598717Y-71620857D01*
X224335927Y-71357608D01*
X223992399Y-71214962D01*
X223929500Y-71214907D01*
X223929500Y-60517866D01*
X224132192Y-60315527D01*
X224274838Y-59971999D01*
X224275162Y-59600033D01*
X224133117Y-59256257D01*
X223870327Y-58993008D01*
X223526799Y-58850362D01*
X223154833Y-58850038D01*
X222811057Y-58992083D01*
X222547808Y-59254873D01*
X222405162Y-59598401D01*
X222404838Y-59970367D01*
X222409500Y-59981650D01*
X222409500Y-115093437D01*
X222377308Y-115125573D01*
X222234662Y-115469101D01*
X222234531Y-115619500D01*
X215583402Y-115619500D01*
X215487522Y-115523620D01*
X215487562Y-115478133D01*
X215345517Y-115134357D01*
X215082727Y-114871108D01*
X214739199Y-114728462D01*
X214367233Y-114728138D01*
X214023457Y-114870183D01*
X213760208Y-115132973D01*
X213617562Y-115476501D01*
X213617238Y-115848467D01*
X213375169Y-115848467D01*
X211411300Y-113884598D01*
X211411300Y-100646163D01*
X211443492Y-100614027D01*
X211586138Y-100270499D01*
X211586462Y-99898533D01*
X211444417Y-99554757D01*
X211411300Y-99521582D01*
X211411300Y-95166500D01*
X211353448Y-94875661D01*
X211188701Y-94629099D01*
X210359022Y-93799420D01*
X210359062Y-93753933D01*
X210217017Y-93410157D01*
X209954227Y-93146908D01*
X209610699Y-93004262D01*
X209238733Y-93003938D01*
X208894957Y-93145983D01*
X208631708Y-93408773D01*
X208489062Y-93752301D01*
X208488738Y-94124267D01*
X208630783Y-94468043D01*
X208893573Y-94731292D01*
X209237101Y-94873938D01*
X209283977Y-94873979D01*
X209891300Y-95481302D01*
X209891300Y-99521237D01*
X209859108Y-99553373D01*
X209716462Y-99896901D01*
X209716138Y-100268867D01*
X209858183Y-100612643D01*
X209891300Y-100645818D01*
X209891300Y-114199400D01*
X209949152Y-114490239D01*
X210113899Y-114736801D01*
X212880298Y-117503200D01*
X205109999Y-125273499D01*
X205009864Y-125423362D01*
X190379239Y-110792737D01*
X190518692Y-110653527D01*
X190661338Y-110309999D01*
X190661662Y-109938033D01*
X190519617Y-109594257D01*
X190486500Y-109561082D01*
X190486500Y-104702463D01*
X190518692Y-104670327D01*
X190661338Y-104326799D01*
X190661662Y-103954833D01*
X190519617Y-103611057D01*
X190486500Y-103577882D01*
X190486500Y-94542463D01*
X190518692Y-94510327D01*
X190661338Y-94166799D01*
X190661662Y-93794833D01*
X190519617Y-93451057D01*
X190256827Y-93187808D01*
X189913299Y-93045162D01*
X189866423Y-93045121D01*
X179793300Y-82971998D01*
X179793300Y-77067663D01*
X179825492Y-77035527D01*
X179968138Y-76691999D01*
X179968462Y-76320033D01*
X179826417Y-75976257D01*
X179563627Y-75713008D01*
X179220099Y-75570362D01*
X178848133Y-75570038D01*
X178504357Y-75712083D01*
X178241108Y-75974873D01*
X178098462Y-76318401D01*
X178098138Y-76690367D01*
X178240183Y-77034143D01*
X178273300Y-77067318D01*
X178273300Y-82427798D01*
X170044722Y-74199220D01*
X170044762Y-74153733D01*
X169902717Y-73809957D01*
X169639927Y-73546708D01*
X169296399Y-73404062D01*
X168924433Y-73403738D01*
X168580657Y-73545783D01*
X168317408Y-73808573D01*
X168174762Y-74152101D01*
X168174438Y-74524067D01*
X164010000Y-74524067D01*
X164010000Y-72547767D01*
X164196738Y-72547767D01*
X164338783Y-72891543D01*
X164601573Y-73154792D01*
X164945101Y-73297438D01*
X165317067Y-73297762D01*
X165660843Y-73155717D01*
X165924092Y-72892927D01*
X166066738Y-72549399D01*
X166066779Y-72502523D01*
X166922802Y-71646500D01*
X185164134Y-71646500D01*
X185164038Y-71756167D01*
X185306083Y-72099943D01*
X185568873Y-72363192D01*
X185912401Y-72505838D01*
X185959277Y-72505879D01*
X197792017Y-84338619D01*
X197796283Y-84348943D01*
X198059073Y-84612192D01*
X198070218Y-84616820D01*
X199839100Y-86385702D01*
X199839100Y-98737637D01*
X199806908Y-98769773D01*
X199664262Y-99113301D01*
X199663938Y-99485267D01*
X199805983Y-99829043D01*
X199839100Y-99862218D01*
X199839100Y-108580500D01*
X199896952Y-108871339D01*
X199986210Y-109004924D01*
X199986138Y-109087867D01*
X200128183Y-109431643D01*
X200161300Y-109464818D01*
X200161300Y-112327598D01*
X198436420Y-114052478D01*
X198390933Y-114052438D01*
X198047157Y-114194483D01*
X197783908Y-114457273D01*
X197641262Y-114800801D01*
X197640938Y-115172767D01*
X197782983Y-115516543D01*
X198045773Y-115779792D01*
X198389301Y-115922438D01*
X198761267Y-115922762D01*
X199105043Y-115780717D01*
X199368292Y-115517927D01*
X199510938Y-115174399D01*
X199510979Y-115127523D01*
X201458701Y-113179801D01*
X201623448Y-112933239D01*
X201681300Y-112642400D01*
X201681300Y-109465163D01*
X201713492Y-109433027D01*
X201856138Y-109089499D01*
X201856462Y-108717533D01*
X201714417Y-108373757D01*
X201451627Y-108110508D01*
X201359100Y-108072087D01*
X201359100Y-99862563D01*
X201391292Y-99830427D01*
X201533938Y-99486899D01*
X201534262Y-99114933D01*
X201392217Y-98771157D01*
X201359100Y-98737982D01*
X201359100Y-86070900D01*
X201301248Y-85780061D01*
X201136501Y-85533499D01*
X199524312Y-83921310D01*
X199524562Y-83634833D01*
X199382517Y-83291057D01*
X199119727Y-83027808D01*
X198776199Y-82885162D01*
X198487913Y-82884911D01*
X187249502Y-71646500D01*
X190113498Y-71646500D01*
X215622300Y-97155302D01*
X215622300Y-103577537D01*
X215590108Y-103609673D01*
X215447462Y-103953201D01*
X215447138Y-104325167D01*
X215589183Y-104668943D01*
X215851973Y-104932192D01*
X216195501Y-105074838D01*
X216567467Y-105075162D01*
X216911243Y-104933117D01*
X217174492Y-104670327D01*
X217317138Y-104326799D01*
X217317462Y-103954833D01*
X217175417Y-103611057D01*
X217142300Y-103577882D01*
X217142300Y-97766659D01*
X217163201Y-97775338D01*
X217535167Y-97775662D01*
X217878943Y-97633617D01*
X218142192Y-97370827D01*
X218284838Y-97027299D01*
X218285162Y-96655333D01*
X218143117Y-96311557D01*
X217880327Y-96048308D01*
X217536799Y-95905662D01*
X217164833Y-95905338D01*
X216821057Y-96047383D01*
X216787882Y-96080500D01*
X216697102Y-96080500D01*
X190965701Y-70349099D01*
X190719139Y-70184352D01*
X190428300Y-70126500D01*
X166608000Y-70126500D01*
X166317161Y-70184352D01*
X166070599Y-70349099D01*
X164992220Y-71427478D01*
X164946733Y-71427438D01*
X164602957Y-71569483D01*
X164339708Y-71832273D01*
X164197062Y-72175801D01*
X164196738Y-72547767D01*
X164010000Y-72547767D01*
X164010000Y-71458063D01*
X164042192Y-71425927D01*
X164184838Y-71082399D01*
X164185162Y-70710433D01*
X164043117Y-70366657D01*
X163780327Y-70103408D01*
X163436799Y-69960762D01*
X163354500Y-69960690D01*
X163354500Y-67612402D01*
X170537401Y-60429501D01*
X170702148Y-60182939D01*
X170760000Y-59892100D01*
X170760000Y-45125063D01*
X170792192Y-45092927D01*
X170934838Y-44749399D01*
X170935162Y-44377433D01*
X170793117Y-44033657D01*
X170530327Y-43770408D01*
X170186799Y-43627762D01*
X169814833Y-43627438D01*
X169471057Y-43769483D01*
X169207808Y-44032273D01*
X169065162Y-44375801D01*
X169064838Y-44747767D01*
X169206883Y-45091543D01*
X169240000Y-45124718D01*
X169240000Y-50772885D01*
X169203099Y-50757562D01*
X168831133Y-50757238D01*
X168487357Y-50899283D01*
X168224108Y-51162073D01*
X168081462Y-51505601D01*
X168081138Y-51877567D01*
X168223183Y-52221343D01*
X168256300Y-52254518D01*
X168256300Y-53316898D01*
X164722900Y-56850298D01*
X164722900Y-52260163D01*
X164755092Y-52228027D01*
X164897738Y-51884499D01*
X164897779Y-51837623D01*
X166602301Y-50133101D01*
X166767048Y-49886539D01*
X166824900Y-49595700D01*
X166824900Y-38000763D01*
X166857092Y-37968627D01*
X166999738Y-37625099D01*
X167000062Y-37253133D01*
X166858017Y-36909357D01*
X166595227Y-36646108D01*
X166251699Y-36503462D01*
X165879733Y-36503138D01*
X165535957Y-36645183D01*
X165272708Y-36907973D01*
X165130062Y-37251501D01*
X165129738Y-37623467D01*
X165271783Y-37967243D01*
X165304900Y-38000418D01*
X165304900Y-49280898D01*
X163823220Y-50762578D01*
X163777733Y-50762538D01*
X163433957Y-50904583D01*
X163170708Y-51167373D01*
X163028062Y-51510901D01*
X163027738Y-51882867D01*
X163169783Y-52226643D01*
X163202900Y-52259818D01*
X163202900Y-57097298D01*
X156406098Y-63894100D01*
X78556200Y-63894100D01*
X78265361Y-63951952D01*
X78175493Y-64012000D01*
X77999800Y-64012000D01*
X77708960Y-64069852D01*
X77462399Y-64234599D01*
X76142700Y-65554298D01*
X76142700Y-56265200D01*
X76084848Y-55974361D01*
X76045068Y-55914826D01*
X76045162Y-55807333D01*
X75903117Y-55463557D01*
X75870000Y-55430382D01*
X75870000Y-49392900D01*
X75812148Y-49102061D01*
X75647401Y-48855499D01*
X75091022Y-48299120D01*
X75091062Y-48253633D01*
X74949017Y-47909857D01*
X74915900Y-47876682D01*
X74915900Y-35534702D01*
X75087480Y-35363122D01*
X75132967Y-35363162D01*
X75476743Y-35221117D01*
X75739992Y-34958327D01*
X75882638Y-34614799D01*
X75882776Y-34456700D01*
X76854235Y-34456700D01*
X76962961Y-34529348D01*
X77253800Y-34587200D01*
X83058900Y-34587200D01*
X83349739Y-34529348D01*
X83596301Y-34364601D01*
X83694502Y-34266400D01*
X93139083Y-34266400D01*
X93139038Y-34318567D01*
X93281083Y-34662343D01*
X93314200Y-34695518D01*
X93314200Y-40373298D01*
X91663220Y-42024278D01*
X91617733Y-42024238D01*
X91273957Y-42166283D01*
X91010708Y-42429073D01*
X90868062Y-42772601D01*
X90867738Y-43144567D01*
X91009783Y-43488343D01*
X91042900Y-43521518D01*
X91042900Y-48666900D01*
X91100752Y-48957739D01*
X91265499Y-49204301D01*
X91833178Y-49771980D01*
X91833138Y-49817467D01*
X91975183Y-50161243D01*
X92008300Y-50194418D01*
X92008300Y-55565231D01*
X91955162Y-55693201D01*
X91955094Y-55771200D01*
X87115302Y-55771200D01*
X85478425Y-54134323D01*
X85481343Y-54133117D01*
X85744592Y-53870327D01*
X85887238Y-53526799D01*
X85887562Y-53154833D01*
X85745517Y-52811057D01*
X85712400Y-52777882D01*
X85712400Y-48907063D01*
X85744592Y-48874927D01*
X85887238Y-48531399D01*
X85887562Y-48159433D01*
X85745517Y-47815657D01*
X85712400Y-47782482D01*
X85712400Y-38662463D01*
X85744592Y-38630327D01*
X85887238Y-38286799D01*
X85887562Y-37914833D01*
X85745517Y-37571057D01*
X85482727Y-37307808D01*
X85139199Y-37165162D01*
X84767233Y-37164838D01*
X84423457Y-37306883D01*
X84160208Y-37569673D01*
X84017562Y-37913201D01*
X84017238Y-38285167D01*
X84159283Y-38628943D01*
X84192400Y-38662118D01*
X84192400Y-47782137D01*
X84160208Y-47814273D01*
X84017562Y-48157801D01*
X84017238Y-48529767D01*
X84159283Y-48873543D01*
X84192400Y-48906718D01*
X84192400Y-52777537D01*
X84160208Y-52809673D01*
X84158321Y-52814219D01*
X80975522Y-49631420D01*
X80975562Y-49585933D01*
X80833517Y-49242157D01*
X80570727Y-48978908D01*
X80227199Y-48836262D01*
X79855233Y-48835938D01*
X79511457Y-48977983D01*
X79248208Y-49240773D01*
X79105562Y-49584301D01*
X79105238Y-49956267D01*
X79247283Y-50300043D01*
X79510073Y-50563292D01*
X79853601Y-50705938D01*
X79900477Y-50705979D01*
X86263099Y-57068601D01*
X86509661Y-57233348D01*
X86800500Y-57291200D01*
X117755000Y-57291200D01*
X117755000Y-57911537D01*
X117722808Y-57943673D01*
X117580162Y-58287201D01*
X117579838Y-58659167D01*
X117721883Y-59002943D01*
X117984673Y-59266192D01*
X118328201Y-59408838D01*
X118700167Y-59409162D01*
X119043943Y-59267117D01*
X119307192Y-59004327D01*
X119449838Y-58660799D01*
X119450162Y-58288833D01*
X119308117Y-57945057D01*
X119275000Y-57911882D01*
X119275000Y-56935200D01*
X119273436Y-56927338D01*
X119217148Y-56644360D01*
X119052401Y-56397799D01*
X118871000Y-56216398D01*
X118871000Y-53420663D01*
X118903192Y-53388527D01*
X119045838Y-53044999D01*
X119046162Y-52673033D01*
X118904117Y-52329257D01*
X118871000Y-52296082D01*
X118871000Y-43659663D01*
X118903192Y-43627527D01*
X119045838Y-43283999D01*
X119045916Y-43194917D01*
X119125748Y-43075439D01*
X119183600Y-42784600D01*
X119183600Y-34261763D01*
X119215792Y-34229627D01*
X119358438Y-33886099D01*
X119358499Y-33816000D01*
X128126848Y-33816000D01*
X128088208Y-33854573D01*
X127945562Y-34198101D01*
X127945238Y-34570067D01*
X128087283Y-34913843D01*
X128350073Y-35177092D01*
X128693601Y-35319738D01*
X128740477Y-35319779D01*
X129408600Y-35987902D01*
X129408600Y-42384137D01*
X129376408Y-42416273D01*
X129233762Y-42759801D01*
X129233438Y-43131767D01*
X129375483Y-43475543D01*
X129408600Y-43508718D01*
X129408600Y-52323498D01*
X129274420Y-52457678D01*
X129228933Y-52457638D01*
X128885157Y-52599683D01*
X128621908Y-52862473D01*
X128479262Y-53206001D01*
X128478938Y-53577967D01*
X128620983Y-53921743D01*
X128654100Y-53954918D01*
X128654100Y-57740937D01*
X128621908Y-57773073D01*
X128479262Y-58116601D01*
X128478938Y-58488567D01*
X128620983Y-58832343D01*
X128883773Y-59095592D01*
X129227301Y-59238238D01*
X129599267Y-59238562D01*
X129943043Y-59096517D01*
X130206292Y-58833727D01*
X130348938Y-58490199D01*
X130349262Y-58118233D01*
X130207217Y-57774457D01*
X130174100Y-57741282D01*
X130174100Y-53955263D01*
X130206292Y-53923127D01*
X130348938Y-53579599D01*
X130348979Y-53532723D01*
X130706001Y-53175701D01*
X130870748Y-52929139D01*
X130928600Y-52638300D01*
X130928600Y-43509063D01*
X130960792Y-43476927D01*
X131103438Y-43133399D01*
X131103762Y-42761433D01*
X130961717Y-42417657D01*
X130928600Y-42384482D01*
X130928600Y-35986602D01*
X135455500Y-40513502D01*
X135455500Y-44260900D01*
X135513352Y-44551739D01*
X135678099Y-44798301D01*
X136404878Y-45525080D01*
X136404838Y-45570567D01*
X136546883Y-45914343D01*
X136580000Y-45947518D01*
X136580000Y-52375200D01*
X136637852Y-52666039D01*
X136802599Y-52912601D01*
X137369678Y-53479680D01*
X137369638Y-53525167D01*
X137511683Y-53868943D01*
X137774473Y-54132192D01*
X138118001Y-54274838D01*
X138489967Y-54275162D01*
X138833743Y-54133117D01*
X139096992Y-53870327D01*
X139239638Y-53526799D01*
X139239962Y-53154833D01*
X139097917Y-52811057D01*
X138835127Y-52547808D01*
X138491599Y-52405162D01*
X138444723Y-52405121D01*
X138100000Y-52060398D01*
X138100000Y-45947863D01*
X138132192Y-45915727D01*
X138274838Y-45572199D01*
X138275162Y-45200233D01*
X138133117Y-44856457D01*
X137870327Y-44593208D01*
X137526799Y-44450562D01*
X137479923Y-44450521D01*
X136975500Y-43946098D01*
X136975500Y-40513502D01*
X138453880Y-39035122D01*
X138499367Y-39035162D01*
X138843143Y-38893117D01*
X139106392Y-38630327D01*
X139249038Y-38286799D01*
X139249362Y-37914833D01*
X139107317Y-37571057D01*
X138844527Y-37307808D01*
X138500999Y-37165162D01*
X138129033Y-37164838D01*
X137785257Y-37306883D01*
X137522008Y-37569673D01*
X137379362Y-37913201D01*
X137379321Y-37960077D01*
X136215500Y-39123898D01*
X130411502Y-33319900D01*
X139001398Y-33319900D01*
X146605378Y-40923880D01*
X146605338Y-40969367D01*
X146747383Y-41313143D01*
X147010173Y-41576392D01*
X147353701Y-41719038D01*
X147421700Y-41719097D01*
X147421700Y-42195535D01*
X147218508Y-42398373D01*
X147075862Y-42741901D01*
X147075538Y-43113867D01*
X147217583Y-43457643D01*
X147400700Y-43641080D01*
X147400700Y-45872237D01*
X147368508Y-45904373D01*
X147225862Y-46247901D01*
X147225538Y-46619867D01*
X147367583Y-46963643D01*
X147400700Y-46996818D01*
X147400700Y-52174537D01*
X147368508Y-52206673D01*
X147225862Y-52550201D01*
X147225538Y-52922167D01*
X147367583Y-53265943D01*
X147630373Y-53529192D01*
X147973901Y-53671838D01*
X148345867Y-53672162D01*
X148689643Y-53530117D01*
X148952892Y-53267327D01*
X149095538Y-52923799D01*
X149095862Y-52551833D01*
X148953817Y-52208057D01*
X148920700Y-52174882D01*
X148920700Y-46997163D01*
X148952892Y-46965027D01*
X149095538Y-46621499D01*
X149095862Y-46249533D01*
X148953817Y-45905757D01*
X148920700Y-45872582D01*
X148920700Y-43175315D01*
X148945538Y-43115499D01*
X148945862Y-42743533D01*
X148941700Y-42733460D01*
X148941700Y-34108863D01*
X148973892Y-34076727D01*
X149051449Y-33889951D01*
X152846799Y-37685301D01*
X153093361Y-37850048D01*
X153384200Y-37907900D01*
X153393500Y-37907900D01*
X153393500Y-42617537D01*
X153361308Y-42649673D01*
X153218662Y-42993201D01*
X153218338Y-43365167D01*
X153360383Y-43708943D01*
X153623173Y-43972192D01*
X153966701Y-44114838D01*
X154013577Y-44114879D01*
X155652400Y-45753702D01*
X155652400Y-52791137D01*
X155620208Y-52823273D01*
X155477562Y-53166801D01*
X155477238Y-53538767D01*
X155619283Y-53882543D01*
X155882073Y-54145792D01*
X156225601Y-54288438D01*
X156597567Y-54288762D01*
X156941343Y-54146717D01*
X157204592Y-53883927D01*
X157347238Y-53540399D01*
X157347562Y-53168433D01*
X157205517Y-52824657D01*
X157172400Y-52791482D01*
X157172400Y-45438900D01*
X157114548Y-45148061D01*
X156949801Y-44901499D01*
X155088622Y-43040320D01*
X155088662Y-42994833D01*
X154946617Y-42651057D01*
X154913500Y-42617882D01*
X154913500Y-37710363D01*
X154945692Y-37678227D01*
X155088338Y-37334699D01*
X155088662Y-36962733D01*
X154946617Y-36618957D01*
X154683827Y-36355708D01*
X154340299Y-36213062D01*
X153968333Y-36212738D01*
X153653801Y-36342699D01*
X137186122Y-19875020D01*
X137186162Y-19829533D01*
X137044117Y-19485757D01*
X136781327Y-19222508D01*
X136437799Y-19079862D01*
X136065833Y-19079538D01*
X135722057Y-19221583D01*
X135458808Y-19484373D01*
X135381251Y-19671149D01*
X132951002Y-17240900D01*
X153425798Y-17240900D01*
X173582378Y-37397480D01*
X173582338Y-37442967D01*
X173724383Y-37786743D01*
X173987173Y-38049992D01*
X174030700Y-38068066D01*
X174030700Y-47748037D01*
X173998508Y-47780173D01*
X173855862Y-48123701D01*
X173855538Y-48495667D01*
X173997583Y-48839443D01*
X174260373Y-49102692D01*
X174329000Y-49131189D01*
X174329000Y-52525237D01*
X174296808Y-52557373D01*
X174154162Y-52900901D01*
X174153838Y-53272867D01*
X174295883Y-53616643D01*
X174329000Y-53649818D01*
X174329000Y-60189998D01*
X173332420Y-61186578D01*
X173286933Y-61186538D01*
X172943157Y-61328583D01*
X172679908Y-61591373D01*
X172537262Y-61934901D01*
X172536938Y-62306867D01*
X172678983Y-62650643D01*
X172941773Y-62913892D01*
X173285301Y-63056538D01*
X173657267Y-63056862D01*
X174001043Y-62914817D01*
X174264292Y-62652027D01*
X174406938Y-62308499D01*
X174406979Y-62261623D01*
X175626401Y-61042201D01*
X175791148Y-60795639D01*
X175849000Y-60504800D01*
X175849000Y-53650163D01*
X175881192Y-53618027D01*
X176023838Y-53274499D01*
X176024162Y-52902533D01*
X175882117Y-52558757D01*
X175849000Y-52525582D01*
X175849000Y-48608800D01*
X175791148Y-48317961D01*
X175725779Y-48220130D01*
X175725862Y-48125333D01*
X175583817Y-47781557D01*
X175550700Y-47748382D01*
X175550700Y-37531000D01*
X175492848Y-37240161D01*
X175452569Y-37179878D01*
X175452662Y-37072633D01*
X175310617Y-36728857D01*
X175047827Y-36465608D01*
X174704299Y-36322962D01*
X174657423Y-36322921D01*
X171539669Y-33205167D01*
X179882838Y-33205167D01*
X180024883Y-33548943D01*
X180058000Y-33582118D01*
X180058000Y-39668000D01*
X180115852Y-39958839D01*
X180280599Y-40205401D01*
X180854878Y-40779680D01*
X180854838Y-40825167D01*
X180996883Y-41168943D01*
X181030000Y-41202118D01*
X181030000Y-49445237D01*
X180997808Y-49477373D01*
X180855162Y-49820901D01*
X180854838Y-50192867D01*
X180996883Y-50536643D01*
X181030000Y-50569818D01*
X181030000Y-60397537D01*
X180997808Y-60429673D01*
X180855162Y-60773201D01*
X180854838Y-61145167D01*
X180996883Y-61488943D01*
X181259673Y-61752192D01*
X181603201Y-61894838D01*
X181975167Y-61895162D01*
X182318943Y-61753117D01*
X182582192Y-61490327D01*
X182724838Y-61146799D01*
X182725162Y-60774833D01*
X182583117Y-60431057D01*
X182550000Y-60397882D01*
X182550000Y-50570163D01*
X182582192Y-50538027D01*
X182724838Y-50194499D01*
X182725162Y-49822533D01*
X182583117Y-49478757D01*
X182550000Y-49445582D01*
X182550000Y-41202463D01*
X182582192Y-41170327D01*
X182724838Y-40826799D01*
X182725162Y-40454833D01*
X182583117Y-40111057D01*
X182320327Y-39847808D01*
X181976799Y-39705162D01*
X181929923Y-39705121D01*
X181578000Y-39353198D01*
X181578000Y-33582463D01*
X181610192Y-33550327D01*
X181752838Y-33206799D01*
X181753162Y-32834833D01*
X181611117Y-32491057D01*
X181348327Y-32227808D01*
X181004799Y-32085162D01*
X180632833Y-32084838D01*
X180289057Y-32226883D01*
X180025808Y-32489673D01*
X179883162Y-32833201D01*
X179882838Y-33205167D01*
X171539669Y-33205167D01*
X158040269Y-19705767D01*
X182350538Y-19705767D01*
X182492583Y-20049543D01*
X182525700Y-20082718D01*
X182525700Y-27060300D01*
X182583552Y-27351139D01*
X182748299Y-27597701D01*
X189664578Y-34513980D01*
X189664538Y-34559467D01*
X189806583Y-34903243D01*
X190069373Y-35166492D01*
X190412901Y-35309138D01*
X190459777Y-35309179D01*
X191932300Y-36781702D01*
X191932300Y-57857537D01*
X191900108Y-57889673D01*
X191757462Y-58233201D01*
X191757138Y-58605167D01*
X191899183Y-58948943D01*
X191932300Y-58982118D01*
X191932300Y-60937998D01*
X189588820Y-63281478D01*
X189543333Y-63281438D01*
X189199557Y-63423483D01*
X188936308Y-63686273D01*
X188793662Y-64029801D01*
X188793338Y-64401767D01*
X188935383Y-64745543D01*
X189198173Y-65008792D01*
X189541701Y-65151438D01*
X189913667Y-65151762D01*
X190257443Y-65009717D01*
X190520692Y-64746927D01*
X190663338Y-64403399D01*
X190663379Y-64356523D01*
X193229701Y-61790201D01*
X193394448Y-61543639D01*
X193452300Y-61252800D01*
X193452300Y-58982463D01*
X193484492Y-58950327D01*
X193627138Y-58606799D01*
X193627462Y-58234833D01*
X193485417Y-57891057D01*
X193452300Y-57857882D01*
X193452300Y-43143567D01*
X197527938Y-43143567D01*
X197669983Y-43487343D01*
X197703100Y-43520518D01*
X197703100Y-51253800D01*
X197760952Y-51544639D01*
X197925699Y-51791201D01*
X199474498Y-53340000D01*
X199032599Y-53781899D01*
X198867852Y-54028461D01*
X198810000Y-54319300D01*
X198810000Y-60397537D01*
X198777808Y-60429673D01*
X198635162Y-60773201D01*
X198634838Y-61145167D01*
X198776883Y-61488943D01*
X199039673Y-61752192D01*
X199383201Y-61894838D01*
X199755167Y-61895162D01*
X200098943Y-61753117D01*
X200362192Y-61490327D01*
X200504838Y-61146799D01*
X200505162Y-60774833D01*
X200363117Y-60431057D01*
X200330000Y-60397882D01*
X200330000Y-54634102D01*
X200688980Y-54275122D01*
X200734467Y-54275162D01*
X201078243Y-54133117D01*
X201341492Y-53870327D01*
X201484138Y-53526799D01*
X201484462Y-53154833D01*
X201342417Y-52811057D01*
X201079627Y-52547808D01*
X200736099Y-52405162D01*
X200689223Y-52405121D01*
X199223100Y-50938998D01*
X199223100Y-43520863D01*
X199255292Y-43488727D01*
X199397938Y-43145199D01*
X199398262Y-42773233D01*
X199256217Y-42429457D01*
X199223100Y-42396282D01*
X199223100Y-33717128D01*
X199390192Y-33550327D01*
X199532838Y-33206799D01*
X199533162Y-32834833D01*
X199391117Y-32491057D01*
X199128327Y-32227808D01*
X198784799Y-32085162D01*
X198412833Y-32084838D01*
X198069057Y-32226883D01*
X197805808Y-32489673D01*
X197663162Y-32833201D01*
X197662838Y-33205167D01*
X197703100Y-33302609D01*
X197703100Y-42395937D01*
X197670908Y-42428073D01*
X197528262Y-42771601D01*
X197527938Y-43143567D01*
X193452300Y-43143567D01*
X193452300Y-36466900D01*
X193394448Y-36176061D01*
X193394448Y-36176060D01*
X193229701Y-35929499D01*
X191534822Y-34234620D01*
X191534862Y-34189133D01*
X191392817Y-33845357D01*
X191130027Y-33582108D01*
X190786499Y-33439462D01*
X190739623Y-33439421D01*
X184045700Y-26745498D01*
X184045700Y-20083063D01*
X184077892Y-20050927D01*
X184220538Y-19707399D01*
X184220862Y-19335433D01*
X184106340Y-19058267D01*
X200914038Y-19058267D01*
X201056083Y-19402043D01*
X201089200Y-19435218D01*
X201089200Y-30140500D01*
X201147052Y-30431339D01*
X201311799Y-30677901D01*
X208873578Y-38239680D01*
X208873538Y-38285167D01*
X209015583Y-38628943D01*
X209048700Y-38662118D01*
X209048700Y-47697537D01*
X209016508Y-47729673D01*
X208873862Y-48073201D01*
X208873538Y-48445167D01*
X209015583Y-48788943D01*
X209048700Y-48822118D01*
X209048700Y-57605937D01*
X209016508Y-57638073D01*
X208873862Y-57981601D01*
X208873538Y-58353567D01*
X209015583Y-58697343D01*
X209048700Y-58730518D01*
X209048700Y-61439598D01*
X207347320Y-63140978D01*
X207301833Y-63140938D01*
X206958057Y-63282983D01*
X206694808Y-63545773D01*
X206552162Y-63889301D01*
X206551838Y-64261267D01*
X206693883Y-64605043D01*
X206956673Y-64868292D01*
X207300201Y-65010938D01*
X207672167Y-65011262D01*
X208015943Y-64869217D01*
X208279192Y-64606427D01*
X208421838Y-64262899D01*
X208421879Y-64216023D01*
X210346101Y-62291801D01*
X210510848Y-62045239D01*
X210568700Y-61754400D01*
X210568700Y-58730863D01*
X210600892Y-58698727D01*
X210743538Y-58355199D01*
X210743862Y-57983233D01*
X210601817Y-57639457D01*
X210568700Y-57606282D01*
X210568700Y-48822463D01*
X210600892Y-48790327D01*
X210743538Y-48446799D01*
X210743862Y-48074833D01*
X210601817Y-47731057D01*
X210568700Y-47697882D01*
X210568700Y-38662463D01*
X210600892Y-38630327D01*
X210743538Y-38286799D01*
X210743862Y-37914833D01*
X210601817Y-37571057D01*
X210339027Y-37307808D01*
X209995499Y-37165162D01*
X209948623Y-37165121D01*
X202609200Y-29825698D01*
X202609200Y-21703802D01*
X214835599Y-33930201D01*
X215082160Y-34094948D01*
X215130414Y-34104546D01*
X215373000Y-34152800D01*
X215568600Y-34152800D01*
X215568600Y-37645311D01*
X215457362Y-37913201D01*
X215457038Y-38285167D01*
X215599083Y-38628943D01*
X215861873Y-38892192D01*
X216205401Y-39034838D01*
X216252277Y-39034879D01*
X216476100Y-39258702D01*
X216476100Y-51426437D01*
X216443908Y-51458573D01*
X216301262Y-51802101D01*
X216300938Y-52174067D01*
X216442983Y-52517843D01*
X216590000Y-52665117D01*
X216590000Y-60397537D01*
X216557808Y-60429673D01*
X216415162Y-60773201D01*
X216414838Y-61145167D01*
X216556883Y-61488943D01*
X216819673Y-61752192D01*
X217163201Y-61894838D01*
X217535167Y-61895162D01*
X217878943Y-61753117D01*
X218142192Y-61490327D01*
X218284838Y-61146799D01*
X218285162Y-60774833D01*
X218143117Y-60431057D01*
X218110000Y-60397882D01*
X218110000Y-52322453D01*
X218170938Y-52175699D01*
X218171262Y-51803733D01*
X218029217Y-51459957D01*
X217996100Y-51426782D01*
X217996100Y-38943900D01*
X217938248Y-38653061D01*
X217773501Y-38406499D01*
X217327322Y-37960320D01*
X217327362Y-37914833D01*
X217185317Y-37571057D01*
X217088600Y-37474171D01*
X217088600Y-33955263D01*
X217120792Y-33923127D01*
X217263438Y-33579599D01*
X217263762Y-33207633D01*
X217121717Y-32863857D01*
X216858927Y-32600608D01*
X216515399Y-32457962D01*
X216143433Y-32457638D01*
X215799657Y-32599683D01*
X215766482Y-32632800D01*
X215687802Y-32632800D01*
X203506022Y-20451020D01*
X203506062Y-20405533D01*
X203364017Y-20061757D01*
X203101227Y-19798508D01*
X202757699Y-19655862D01*
X202609200Y-19655733D01*
X202609200Y-19435563D01*
X202641392Y-19403427D01*
X202784038Y-19059899D01*
X202784362Y-18687933D01*
X202642317Y-18344157D01*
X202379527Y-18080908D01*
X202035999Y-17938262D01*
X201664033Y-17937938D01*
X201320257Y-18079983D01*
X201057008Y-18342773D01*
X200914362Y-18686301D01*
X200914038Y-19058267D01*
X184106340Y-19058267D01*
X184078817Y-18991657D01*
X183816027Y-18728408D01*
X183472499Y-18585762D01*
X183100533Y-18585438D01*
X182756757Y-18727483D01*
X182493508Y-18990273D01*
X182350862Y-19333801D01*
X182350538Y-19705767D01*
X158040269Y-19705767D01*
X155125102Y-16790600D01*
X205322098Y-16790600D01*
X226771178Y-38239680D01*
X226771138Y-38285167D01*
X226913183Y-38628943D01*
X226946300Y-38662118D01*
X226946300Y-47534470D01*
X226669157Y-47648983D01*
X226405908Y-47911773D01*
X226263262Y-48255301D01*
X226262938Y-48627267D01*
X226404983Y-48971043D01*
X226438100Y-49004218D01*
X226438100Y-52777537D01*
X226405908Y-52809673D01*
X226263262Y-53153201D01*
X226262938Y-53525167D01*
X226404983Y-53868943D01*
X226438100Y-53902118D01*
X226438100Y-61271698D01*
X225144920Y-62564878D01*
X225099433Y-62564838D01*
X224755657Y-62706883D01*
X224492408Y-62969673D01*
X224349762Y-63313201D01*
X224349438Y-63685167D01*
X224491483Y-64028943D01*
X224754273Y-64292192D01*
X225097801Y-64434838D01*
X225469767Y-64435162D01*
X225813543Y-64293117D01*
X226076792Y-64030327D01*
X226219438Y-63686799D01*
X226219479Y-63639923D01*
X227735501Y-62123901D01*
X227900248Y-61877339D01*
X227958100Y-61586500D01*
X227958100Y-53902463D01*
X227990292Y-53870327D01*
X228132938Y-53526799D01*
X228133262Y-53154833D01*
X227991217Y-52811057D01*
X227958100Y-52777882D01*
X227958100Y-49004563D01*
X227990292Y-48972427D01*
X228132938Y-48628899D01*
X228132979Y-48582023D01*
X228243701Y-48471301D01*
X228408448Y-48224740D01*
X228466300Y-47933900D01*
X228466300Y-38662463D01*
X228498492Y-38630327D01*
X228641138Y-38286799D01*
X228641462Y-37914833D01*
X228499417Y-37571057D01*
X228236627Y-37307808D01*
X227893099Y-37165162D01*
X227846223Y-37165121D01*
X224987502Y-34306400D01*
X233274100Y-34306400D01*
X233274100Y-39282900D01*
X233331952Y-39573739D01*
X233496699Y-39820301D01*
X235535086Y-41858688D01*
X235408552Y-42048061D01*
X235350700Y-42338900D01*
X235350700Y-52777537D01*
X235318508Y-52809673D01*
X235175862Y-53153201D01*
X235175821Y-53200077D01*
X234609299Y-53766599D01*
X234444552Y-54013161D01*
X234386700Y-54304000D01*
X234386700Y-61559437D01*
X234354508Y-61591573D01*
X234211862Y-61935101D01*
X234211538Y-62307067D01*
X234353583Y-62650843D01*
X234386700Y-62684018D01*
X234386700Y-66631266D01*
X234337808Y-66680073D01*
X234195162Y-67023601D01*
X234194838Y-67395567D01*
X234336883Y-67739343D01*
X234599673Y-68002592D01*
X234943201Y-68145238D01*
X235315167Y-68145562D01*
X235658943Y-68003517D01*
X235922192Y-67740727D01*
X236064838Y-67397199D01*
X236065162Y-67025233D01*
X235923117Y-66681457D01*
X235906700Y-66665011D01*
X235906700Y-62684363D01*
X235938892Y-62652227D01*
X236081538Y-62308699D01*
X236081862Y-61936733D01*
X235939817Y-61592957D01*
X235906700Y-61559782D01*
X235906700Y-54618802D01*
X236250380Y-54275122D01*
X236295867Y-54275162D01*
X236639643Y-54133117D01*
X236902892Y-53870327D01*
X237045538Y-53526799D01*
X237045862Y-53154833D01*
X236903817Y-52811057D01*
X236870700Y-52777882D01*
X236870700Y-42749186D01*
X237129343Y-42642317D01*
X237392592Y-42379527D01*
X237535238Y-42035999D01*
X237535562Y-41664033D01*
X237393517Y-41320257D01*
X237130727Y-41057008D01*
X236787199Y-40914362D01*
X236740323Y-40914321D01*
X234794100Y-38968098D01*
X234794100Y-34108863D01*
X234826292Y-34076727D01*
X234968938Y-33733199D01*
X234969262Y-33361233D01*
X234827217Y-33017457D01*
X234564427Y-32754208D01*
X234220899Y-32611562D01*
X233848933Y-32611238D01*
X233505157Y-32753283D01*
X233471982Y-32786400D01*
X224647302Y-32786400D01*
X209518622Y-17657720D01*
X209518662Y-17612233D01*
X209376617Y-17268457D01*
X209113827Y-17005208D01*
X208770299Y-16862562D01*
X208398333Y-16862238D01*
X208054557Y-17004283D01*
X207869810Y-17188708D01*
X207016502Y-16335400D01*
X222737798Y-16335400D01*
X243168578Y-36766180D01*
X243168538Y-36811667D01*
X243310583Y-37155443D01*
X243343700Y-37188618D01*
X243343700Y-46321237D01*
X243311508Y-46353373D01*
X243168862Y-46696901D01*
X243168538Y-47068867D01*
X243310583Y-47412643D01*
X243343700Y-47445818D01*
X243343700Y-54166537D01*
X243311508Y-54198673D01*
X243168862Y-54542201D01*
X243168821Y-54589077D01*
X242506199Y-55251699D01*
X242341452Y-55498261D01*
X242283600Y-55789100D01*
X242283600Y-62937537D01*
X242251408Y-62969673D01*
X242108762Y-63313201D01*
X242108438Y-63685167D01*
X242250483Y-64028943D01*
X242513273Y-64292192D01*
X242856801Y-64434838D01*
X243228767Y-64435162D01*
X243572543Y-64293117D01*
X243835792Y-64030327D01*
X243978438Y-63686799D01*
X243978762Y-63314833D01*
X243836717Y-62971057D01*
X243803600Y-62937882D01*
X243803600Y-56103902D01*
X244243380Y-55664122D01*
X244288867Y-55664162D01*
X244632643Y-55522117D01*
X244895892Y-55259327D01*
X245038538Y-54915799D01*
X245038862Y-54543833D01*
X244896817Y-54200057D01*
X244863700Y-54166882D01*
X244863700Y-47446163D01*
X244895892Y-47414027D01*
X245038538Y-47070499D01*
X245038862Y-46698533D01*
X244896817Y-46354757D01*
X244863700Y-46321582D01*
X244863700Y-37188963D01*
X244895892Y-37156827D01*
X245038538Y-36813299D01*
X245038862Y-36441333D01*
X244896817Y-36097557D01*
X244634027Y-35834308D01*
X244290499Y-35691662D01*
X244243623Y-35691621D01*
X224502002Y-15950000D01*
X277420000Y-15950000D01*
X277420000Y-196140000D01*
X15950000Y-196140000D01*
X15950000Y-15950000D01*
X56462998Y-15950000D01*
X23503699Y-48909299D01*
X23503699Y-48909299D01*
G37*
X23503699Y-48909299D02*
X23338952Y-49155861D01*
X23281100Y-49446700D01*
X23281100Y-58921400D01*
X23338952Y-59212239D01*
X23503699Y-59458801D01*
X25382299Y-61337401D01*
X25628861Y-61502148D01*
X25647733Y-61505902D01*
X25589233Y-61800000D01*
X25669921Y-62205644D01*
X25732968Y-62300000D01*
X25669921Y-62394356D01*
X25589233Y-62800000D01*
X25669921Y-63205644D01*
X25732968Y-63300000D01*
X25669921Y-63394356D01*
X25589233Y-63800000D01*
X25669921Y-64205644D01*
X25732968Y-64300000D01*
X25669921Y-64394356D01*
X25589233Y-64800000D01*
X25647733Y-65094098D01*
X25628861Y-65097852D01*
X25382299Y-65262599D01*
X21277999Y-69366899D01*
X21113252Y-69613461D01*
X21055400Y-69904300D01*
X21055400Y-86282800D01*
X21113252Y-86573639D01*
X21277999Y-86820201D01*
X24529978Y-90072180D01*
X24529938Y-90117667D01*
X24671983Y-90461443D01*
X24934773Y-90724692D01*
X24960163Y-90735235D01*
X23539899Y-92155499D01*
X23375152Y-92402061D01*
X23317300Y-92692900D01*
X23317300Y-148853100D01*
X23375152Y-149143939D01*
X23539899Y-149390501D01*
X26378978Y-152229580D01*
X26378938Y-152275067D01*
X26520983Y-152618843D01*
X26783773Y-152882092D01*
X27127301Y-153024738D01*
X27179400Y-153024783D01*
X27179400Y-173068694D01*
X27125457Y-173090983D01*
X26862208Y-173353773D01*
X26719562Y-173697301D01*
X26719238Y-174069267D01*
X26861283Y-174413043D01*
X27124073Y-174676292D01*
X27467601Y-174818938D01*
X27839567Y-174819262D01*
X28183343Y-174677217D01*
X28446592Y-174414427D01*
X28589238Y-174070899D01*
X28589328Y-173968093D01*
X28641548Y-173889939D01*
X28699400Y-173599100D01*
X28699400Y-136294502D01*
X36946100Y-144541202D01*
X36946100Y-163948000D01*
X37003952Y-164238839D01*
X37168699Y-164485401D01*
X40670578Y-167987280D01*
X40670538Y-168032767D01*
X40812583Y-168376543D01*
X41075373Y-168639792D01*
X41418901Y-168782438D01*
X41790867Y-168782762D01*
X42134643Y-168640717D01*
X42397892Y-168377927D01*
X42540538Y-168034399D01*
X42540862Y-167662433D01*
X42398817Y-167318657D01*
X42136027Y-167055408D01*
X41792499Y-166912762D01*
X41745623Y-166912721D01*
X38466100Y-163633198D01*
X38466100Y-144781202D01*
X38873000Y-145188102D01*
X38873000Y-152669837D01*
X38840808Y-152701973D01*
X38698162Y-153045501D01*
X38697838Y-153417467D01*
X38839883Y-153761243D01*
X39102673Y-154024492D01*
X39446201Y-154167138D01*
X39818167Y-154167462D01*
X40161943Y-154025417D01*
X40425192Y-153762627D01*
X40567838Y-153419099D01*
X40568162Y-153047133D01*
X40426117Y-152703357D01*
X40393000Y-152670182D01*
X40393000Y-144873300D01*
X40335148Y-144582461D01*
X40170401Y-144335899D01*
X26219700Y-130385198D01*
X26219700Y-129263202D01*
X30350678Y-133394180D01*
X30350638Y-133439667D01*
X30492683Y-133783443D01*
X30755473Y-134046692D01*
X31099001Y-134189338D01*
X31470967Y-134189662D01*
X31814743Y-134047617D01*
X32077992Y-133784827D01*
X32220638Y-133441299D01*
X32220962Y-133069333D01*
X32078917Y-132725557D01*
X31816127Y-132462308D01*
X31472599Y-132319662D01*
X31425723Y-132319621D01*
X26679600Y-127573498D01*
X26679600Y-101500000D01*
X26797002Y-101500000D01*
X26797002Y-101333630D01*
X26960065Y-101459554D01*
X27170000Y-101351981D01*
X27379935Y-101459554D01*
X27542998Y-101333630D01*
X27542998Y-101500000D01*
X27660300Y-101500000D01*
X27660300Y-114230600D01*
X27718152Y-114521439D01*
X27882899Y-114768001D01*
X47649678Y-134534780D01*
X47649638Y-134580267D01*
X47791683Y-134924043D01*
X48054473Y-135187292D01*
X48398001Y-135329938D01*
X48769967Y-135330262D01*
X49113743Y-135188217D01*
X49118477Y-135183491D01*
X49256101Y-135240638D01*
X49345700Y-135240716D01*
X49345700Y-139693398D01*
X49283299Y-139755799D01*
X49118552Y-140002361D01*
X49060700Y-140293200D01*
X49060700Y-141414600D01*
X49118552Y-141705439D01*
X49283299Y-141952001D01*
X50305278Y-142973980D01*
X50305238Y-143019467D01*
X50447283Y-143363243D01*
X50710073Y-143626492D01*
X51053601Y-143769138D01*
X51105700Y-143769183D01*
X51105700Y-151125198D01*
X47125720Y-155105178D01*
X47080233Y-155105138D01*
X46736457Y-155247183D01*
X46473208Y-155509973D01*
X46330562Y-155853501D01*
X46330238Y-156225467D01*
X46472283Y-156569243D01*
X46517330Y-156614368D01*
X44164098Y-158967600D01*
X41975963Y-158967600D01*
X41943827Y-158935408D01*
X41600299Y-158792762D01*
X41228333Y-158792438D01*
X40884557Y-158934483D01*
X40621308Y-159197273D01*
X40478662Y-159540801D01*
X40478338Y-159912767D01*
X40620383Y-160256543D01*
X40883173Y-160519792D01*
X41226701Y-160662438D01*
X41598667Y-160662762D01*
X41942443Y-160520717D01*
X41975618Y-160487600D01*
X44478900Y-160487600D01*
X44769739Y-160429748D01*
X45016301Y-160265001D01*
X59937001Y-145344301D01*
X60101748Y-145097740D01*
X60159600Y-144806900D01*
X60159600Y-95553552D01*
X60213683Y-95684443D01*
X60246800Y-95717618D01*
X60246800Y-148922175D01*
X60135608Y-149033173D01*
X59992962Y-149376701D01*
X59992638Y-149748667D01*
X60134683Y-150092443D01*
X60397473Y-150355692D01*
X60741001Y-150498338D01*
X60880800Y-150498460D01*
X60880800Y-160176398D01*
X40728820Y-180328378D01*
X40567933Y-180328238D01*
X40224157Y-180470283D01*
X39960908Y-180733073D01*
X39818262Y-181076601D01*
X39817938Y-181448567D01*
X39959983Y-181792343D01*
X40222773Y-182055592D01*
X40566301Y-182198238D01*
X40938267Y-182198562D01*
X41282043Y-182056517D01*
X41545292Y-181793727D01*
X41639179Y-181567623D01*
X62178201Y-161028601D01*
X62195900Y-161002113D01*
X62195900Y-170116598D01*
X60847620Y-171464878D01*
X60802133Y-171464838D01*
X60458357Y-171606883D01*
X60195108Y-171869673D01*
X60052462Y-172213201D01*
X60052138Y-172585167D01*
X60194183Y-172928943D01*
X60456973Y-173192192D01*
X60800501Y-173334838D01*
X61172467Y-173335162D01*
X61516243Y-173193117D01*
X61779492Y-172930327D01*
X61922138Y-172586799D01*
X61922179Y-172539923D01*
X63493301Y-170968801D01*
X63658048Y-170722239D01*
X63715900Y-170431400D01*
X63715900Y-160245902D01*
X77493478Y-174023480D01*
X77493438Y-174068967D01*
X77635483Y-174412743D01*
X77898273Y-174675992D01*
X78241801Y-174818638D01*
X78613767Y-174818962D01*
X78957543Y-174676917D01*
X79220792Y-174414127D01*
X79363438Y-174070599D01*
X79363762Y-173698633D01*
X79221717Y-173354857D01*
X78958927Y-173091608D01*
X78615399Y-172948962D01*
X78568523Y-172948921D01*
X64400600Y-158780998D01*
X64400600Y-142070667D01*
X69356838Y-142070667D01*
X69498883Y-142414443D01*
X69761673Y-142677692D01*
X70105201Y-142820338D01*
X70477167Y-142820662D01*
X70820943Y-142678617D01*
X70854118Y-142645500D01*
X78649598Y-142645500D01*
X102569478Y-166565380D01*
X102569438Y-166610867D01*
X102711483Y-166954643D01*
X102974273Y-167217892D01*
X103317801Y-167360538D01*
X103689767Y-167360862D01*
X104033543Y-167218817D01*
X104296792Y-166956027D01*
X104439438Y-166612499D01*
X104439762Y-166240533D01*
X104297717Y-165896757D01*
X104034927Y-165633508D01*
X103691399Y-165490862D01*
X103644523Y-165490821D01*
X79501801Y-141348099D01*
X79255239Y-141183352D01*
X78964400Y-141125500D01*
X70854463Y-141125500D01*
X70822327Y-141093308D01*
X70478799Y-140950662D01*
X70106833Y-140950338D01*
X69763057Y-141092383D01*
X69499808Y-141355173D01*
X69357162Y-141698701D01*
X69356838Y-142070667D01*
X64400600Y-142070667D01*
X64400600Y-124429402D01*
X85316299Y-145345101D01*
X85562861Y-145509848D01*
X85853700Y-145567700D01*
X86051098Y-145567700D01*
X86731378Y-146247980D01*
X86731338Y-146293467D01*
X86873383Y-146637243D01*
X87136173Y-146900492D01*
X87479701Y-147043138D01*
X87531800Y-147043183D01*
X87531800Y-148214900D01*
X87589652Y-148505739D01*
X87754399Y-148752301D01*
X115426199Y-176424101D01*
X115594046Y-176536252D01*
X111074620Y-181055678D01*
X111029133Y-181055638D01*
X110685357Y-181197683D01*
X110422108Y-181460473D01*
X110279462Y-181804001D01*
X110279138Y-182175967D01*
X110421183Y-182519743D01*
X110683973Y-182782992D01*
X111027501Y-182925638D01*
X111399467Y-182925962D01*
X111743243Y-182783917D01*
X112006492Y-182521127D01*
X112149138Y-182177599D01*
X112149179Y-182130723D01*
X116969702Y-177310200D01*
X118646237Y-177310200D01*
X118678373Y-177342392D01*
X119021901Y-177485038D01*
X119393867Y-177485362D01*
X119737643Y-177343317D01*
X120000892Y-177080527D01*
X120143538Y-176736999D01*
X120143617Y-176646700D01*
X209129500Y-176646700D01*
X209420339Y-176588848D01*
X209666901Y-176424101D01*
X225311002Y-160780000D01*
X227411137Y-160780000D01*
X227443273Y-160812192D01*
X227786801Y-160954838D01*
X228158767Y-160955162D01*
X228502543Y-160813117D01*
X228765792Y-160550327D01*
X228908438Y-160206799D01*
X228908762Y-159834833D01*
X228766717Y-159491057D01*
X228503927Y-159227808D01*
X228160399Y-159085162D01*
X227788433Y-159084838D01*
X227444657Y-159226883D01*
X227411482Y-159260000D01*
X225756200Y-159260000D01*
X225756200Y-153293463D01*
X225788392Y-153261327D01*
X225931038Y-152917799D01*
X225931146Y-152793462D01*
X225940048Y-152780140D01*
X225962264Y-152668452D01*
X225997900Y-152489300D01*
X225997900Y-142894963D01*
X226030092Y-142862827D01*
X226172738Y-142519299D01*
X226173062Y-142147333D01*
X226031017Y-141803557D01*
X225768227Y-141540308D01*
X225424699Y-141397662D01*
X225052733Y-141397338D01*
X224708957Y-141539383D01*
X224445708Y-141802173D01*
X224303062Y-142145701D01*
X224302738Y-142517667D01*
X224444783Y-142861443D01*
X224477900Y-142894618D01*
X224477900Y-151933485D01*
X224467257Y-151937883D01*
X224204008Y-152200673D01*
X224061362Y-152544201D01*
X224061038Y-152916167D01*
X224203083Y-153259943D01*
X224236200Y-153293118D01*
X224236200Y-159705198D01*
X208814698Y-175126700D01*
X204555402Y-175126700D01*
X217350000Y-162332102D01*
X217400078Y-162382180D01*
X217400038Y-162427667D01*
X217542083Y-162771443D01*
X217804873Y-163034692D01*
X218148401Y-163177338D01*
X218520367Y-163177662D01*
X218864143Y-163035617D01*
X219127392Y-162772827D01*
X219270038Y-162429299D01*
X219270362Y-162057333D01*
X219128317Y-161713557D01*
X218865527Y-161450308D01*
X218521999Y-161307662D01*
X218475123Y-161307621D01*
X218110000Y-160942498D01*
X218110000Y-155389863D01*
X218142192Y-155357727D01*
X218284838Y-155014199D01*
X218284879Y-154967323D01*
X219578601Y-153673601D01*
X219743348Y-153427039D01*
X219801200Y-153136200D01*
X219801200Y-147445563D01*
X219833392Y-147413427D01*
X219976038Y-147069899D01*
X219976362Y-146697933D01*
X219834317Y-146354157D01*
X219571527Y-146090908D01*
X219227999Y-145948262D01*
X218856033Y-145947938D01*
X218512257Y-146089983D01*
X218249008Y-146352773D01*
X218106362Y-146696301D01*
X218106038Y-147068267D01*
X218248083Y-147412043D01*
X218281200Y-147445218D01*
X218281200Y-152821398D01*
X217210320Y-153892278D01*
X217164833Y-153892238D01*
X216821057Y-154034283D01*
X216557808Y-154297073D01*
X216415162Y-154640601D01*
X216414838Y-155012567D01*
X216556883Y-155356343D01*
X216590000Y-155389518D01*
X216590000Y-160942498D01*
X202913998Y-174618500D01*
X191759702Y-174618500D01*
X201090601Y-165287601D01*
X201255348Y-165041039D01*
X201313200Y-164750200D01*
X201313200Y-163487863D01*
X201345392Y-163455727D01*
X201488038Y-163112199D01*
X201488362Y-162740233D01*
X201346317Y-162396457D01*
X201083527Y-162133208D01*
X200739999Y-161990562D01*
X200693123Y-161990521D01*
X199342700Y-160640098D01*
X199342700Y-158113863D01*
X199374892Y-158081727D01*
X199517538Y-157738199D01*
X199517579Y-157691323D01*
X201061701Y-156147201D01*
X201226448Y-155900639D01*
X201284300Y-155609800D01*
X201284300Y-147956563D01*
X201316492Y-147924427D01*
X201459138Y-147580899D01*
X201459462Y-147208933D01*
X201317417Y-146865157D01*
X201054627Y-146601908D01*
X200711099Y-146459262D01*
X200339133Y-146458938D01*
X199995357Y-146600983D01*
X199732108Y-146863773D01*
X199589462Y-147207301D01*
X199589138Y-147579267D01*
X199731183Y-147923043D01*
X199764300Y-147956218D01*
X199764300Y-155294998D01*
X198443020Y-156616278D01*
X198397533Y-156616238D01*
X198053757Y-156758283D01*
X197790508Y-157021073D01*
X197647862Y-157364601D01*
X197647538Y-157736567D01*
X197789583Y-158080343D01*
X197822700Y-158113518D01*
X197822700Y-160954900D01*
X197880552Y-161245739D01*
X198045299Y-161492301D01*
X199618078Y-163065080D01*
X199618038Y-163110567D01*
X199760083Y-163454343D01*
X199793200Y-163487518D01*
X199793200Y-164435398D01*
X190698803Y-173529795D01*
X190635527Y-173466408D01*
X190470300Y-173397799D01*
X190470300Y-157599663D01*
X190502492Y-157567527D01*
X190645138Y-157223999D01*
X190645462Y-156852033D01*
X190503417Y-156508257D01*
X190470300Y-156475082D01*
X190470300Y-149379802D01*
X191784780Y-148065322D01*
X191830267Y-148065362D01*
X192174043Y-147923317D01*
X192437292Y-147660527D01*
X192579938Y-147316999D01*
X192580262Y-146945033D01*
X192438217Y-146601257D01*
X192175427Y-146338008D01*
X191831899Y-146195362D01*
X191459933Y-146195038D01*
X191116157Y-146337083D01*
X190852908Y-146599873D01*
X190710262Y-146943401D01*
X190710221Y-146990277D01*
X189172899Y-148527599D01*
X189008152Y-148774161D01*
X188950300Y-149065000D01*
X188950300Y-156474737D01*
X188918108Y-156506873D01*
X188775462Y-156850401D01*
X188775138Y-157222367D01*
X188917183Y-157566143D01*
X188950300Y-157599318D01*
X188950300Y-171681100D01*
X179457502Y-171681100D01*
X180836900Y-170301702D01*
X180854878Y-170319680D01*
X180854838Y-170365167D01*
X180996883Y-170708943D01*
X181259673Y-170972192D01*
X181603201Y-171114838D01*
X181975167Y-171115162D01*
X182318943Y-170973117D01*
X182582192Y-170710327D01*
X182724838Y-170366799D01*
X182725162Y-169994833D01*
X182583117Y-169651057D01*
X182320327Y-169387808D01*
X181976799Y-169245162D01*
X181929923Y-169245121D01*
X181596900Y-168912098D01*
X181596900Y-163122463D01*
X181629092Y-163090327D01*
X181771738Y-162746799D01*
X181772062Y-162374833D01*
X181630017Y-162031057D01*
X181367227Y-161767808D01*
X181247100Y-161717927D01*
X181247100Y-153275863D01*
X181279292Y-153243727D01*
X181421938Y-152900199D01*
X181422110Y-152702664D01*
X181462900Y-152497600D01*
X181462900Y-142856863D01*
X181495092Y-142824727D01*
X181637738Y-142481199D01*
X181638062Y-142109233D01*
X181496017Y-141765457D01*
X181233227Y-141502208D01*
X180889699Y-141359562D01*
X180517733Y-141359238D01*
X180173957Y-141501283D01*
X179910708Y-141764073D01*
X179768062Y-142107601D01*
X179767738Y-142479567D01*
X179909783Y-142823343D01*
X179942900Y-142856518D01*
X179942900Y-151935513D01*
X179694908Y-152183073D01*
X179552262Y-152526601D01*
X179551938Y-152898567D01*
X179693983Y-153242343D01*
X179727100Y-153275518D01*
X179727100Y-162210200D01*
X179784952Y-162501039D01*
X179901798Y-162675912D01*
X179901738Y-162745167D01*
X180043783Y-163088943D01*
X180076900Y-163122118D01*
X180076900Y-168912098D01*
X177758198Y-171230800D01*
X173898014Y-171230800D01*
X173898062Y-171175633D01*
X173756017Y-170831857D01*
X173493227Y-170568608D01*
X173374400Y-170519266D01*
X173374400Y-159042702D01*
X174001980Y-158415122D01*
X174047467Y-158415162D01*
X174391243Y-158273117D01*
X174654492Y-158010327D01*
X174797138Y-157666799D01*
X174797179Y-157619923D01*
X175626401Y-156790701D01*
X175791148Y-156544139D01*
X175849000Y-156253300D01*
X175849000Y-147888363D01*
X175881192Y-147856227D01*
X176023838Y-147512699D01*
X176024162Y-147140733D01*
X175882117Y-146796957D01*
X175849000Y-146763782D01*
X175849000Y-134838600D01*
X175831583Y-134751038D01*
X175791148Y-134547760D01*
X175626401Y-134301199D01*
X174555222Y-133230020D01*
X174555262Y-133184533D01*
X174413217Y-132840757D01*
X174150427Y-132577508D01*
X173806899Y-132434862D01*
X173434933Y-132434538D01*
X173091157Y-132576583D01*
X172827908Y-132839373D01*
X172685262Y-133182901D01*
X172684938Y-133554867D01*
X172826983Y-133898643D01*
X173089773Y-134161892D01*
X173433301Y-134304538D01*
X173480177Y-134304579D01*
X174329000Y-135153402D01*
X174329000Y-146763437D01*
X174296808Y-146795573D01*
X174154162Y-147139101D01*
X174153838Y-147511067D01*
X174295883Y-147854843D01*
X174329000Y-147888018D01*
X174329000Y-155938498D01*
X173722620Y-156544878D01*
X173677133Y-156544838D01*
X173333357Y-156686883D01*
X173070108Y-156949673D01*
X172927462Y-157293201D01*
X172927421Y-157340077D01*
X172076999Y-158190499D01*
X171912252Y-158437061D01*
X171854400Y-158727900D01*
X171854400Y-163457178D01*
X171585599Y-163345562D01*
X171213633Y-163345238D01*
X170869857Y-163487283D01*
X170606608Y-163750073D01*
X170463962Y-164093601D01*
X170463638Y-164465567D01*
X170605683Y-164809343D01*
X170868473Y-165072592D01*
X171212001Y-165215238D01*
X171583967Y-165215562D01*
X171854400Y-165103822D01*
X171854400Y-171012300D01*
X171897863Y-171230800D01*
X163958667Y-171230800D01*
X164131814Y-171115107D01*
X164195167Y-171115162D01*
X164538943Y-170973117D01*
X164802192Y-170710327D01*
X164944838Y-170366799D01*
X164945162Y-169994833D01*
X164803117Y-169651057D01*
X164770000Y-169617882D01*
X164770000Y-160582463D01*
X164802192Y-160550327D01*
X164944838Y-160206799D01*
X164945162Y-159834833D01*
X164803117Y-159491057D01*
X164770000Y-159457882D01*
X164770000Y-153685402D01*
X165120280Y-153335122D01*
X165165767Y-153335162D01*
X165509543Y-153193117D01*
X165772792Y-152930327D01*
X165915438Y-152586799D01*
X165915762Y-152214833D01*
X165773717Y-151871057D01*
X165740600Y-151837882D01*
X165740600Y-142784295D01*
X165754592Y-142770327D01*
X165897238Y-142426799D01*
X165897562Y-142054833D01*
X165755517Y-141711057D01*
X165492727Y-141447808D01*
X165149199Y-141305162D01*
X164777233Y-141304838D01*
X164433457Y-141446883D01*
X164170208Y-141709673D01*
X164027562Y-142053201D01*
X164027238Y-142425167D01*
X164169283Y-142768943D01*
X164220600Y-142820350D01*
X164220600Y-151837537D01*
X164188408Y-151869673D01*
X164045762Y-152213201D01*
X164045721Y-152260077D01*
X163472599Y-152833199D01*
X163307852Y-153079761D01*
X163250000Y-153370600D01*
X163250000Y-159457537D01*
X163217808Y-159489673D01*
X163075162Y-159833201D01*
X163074838Y-160205167D01*
X163216883Y-160548943D01*
X163250000Y-160582118D01*
X163250000Y-169617537D01*
X163217808Y-169649673D01*
X163162985Y-169781700D01*
X143441102Y-169781700D01*
X145331980Y-167890822D01*
X145377467Y-167890862D01*
X145721243Y-167748817D01*
X145984492Y-167486027D01*
X146127138Y-167142499D01*
X146127179Y-167095623D01*
X147726501Y-165496301D01*
X147891248Y-165249739D01*
X147949100Y-164958900D01*
X147949100Y-162959663D01*
X147981292Y-162927527D01*
X148123938Y-162583999D01*
X148124262Y-162212033D01*
X147982217Y-161868257D01*
X147949100Y-161835082D01*
X147949100Y-152962463D01*
X147981292Y-152930327D01*
X148123938Y-152586799D01*
X148124262Y-152214833D01*
X147982217Y-151871057D01*
X147719427Y-151607808D01*
X147375899Y-151465162D01*
X147329023Y-151465121D01*
X145948500Y-150084598D01*
X145948500Y-147705063D01*
X145980692Y-147672927D01*
X146123338Y-147329399D01*
X146123662Y-146957433D01*
X145981617Y-146613657D01*
X145718827Y-146350408D01*
X145375299Y-146207762D01*
X145003333Y-146207438D01*
X144659557Y-146349483D01*
X144396308Y-146612273D01*
X144253662Y-146955801D01*
X144253338Y-147327767D01*
X144395383Y-147671543D01*
X144428500Y-147704718D01*
X144428500Y-150399400D01*
X144486352Y-150690239D01*
X144651099Y-150936801D01*
X146253978Y-152539680D01*
X146253938Y-152585167D01*
X146395983Y-152928943D01*
X146429100Y-152962118D01*
X146429100Y-161834737D01*
X146396908Y-161866873D01*
X146254262Y-162210401D01*
X146253938Y-162582367D01*
X146395983Y-162926143D01*
X146429100Y-162959318D01*
X146429100Y-164644098D01*
X145052620Y-166020578D01*
X145007133Y-166020538D01*
X144663357Y-166162583D01*
X144400108Y-166425373D01*
X144257462Y-166768901D01*
X144257421Y-166815777D01*
X141830298Y-169242900D01*
X133729318Y-169242900D01*
X133729362Y-169192333D01*
X133587317Y-168848557D01*
X133324527Y-168585308D01*
X132980999Y-168442662D01*
X132934123Y-168442621D01*
X132791669Y-168300167D01*
X135432038Y-168300167D01*
X135574083Y-168643943D01*
X135836873Y-168907192D01*
X136180401Y-169049838D01*
X136552367Y-169050162D01*
X136896143Y-168908117D01*
X137159392Y-168645327D01*
X137302038Y-168301799D01*
X137302362Y-167929833D01*
X137160317Y-167586057D01*
X137127200Y-167552882D01*
X137127200Y-163141829D01*
X137178792Y-163090327D01*
X137321438Y-162746799D01*
X137321762Y-162374833D01*
X137179717Y-162031057D01*
X136916927Y-161767808D01*
X136573399Y-161625162D01*
X136201433Y-161624838D01*
X135857657Y-161766883D01*
X135594408Y-162029673D01*
X135451762Y-162373201D01*
X135451438Y-162745167D01*
X135593483Y-163088943D01*
X135607200Y-163102684D01*
X135607200Y-167552537D01*
X135575008Y-167584673D01*
X135432362Y-167928201D01*
X135432038Y-168300167D01*
X132791669Y-168300167D01*
X115277511Y-150786009D01*
X115370238Y-150562699D01*
X115370562Y-150190733D01*
X115228517Y-149846957D01*
X114965727Y-149583708D01*
X114622199Y-149441062D01*
X114250233Y-149440738D01*
X113906457Y-149582783D01*
X113643208Y-149845573D01*
X113587275Y-149980273D01*
X106032169Y-142425167D01*
X155285638Y-142425167D01*
X155427683Y-142768943D01*
X155690473Y-143032192D01*
X155692600Y-143033075D01*
X155692600Y-152133037D01*
X155660408Y-152165173D01*
X155517762Y-152508701D01*
X155517438Y-152880667D01*
X155659483Y-153224443D01*
X155692600Y-153257618D01*
X155692600Y-159131237D01*
X155660408Y-159163373D01*
X155517762Y-159506901D01*
X155517438Y-159878867D01*
X155659483Y-160222643D01*
X155692600Y-160255818D01*
X155692600Y-166964235D01*
X155546908Y-167109673D01*
X155404262Y-167453201D01*
X155403938Y-167825167D01*
X155545983Y-168168943D01*
X155808773Y-168432192D01*
X156152301Y-168574838D01*
X156524267Y-168575162D01*
X156868043Y-168433117D01*
X157131292Y-168170327D01*
X157273938Y-167826799D01*
X157274262Y-167454833D01*
X157212600Y-167305599D01*
X157212600Y-160256163D01*
X157244792Y-160224027D01*
X157387438Y-159880499D01*
X157387762Y-159508533D01*
X157245717Y-159164757D01*
X157212600Y-159131582D01*
X157212600Y-153257963D01*
X157244792Y-153225827D01*
X157387438Y-152882299D01*
X157387762Y-152510333D01*
X157245717Y-152166557D01*
X157212600Y-152133382D01*
X157212600Y-142471800D01*
X157155847Y-142186488D01*
X157155962Y-142054833D01*
X157013917Y-141711057D01*
X156751127Y-141447808D01*
X156407599Y-141305162D01*
X156035633Y-141304838D01*
X155691857Y-141446883D01*
X155428608Y-141709673D01*
X155285962Y-142053201D01*
X155285638Y-142425167D01*
X106032169Y-142425167D01*
X103692402Y-140085400D01*
X153047600Y-140085400D01*
X153338439Y-140027548D01*
X153585001Y-139862801D01*
X166534135Y-126913667D01*
X194946938Y-126913667D01*
X195088983Y-127257443D01*
X195351773Y-127520692D01*
X195695301Y-127663338D01*
X195742177Y-127663379D01*
X207040578Y-138961780D01*
X207040538Y-139007267D01*
X207182583Y-139351043D01*
X207445373Y-139614292D01*
X207788901Y-139756938D01*
X207835777Y-139756979D01*
X209442800Y-141364002D01*
X209442800Y-150189737D01*
X209410608Y-150221873D01*
X209267962Y-150565401D01*
X209267638Y-150937367D01*
X209409683Y-151281143D01*
X209442800Y-151314318D01*
X209442800Y-156754037D01*
X209410608Y-156786173D01*
X209267962Y-157129701D01*
X209267638Y-157501667D01*
X209409683Y-157845443D01*
X209442800Y-157878618D01*
X209442800Y-163595098D01*
X207105720Y-165932178D01*
X207060233Y-165932138D01*
X206716457Y-166074183D01*
X206453208Y-166336973D01*
X206310562Y-166680501D01*
X206310238Y-167052467D01*
X206452283Y-167396243D01*
X206715073Y-167659492D01*
X207058601Y-167802138D01*
X207430567Y-167802462D01*
X207774343Y-167660417D01*
X208037592Y-167397627D01*
X208180238Y-167054099D01*
X208180279Y-167007223D01*
X210740201Y-164447301D01*
X210904948Y-164200740D01*
X210962800Y-163909900D01*
X210962800Y-157878963D01*
X210994992Y-157846827D01*
X211137638Y-157503299D01*
X211137962Y-157131333D01*
X210995917Y-156787557D01*
X210962800Y-156754382D01*
X210962800Y-151314663D01*
X210994992Y-151282527D01*
X211137638Y-150938999D01*
X211137962Y-150567033D01*
X210995917Y-150223257D01*
X210962800Y-150190082D01*
X210962800Y-141049200D01*
X210904948Y-140758361D01*
X210740201Y-140511799D01*
X208910822Y-138682420D01*
X208910862Y-138636933D01*
X208768817Y-138293157D01*
X208506027Y-138029908D01*
X208162499Y-137887262D01*
X208115623Y-137887221D01*
X196817222Y-126588820D01*
X196817262Y-126543333D01*
X196675217Y-126199557D01*
X196412427Y-125936308D01*
X196068899Y-125793662D01*
X195696933Y-125793338D01*
X195353157Y-125935383D01*
X195089908Y-126198173D01*
X194947262Y-126541701D01*
X194946938Y-126913667D01*
X166534135Y-126913667D01*
X181924484Y-111523318D01*
X181975167Y-111523362D01*
X182318943Y-111381317D01*
X182582192Y-111118527D01*
X182724838Y-110774999D01*
X182725162Y-110403033D01*
X182583117Y-110059257D01*
X182547400Y-110023478D01*
X182547400Y-103349663D01*
X182579592Y-103317527D01*
X182722238Y-102973999D01*
X182722562Y-102602033D01*
X182580517Y-102258257D01*
X182317727Y-101995008D01*
X181974199Y-101852362D01*
X181602233Y-101852038D01*
X181258457Y-101994083D01*
X180995208Y-102256873D01*
X180852562Y-102600401D01*
X180852238Y-102972367D01*
X180994283Y-103316143D01*
X181027400Y-103349318D01*
X181027400Y-110028333D01*
X180997808Y-110057873D01*
X180855162Y-110401401D01*
X180855126Y-110443072D01*
X152732798Y-138565400D01*
X112821302Y-138565400D01*
X121424801Y-129961901D01*
X121589548Y-129715339D01*
X121647400Y-129424500D01*
X121647400Y-125801363D01*
X121679592Y-125769227D01*
X121822238Y-125425699D01*
X121822562Y-125053733D01*
X121680517Y-124709957D01*
X121417727Y-124446708D01*
X121074199Y-124304062D01*
X121027323Y-124304021D01*
X113541400Y-116818098D01*
X113541400Y-97780967D01*
X114569838Y-97780967D01*
X114711883Y-98124743D01*
X114974673Y-98387992D01*
X115318201Y-98530638D01*
X115690167Y-98530962D01*
X116033943Y-98388917D01*
X116067118Y-98355800D01*
X116582600Y-98355800D01*
X116582600Y-106040700D01*
X116640452Y-106331539D01*
X116805199Y-106578101D01*
X119586778Y-109359680D01*
X119586738Y-109405167D01*
X119728783Y-109748943D01*
X119991573Y-110012192D01*
X120335101Y-110154838D01*
X120707067Y-110155162D01*
X121050843Y-110013117D01*
X121314092Y-109750327D01*
X121456738Y-109406799D01*
X121457062Y-109034833D01*
X121315017Y-108691057D01*
X121052227Y-108427808D01*
X120708699Y-108285162D01*
X120661823Y-108285121D01*
X118102600Y-105725898D01*
X118102600Y-97464902D01*
X120671080Y-94896422D01*
X120716567Y-94896462D01*
X121060343Y-94754417D01*
X121323592Y-94491627D01*
X121466238Y-94148099D01*
X121466562Y-93776133D01*
X121324517Y-93432357D01*
X121061727Y-93169108D01*
X120718199Y-93026462D01*
X120346233Y-93026138D01*
X120002457Y-93168183D01*
X119739208Y-93430973D01*
X119596562Y-93774501D01*
X119596521Y-93821377D01*
X116805199Y-96612699D01*
X116656128Y-96835800D01*
X116067463Y-96835800D01*
X116035327Y-96803608D01*
X115691799Y-96660962D01*
X115319833Y-96660638D01*
X114976057Y-96802683D01*
X114712808Y-97065473D01*
X114570162Y-97409001D01*
X114569838Y-97780967D01*
X113541400Y-97780967D01*
X113541400Y-70651302D01*
X115935700Y-73045602D01*
X115935700Y-77077100D01*
X115993552Y-77367939D01*
X116158299Y-77614501D01*
X123361899Y-84818101D01*
X123608461Y-84982848D01*
X123899300Y-85040700D01*
X129483500Y-85040700D01*
X129483500Y-93268937D01*
X129451308Y-93301073D01*
X129308662Y-93644601D01*
X129308338Y-94016567D01*
X129450383Y-94360343D01*
X129483500Y-94393518D01*
X129483500Y-102888998D01*
X129262220Y-103110278D01*
X129216733Y-103110238D01*
X128872957Y-103252283D01*
X128609708Y-103515073D01*
X128467062Y-103858601D01*
X128466738Y-104230567D01*
X128608783Y-104574343D01*
X128641900Y-104607518D01*
X128641900Y-108844237D01*
X128609708Y-108876373D01*
X128467062Y-109219901D01*
X128466738Y-109591867D01*
X128608783Y-109935643D01*
X128871573Y-110198892D01*
X129215101Y-110341538D01*
X129587067Y-110341862D01*
X129930843Y-110199817D01*
X130194092Y-109937027D01*
X130336738Y-109593499D01*
X130337062Y-109221533D01*
X130195017Y-108877757D01*
X130161900Y-108844582D01*
X130161900Y-107693713D01*
X130182652Y-107798039D01*
X130347399Y-108044601D01*
X141484399Y-119181601D01*
X141730960Y-119346348D01*
X141779214Y-119355946D01*
X142021800Y-119404200D01*
X154360000Y-119404200D01*
X154360000Y-121244937D01*
X154327808Y-121277073D01*
X154185162Y-121620601D01*
X154184838Y-121992567D01*
X154326883Y-122336343D01*
X154589673Y-122599592D01*
X154933201Y-122742238D01*
X155305167Y-122742562D01*
X155648943Y-122600517D01*
X155912192Y-122337727D01*
X156054838Y-121994199D01*
X156055162Y-121622233D01*
X155913117Y-121278457D01*
X155880000Y-121245282D01*
X155880000Y-112518363D01*
X155912192Y-112486227D01*
X156054838Y-112142699D01*
X156055162Y-111770733D01*
X155913117Y-111426957D01*
X155650327Y-111163708D01*
X155306799Y-111021062D01*
X155259923Y-111021021D01*
X154916200Y-110677298D01*
X154916200Y-105004703D01*
X155186200Y-105274703D01*
X155186200Y-105754200D01*
X155244052Y-106045039D01*
X155408799Y-106291601D01*
X164132699Y-115015501D01*
X164379261Y-115180248D01*
X164670100Y-115238100D01*
X169026800Y-115238100D01*
X169317639Y-115180248D01*
X169564201Y-115015501D01*
X173039680Y-111540022D01*
X173085167Y-111540062D01*
X173428943Y-111398017D01*
X173692192Y-111135227D01*
X173834838Y-110791699D01*
X173835162Y-110419733D01*
X173693117Y-110075957D01*
X173660000Y-110042782D01*
X173660000Y-97082463D01*
X173692192Y-97050327D01*
X173834838Y-96706799D01*
X173835162Y-96334833D01*
X173693117Y-95991057D01*
X173660000Y-95957882D01*
X173660000Y-90171302D01*
X173996180Y-89835122D01*
X174041667Y-89835162D01*
X174385443Y-89693117D01*
X174648692Y-89430327D01*
X174791338Y-89086799D01*
X174791662Y-88714833D01*
X174649617Y-88371057D01*
X174386827Y-88107808D01*
X174043299Y-87965162D01*
X173671333Y-87964838D01*
X173327557Y-88106883D01*
X173064308Y-88369673D01*
X172921662Y-88713201D01*
X172921621Y-88760077D01*
X172362599Y-89319099D01*
X172197852Y-89565661D01*
X172140000Y-89856500D01*
X172140000Y-95957537D01*
X172107808Y-95989673D01*
X171965162Y-96333201D01*
X171964838Y-96705167D01*
X172106883Y-97048943D01*
X172140000Y-97082118D01*
X172140000Y-110042437D01*
X172107808Y-110074573D01*
X171965162Y-110418101D01*
X171965121Y-110464977D01*
X168711998Y-113718100D01*
X165897497Y-113718100D01*
X165897562Y-113643533D01*
X165755517Y-113299757D01*
X165722400Y-113266582D01*
X165722400Y-109693063D01*
X165754592Y-109660927D01*
X165897238Y-109317399D01*
X165897279Y-109270523D01*
X166657301Y-108510501D01*
X166822048Y-108263940D01*
X166879900Y-107973100D01*
X166879900Y-84843163D01*
X166912092Y-84811027D01*
X167054738Y-84467499D01*
X167055062Y-84095533D01*
X166913017Y-83751757D01*
X166879900Y-83718582D01*
X166879900Y-79322663D01*
X166912092Y-79290527D01*
X167054738Y-78946999D01*
X167055062Y-78575033D01*
X166913017Y-78231257D01*
X166650227Y-77968008D01*
X166306699Y-77825362D01*
X166259824Y-77825321D01*
X164010000Y-75575498D01*
X164010000Y-74524067D01*
X168174438Y-74524067D01*
X168316483Y-74867843D01*
X168579273Y-75131092D01*
X168922801Y-75273738D01*
X168969677Y-75273779D01*
X185673400Y-91977502D01*
X185673400Y-107921700D01*
X185731252Y-108212539D01*
X185895999Y-108459101D01*
X216804499Y-139367601D01*
X217051061Y-139532348D01*
X217341900Y-139590200D01*
X228143600Y-139590200D01*
X228143600Y-156732737D01*
X228111408Y-156764873D01*
X227968762Y-157108401D01*
X227968438Y-157480367D01*
X228110483Y-157824143D01*
X228373273Y-158087392D01*
X228716801Y-158230038D01*
X229088767Y-158230362D01*
X229432543Y-158088317D01*
X229695792Y-157825527D01*
X229838438Y-157481999D01*
X229838762Y-157110033D01*
X229696717Y-156766257D01*
X229663600Y-156733082D01*
X229663600Y-139392663D01*
X229695792Y-139360527D01*
X229838438Y-139016999D01*
X229838762Y-138645033D01*
X229696717Y-138301257D01*
X229433927Y-138038008D01*
X229090399Y-137895362D01*
X228718433Y-137895038D01*
X228374657Y-138037083D01*
X228341482Y-138070200D01*
X217656702Y-138070200D01*
X206403879Y-126817377D01*
X206439592Y-126781727D01*
X206582238Y-126438199D01*
X206582562Y-126066233D01*
X206548736Y-125984366D01*
X214094780Y-118438322D01*
X214140267Y-118438362D01*
X214484043Y-118296317D01*
X214747292Y-118033527D01*
X214889938Y-117689999D01*
X214890262Y-117318033D01*
X214748217Y-116974257D01*
X214485427Y-116711008D01*
X214141899Y-116568362D01*
X214095023Y-116568321D01*
X213375169Y-115848467D01*
X213617238Y-115848467D01*
X213759283Y-116192243D01*
X214022073Y-116455492D01*
X214365601Y-116598138D01*
X214412477Y-116598179D01*
X214731199Y-116916901D01*
X214977761Y-117081648D01*
X215268600Y-117139500D01*
X221856400Y-117139500D01*
X221856400Y-121099700D01*
X221914252Y-121390539D01*
X222078999Y-121637101D01*
X229884000Y-129442102D01*
X229884000Y-166829400D01*
X229941852Y-167120239D01*
X230000623Y-167208197D01*
X230000538Y-167306167D01*
X230142583Y-167649943D01*
X230405373Y-167913192D01*
X230748901Y-168055838D01*
X230795777Y-168055879D01*
X232196899Y-169457001D01*
X232443461Y-169621748D01*
X232734300Y-169679600D01*
X248656337Y-169679600D01*
X248688473Y-169711792D01*
X249032001Y-169854438D01*
X249403967Y-169854762D01*
X249747743Y-169712717D01*
X249780918Y-169679600D01*
X256775800Y-169679600D01*
X257066639Y-169621748D01*
X257313201Y-169457001D01*
X258017580Y-168752622D01*
X258063067Y-168752662D01*
X258406843Y-168610617D01*
X258670092Y-168347827D01*
X258812738Y-168004299D01*
X258813062Y-167632333D01*
X258671017Y-167288557D01*
X258408227Y-167025308D01*
X258064699Y-166882662D01*
X257692733Y-166882338D01*
X257348957Y-167024383D01*
X257085708Y-167287173D01*
X256943062Y-167630701D01*
X256943021Y-167677577D01*
X256460998Y-168159600D01*
X249781263Y-168159600D01*
X249749127Y-168127408D01*
X249405599Y-167984762D01*
X249033633Y-167984438D01*
X248689857Y-168126483D01*
X248656682Y-168159600D01*
X233049102Y-168159600D01*
X231870822Y-166981320D01*
X231870862Y-166935833D01*
X231728817Y-166592057D01*
X231466027Y-166328808D01*
X231404000Y-166303052D01*
X231404000Y-163833813D01*
X231459767Y-163833862D01*
X231803543Y-163691817D01*
X232066792Y-163429027D01*
X232112064Y-163320000D01*
X248473537Y-163320000D01*
X248505673Y-163352192D01*
X248849201Y-163494838D01*
X249221167Y-163495162D01*
X249564943Y-163353117D01*
X249598118Y-163320000D01*
X257201436Y-163320000D01*
X257347573Y-163466392D01*
X257691101Y-163609038D01*
X258063067Y-163609362D01*
X258406843Y-163467317D01*
X258670092Y-163204527D01*
X258812738Y-162860999D01*
X258812878Y-162699824D01*
X259089801Y-162422901D01*
X259254548Y-162176339D01*
X259312400Y-161885500D01*
X259312400Y-118104700D01*
X259254548Y-117813861D01*
X259089801Y-117567299D01*
X256494002Y-114971500D01*
X262607601Y-108857901D01*
X262772348Y-108611340D01*
X262781946Y-108563086D01*
X262830200Y-108320500D01*
X262830200Y-56459163D01*
X262862392Y-56427027D01*
X263005038Y-56083499D01*
X263005362Y-55711533D01*
X262863317Y-55367757D01*
X262800436Y-55304766D01*
X262806867Y-55298335D01*
X262952767Y-55298462D01*
X263296543Y-55156417D01*
X263559792Y-54893627D01*
X263702438Y-54550099D01*
X263702762Y-54178133D01*
X263560717Y-53834357D01*
X263297927Y-53571108D01*
X262954399Y-53428462D01*
X262582433Y-53428138D01*
X262238657Y-53570183D01*
X261975408Y-53832973D01*
X261870869Y-54084729D01*
X261504100Y-54451498D01*
X261504100Y-34251663D01*
X261536292Y-34219527D01*
X261678938Y-33875999D01*
X261679262Y-33504033D01*
X261537217Y-33160257D01*
X261274427Y-32897008D01*
X260930899Y-32754362D01*
X260558933Y-32754038D01*
X260215157Y-32896083D01*
X259951908Y-33158873D01*
X259809262Y-33502401D01*
X259808938Y-33874367D01*
X259950983Y-34218143D01*
X259984100Y-34251318D01*
X259984100Y-83823788D01*
X259865508Y-83942173D01*
X259722862Y-84285701D01*
X259722821Y-84332577D01*
X254339000Y-89716398D01*
X254339000Y-77868900D01*
X254281148Y-77578061D01*
X254116401Y-77331499D01*
X253756322Y-76971420D01*
X253756362Y-76925933D01*
X253614317Y-76582157D01*
X253581200Y-76548982D01*
X253581200Y-72530700D01*
X253542591Y-72336599D01*
X253523348Y-72239860D01*
X253358601Y-71993299D01*
X251704100Y-70338798D01*
X251704100Y-69515118D01*
X251754567Y-69515162D01*
X252098343Y-69373117D01*
X252361592Y-69110327D01*
X252504238Y-68766799D01*
X252504279Y-68719923D01*
X253358601Y-67865601D01*
X253523348Y-67619039D01*
X253581200Y-67328200D01*
X253581200Y-61810963D01*
X253613392Y-61778827D01*
X253756038Y-61435299D01*
X253756362Y-61063333D01*
X253614317Y-60719557D01*
X253581200Y-60686382D01*
X253581200Y-52260163D01*
X253613392Y-52228027D01*
X253756038Y-51884499D01*
X253756362Y-51512533D01*
X253614317Y-51168757D01*
X253351527Y-50905508D01*
X253007999Y-50762862D01*
X252961123Y-50762821D01*
X252653200Y-50454898D01*
X252653200Y-43664463D01*
X252685392Y-43632327D01*
X252828038Y-43288799D01*
X252828079Y-43241923D01*
X255612901Y-40457101D01*
X255777648Y-40210539D01*
X255835500Y-39919700D01*
X255835500Y-34108863D01*
X255867692Y-34076727D01*
X256010338Y-33733199D01*
X256010662Y-33361233D01*
X255868617Y-33017457D01*
X255605827Y-32754208D01*
X255262299Y-32611562D01*
X254890333Y-32611238D01*
X254546557Y-32753283D01*
X254283308Y-33016073D01*
X254140662Y-33359601D01*
X254140338Y-33731567D01*
X254282383Y-34075343D01*
X254315500Y-34108518D01*
X254315500Y-39604898D01*
X251753520Y-42166878D01*
X251708033Y-42166838D01*
X251704100Y-42168463D01*
X251704100Y-24586500D01*
X251646248Y-24295661D01*
X251646248Y-24295660D01*
X251481501Y-24049099D01*
X249883422Y-22451020D01*
X249883462Y-22405533D01*
X249741417Y-22061757D01*
X249478627Y-21798508D01*
X249135099Y-21655862D01*
X248763133Y-21655538D01*
X248419357Y-21797583D01*
X248156108Y-22060373D01*
X248013462Y-22403901D01*
X248013138Y-22775867D01*
X248155183Y-23119643D01*
X248417973Y-23382892D01*
X248761501Y-23525538D01*
X248808377Y-23525579D01*
X250184100Y-24901302D01*
X250184100Y-41618098D01*
X247396222Y-38830220D01*
X247396262Y-38784733D01*
X247254217Y-38440957D01*
X246991427Y-38177708D01*
X246647899Y-38035062D01*
X246275933Y-38034738D01*
X245932157Y-38176783D01*
X245668908Y-38439573D01*
X245526262Y-38783101D01*
X245525938Y-39155067D01*
X245667983Y-39498843D01*
X245930773Y-39762092D01*
X246274301Y-39904738D01*
X246321177Y-39904779D01*
X249675000Y-43258602D01*
X249675000Y-84643937D01*
X249642808Y-84676073D01*
X249500162Y-85019601D01*
X249500121Y-85066477D01*
X247985699Y-86580899D01*
X247820952Y-86827461D01*
X247763100Y-87118300D01*
X247763100Y-141785700D01*
X247820952Y-142076539D01*
X247985699Y-142323101D01*
X248013178Y-142350580D01*
X248013138Y-142396067D01*
X248155183Y-142739843D01*
X248417973Y-143003092D01*
X248761501Y-143145738D01*
X248808377Y-143145779D01*
X248868099Y-143205501D01*
X249114660Y-143370248D01*
X249162914Y-143379846D01*
X249405500Y-143428100D01*
X253319537Y-143428100D01*
X253351673Y-143460292D01*
X253695201Y-143602938D01*
X254067167Y-143603262D01*
X254410943Y-143461217D01*
X254674192Y-143198427D01*
X254816838Y-142854899D01*
X254817162Y-142482933D01*
X254675117Y-142139157D01*
X254412327Y-141875908D01*
X254068799Y-141733262D01*
X253696833Y-141732938D01*
X253353057Y-141874983D01*
X253319882Y-141908100D01*
X249834857Y-141908100D01*
X249741417Y-141681957D01*
X249478627Y-141418708D01*
X249283100Y-141337518D01*
X249283100Y-139136576D01*
X249479673Y-139333492D01*
X249823201Y-139476138D01*
X250195167Y-139476462D01*
X250538943Y-139334417D01*
X250802192Y-139071627D01*
X250944838Y-138728099D01*
X250944879Y-138681223D01*
X254256283Y-135369819D01*
X254875778Y-135989355D01*
X254875738Y-136034867D01*
X255017783Y-136378643D01*
X255280573Y-136641892D01*
X255624101Y-136784538D01*
X255727600Y-136784628D01*
X255727600Y-146920533D01*
X255526099Y-146836862D01*
X255154133Y-146836538D01*
X254810357Y-146978583D01*
X254777182Y-147011700D01*
X250425002Y-147011700D01*
X240294700Y-136881398D01*
X240294700Y-99428067D01*
X242133838Y-99428067D01*
X242275883Y-99771843D01*
X242309000Y-99805018D01*
X242309000Y-108716037D01*
X242276808Y-108748173D01*
X242134162Y-109091701D01*
X242133838Y-109463667D01*
X242275883Y-109807443D01*
X242309000Y-109840618D01*
X242309000Y-114101237D01*
X242276808Y-114133373D01*
X242134162Y-114476901D01*
X242133838Y-114848867D01*
X242275883Y-115192643D01*
X242538673Y-115455892D01*
X242882201Y-115598538D01*
X243254167Y-115598862D01*
X243597943Y-115456817D01*
X243861192Y-115194027D01*
X244003838Y-114850499D01*
X244004162Y-114478533D01*
X243862117Y-114134757D01*
X243829000Y-114101582D01*
X243829000Y-109840963D01*
X243861192Y-109808827D01*
X244003838Y-109465299D01*
X244004162Y-109093333D01*
X243862117Y-108749557D01*
X243829000Y-108716382D01*
X243829000Y-99805363D01*
X243861192Y-99773227D01*
X244003838Y-99429699D01*
X244003879Y-99382823D01*
X247198101Y-96188601D01*
X247362848Y-95942039D01*
X247420700Y-95651200D01*
X247420700Y-79157563D01*
X247452892Y-79125427D01*
X247595538Y-78781899D01*
X247595862Y-78409933D01*
X247453817Y-78066157D01*
X247191027Y-77802908D01*
X246847499Y-77660262D01*
X246475533Y-77659938D01*
X246131757Y-77801983D01*
X245868508Y-78064773D01*
X245725862Y-78408301D01*
X245725538Y-78780267D01*
X245867583Y-79124043D01*
X245900700Y-79157218D01*
X245900700Y-95336398D01*
X242929320Y-98307778D01*
X242883833Y-98307738D01*
X242540057Y-98449783D01*
X242276808Y-98712573D01*
X242134162Y-99056101D01*
X242133838Y-99428067D01*
X240294700Y-99428067D01*
X240294700Y-90831800D01*
X240236848Y-90540961D01*
X240072101Y-90294399D01*
X238759810Y-88982108D01*
X238704600Y-88848489D01*
X238704600Y-43706302D01*
X241002080Y-41408822D01*
X241047567Y-41408862D01*
X241391343Y-41266817D01*
X241654592Y-41004027D01*
X241797238Y-40660499D01*
X241797562Y-40288533D01*
X241655517Y-39944757D01*
X241392727Y-39681508D01*
X241049199Y-39538862D01*
X240677233Y-39538538D01*
X240333457Y-39680583D01*
X240070208Y-39943373D01*
X239927562Y-40286901D01*
X239927521Y-40333777D01*
X237407199Y-42854099D01*
X237242452Y-43100661D01*
X237184600Y-43391500D01*
X237184600Y-88590193D01*
X237063208Y-88711373D01*
X236938100Y-89012665D01*
X236938100Y-84382463D01*
X236970292Y-84350327D01*
X237112938Y-84006799D01*
X237113262Y-83634833D01*
X236971217Y-83291057D01*
X236938100Y-83257882D01*
X236938100Y-79205155D01*
X237045338Y-78946899D01*
X237045662Y-78574933D01*
X236903617Y-78231157D01*
X236640827Y-77967908D01*
X236297299Y-77825262D01*
X235925333Y-77824938D01*
X235581557Y-77966983D01*
X235548382Y-78000100D01*
X230730702Y-78000100D01*
X224740722Y-72010120D01*
X224740762Y-71964633D01*
X224598717Y-71620857D01*
X224335927Y-71357608D01*
X223992399Y-71214962D01*
X223929500Y-71214907D01*
X223929500Y-60517866D01*
X224132192Y-60315527D01*
X224274838Y-59971999D01*
X224275162Y-59600033D01*
X224133117Y-59256257D01*
X223870327Y-58993008D01*
X223526799Y-58850362D01*
X223154833Y-58850038D01*
X222811057Y-58992083D01*
X222547808Y-59254873D01*
X222405162Y-59598401D01*
X222404838Y-59970367D01*
X222409500Y-59981650D01*
X222409500Y-115093437D01*
X222377308Y-115125573D01*
X222234662Y-115469101D01*
X222234531Y-115619500D01*
X215583402Y-115619500D01*
X215487522Y-115523620D01*
X215487562Y-115478133D01*
X215345517Y-115134357D01*
X215082727Y-114871108D01*
X214739199Y-114728462D01*
X214367233Y-114728138D01*
X214023457Y-114870183D01*
X213760208Y-115132973D01*
X213617562Y-115476501D01*
X213617238Y-115848467D01*
X213375169Y-115848467D01*
X211411300Y-113884598D01*
X211411300Y-100646163D01*
X211443492Y-100614027D01*
X211586138Y-100270499D01*
X211586462Y-99898533D01*
X211444417Y-99554757D01*
X211411300Y-99521582D01*
X211411300Y-95166500D01*
X211353448Y-94875661D01*
X211188701Y-94629099D01*
X210359022Y-93799420D01*
X210359062Y-93753933D01*
X210217017Y-93410157D01*
X209954227Y-93146908D01*
X209610699Y-93004262D01*
X209238733Y-93003938D01*
X208894957Y-93145983D01*
X208631708Y-93408773D01*
X208489062Y-93752301D01*
X208488738Y-94124267D01*
X208630783Y-94468043D01*
X208893573Y-94731292D01*
X209237101Y-94873938D01*
X209283977Y-94873979D01*
X209891300Y-95481302D01*
X209891300Y-99521237D01*
X209859108Y-99553373D01*
X209716462Y-99896901D01*
X209716138Y-100268867D01*
X209858183Y-100612643D01*
X209891300Y-100645818D01*
X209891300Y-114199400D01*
X209949152Y-114490239D01*
X210113899Y-114736801D01*
X212880298Y-117503200D01*
X205109999Y-125273499D01*
X205009864Y-125423362D01*
X190379239Y-110792737D01*
X190518692Y-110653527D01*
X190661338Y-110309999D01*
X190661662Y-109938033D01*
X190519617Y-109594257D01*
X190486500Y-109561082D01*
X190486500Y-104702463D01*
X190518692Y-104670327D01*
X190661338Y-104326799D01*
X190661662Y-103954833D01*
X190519617Y-103611057D01*
X190486500Y-103577882D01*
X190486500Y-94542463D01*
X190518692Y-94510327D01*
X190661338Y-94166799D01*
X190661662Y-93794833D01*
X190519617Y-93451057D01*
X190256827Y-93187808D01*
X189913299Y-93045162D01*
X189866423Y-93045121D01*
X179793300Y-82971998D01*
X179793300Y-77067663D01*
X179825492Y-77035527D01*
X179968138Y-76691999D01*
X179968462Y-76320033D01*
X179826417Y-75976257D01*
X179563627Y-75713008D01*
X179220099Y-75570362D01*
X178848133Y-75570038D01*
X178504357Y-75712083D01*
X178241108Y-75974873D01*
X178098462Y-76318401D01*
X178098138Y-76690367D01*
X178240183Y-77034143D01*
X178273300Y-77067318D01*
X178273300Y-82427798D01*
X170044722Y-74199220D01*
X170044762Y-74153733D01*
X169902717Y-73809957D01*
X169639927Y-73546708D01*
X169296399Y-73404062D01*
X168924433Y-73403738D01*
X168580657Y-73545783D01*
X168317408Y-73808573D01*
X168174762Y-74152101D01*
X168174438Y-74524067D01*
X164010000Y-74524067D01*
X164010000Y-72547767D01*
X164196738Y-72547767D01*
X164338783Y-72891543D01*
X164601573Y-73154792D01*
X164945101Y-73297438D01*
X165317067Y-73297762D01*
X165660843Y-73155717D01*
X165924092Y-72892927D01*
X166066738Y-72549399D01*
X166066779Y-72502523D01*
X166922802Y-71646500D01*
X185164134Y-71646500D01*
X185164038Y-71756167D01*
X185306083Y-72099943D01*
X185568873Y-72363192D01*
X185912401Y-72505838D01*
X185959277Y-72505879D01*
X197792017Y-84338619D01*
X197796283Y-84348943D01*
X198059073Y-84612192D01*
X198070218Y-84616820D01*
X199839100Y-86385702D01*
X199839100Y-98737637D01*
X199806908Y-98769773D01*
X199664262Y-99113301D01*
X199663938Y-99485267D01*
X199805983Y-99829043D01*
X199839100Y-99862218D01*
X199839100Y-108580500D01*
X199896952Y-108871339D01*
X199986210Y-109004924D01*
X199986138Y-109087867D01*
X200128183Y-109431643D01*
X200161300Y-109464818D01*
X200161300Y-112327598D01*
X198436420Y-114052478D01*
X198390933Y-114052438D01*
X198047157Y-114194483D01*
X197783908Y-114457273D01*
X197641262Y-114800801D01*
X197640938Y-115172767D01*
X197782983Y-115516543D01*
X198045773Y-115779792D01*
X198389301Y-115922438D01*
X198761267Y-115922762D01*
X199105043Y-115780717D01*
X199368292Y-115517927D01*
X199510938Y-115174399D01*
X199510979Y-115127523D01*
X201458701Y-113179801D01*
X201623448Y-112933239D01*
X201681300Y-112642400D01*
X201681300Y-109465163D01*
X201713492Y-109433027D01*
X201856138Y-109089499D01*
X201856462Y-108717533D01*
X201714417Y-108373757D01*
X201451627Y-108110508D01*
X201359100Y-108072087D01*
X201359100Y-99862563D01*
X201391292Y-99830427D01*
X201533938Y-99486899D01*
X201534262Y-99114933D01*
X201392217Y-98771157D01*
X201359100Y-98737982D01*
X201359100Y-86070900D01*
X201301248Y-85780061D01*
X201136501Y-85533499D01*
X199524312Y-83921310D01*
X199524562Y-83634833D01*
X199382517Y-83291057D01*
X199119727Y-83027808D01*
X198776199Y-82885162D01*
X198487913Y-82884911D01*
X187249502Y-71646500D01*
X190113498Y-71646500D01*
X215622300Y-97155302D01*
X215622300Y-103577537D01*
X215590108Y-103609673D01*
X215447462Y-103953201D01*
X215447138Y-104325167D01*
X215589183Y-104668943D01*
X215851973Y-104932192D01*
X216195501Y-105074838D01*
X216567467Y-105075162D01*
X216911243Y-104933117D01*
X217174492Y-104670327D01*
X217317138Y-104326799D01*
X217317462Y-103954833D01*
X217175417Y-103611057D01*
X217142300Y-103577882D01*
X217142300Y-97766659D01*
X217163201Y-97775338D01*
X217535167Y-97775662D01*
X217878943Y-97633617D01*
X218142192Y-97370827D01*
X218284838Y-97027299D01*
X218285162Y-96655333D01*
X218143117Y-96311557D01*
X217880327Y-96048308D01*
X217536799Y-95905662D01*
X217164833Y-95905338D01*
X216821057Y-96047383D01*
X216787882Y-96080500D01*
X216697102Y-96080500D01*
X190965701Y-70349099D01*
X190719139Y-70184352D01*
X190428300Y-70126500D01*
X166608000Y-70126500D01*
X166317161Y-70184352D01*
X166070599Y-70349099D01*
X164992220Y-71427478D01*
X164946733Y-71427438D01*
X164602957Y-71569483D01*
X164339708Y-71832273D01*
X164197062Y-72175801D01*
X164196738Y-72547767D01*
X164010000Y-72547767D01*
X164010000Y-71458063D01*
X164042192Y-71425927D01*
X164184838Y-71082399D01*
X164185162Y-70710433D01*
X164043117Y-70366657D01*
X163780327Y-70103408D01*
X163436799Y-69960762D01*
X163354500Y-69960690D01*
X163354500Y-67612402D01*
X170537401Y-60429501D01*
X170702148Y-60182939D01*
X170760000Y-59892100D01*
X170760000Y-45125063D01*
X170792192Y-45092927D01*
X170934838Y-44749399D01*
X170935162Y-44377433D01*
X170793117Y-44033657D01*
X170530327Y-43770408D01*
X170186799Y-43627762D01*
X169814833Y-43627438D01*
X169471057Y-43769483D01*
X169207808Y-44032273D01*
X169065162Y-44375801D01*
X169064838Y-44747767D01*
X169206883Y-45091543D01*
X169240000Y-45124718D01*
X169240000Y-50772885D01*
X169203099Y-50757562D01*
X168831133Y-50757238D01*
X168487357Y-50899283D01*
X168224108Y-51162073D01*
X168081462Y-51505601D01*
X168081138Y-51877567D01*
X168223183Y-52221343D01*
X168256300Y-52254518D01*
X168256300Y-53316898D01*
X164722900Y-56850298D01*
X164722900Y-52260163D01*
X164755092Y-52228027D01*
X164897738Y-51884499D01*
X164897779Y-51837623D01*
X166602301Y-50133101D01*
X166767048Y-49886539D01*
X166824900Y-49595700D01*
X166824900Y-38000763D01*
X166857092Y-37968627D01*
X166999738Y-37625099D01*
X167000062Y-37253133D01*
X166858017Y-36909357D01*
X166595227Y-36646108D01*
X166251699Y-36503462D01*
X165879733Y-36503138D01*
X165535957Y-36645183D01*
X165272708Y-36907973D01*
X165130062Y-37251501D01*
X165129738Y-37623467D01*
X165271783Y-37967243D01*
X165304900Y-38000418D01*
X165304900Y-49280898D01*
X163823220Y-50762578D01*
X163777733Y-50762538D01*
X163433957Y-50904583D01*
X163170708Y-51167373D01*
X163028062Y-51510901D01*
X163027738Y-51882867D01*
X163169783Y-52226643D01*
X163202900Y-52259818D01*
X163202900Y-57097298D01*
X156406098Y-63894100D01*
X78556200Y-63894100D01*
X78265361Y-63951952D01*
X78175493Y-64012000D01*
X77999800Y-64012000D01*
X77708960Y-64069852D01*
X77462399Y-64234599D01*
X76142700Y-65554298D01*
X76142700Y-56265200D01*
X76084848Y-55974361D01*
X76045068Y-55914826D01*
X76045162Y-55807333D01*
X75903117Y-55463557D01*
X75870000Y-55430382D01*
X75870000Y-49392900D01*
X75812148Y-49102061D01*
X75647401Y-48855499D01*
X75091022Y-48299120D01*
X75091062Y-48253633D01*
X74949017Y-47909857D01*
X74915900Y-47876682D01*
X74915900Y-35534702D01*
X75087480Y-35363122D01*
X75132967Y-35363162D01*
X75476743Y-35221117D01*
X75739992Y-34958327D01*
X75882638Y-34614799D01*
X75882776Y-34456700D01*
X76854235Y-34456700D01*
X76962961Y-34529348D01*
X77253800Y-34587200D01*
X83058900Y-34587200D01*
X83349739Y-34529348D01*
X83596301Y-34364601D01*
X83694502Y-34266400D01*
X93139083Y-34266400D01*
X93139038Y-34318567D01*
X93281083Y-34662343D01*
X93314200Y-34695518D01*
X93314200Y-40373298D01*
X91663220Y-42024278D01*
X91617733Y-42024238D01*
X91273957Y-42166283D01*
X91010708Y-42429073D01*
X90868062Y-42772601D01*
X90867738Y-43144567D01*
X91009783Y-43488343D01*
X91042900Y-43521518D01*
X91042900Y-48666900D01*
X91100752Y-48957739D01*
X91265499Y-49204301D01*
X91833178Y-49771980D01*
X91833138Y-49817467D01*
X91975183Y-50161243D01*
X92008300Y-50194418D01*
X92008300Y-55565231D01*
X91955162Y-55693201D01*
X91955094Y-55771200D01*
X87115302Y-55771200D01*
X85478425Y-54134323D01*
X85481343Y-54133117D01*
X85744592Y-53870327D01*
X85887238Y-53526799D01*
X85887562Y-53154833D01*
X85745517Y-52811057D01*
X85712400Y-52777882D01*
X85712400Y-48907063D01*
X85744592Y-48874927D01*
X85887238Y-48531399D01*
X85887562Y-48159433D01*
X85745517Y-47815657D01*
X85712400Y-47782482D01*
X85712400Y-38662463D01*
X85744592Y-38630327D01*
X85887238Y-38286799D01*
X85887562Y-37914833D01*
X85745517Y-37571057D01*
X85482727Y-37307808D01*
X85139199Y-37165162D01*
X84767233Y-37164838D01*
X84423457Y-37306883D01*
X84160208Y-37569673D01*
X84017562Y-37913201D01*
X84017238Y-38285167D01*
X84159283Y-38628943D01*
X84192400Y-38662118D01*
X84192400Y-47782137D01*
X84160208Y-47814273D01*
X84017562Y-48157801D01*
X84017238Y-48529767D01*
X84159283Y-48873543D01*
X84192400Y-48906718D01*
X84192400Y-52777537D01*
X84160208Y-52809673D01*
X84158321Y-52814219D01*
X80975522Y-49631420D01*
X80975562Y-49585933D01*
X80833517Y-49242157D01*
X80570727Y-48978908D01*
X80227199Y-48836262D01*
X79855233Y-48835938D01*
X79511457Y-48977983D01*
X79248208Y-49240773D01*
X79105562Y-49584301D01*
X79105238Y-49956267D01*
X79247283Y-50300043D01*
X79510073Y-50563292D01*
X79853601Y-50705938D01*
X79900477Y-50705979D01*
X86263099Y-57068601D01*
X86509661Y-57233348D01*
X86800500Y-57291200D01*
X117755000Y-57291200D01*
X117755000Y-57911537D01*
X117722808Y-57943673D01*
X117580162Y-58287201D01*
X117579838Y-58659167D01*
X117721883Y-59002943D01*
X117984673Y-59266192D01*
X118328201Y-59408838D01*
X118700167Y-59409162D01*
X119043943Y-59267117D01*
X119307192Y-59004327D01*
X119449838Y-58660799D01*
X119450162Y-58288833D01*
X119308117Y-57945057D01*
X119275000Y-57911882D01*
X119275000Y-56935200D01*
X119273436Y-56927338D01*
X119217148Y-56644360D01*
X119052401Y-56397799D01*
X118871000Y-56216398D01*
X118871000Y-53420663D01*
X118903192Y-53388527D01*
X119045838Y-53044999D01*
X119046162Y-52673033D01*
X118904117Y-52329257D01*
X118871000Y-52296082D01*
X118871000Y-43659663D01*
X118903192Y-43627527D01*
X119045838Y-43283999D01*
X119045916Y-43194917D01*
X119125748Y-43075439D01*
X119183600Y-42784600D01*
X119183600Y-34261763D01*
X119215792Y-34229627D01*
X119358438Y-33886099D01*
X119358499Y-33816000D01*
X128126848Y-33816000D01*
X128088208Y-33854573D01*
X127945562Y-34198101D01*
X127945238Y-34570067D01*
X128087283Y-34913843D01*
X128350073Y-35177092D01*
X128693601Y-35319738D01*
X128740477Y-35319779D01*
X129408600Y-35987902D01*
X129408600Y-42384137D01*
X129376408Y-42416273D01*
X129233762Y-42759801D01*
X129233438Y-43131767D01*
X129375483Y-43475543D01*
X129408600Y-43508718D01*
X129408600Y-52323498D01*
X129274420Y-52457678D01*
X129228933Y-52457638D01*
X128885157Y-52599683D01*
X128621908Y-52862473D01*
X128479262Y-53206001D01*
X128478938Y-53577967D01*
X128620983Y-53921743D01*
X128654100Y-53954918D01*
X128654100Y-57740937D01*
X128621908Y-57773073D01*
X128479262Y-58116601D01*
X128478938Y-58488567D01*
X128620983Y-58832343D01*
X128883773Y-59095592D01*
X129227301Y-59238238D01*
X129599267Y-59238562D01*
X129943043Y-59096517D01*
X130206292Y-58833727D01*
X130348938Y-58490199D01*
X130349262Y-58118233D01*
X130207217Y-57774457D01*
X130174100Y-57741282D01*
X130174100Y-53955263D01*
X130206292Y-53923127D01*
X130348938Y-53579599D01*
X130348979Y-53532723D01*
X130706001Y-53175701D01*
X130870748Y-52929139D01*
X130928600Y-52638300D01*
X130928600Y-43509063D01*
X130960792Y-43476927D01*
X131103438Y-43133399D01*
X131103762Y-42761433D01*
X130961717Y-42417657D01*
X130928600Y-42384482D01*
X130928600Y-35986602D01*
X135455500Y-40513502D01*
X135455500Y-44260900D01*
X135513352Y-44551739D01*
X135678099Y-44798301D01*
X136404878Y-45525080D01*
X136404838Y-45570567D01*
X136546883Y-45914343D01*
X136580000Y-45947518D01*
X136580000Y-52375200D01*
X136637852Y-52666039D01*
X136802599Y-52912601D01*
X137369678Y-53479680D01*
X137369638Y-53525167D01*
X137511683Y-53868943D01*
X137774473Y-54132192D01*
X138118001Y-54274838D01*
X138489967Y-54275162D01*
X138833743Y-54133117D01*
X139096992Y-53870327D01*
X139239638Y-53526799D01*
X139239962Y-53154833D01*
X139097917Y-52811057D01*
X138835127Y-52547808D01*
X138491599Y-52405162D01*
X138444723Y-52405121D01*
X138100000Y-52060398D01*
X138100000Y-45947863D01*
X138132192Y-45915727D01*
X138274838Y-45572199D01*
X138275162Y-45200233D01*
X138133117Y-44856457D01*
X137870327Y-44593208D01*
X137526799Y-44450562D01*
X137479923Y-44450521D01*
X136975500Y-43946098D01*
X136975500Y-40513502D01*
X138453880Y-39035122D01*
X138499367Y-39035162D01*
X138843143Y-38893117D01*
X139106392Y-38630327D01*
X139249038Y-38286799D01*
X139249362Y-37914833D01*
X139107317Y-37571057D01*
X138844527Y-37307808D01*
X138500999Y-37165162D01*
X138129033Y-37164838D01*
X137785257Y-37306883D01*
X137522008Y-37569673D01*
X137379362Y-37913201D01*
X137379321Y-37960077D01*
X136215500Y-39123898D01*
X130411502Y-33319900D01*
X139001398Y-33319900D01*
X146605378Y-40923880D01*
X146605338Y-40969367D01*
X146747383Y-41313143D01*
X147010173Y-41576392D01*
X147353701Y-41719038D01*
X147421700Y-41719097D01*
X147421700Y-42195535D01*
X147218508Y-42398373D01*
X147075862Y-42741901D01*
X147075538Y-43113867D01*
X147217583Y-43457643D01*
X147400700Y-43641080D01*
X147400700Y-45872237D01*
X147368508Y-45904373D01*
X147225862Y-46247901D01*
X147225538Y-46619867D01*
X147367583Y-46963643D01*
X147400700Y-46996818D01*
X147400700Y-52174537D01*
X147368508Y-52206673D01*
X147225862Y-52550201D01*
X147225538Y-52922167D01*
X147367583Y-53265943D01*
X147630373Y-53529192D01*
X147973901Y-53671838D01*
X148345867Y-53672162D01*
X148689643Y-53530117D01*
X148952892Y-53267327D01*
X149095538Y-52923799D01*
X149095862Y-52551833D01*
X148953817Y-52208057D01*
X148920700Y-52174882D01*
X148920700Y-46997163D01*
X148952892Y-46965027D01*
X149095538Y-46621499D01*
X149095862Y-46249533D01*
X148953817Y-45905757D01*
X148920700Y-45872582D01*
X148920700Y-43175315D01*
X148945538Y-43115499D01*
X148945862Y-42743533D01*
X148941700Y-42733460D01*
X148941700Y-34108863D01*
X148973892Y-34076727D01*
X149051449Y-33889951D01*
X152846799Y-37685301D01*
X153093361Y-37850048D01*
X153384200Y-37907900D01*
X153393500Y-37907900D01*
X153393500Y-42617537D01*
X153361308Y-42649673D01*
X153218662Y-42993201D01*
X153218338Y-43365167D01*
X153360383Y-43708943D01*
X153623173Y-43972192D01*
X153966701Y-44114838D01*
X154013577Y-44114879D01*
X155652400Y-45753702D01*
X155652400Y-52791137D01*
X155620208Y-52823273D01*
X155477562Y-53166801D01*
X155477238Y-53538767D01*
X155619283Y-53882543D01*
X155882073Y-54145792D01*
X156225601Y-54288438D01*
X156597567Y-54288762D01*
X156941343Y-54146717D01*
X157204592Y-53883927D01*
X157347238Y-53540399D01*
X157347562Y-53168433D01*
X157205517Y-52824657D01*
X157172400Y-52791482D01*
X157172400Y-45438900D01*
X157114548Y-45148061D01*
X156949801Y-44901499D01*
X155088622Y-43040320D01*
X155088662Y-42994833D01*
X154946617Y-42651057D01*
X154913500Y-42617882D01*
X154913500Y-37710363D01*
X154945692Y-37678227D01*
X155088338Y-37334699D01*
X155088662Y-36962733D01*
X154946617Y-36618957D01*
X154683827Y-36355708D01*
X154340299Y-36213062D01*
X153968333Y-36212738D01*
X153653801Y-36342699D01*
X137186122Y-19875020D01*
X137186162Y-19829533D01*
X137044117Y-19485757D01*
X136781327Y-19222508D01*
X136437799Y-19079862D01*
X136065833Y-19079538D01*
X135722057Y-19221583D01*
X135458808Y-19484373D01*
X135381251Y-19671149D01*
X132951002Y-17240900D01*
X153425798Y-17240900D01*
X173582378Y-37397480D01*
X173582338Y-37442967D01*
X173724383Y-37786743D01*
X173987173Y-38049992D01*
X174030700Y-38068066D01*
X174030700Y-47748037D01*
X173998508Y-47780173D01*
X173855862Y-48123701D01*
X173855538Y-48495667D01*
X173997583Y-48839443D01*
X174260373Y-49102692D01*
X174329000Y-49131189D01*
X174329000Y-52525237D01*
X174296808Y-52557373D01*
X174154162Y-52900901D01*
X174153838Y-53272867D01*
X174295883Y-53616643D01*
X174329000Y-53649818D01*
X174329000Y-60189998D01*
X173332420Y-61186578D01*
X173286933Y-61186538D01*
X172943157Y-61328583D01*
X172679908Y-61591373D01*
X172537262Y-61934901D01*
X172536938Y-62306867D01*
X172678983Y-62650643D01*
X172941773Y-62913892D01*
X173285301Y-63056538D01*
X173657267Y-63056862D01*
X174001043Y-62914817D01*
X174264292Y-62652027D01*
X174406938Y-62308499D01*
X174406979Y-62261623D01*
X175626401Y-61042201D01*
X175791148Y-60795639D01*
X175849000Y-60504800D01*
X175849000Y-53650163D01*
X175881192Y-53618027D01*
X176023838Y-53274499D01*
X176024162Y-52902533D01*
X175882117Y-52558757D01*
X175849000Y-52525582D01*
X175849000Y-48608800D01*
X175791148Y-48317961D01*
X175725779Y-48220130D01*
X175725862Y-48125333D01*
X175583817Y-47781557D01*
X175550700Y-47748382D01*
X175550700Y-37531000D01*
X175492848Y-37240161D01*
X175452569Y-37179878D01*
X175452662Y-37072633D01*
X175310617Y-36728857D01*
X175047827Y-36465608D01*
X174704299Y-36322962D01*
X174657423Y-36322921D01*
X171539669Y-33205167D01*
X179882838Y-33205167D01*
X180024883Y-33548943D01*
X180058000Y-33582118D01*
X180058000Y-39668000D01*
X180115852Y-39958839D01*
X180280599Y-40205401D01*
X180854878Y-40779680D01*
X180854838Y-40825167D01*
X180996883Y-41168943D01*
X181030000Y-41202118D01*
X181030000Y-49445237D01*
X180997808Y-49477373D01*
X180855162Y-49820901D01*
X180854838Y-50192867D01*
X180996883Y-50536643D01*
X181030000Y-50569818D01*
X181030000Y-60397537D01*
X180997808Y-60429673D01*
X180855162Y-60773201D01*
X180854838Y-61145167D01*
X180996883Y-61488943D01*
X181259673Y-61752192D01*
X181603201Y-61894838D01*
X181975167Y-61895162D01*
X182318943Y-61753117D01*
X182582192Y-61490327D01*
X182724838Y-61146799D01*
X182725162Y-60774833D01*
X182583117Y-60431057D01*
X182550000Y-60397882D01*
X182550000Y-50570163D01*
X182582192Y-50538027D01*
X182724838Y-50194499D01*
X182725162Y-49822533D01*
X182583117Y-49478757D01*
X182550000Y-49445582D01*
X182550000Y-41202463D01*
X182582192Y-41170327D01*
X182724838Y-40826799D01*
X182725162Y-40454833D01*
X182583117Y-40111057D01*
X182320327Y-39847808D01*
X181976799Y-39705162D01*
X181929923Y-39705121D01*
X181578000Y-39353198D01*
X181578000Y-33582463D01*
X181610192Y-33550327D01*
X181752838Y-33206799D01*
X181753162Y-32834833D01*
X181611117Y-32491057D01*
X181348327Y-32227808D01*
X181004799Y-32085162D01*
X180632833Y-32084838D01*
X180289057Y-32226883D01*
X180025808Y-32489673D01*
X179883162Y-32833201D01*
X179882838Y-33205167D01*
X171539669Y-33205167D01*
X158040269Y-19705767D01*
X182350538Y-19705767D01*
X182492583Y-20049543D01*
X182525700Y-20082718D01*
X182525700Y-27060300D01*
X182583552Y-27351139D01*
X182748299Y-27597701D01*
X189664578Y-34513980D01*
X189664538Y-34559467D01*
X189806583Y-34903243D01*
X190069373Y-35166492D01*
X190412901Y-35309138D01*
X190459777Y-35309179D01*
X191932300Y-36781702D01*
X191932300Y-57857537D01*
X191900108Y-57889673D01*
X191757462Y-58233201D01*
X191757138Y-58605167D01*
X191899183Y-58948943D01*
X191932300Y-58982118D01*
X191932300Y-60937998D01*
X189588820Y-63281478D01*
X189543333Y-63281438D01*
X189199557Y-63423483D01*
X188936308Y-63686273D01*
X188793662Y-64029801D01*
X188793338Y-64401767D01*
X188935383Y-64745543D01*
X189198173Y-65008792D01*
X189541701Y-65151438D01*
X189913667Y-65151762D01*
X190257443Y-65009717D01*
X190520692Y-64746927D01*
X190663338Y-64403399D01*
X190663379Y-64356523D01*
X193229701Y-61790201D01*
X193394448Y-61543639D01*
X193452300Y-61252800D01*
X193452300Y-58982463D01*
X193484492Y-58950327D01*
X193627138Y-58606799D01*
X193627462Y-58234833D01*
X193485417Y-57891057D01*
X193452300Y-57857882D01*
X193452300Y-43143567D01*
X197527938Y-43143567D01*
X197669983Y-43487343D01*
X197703100Y-43520518D01*
X197703100Y-51253800D01*
X197760952Y-51544639D01*
X197925699Y-51791201D01*
X199474498Y-53340000D01*
X199032599Y-53781899D01*
X198867852Y-54028461D01*
X198810000Y-54319300D01*
X198810000Y-60397537D01*
X198777808Y-60429673D01*
X198635162Y-60773201D01*
X198634838Y-61145167D01*
X198776883Y-61488943D01*
X199039673Y-61752192D01*
X199383201Y-61894838D01*
X199755167Y-61895162D01*
X200098943Y-61753117D01*
X200362192Y-61490327D01*
X200504838Y-61146799D01*
X200505162Y-60774833D01*
X200363117Y-60431057D01*
X200330000Y-60397882D01*
X200330000Y-54634102D01*
X200688980Y-54275122D01*
X200734467Y-54275162D01*
X201078243Y-54133117D01*
X201341492Y-53870327D01*
X201484138Y-53526799D01*
X201484462Y-53154833D01*
X201342417Y-52811057D01*
X201079627Y-52547808D01*
X200736099Y-52405162D01*
X200689223Y-52405121D01*
X199223100Y-50938998D01*
X199223100Y-43520863D01*
X199255292Y-43488727D01*
X199397938Y-43145199D01*
X199398262Y-42773233D01*
X199256217Y-42429457D01*
X199223100Y-42396282D01*
X199223100Y-33717128D01*
X199390192Y-33550327D01*
X199532838Y-33206799D01*
X199533162Y-32834833D01*
X199391117Y-32491057D01*
X199128327Y-32227808D01*
X198784799Y-32085162D01*
X198412833Y-32084838D01*
X198069057Y-32226883D01*
X197805808Y-32489673D01*
X197663162Y-32833201D01*
X197662838Y-33205167D01*
X197703100Y-33302609D01*
X197703100Y-42395937D01*
X197670908Y-42428073D01*
X197528262Y-42771601D01*
X197527938Y-43143567D01*
X193452300Y-43143567D01*
X193452300Y-36466900D01*
X193394448Y-36176061D01*
X193394448Y-36176060D01*
X193229701Y-35929499D01*
X191534822Y-34234620D01*
X191534862Y-34189133D01*
X191392817Y-33845357D01*
X191130027Y-33582108D01*
X190786499Y-33439462D01*
X190739623Y-33439421D01*
X184045700Y-26745498D01*
X184045700Y-20083063D01*
X184077892Y-20050927D01*
X184220538Y-19707399D01*
X184220862Y-19335433D01*
X184106340Y-19058267D01*
X200914038Y-19058267D01*
X201056083Y-19402043D01*
X201089200Y-19435218D01*
X201089200Y-30140500D01*
X201147052Y-30431339D01*
X201311799Y-30677901D01*
X208873578Y-38239680D01*
X208873538Y-38285167D01*
X209015583Y-38628943D01*
X209048700Y-38662118D01*
X209048700Y-47697537D01*
X209016508Y-47729673D01*
X208873862Y-48073201D01*
X208873538Y-48445167D01*
X209015583Y-48788943D01*
X209048700Y-48822118D01*
X209048700Y-57605937D01*
X209016508Y-57638073D01*
X208873862Y-57981601D01*
X208873538Y-58353567D01*
X209015583Y-58697343D01*
X209048700Y-58730518D01*
X209048700Y-61439598D01*
X207347320Y-63140978D01*
X207301833Y-63140938D01*
X206958057Y-63282983D01*
X206694808Y-63545773D01*
X206552162Y-63889301D01*
X206551838Y-64261267D01*
X206693883Y-64605043D01*
X206956673Y-64868292D01*
X207300201Y-65010938D01*
X207672167Y-65011262D01*
X208015943Y-64869217D01*
X208279192Y-64606427D01*
X208421838Y-64262899D01*
X208421879Y-64216023D01*
X210346101Y-62291801D01*
X210510848Y-62045239D01*
X210568700Y-61754400D01*
X210568700Y-58730863D01*
X210600892Y-58698727D01*
X210743538Y-58355199D01*
X210743862Y-57983233D01*
X210601817Y-57639457D01*
X210568700Y-57606282D01*
X210568700Y-48822463D01*
X210600892Y-48790327D01*
X210743538Y-48446799D01*
X210743862Y-48074833D01*
X210601817Y-47731057D01*
X210568700Y-47697882D01*
X210568700Y-38662463D01*
X210600892Y-38630327D01*
X210743538Y-38286799D01*
X210743862Y-37914833D01*
X210601817Y-37571057D01*
X210339027Y-37307808D01*
X209995499Y-37165162D01*
X209948623Y-37165121D01*
X202609200Y-29825698D01*
X202609200Y-21703802D01*
X214835599Y-33930201D01*
X215082160Y-34094948D01*
X215130414Y-34104546D01*
X215373000Y-34152800D01*
X215568600Y-34152800D01*
X215568600Y-37645311D01*
X215457362Y-37913201D01*
X215457038Y-38285167D01*
X215599083Y-38628943D01*
X215861873Y-38892192D01*
X216205401Y-39034838D01*
X216252277Y-39034879D01*
X216476100Y-39258702D01*
X216476100Y-51426437D01*
X216443908Y-51458573D01*
X216301262Y-51802101D01*
X216300938Y-52174067D01*
X216442983Y-52517843D01*
X216590000Y-52665117D01*
X216590000Y-60397537D01*
X216557808Y-60429673D01*
X216415162Y-60773201D01*
X216414838Y-61145167D01*
X216556883Y-61488943D01*
X216819673Y-61752192D01*
X217163201Y-61894838D01*
X217535167Y-61895162D01*
X217878943Y-61753117D01*
X218142192Y-61490327D01*
X218284838Y-61146799D01*
X218285162Y-60774833D01*
X218143117Y-60431057D01*
X218110000Y-60397882D01*
X218110000Y-52322453D01*
X218170938Y-52175699D01*
X218171262Y-51803733D01*
X218029217Y-51459957D01*
X217996100Y-51426782D01*
X217996100Y-38943900D01*
X217938248Y-38653061D01*
X217773501Y-38406499D01*
X217327322Y-37960320D01*
X217327362Y-37914833D01*
X217185317Y-37571057D01*
X217088600Y-37474171D01*
X217088600Y-33955263D01*
X217120792Y-33923127D01*
X217263438Y-33579599D01*
X217263762Y-33207633D01*
X217121717Y-32863857D01*
X216858927Y-32600608D01*
X216515399Y-32457962D01*
X216143433Y-32457638D01*
X215799657Y-32599683D01*
X215766482Y-32632800D01*
X215687802Y-32632800D01*
X203506022Y-20451020D01*
X203506062Y-20405533D01*
X203364017Y-20061757D01*
X203101227Y-19798508D01*
X202757699Y-19655862D01*
X202609200Y-19655733D01*
X202609200Y-19435563D01*
X202641392Y-19403427D01*
X202784038Y-19059899D01*
X202784362Y-18687933D01*
X202642317Y-18344157D01*
X202379527Y-18080908D01*
X202035999Y-17938262D01*
X201664033Y-17937938D01*
X201320257Y-18079983D01*
X201057008Y-18342773D01*
X200914362Y-18686301D01*
X200914038Y-19058267D01*
X184106340Y-19058267D01*
X184078817Y-18991657D01*
X183816027Y-18728408D01*
X183472499Y-18585762D01*
X183100533Y-18585438D01*
X182756757Y-18727483D01*
X182493508Y-18990273D01*
X182350862Y-19333801D01*
X182350538Y-19705767D01*
X158040269Y-19705767D01*
X155125102Y-16790600D01*
X205322098Y-16790600D01*
X226771178Y-38239680D01*
X226771138Y-38285167D01*
X226913183Y-38628943D01*
X226946300Y-38662118D01*
X226946300Y-47534470D01*
X226669157Y-47648983D01*
X226405908Y-47911773D01*
X226263262Y-48255301D01*
X226262938Y-48627267D01*
X226404983Y-48971043D01*
X226438100Y-49004218D01*
X226438100Y-52777537D01*
X226405908Y-52809673D01*
X226263262Y-53153201D01*
X226262938Y-53525167D01*
X226404983Y-53868943D01*
X226438100Y-53902118D01*
X226438100Y-61271698D01*
X225144920Y-62564878D01*
X225099433Y-62564838D01*
X224755657Y-62706883D01*
X224492408Y-62969673D01*
X224349762Y-63313201D01*
X224349438Y-63685167D01*
X224491483Y-64028943D01*
X224754273Y-64292192D01*
X225097801Y-64434838D01*
X225469767Y-64435162D01*
X225813543Y-64293117D01*
X226076792Y-64030327D01*
X226219438Y-63686799D01*
X226219479Y-63639923D01*
X227735501Y-62123901D01*
X227900248Y-61877339D01*
X227958100Y-61586500D01*
X227958100Y-53902463D01*
X227990292Y-53870327D01*
X228132938Y-53526799D01*
X228133262Y-53154833D01*
X227991217Y-52811057D01*
X227958100Y-52777882D01*
X227958100Y-49004563D01*
X227990292Y-48972427D01*
X228132938Y-48628899D01*
X228132979Y-48582023D01*
X228243701Y-48471301D01*
X228408448Y-48224740D01*
X228466300Y-47933900D01*
X228466300Y-38662463D01*
X228498492Y-38630327D01*
X228641138Y-38286799D01*
X228641462Y-37914833D01*
X228499417Y-37571057D01*
X228236627Y-37307808D01*
X227893099Y-37165162D01*
X227846223Y-37165121D01*
X224987502Y-34306400D01*
X233274100Y-34306400D01*
X233274100Y-39282900D01*
X233331952Y-39573739D01*
X233496699Y-39820301D01*
X235535086Y-41858688D01*
X235408552Y-42048061D01*
X235350700Y-42338900D01*
X235350700Y-52777537D01*
X235318508Y-52809673D01*
X235175862Y-53153201D01*
X235175821Y-53200077D01*
X234609299Y-53766599D01*
X234444552Y-54013161D01*
X234386700Y-54304000D01*
X234386700Y-61559437D01*
X234354508Y-61591573D01*
X234211862Y-61935101D01*
X234211538Y-62307067D01*
X234353583Y-62650843D01*
X234386700Y-62684018D01*
X234386700Y-66631266D01*
X234337808Y-66680073D01*
X234195162Y-67023601D01*
X234194838Y-67395567D01*
X234336883Y-67739343D01*
X234599673Y-68002592D01*
X234943201Y-68145238D01*
X235315167Y-68145562D01*
X235658943Y-68003517D01*
X235922192Y-67740727D01*
X236064838Y-67397199D01*
X236065162Y-67025233D01*
X235923117Y-66681457D01*
X235906700Y-66665011D01*
X235906700Y-62684363D01*
X235938892Y-62652227D01*
X236081538Y-62308699D01*
X236081862Y-61936733D01*
X235939817Y-61592957D01*
X235906700Y-61559782D01*
X235906700Y-54618802D01*
X236250380Y-54275122D01*
X236295867Y-54275162D01*
X236639643Y-54133117D01*
X236902892Y-53870327D01*
X237045538Y-53526799D01*
X237045862Y-53154833D01*
X236903817Y-52811057D01*
X236870700Y-52777882D01*
X236870700Y-42749186D01*
X237129343Y-42642317D01*
X237392592Y-42379527D01*
X237535238Y-42035999D01*
X237535562Y-41664033D01*
X237393517Y-41320257D01*
X237130727Y-41057008D01*
X236787199Y-40914362D01*
X236740323Y-40914321D01*
X234794100Y-38968098D01*
X234794100Y-34108863D01*
X234826292Y-34076727D01*
X234968938Y-33733199D01*
X234969262Y-33361233D01*
X234827217Y-33017457D01*
X234564427Y-32754208D01*
X234220899Y-32611562D01*
X233848933Y-32611238D01*
X233505157Y-32753283D01*
X233471982Y-32786400D01*
X224647302Y-32786400D01*
X209518622Y-17657720D01*
X209518662Y-17612233D01*
X209376617Y-17268457D01*
X209113827Y-17005208D01*
X208770299Y-16862562D01*
X208398333Y-16862238D01*
X208054557Y-17004283D01*
X207869810Y-17188708D01*
X207016502Y-16335400D01*
X222737798Y-16335400D01*
X243168578Y-36766180D01*
X243168538Y-36811667D01*
X243310583Y-37155443D01*
X243343700Y-37188618D01*
X243343700Y-46321237D01*
X243311508Y-46353373D01*
X243168862Y-46696901D01*
X243168538Y-47068867D01*
X243310583Y-47412643D01*
X243343700Y-47445818D01*
X243343700Y-54166537D01*
X243311508Y-54198673D01*
X243168862Y-54542201D01*
X243168821Y-54589077D01*
X242506199Y-55251699D01*
X242341452Y-55498261D01*
X242283600Y-55789100D01*
X242283600Y-62937537D01*
X242251408Y-62969673D01*
X242108762Y-63313201D01*
X242108438Y-63685167D01*
X242250483Y-64028943D01*
X242513273Y-64292192D01*
X242856801Y-64434838D01*
X243228767Y-64435162D01*
X243572543Y-64293117D01*
X243835792Y-64030327D01*
X243978438Y-63686799D01*
X243978762Y-63314833D01*
X243836717Y-62971057D01*
X243803600Y-62937882D01*
X243803600Y-56103902D01*
X244243380Y-55664122D01*
X244288867Y-55664162D01*
X244632643Y-55522117D01*
X244895892Y-55259327D01*
X245038538Y-54915799D01*
X245038862Y-54543833D01*
X244896817Y-54200057D01*
X244863700Y-54166882D01*
X244863700Y-47446163D01*
X244895892Y-47414027D01*
X245038538Y-47070499D01*
X245038862Y-46698533D01*
X244896817Y-46354757D01*
X244863700Y-46321582D01*
X244863700Y-37188963D01*
X244895892Y-37156827D01*
X245038538Y-36813299D01*
X245038862Y-36441333D01*
X244896817Y-36097557D01*
X244634027Y-35834308D01*
X244290499Y-35691662D01*
X244243623Y-35691621D01*
X224502002Y-15950000D01*
X277420000Y-15950000D01*
X277420000Y-196140000D01*
X15950000Y-196140000D01*
X15950000Y-15950000D01*
X56462998Y-15950000D01*
X23503699Y-48909299D01*
M02*
