M48
;DRILL file {KiCad 4.0.7} date 04/12/19 18:07:48
;FORMAT={-:-/ absolute / inch / decimal}
FMAT,2
INCH,TZ
T1C0.016
T2C0.020
%
G90
G05
M72
T1
X0.8856Y-3.3764
X0.9809Y-3.4368
X1.0026Y-3.5406
X1.0754Y-5.9878
X1.0888Y-6.8458
X1.2092Y-1.9305
X1.2317Y-5.2462
X1.2407Y-2.0125
X1.324Y-2.2756
X1.5604Y-6.0328
X1.577Y-6.2586
X1.585Y-5.5419
X1.585Y-6.0532
X1.6045Y-7.1364
X1.6305Y-6.2885
X1.638Y-6.6082
X1.6631Y-7.0444
X1.7615Y-2.4976
X1.7842Y-4.7022
X1.8199Y-4.7728
X1.8445Y-5.0254
X1.8608Y-6.1433
X1.9128Y-5.2911
X1.9466Y-5.2876
X1.9524Y-2.69
X2.0038Y-5.5409
X2.0038Y-4.4922
X2.0173Y-5.6234
X2.0189Y-1.9839
X2.0296Y-5.0246
X2.0557Y-5.0435
X2.0847Y-3.2432
X2.1375Y-3.1909
X2.2009Y-3.1524
X2.2585Y-5.0827
X2.2637Y-3.3632
X2.3386Y-3.438
X2.3953Y-3.1614
X2.3987Y-5.8883
X2.4011Y-6.7874
X2.4018Y-3.7463
X2.4268Y-3.5263
X2.4932Y-0.8156
X2.5055Y-4.7673
X2.5093Y-3.9538
X2.5429Y-4.8179
X2.5579Y-2.1231
X2.5691Y-3.7
X2.5691Y-3.9069
X2.5829Y-2.1969
X2.5831Y-2.2362
X2.5942Y-0.7081
X2.6109Y-2.6452
X2.6396Y-0.6912
X2.642Y-1.3517
X2.6456Y-1.9114
X2.6698Y-2.6607
X2.7674Y-5.586
X2.7941Y-3.3683
X2.9195Y-1.907
X2.9196Y-3.3
X2.9507Y-1.3554
X2.9571Y-2.2044
X2.9678Y-2.6242
X2.9964Y-3.703
X2.9964Y-4.1533
X2.9974Y-4.5031
X3.0877Y-6.8458
X3.0878Y-2.62
X3.1512Y-1.9595
X3.2072Y-4.1533
X3.2459Y-2.6485
X3.2578Y-3.1471
X3.2598Y-1.3072
X3.3446Y-1.5
X3.3446Y-1.9033
X3.3446Y-2.1
X3.3451Y-4.7
X3.3453Y-4.1
X3.3511Y-3.7142
X3.398Y-5.4527
X3.3989Y-5.7426
X3.4514Y-5.7523
X3.6143Y-1.6913
X3.6402Y-6.0817
X3.6502Y-3.1532
X3.6523Y-1.954
X3.6571Y-2.2
X3.6945Y-3.695
X3.6945Y-4.1
X3.6945Y-4.3
X3.7037Y-1.3438
X4.0071Y-4.6461
X4.0448Y-3.7
X4.0448Y-4.096
X4.0448Y-4.5049
X4.045Y-1.5025
X4.0478Y-2.1
X4.0605Y-1.9043
X4.075Y-6.5522
X4.3177Y-1.3394
X4.3649Y-4.2468
X4.3785Y-7.165
X4.395Y-3.0951
X4.395Y-2.1
X4.3951Y-4.1007
X4.3955Y-1.5935
X4.3955Y-1.9
X4.3956Y-5.4592
X4.4098Y-3.7021
X4.4276Y-2.7339
X4.5053Y-5.9203
X4.5446Y-6.8685
X4.5474Y-3.8424
X4.6189Y-3.0229
X4.65Y-1.6967
X4.65Y-2.081
X4.6623Y-1.3267
X4.6659Y-2.3021
X4.6933Y-6.9508
X4.745Y-4.3
X4.7453Y-3.6993
X4.7593Y-4.9307
X4.9815Y-2.7754
X5.074Y-1.3537
X5.0946Y-4.0963
X5.0946Y-4.3074
X5.095Y-2.1021
X5.095Y-2.2954
X5.1247Y-1.6908
X5.1265Y-3.3181
X5.1277Y-3.6941
X5.1529Y-3.8285
X5.2281Y-6.6684
X5.3205Y-3.3984
X5.3521Y-3.804
X5.3642Y-0.788
X5.3649Y-4.2607
X5.368Y-3.8536
X5.3688Y-6.6187
X5.3696Y-6.4
X5.4071Y-1.7868
X5.4093Y-3.1555
X5.4451Y-2.1
X5.4454Y-1.5
X5.4457Y-4.4905
X5.6044Y-3.9
X5.7161Y-5.793
X5.7162Y-6.5731
X5.7196Y-4.1
X5.7572Y-4.4088
X5.7572Y-4.6461
X5.7948Y-6.
X5.7948Y-6.3936
X5.8087Y-1.6057
X5.8272Y-1.6901
X5.8331Y-1.8281
X5.8331Y-2.0763
X5.8339Y-1.3207
X5.9553Y-3.8989
X6.0081Y-3.8
X6.069Y-1.4625
X6.069Y-1.7
X6.0691Y-4.0978
X6.1071Y-4.4077
X6.1071Y-4.7956
X6.1456Y-3.5
X6.1504Y-5.6
X6.1551Y-6.6
X6.158Y-2.1005
X6.1596Y-6.0116
X6.1596Y-6.2872
X6.4144Y-2.3126
X6.4272Y-2.7912
X6.4552Y-2.0353
X6.4571Y-6.3
X6.4571Y-6.7
X6.4946Y-4.2965
X6.4946Y-4.4814
X6.4946Y-5.6
X6.4953Y-6.
X6.5013Y-2.8489
X6.5083Y-3.823
X6.538Y-1.4739
X6.5402Y-3.1008
X6.5402Y-3.3181
X6.6542Y-2.0351
X6.6579Y-2.9267
X6.6929Y-1.7544
X6.748Y-6.4677
X6.8071Y-3.8
X6.8071Y-4.3545
X6.8096Y-6.7465
X6.8296Y-2.4457
X6.8354Y-5.2508
X6.8447Y-3.5
X6.845Y-6.2
X6.8708Y-1.4668
X6.8815Y-1.902
X6.8933Y-2.0901
X6.8933Y-5.8002
X7.0486Y-3.012
X7.1058Y-6.0123
X7.1143Y-5.6021
X7.1188Y-1.3
X7.1196Y-6.4
X7.157Y-4.0467
X7.1571Y-1.6
X7.1571Y-1.9688
X7.1571Y-2.4
X7.1571Y-4.3539
X7.1571Y-6.7
X7.216Y-0.7685
X7.3267Y-2.8178
X7.4689Y-6.1826
X7.4695Y-3.7
X7.4695Y-4.1
X7.4695Y-4.3356
X7.4696Y-2.5282
X7.4845Y-6.8606
X7.5039Y-1.3533
X7.5451Y-5.7925
X7.5863Y-2.3
X7.7119Y-4.9893
X7.8135Y-1.6913
X7.818Y-4.5271
X7.8182Y-6.2028
X7.8185Y-3.3
X7.8188Y-1.3
X7.8571Y-2.4
X7.8947Y-5.8029
X7.8956Y-2.1
X7.8958Y-6.4144
X7.8976Y-3.9095
X7.9103Y-4.2875
X7.9468Y-0.743
X7.9752Y-0.8107
X8.0964Y-4.9705
X8.1593Y-6.5696
X8.1688Y-2.5227
X8.188Y-5.4654
X8.2119Y-0.7007
X8.245Y-3.6984
X8.2602Y-1.5
X8.2602Y-1.9
X8.2602Y-2.2901
X8.2757Y-5.9351
X8.2757Y-6.1936
X8.2934Y-3.9403
X8.4234Y-4.6261
X8.4469Y-4.5537
X8.5169Y-1.3147
X8.519Y-4.1
X8.5194Y-1.5
X8.5526Y-2.0468
X8.5571Y-2.4
X8.5571Y-3.8126
X8.5571Y-6.0956
X8.5959Y-6.3875
X8.6237Y-5.7828
X8.7862Y-4.5534
X8.7929Y-2.3537
X8.8112Y-2.8405
X8.8311Y-2.9941
X8.8581Y-6.013
X8.8676Y-5.6036
X8.8685Y-4.5023
X8.8687Y-4.7
X8.8695Y-2.5
X8.9071Y-3.8154
X8.9081Y-3.3544
X8.9448Y-1.9072
X8.9448Y-2.1
X8.9648Y-1.5
X8.9753Y-6.3
X9.012Y-5.4658
X9.012Y-6.1927
X9.092Y-6.5796
X9.1053Y-6.4133
X9.2139Y-1.3207
X9.2195Y-4.7
X9.2474Y-4.4088
X9.2571Y-2.6461
X9.2577Y-2.4457
X9.2957Y-3.1008
X9.2957Y-2.1
X9.2984Y-3.3
X9.2984Y-4.1
X9.315Y-1.6476
X9.3509Y-4.1381
X9.3644Y-3.5135
X9.4828Y-1.5935
X9.4828Y-5.9266
X9.5686Y-2.5
X9.5696Y-3.9072
X9.5696Y-4.3023
X9.5696Y-4.5143
X9.6104Y-1.442
X9.6104Y-1.8458
X9.6104Y-2.1547
X9.7032Y-1.5342
X9.7111Y-3.0943
X9.8011Y-0.8894
X9.8011Y-5.5989
X9.8046Y-6.4
X9.8054Y-6.2
X9.8093Y-5.342
X9.8118Y-6.6504
X9.8429Y-5.4544
X9.8469Y-5.855
X9.8596Y-3.3546
X9.9043Y-2.7
X9.9171Y-1.6969
X9.9171Y-5.2072
X9.9179Y-2.8847
X9.9536Y-2.0353
X9.9536Y-2.4114
X9.9536Y-3.0359
X9.9563Y-4.6457
X9.9571Y-3.1536
X9.9571Y-3.6
X9.9571Y-3.8458
X9.9954Y-5.6169
X10.0423Y-1.3207
X10.0527Y-5.8178
X10.0527Y-5.9351
X10.0559Y-4.5264
X10.0713Y-5.3484
X10.1527Y-6.1975
X10.1527Y-6.4045
X10.1527Y-6.607
X10.2621Y-3.3257
X10.2655Y-1.3263
X10.2805Y-4.1722
X10.3177Y-2.2007
X10.3452Y-2.1403
T2
X1.05Y-2.
X1.05Y-2.0394
X1.05Y-2.0787
X1.05Y-2.1181
X1.05Y-2.1575
X1.05Y-2.1969
X1.05Y-2.2362
X1.05Y-2.2756
X1.05Y-2.315
X1.05Y-2.3543
X1.05Y-2.3937
X1.05Y-2.4331
X1.05Y-2.4724
X1.05Y-2.5118
X1.05Y-2.5512
X1.05Y-2.5906
X1.05Y-2.6299
X1.05Y-2.6693
X1.05Y-2.7087
X1.05Y-2.748
X1.05Y-2.7874
X1.05Y-2.8268
X1.05Y-2.8661
X1.05Y-2.9055
X1.05Y-2.9449
X1.05Y-2.9843
X1.05Y-3.0236
X1.05Y-3.063
X1.05Y-3.1024
X1.05Y-3.1417
X1.05Y-3.1811
X1.05Y-3.2205
X1.05Y-3.6
X1.05Y-3.6394
X1.05Y-3.6787
X1.05Y-3.7181
X1.05Y-3.7575
X1.05Y-3.7969
X1.05Y-3.8362
X1.05Y-3.8756
X1.05Y-3.915
X1.05Y-3.9543
X1.0894Y-2.
X1.0894Y-2.0394
X1.0894Y-2.0787
X1.0894Y-2.1181
X1.0894Y-2.1575
X1.0894Y-2.1969
X1.0894Y-2.2362
X1.0894Y-2.2756
X1.0894Y-2.315
X1.0894Y-2.3543
X1.0894Y-2.3937
X1.0894Y-2.4331
X1.0894Y-2.4724
X1.0894Y-2.5118
X1.0894Y-2.5512
X1.0894Y-2.5906
X1.0894Y-2.6299
X1.0894Y-2.6693
X1.0894Y-2.7087
X1.0894Y-2.748
X1.0894Y-2.7874
X1.0894Y-2.8268
X1.0894Y-2.8661
X1.0894Y-2.9055
X1.0894Y-2.9449
X1.0894Y-2.9843
X1.0894Y-3.0236
X1.0894Y-3.063
X1.0894Y-3.1024
X1.0894Y-3.1417
X1.0894Y-3.1811
X1.0894Y-3.2205
X1.0894Y-3.6
X1.0894Y-3.6394
X1.0894Y-3.6787
X1.0894Y-3.7181
X1.0894Y-3.7575
X1.0894Y-3.7969
X1.0894Y-3.8362
X1.0894Y-3.8756
X1.0894Y-3.915
X1.0894Y-3.9543
T0
M30
