M48
;DRILL file {KiCad 4.0.7} date 04/16/19 21:40:42
;FORMAT={-:-/ absolute / inch / decimal}
FMAT,2
INCH,TZ
T1C0.016
T2C0.020
%
G90
G05
M72
T1
X4.3597Y-3.0196
X4.3625Y-2.9826
X4.5018Y-3.8308
X4.5504Y-4.4591
X4.6624Y-3.7502
X4.6969Y-4.084
X4.7143Y-4.3597
X4.7462Y-3.256
X4.7714Y-3.5561
X4.7824Y-4.1517
X4.916Y-3.7944
X4.952Y-3.7123
X4.9998Y-3.1122
X5.0429Y-4.3039
X5.1Y-4.4015
X5.1647Y-4.3068
X5.1671Y-3.4325
X5.2235Y-4.487
X5.236Y-3.5416
X5.2366Y-4.1498
X5.3688Y-3.599
X5.3933Y-3.0799
X5.4524Y-4.5269
X5.6091Y-3.699
X5.6125Y-3.3997
X6.3895Y-3.2825
T2
X4.45Y-2.95
X4.45Y-2.9894
X4.45Y-3.0287
X4.45Y-3.0681
X4.45Y-3.1075
X4.45Y-3.1469
X4.45Y-3.1862
X4.45Y-3.2256
X4.45Y-3.265
X4.45Y-3.3043
X4.45Y-3.3437
X4.45Y-3.3831
X4.4894Y-2.95
X4.4894Y-2.9894
X4.4894Y-3.0287
X4.4894Y-3.0681
X4.4894Y-3.1075
X4.4894Y-3.1469
X4.4894Y-3.1862
X4.4894Y-3.2256
X4.4894Y-3.265
X4.4894Y-3.3043
X4.4894Y-3.3437
X4.4894Y-3.3831
T0
M30
