G04 #@! TF.FileFunction,Copper,L1,Top,Signal*
%FSLAX46Y46*%
G04 Gerber Fmt 4.6, Leading zero omitted, Abs format (unit mm)*
G04 Created by KiCad (PCBNEW 4.0.7) date 04/16/19 21:40:38*
%MOMM*%
%LPD*%
G01*
G04 APERTURE LIST*
%ADD10C,0.100000*%
%ADD11R,0.850000X0.850000*%
%ADD12O,0.850000X0.850000*%
%ADD13R,0.900000X1.700000*%
%ADD14R,1.060000X0.650000*%
%ADD15C,0.600000*%
%ADD16C,0.250000*%
%ADD17C,0.254000*%
G04 APERTURE END LIST*
D10*
D11*
X113030000Y-74930000D03*
D12*
X114030000Y-74930000D03*
X113030000Y-75930000D03*
X114030000Y-75930000D03*
X113030000Y-76930000D03*
X114030000Y-76930000D03*
X113030000Y-77930000D03*
X114030000Y-77930000D03*
X113030000Y-78930000D03*
X114030000Y-78930000D03*
X113030000Y-79930000D03*
X114030000Y-79930000D03*
X113030000Y-80930000D03*
X114030000Y-80930000D03*
X113030000Y-81930000D03*
X114030000Y-81930000D03*
X113030000Y-82930000D03*
X114030000Y-82930000D03*
X113030000Y-83930000D03*
X114030000Y-83930000D03*
X113030000Y-84930000D03*
X114030000Y-84930000D03*
X113030000Y-85930000D03*
X114030000Y-85930000D03*
D13*
X152220000Y-91440000D03*
X155120000Y-91440000D03*
X128090000Y-74930000D03*
X130990000Y-74930000D03*
X128090000Y-80010000D03*
X130990000Y-80010000D03*
X128090000Y-85090000D03*
X130990000Y-85090000D03*
X152220000Y-101600000D03*
X155120000Y-101600000D03*
X152220000Y-96520000D03*
X155120000Y-96520000D03*
X128090000Y-107950000D03*
X130990000Y-107950000D03*
X143330000Y-74930000D03*
X146230000Y-74930000D03*
X128090000Y-118110000D03*
X130990000Y-118110000D03*
X128090000Y-113030000D03*
X130990000Y-113030000D03*
X143330000Y-85090000D03*
X146230000Y-85090000D03*
X143330000Y-80010000D03*
X146230000Y-80010000D03*
X143330000Y-107950000D03*
X146230000Y-107950000D03*
X162380000Y-76200000D03*
X165280000Y-76200000D03*
X143330000Y-118110000D03*
X146230000Y-118110000D03*
X143330000Y-113030000D03*
X146230000Y-113030000D03*
X162380000Y-86360000D03*
X165280000Y-86360000D03*
X162380000Y-81280000D03*
X165280000Y-81280000D03*
X161110000Y-107950000D03*
X164010000Y-107950000D03*
X119200000Y-91440000D03*
X122100000Y-91440000D03*
X161110000Y-118110000D03*
X164010000Y-118110000D03*
X161110000Y-113030000D03*
X164010000Y-113030000D03*
X119200000Y-101600000D03*
X122100000Y-101600000D03*
X119200000Y-96520000D03*
X122100000Y-96520000D03*
X111580000Y-107950000D03*
X114480000Y-107950000D03*
X134440000Y-91440000D03*
X137340000Y-91440000D03*
X134440000Y-101600000D03*
X137340000Y-101600000D03*
X134440000Y-96520000D03*
X137340000Y-96520000D03*
X111580000Y-118110000D03*
X114480000Y-118110000D03*
X111580000Y-113030000D03*
X114480000Y-113030000D03*
D14*
X134790000Y-79060000D03*
X134790000Y-80010000D03*
X134790000Y-80960000D03*
X136990000Y-80960000D03*
X136990000Y-79060000D03*
X150030000Y-79060000D03*
X150030000Y-80010000D03*
X150030000Y-80960000D03*
X152230000Y-80960000D03*
X152230000Y-79060000D03*
X169080000Y-80330000D03*
X169080000Y-81280000D03*
X169080000Y-82230000D03*
X171280000Y-82230000D03*
X171280000Y-80330000D03*
X125900000Y-95570000D03*
X125900000Y-96520000D03*
X125900000Y-97470000D03*
X128100000Y-97470000D03*
X128100000Y-95570000D03*
X141140000Y-95570000D03*
X141140000Y-96520000D03*
X141140000Y-97470000D03*
X143340000Y-97470000D03*
X143340000Y-95570000D03*
X158920000Y-95570000D03*
X158920000Y-96520000D03*
X158920000Y-97470000D03*
X161120000Y-97470000D03*
X161120000Y-95570000D03*
X134790000Y-112080000D03*
X134790000Y-113030000D03*
X134790000Y-113980000D03*
X136990000Y-113980000D03*
X136990000Y-112080000D03*
X151300000Y-112080000D03*
X151300000Y-113030000D03*
X151300000Y-113980000D03*
X153500000Y-113980000D03*
X153500000Y-112080000D03*
X170350000Y-112080000D03*
X170350000Y-113030000D03*
X170350000Y-113980000D03*
X172550000Y-113980000D03*
X172550000Y-112080000D03*
X118280000Y-112080000D03*
X118280000Y-113030000D03*
X118280000Y-113980000D03*
X120480000Y-113980000D03*
X120480000Y-112080000D03*
D15*
X121194200Y-90324700D03*
X124865400Y-96378100D03*
X136367700Y-91415400D03*
X120553000Y-82702700D03*
X132677000Y-113969700D03*
X131183300Y-109393000D03*
X133008700Y-105405700D03*
X119301400Y-103734700D03*
X121473800Y-105453500D03*
X126993900Y-79049300D03*
X110808500Y-75757000D03*
X162294300Y-83376600D03*
X110735600Y-76698300D03*
X118424600Y-95255100D03*
X114346900Y-97303400D03*
X119742300Y-110736300D03*
X138491200Y-114982700D03*
X115579600Y-113262000D03*
X125780500Y-94291300D03*
X132995600Y-89957500D03*
X131245200Y-87186700D03*
X142558400Y-86352800D03*
X142470900Y-93954700D03*
X136990000Y-78229500D03*
X129540000Y-111798000D03*
X128090000Y-109318400D03*
D16*
X113030000Y-74842100D02*
X113030000Y-74930000D01*
X114117500Y-73754600D02*
X113030000Y-74842100D01*
X129039300Y-73754600D02*
X114117500Y-73754600D01*
X130214700Y-74930000D02*
X129039300Y-73754600D01*
X130990000Y-74930000D02*
X130214700Y-74930000D01*
X134584500Y-74930000D02*
X130990000Y-74930000D01*
X137874100Y-78219600D02*
X134584500Y-74930000D01*
X137874100Y-79494700D02*
X137874100Y-78219600D01*
X137059200Y-80309600D02*
X137874100Y-79494700D01*
X136295700Y-80309600D02*
X137059200Y-80309600D01*
X135645300Y-80960000D02*
X136295700Y-80309600D01*
X134790000Y-80960000D02*
X135645300Y-80960000D01*
X150030000Y-80960000D02*
X149174700Y-80960000D01*
X146230000Y-78834600D02*
X146230000Y-74930000D01*
X147049300Y-78834600D02*
X146230000Y-78834600D01*
X149174700Y-80960000D02*
X147049300Y-78834600D01*
X145599100Y-78834600D02*
X146230000Y-78834600D01*
X145011400Y-79422300D02*
X145599100Y-78834600D01*
X145011400Y-80097300D02*
X145011400Y-79422300D01*
X138033700Y-87075000D02*
X145011400Y-80097300D01*
X132241300Y-87075000D02*
X138033700Y-87075000D01*
X131504300Y-87812000D02*
X132241300Y-87075000D01*
X130986200Y-87812000D02*
X131504300Y-87812000D01*
X130695000Y-87520800D02*
X130986200Y-87812000D01*
X128099900Y-87520800D02*
X130695000Y-87520800D01*
X115509100Y-74930000D02*
X128099900Y-87520800D01*
X114030000Y-74930000D02*
X115509100Y-74930000D01*
X113030000Y-75930000D02*
X112279700Y-75930000D01*
X165280000Y-76200000D02*
X164504700Y-76200000D01*
X166270500Y-76200000D02*
X165280000Y-76200000D01*
X169985300Y-79914800D02*
X166270500Y-76200000D01*
X169985300Y-80415600D02*
X169985300Y-79914800D01*
X170649900Y-81080200D02*
X169985300Y-80415600D01*
X171485500Y-81080200D02*
X170649900Y-81080200D01*
X172169600Y-81764300D02*
X171485500Y-81080200D01*
X172169600Y-82681600D02*
X172169600Y-81764300D01*
X171970800Y-82880400D02*
X172169600Y-82681600D01*
X170585700Y-82880400D02*
X171970800Y-82880400D01*
X169935300Y-82230000D02*
X170585700Y-82880400D01*
X112279700Y-74339900D02*
X112279700Y-75930000D01*
X113768000Y-72851600D02*
X112279700Y-74339900D01*
X161156300Y-72851600D02*
X113768000Y-72851600D01*
X164504700Y-76200000D02*
X161156300Y-72851600D01*
X169080000Y-82230000D02*
X169935300Y-82230000D01*
X121254200Y-90264700D02*
X122100000Y-90264700D01*
X121194200Y-90324700D02*
X121254200Y-90264700D01*
X125900000Y-97470000D02*
X125044700Y-97470000D01*
X125044700Y-96557400D02*
X124865400Y-96378100D01*
X125044700Y-97470000D02*
X125044700Y-96557400D01*
X122100000Y-91440000D02*
X122100000Y-90264700D01*
X137340000Y-94525300D02*
X137340000Y-91440000D01*
X140284700Y-97470000D02*
X137340000Y-94525300D01*
X141140000Y-97470000D02*
X140284700Y-97470000D01*
X136392300Y-91440000D02*
X136367700Y-91415400D01*
X137340000Y-91440000D02*
X136392300Y-91440000D01*
X155120000Y-91440000D02*
X154344700Y-91440000D01*
X156114000Y-91440000D02*
X155120000Y-91440000D01*
X159775300Y-95101300D02*
X156114000Y-91440000D01*
X159775300Y-97470000D02*
X159775300Y-95101300D01*
X158920000Y-97470000D02*
X159775300Y-97470000D01*
X151202600Y-88297900D02*
X154344700Y-91440000D01*
X132292200Y-88297900D02*
X151202600Y-88297900D01*
X131877500Y-88712600D02*
X132292200Y-88297900D01*
X130613000Y-88712600D02*
X131877500Y-88712600D01*
X130321800Y-88421400D02*
X130613000Y-88712600D01*
X126271700Y-88421400D02*
X130321800Y-88421400D01*
X120553000Y-82702700D02*
X126271700Y-88421400D01*
X132687300Y-113980000D02*
X132677000Y-113969700D01*
X134790000Y-113980000D02*
X132687300Y-113980000D01*
X130990000Y-109199700D02*
X130990000Y-107950000D01*
X131183300Y-109393000D02*
X130990000Y-109199700D01*
X127075100Y-104810400D02*
X130214700Y-107950000D01*
X118795000Y-104810400D02*
X127075100Y-104810400D01*
X110109900Y-96125300D02*
X118795000Y-104810400D01*
X110109900Y-75559500D02*
X110109900Y-96125300D01*
X110577700Y-75091700D02*
X110109900Y-75559500D01*
X111093800Y-75091700D02*
X110577700Y-75091700D01*
X111552000Y-75549900D02*
X111093800Y-75091700D01*
X111552000Y-75863600D02*
X111552000Y-75549900D01*
X112279700Y-76591300D02*
X111552000Y-75863600D01*
X112279700Y-77930000D02*
X112279700Y-76591300D01*
X113030000Y-77930000D02*
X112279700Y-77930000D01*
X130990000Y-107950000D02*
X130214700Y-107950000D01*
X151376100Y-107950000D02*
X147005300Y-107950000D01*
X154814400Y-111388300D02*
X151376100Y-107950000D01*
X154814400Y-114011800D02*
X154814400Y-111388300D01*
X154192700Y-114633500D02*
X154814400Y-114011800D01*
X151953500Y-114633500D02*
X154192700Y-114633500D01*
X151300000Y-113980000D02*
X151953500Y-114633500D01*
X146230000Y-107950000D02*
X146617700Y-107950000D01*
X146617700Y-107950000D02*
X147005300Y-107950000D01*
X144073400Y-105405700D02*
X133008700Y-105405700D01*
X146617700Y-107950000D02*
X144073400Y-105405700D01*
X170350000Y-113980000D02*
X169494700Y-113980000D01*
X164010000Y-107950000D02*
X164785300Y-107950000D01*
X164785300Y-111854600D02*
X164785300Y-107950000D01*
X167369300Y-111854600D02*
X164785300Y-111854600D01*
X169494700Y-113980000D02*
X167369300Y-111854600D01*
X149863900Y-103734700D02*
X119301400Y-103734700D01*
X160334600Y-114205400D02*
X149863900Y-103734700D01*
X161751100Y-114205400D02*
X160334600Y-114205400D01*
X162308700Y-113647800D02*
X161751100Y-114205400D01*
X162308700Y-112930700D02*
X162308700Y-113647800D01*
X163384800Y-111854600D02*
X162308700Y-112930700D01*
X164785300Y-111854600D02*
X163384800Y-111854600D01*
X118280000Y-113980000D02*
X117424700Y-113980000D01*
X114480000Y-107950000D02*
X115255300Y-107950000D01*
X117258300Y-109669000D02*
X121473800Y-105453500D01*
X116974300Y-109669000D02*
X117258300Y-109669000D01*
X116974300Y-113529600D02*
X116974300Y-109669000D01*
X117424700Y-113980000D02*
X116974300Y-113529600D01*
X116974300Y-109669000D02*
X115255300Y-107950000D01*
X130990000Y-85090000D02*
X130214700Y-85090000D01*
X128090000Y-80010000D02*
X127427300Y-80010000D01*
X128995100Y-86309600D02*
X130214700Y-85090000D01*
X127544100Y-86309600D02*
X128995100Y-86309600D01*
X127314700Y-86080200D02*
X127544100Y-86309600D01*
X127314700Y-80010000D02*
X127314700Y-86080200D01*
X127427300Y-80010000D02*
X127314700Y-80010000D01*
X126993900Y-79689200D02*
X126993900Y-79049300D01*
X127314700Y-80010000D02*
X126993900Y-79689200D01*
X113030000Y-79930000D02*
X112279700Y-79930000D01*
X111829400Y-79479700D02*
X112279700Y-79930000D01*
X111829400Y-76777900D02*
X111829400Y-79479700D01*
X110808500Y-75757000D02*
X111829400Y-76777900D01*
X143330000Y-85090000D02*
X142554700Y-85090000D01*
X143330000Y-82910000D02*
X143330000Y-85090000D01*
X146230000Y-80010000D02*
X143330000Y-82910000D01*
X140084200Y-87560500D02*
X142554700Y-85090000D01*
X132392700Y-87560500D02*
X140084200Y-87560500D01*
X131690900Y-88262300D02*
X132392700Y-87560500D01*
X130799600Y-88262300D02*
X131690900Y-88262300D01*
X130508400Y-87971100D02*
X130799600Y-88262300D01*
X127349200Y-87971100D02*
X130508400Y-87971100D01*
X119308100Y-79930000D02*
X127349200Y-87971100D01*
X114030000Y-79930000D02*
X119308100Y-79930000D01*
X162380000Y-86360000D02*
X163155300Y-86360000D01*
X165280000Y-81280000D02*
X164504700Y-81280000D01*
X164504700Y-81667600D02*
X164504700Y-81280000D01*
X162545000Y-83627300D02*
X164504700Y-81667600D01*
X162545000Y-83627300D02*
X162294300Y-83376600D01*
X110735600Y-79385900D02*
X112279700Y-80930000D01*
X110735600Y-76698300D02*
X110735600Y-79385900D01*
X163155300Y-84237600D02*
X162545000Y-83627300D01*
X163155300Y-86360000D02*
X163155300Y-84237600D01*
X113030000Y-80930000D02*
X112279700Y-80930000D01*
X119200000Y-101600000D02*
X119975300Y-101600000D01*
X122100000Y-96520000D02*
X121324700Y-96520000D01*
X119975300Y-97720500D02*
X119975300Y-101600000D01*
X120124200Y-97720500D02*
X119975300Y-97720500D01*
X121324700Y-96520000D02*
X120124200Y-97720500D01*
X118424600Y-97504700D02*
X118424600Y-95255100D01*
X118640400Y-97720500D02*
X118424600Y-97504700D01*
X119975300Y-97720500D02*
X118640400Y-97720500D01*
X134440000Y-101600000D02*
X135215300Y-101600000D01*
X114346900Y-98515600D02*
X114346900Y-97303400D01*
X118705600Y-102874300D02*
X114346900Y-98515600D01*
X133235900Y-102874300D02*
X118705600Y-102874300D01*
X133594600Y-103233000D02*
X133235900Y-102874300D01*
X137504200Y-103233000D02*
X133594600Y-103233000D01*
X138115400Y-102621800D02*
X137504200Y-103233000D01*
X138115400Y-100547100D02*
X138115400Y-102621800D01*
X137191800Y-99623500D02*
X138115400Y-100547100D01*
X137340000Y-99475300D02*
X137191800Y-99623500D01*
X137340000Y-96520000D02*
X137340000Y-99475300D01*
X137191800Y-99623500D02*
X135215300Y-101600000D01*
X155120000Y-96520000D02*
X154344700Y-96520000D01*
X152220000Y-101600000D02*
X152995300Y-101600000D01*
X114030000Y-81930000D02*
X114780300Y-81930000D01*
X152995300Y-97695400D02*
X152995300Y-101600000D01*
X153169300Y-97695400D02*
X154344700Y-96520000D01*
X152995300Y-97695400D02*
X153169300Y-97695400D01*
X147811400Y-97695400D02*
X152995300Y-97695400D01*
X138889900Y-88773900D02*
X147811400Y-97695400D01*
X132453100Y-88773900D02*
X138889900Y-88773900D01*
X132064100Y-89162900D02*
X132453100Y-88773900D01*
X130426400Y-89162900D02*
X132064100Y-89162900D01*
X130135200Y-88871700D02*
X130426400Y-89162900D01*
X121722000Y-88871700D02*
X130135200Y-88871700D01*
X114780300Y-81930000D02*
X121722000Y-88871700D01*
X130990000Y-113030000D02*
X130214700Y-113030000D01*
X128090000Y-118110000D02*
X128865300Y-118110000D01*
X128865300Y-114273300D02*
X128865300Y-118110000D01*
X128971400Y-114273300D02*
X128865300Y-114273300D01*
X130214700Y-113030000D02*
X128971400Y-114273300D01*
X122714100Y-110736300D02*
X119742300Y-110736300D01*
X126251100Y-114273300D02*
X122714100Y-110736300D01*
X128865300Y-114273300D02*
X126251100Y-114273300D01*
X143330000Y-118110000D02*
X144105300Y-118110000D01*
X144105300Y-114982700D02*
X144105300Y-118110000D01*
X145454700Y-113633300D02*
X144105300Y-114982700D01*
X145454700Y-113030000D02*
X145454700Y-113633300D01*
X146230000Y-113030000D02*
X145454700Y-113030000D01*
X144105300Y-114982700D02*
X138491200Y-114982700D01*
X164010000Y-113030000D02*
X163234700Y-113030000D01*
X161110000Y-118110000D02*
X161885300Y-118110000D01*
X113030000Y-83930000D02*
X112279700Y-83930000D01*
X161885300Y-115370300D02*
X161885300Y-118110000D01*
X163234700Y-114020900D02*
X161885300Y-115370300D01*
X163234700Y-113030000D02*
X163234700Y-114020900D01*
X112279700Y-97597300D02*
X112279700Y-83930000D01*
X119042400Y-104360000D02*
X112279700Y-97597300D01*
X148796400Y-104360000D02*
X119042400Y-104360000D01*
X159806700Y-115370300D02*
X148796400Y-104360000D01*
X161885300Y-115370300D02*
X159806700Y-115370300D01*
X114480000Y-113030000D02*
X115255300Y-113030000D01*
X111580000Y-118110000D02*
X112355300Y-118110000D01*
X115483900Y-113258600D02*
X115483900Y-113262000D01*
X115255300Y-113030000D02*
X115483900Y-113258600D01*
X115483900Y-114981400D02*
X112355300Y-118110000D01*
X115483900Y-113262000D02*
X115483900Y-114981400D01*
X115483900Y-113262000D02*
X115579600Y-113262000D01*
X120052400Y-113980000D02*
X119624700Y-113980000D01*
X120052400Y-113980000D02*
X120480000Y-113980000D01*
X135645300Y-113490600D02*
X135645300Y-113030000D01*
X136134700Y-113980000D02*
X135645300Y-113490600D01*
X136990000Y-113980000D02*
X136134700Y-113980000D01*
X134790000Y-113030000D02*
X135645300Y-113030000D01*
X143340000Y-97470000D02*
X142484700Y-97470000D01*
X119624700Y-113632000D02*
X119624700Y-113980000D01*
X119022700Y-113030000D02*
X119624700Y-113632000D01*
X118595100Y-113030000D02*
X119022700Y-113030000D01*
X113030000Y-85930000D02*
X113030000Y-86680300D01*
X134790000Y-80010000D02*
X133934700Y-80010000D01*
X116252100Y-89902400D02*
X113030000Y-86680300D01*
X119482300Y-89902400D02*
X116252100Y-89902400D01*
X120568800Y-90988900D02*
X119482300Y-89902400D01*
X120568800Y-91699000D02*
X120568800Y-90988900D01*
X123161100Y-94291300D02*
X120568800Y-91699000D01*
X125780500Y-94291300D02*
X123161100Y-94291300D01*
X128100000Y-97470000D02*
X127244700Y-97470000D01*
X141140000Y-96520000D02*
X141882700Y-96520000D01*
X150030000Y-80010000D02*
X150885300Y-80010000D01*
X152230000Y-80960000D02*
X152657700Y-80960000D01*
X152657700Y-80960000D02*
X153085300Y-80960000D01*
X152991300Y-78408300D02*
X150885300Y-78408300D01*
X153099000Y-78516000D02*
X152991300Y-78408300D01*
X153099000Y-80518700D02*
X153099000Y-78516000D01*
X152657700Y-80960000D02*
X153099000Y-80518700D01*
X150885300Y-78408300D02*
X150885300Y-80010000D01*
X167397800Y-81280000D02*
X169080000Y-81280000D01*
X166188800Y-80071000D02*
X167397800Y-81280000D01*
X164714500Y-80071000D02*
X166188800Y-80071000D01*
X163830000Y-80955500D02*
X164714500Y-80071000D01*
X163830000Y-81664900D02*
X163830000Y-80955500D01*
X163039500Y-82455400D02*
X163830000Y-81664900D01*
X154580700Y-82455400D02*
X163039500Y-82455400D01*
X153085300Y-80960000D02*
X154580700Y-82455400D01*
X170885300Y-82230000D02*
X171280000Y-82230000D01*
X169935300Y-81280000D02*
X170885300Y-82230000D01*
X169080000Y-81280000D02*
X169935300Y-81280000D01*
X171044400Y-114630300D02*
X171694700Y-113980000D01*
X165679500Y-114630300D02*
X171044400Y-114630300D01*
X162335700Y-117974100D02*
X165679500Y-114630300D01*
X162335700Y-118662800D02*
X162335700Y-117974100D01*
X161713100Y-119285400D02*
X162335700Y-118662800D01*
X155255900Y-119285400D02*
X161713100Y-119285400D01*
X150444700Y-114474200D02*
X155255900Y-119285400D01*
X150444700Y-113030000D02*
X150444700Y-114474200D01*
X151300000Y-113030000D02*
X150444700Y-113030000D01*
X172550000Y-113980000D02*
X172122400Y-113980000D01*
X172122400Y-113980000D02*
X171694700Y-113980000D01*
X170350000Y-113030000D02*
X171092700Y-113030000D01*
X126755300Y-95106000D02*
X126755300Y-96520000D01*
X125940600Y-94291300D02*
X126755300Y-95106000D01*
X125780500Y-94291300D02*
X125940600Y-94291300D01*
X125900000Y-96520000D02*
X126755300Y-96520000D01*
X126755300Y-96980600D02*
X127244700Y-97470000D01*
X126755300Y-96520000D02*
X126755300Y-96980600D01*
X133934700Y-81493500D02*
X134097900Y-81656700D01*
X133934700Y-80010000D02*
X133934700Y-81493500D01*
X136293300Y-81656700D02*
X136990000Y-80960000D01*
X134097900Y-81656700D02*
X136293300Y-81656700D01*
X118595100Y-113030000D02*
X118280000Y-113030000D01*
X118280000Y-113030000D02*
X117424700Y-113030000D01*
X135645300Y-111605300D02*
X135645300Y-113030000D01*
X152155300Y-113490600D02*
X152155300Y-113030000D01*
X152644700Y-113980000D02*
X152155300Y-113490600D01*
X153500000Y-113980000D02*
X152644700Y-113980000D01*
X151300000Y-113030000D02*
X152155300Y-113030000D01*
X141882700Y-96520000D02*
X141995200Y-96520000D01*
X142484700Y-97009500D02*
X142484700Y-97470000D01*
X141995200Y-96520000D02*
X142484700Y-97009500D01*
X133138900Y-89814200D02*
X132995600Y-89957500D01*
X138182500Y-89814200D02*
X133138900Y-89814200D01*
X140482500Y-92114200D02*
X138182500Y-89814200D01*
X140482500Y-93529600D02*
X140482500Y-92114200D01*
X141995400Y-95042500D02*
X140482500Y-93529600D01*
X141995400Y-96519800D02*
X141995400Y-95042500D01*
X141995200Y-96520000D02*
X141995400Y-96519800D01*
X136990000Y-80960000D02*
X137845300Y-80960000D01*
X142477900Y-76327400D02*
X137845300Y-80960000D01*
X142477900Y-73963800D02*
X142477900Y-76327400D01*
X143139700Y-73302000D02*
X142477900Y-73963800D01*
X147075500Y-73302000D02*
X143139700Y-73302000D01*
X150885300Y-77111800D02*
X147075500Y-73302000D01*
X150885300Y-78408300D02*
X150885300Y-77111800D01*
X171205300Y-113062900D02*
X172122400Y-113980000D01*
X171205300Y-113030000D02*
X171205300Y-113062900D01*
X171092700Y-113030000D02*
X171205300Y-113030000D01*
X158920000Y-96520000D02*
X158064700Y-96520000D01*
X158181500Y-98120300D02*
X157914900Y-97853700D01*
X159777100Y-98120300D02*
X158181500Y-98120300D01*
X160264700Y-97632700D02*
X159777100Y-98120300D01*
X160264700Y-97470000D02*
X160264700Y-97632700D01*
X157914900Y-96669800D02*
X158064700Y-96520000D01*
X157914900Y-97853700D02*
X157914900Y-96669800D01*
X161120000Y-97470000D02*
X160264700Y-97470000D01*
X143340000Y-97470000D02*
X144195300Y-97470000D01*
X149500700Y-102775400D02*
X144195300Y-97470000D01*
X154153900Y-102775400D02*
X149500700Y-102775400D01*
X154344600Y-102584700D02*
X154153900Y-102775400D01*
X154535200Y-102775300D02*
X154344600Y-102584700D01*
X162422200Y-102775300D02*
X154535200Y-102775300D01*
X171205300Y-111558400D02*
X162422200Y-102775300D01*
X171205300Y-113030000D02*
X171205300Y-111558400D01*
X157101000Y-97853700D02*
X157914900Y-97853700D01*
X154344600Y-100610100D02*
X157101000Y-97853700D01*
X154344600Y-102584700D02*
X154344600Y-100610100D01*
X117424700Y-111540000D02*
X117424700Y-113030000D01*
X118853700Y-110111000D02*
X117424700Y-111540000D01*
X134151000Y-110111000D02*
X118853700Y-110111000D01*
X135645300Y-111605300D02*
X134151000Y-110111000D01*
X140941400Y-106309200D02*
X135645300Y-111605300D01*
X144183500Y-106309200D02*
X140941400Y-106309200D01*
X145388800Y-107514500D02*
X144183500Y-106309200D01*
X145388800Y-108896500D02*
X145388800Y-107514500D01*
X145866700Y-109374400D02*
X145388800Y-108896500D01*
X152163600Y-109374400D02*
X145866700Y-109374400D01*
X154355400Y-111566200D02*
X152163600Y-109374400D01*
X154355400Y-113124600D02*
X154355400Y-111566200D01*
X153500000Y-113980000D02*
X154355400Y-113124600D01*
X134097900Y-84334000D02*
X131245200Y-87186700D01*
X134097900Y-81656700D02*
X134097900Y-84334000D01*
X128100000Y-95570000D02*
X128955300Y-95570000D01*
X171280000Y-80330000D02*
X172135300Y-80330000D01*
X165280000Y-86360000D02*
X164504700Y-86360000D01*
X152230000Y-79060000D02*
X151374700Y-79060000D01*
X172641900Y-80836600D02*
X172135300Y-80330000D01*
X172641900Y-82884400D02*
X172641900Y-80836600D01*
X169166300Y-86360000D02*
X172641900Y-82884400D01*
X165280000Y-86360000D02*
X169166300Y-86360000D01*
X146230000Y-118110000D02*
X147005300Y-118110000D01*
X169743500Y-118110000D02*
X164010000Y-118110000D01*
X173405300Y-114448200D02*
X169743500Y-118110000D01*
X173405300Y-112080000D02*
X173405300Y-114448200D01*
X148670300Y-119775000D02*
X147005300Y-118110000D01*
X161860400Y-119775000D02*
X148670300Y-119775000D01*
X163234700Y-118400700D02*
X161860400Y-119775000D01*
X163234700Y-118110000D02*
X163234700Y-118400700D01*
X146230000Y-118110000D02*
X145454700Y-118110000D01*
X151355200Y-79079500D02*
X151355200Y-83263300D01*
X151374700Y-79060000D02*
X151355200Y-79079500D01*
X146230000Y-85090000D02*
X147005300Y-85090000D01*
X146230000Y-85090000D02*
X146230000Y-86265300D01*
X172977700Y-112080000D02*
X172977500Y-112080000D01*
X172977700Y-112080000D02*
X173405300Y-112080000D01*
X172763800Y-112080000D02*
X172977500Y-112080000D01*
X164010000Y-118110000D02*
X163234700Y-118110000D01*
X120480000Y-112080000D02*
X121335300Y-112080000D01*
X121847900Y-112592600D02*
X121847900Y-114577400D01*
X121335300Y-112080000D02*
X121847900Y-112592600D01*
X118315300Y-118110000D02*
X114480000Y-118110000D01*
X121847900Y-114577400D02*
X118315300Y-118110000D01*
X126555900Y-119285400D02*
X121847900Y-114577400D01*
X129039300Y-119285400D02*
X126555900Y-119285400D01*
X130214700Y-118110000D02*
X129039300Y-119285400D01*
X130990000Y-118110000D02*
X130214700Y-118110000D01*
X130990000Y-118110000D02*
X131765300Y-118110000D01*
X161120000Y-95570000D02*
X161547700Y-95570000D01*
X157167500Y-89075600D02*
X161547700Y-89075600D01*
X151355200Y-83263300D02*
X157167500Y-89075600D01*
X161789100Y-89075600D02*
X164504700Y-86360000D01*
X161547700Y-89075600D02*
X161789100Y-89075600D01*
X148832000Y-83263300D02*
X151355200Y-83263300D01*
X147005300Y-85090000D02*
X148832000Y-83263300D01*
X172763800Y-112080000D02*
X172550000Y-112080000D01*
X172550000Y-112080000D02*
X171694700Y-112080000D01*
X171694700Y-111331600D02*
X161963100Y-101600000D01*
X171694700Y-112080000D02*
X171694700Y-111331600D01*
X161963100Y-101600000D02*
X155120000Y-101600000D01*
X161547700Y-95570000D02*
X161547700Y-89075600D01*
X161975400Y-101587700D02*
X161963100Y-101600000D01*
X161975400Y-95997700D02*
X161975400Y-101587700D01*
X161547700Y-95570000D02*
X161975400Y-95997700D01*
X143340000Y-95570000D02*
X142484700Y-95570000D01*
X142484700Y-93968500D02*
X142470900Y-93954700D01*
X142484700Y-95570000D02*
X142484700Y-93968500D01*
X142645900Y-86265300D02*
X142558400Y-86352800D01*
X146230000Y-86265300D02*
X142645900Y-86265300D01*
X136990000Y-79060000D02*
X136990000Y-78409600D01*
X136990000Y-78409600D02*
X136990000Y-78229500D01*
X133365700Y-78409600D02*
X131765300Y-80010000D01*
X136990000Y-78409600D02*
X133365700Y-78409600D01*
X130990000Y-80010000D02*
X131765300Y-80010000D01*
X144279300Y-119285400D02*
X145454700Y-118110000D01*
X140208700Y-119285400D02*
X144279300Y-119285400D01*
X137845300Y-116922000D02*
X140208700Y-119285400D01*
X136657300Y-118110000D02*
X137845300Y-116922000D01*
X131765300Y-118110000D02*
X136657300Y-118110000D01*
X137845300Y-116922000D02*
X137845300Y-112080000D01*
X136990000Y-112080000D02*
X137845300Y-112080000D01*
X137845300Y-111632900D02*
X137845300Y-112080000D01*
X142703600Y-106774600D02*
X137845300Y-111632900D01*
X143935000Y-106774600D02*
X142703600Y-106774600D01*
X144218000Y-107057600D02*
X143935000Y-106774600D01*
X144218000Y-108362600D02*
X144218000Y-107057600D01*
X146708700Y-110853300D02*
X144218000Y-108362600D01*
X151418000Y-110853300D02*
X146708700Y-110853300D01*
X152644700Y-112080000D02*
X151418000Y-110853300D01*
X153500000Y-112080000D02*
X152644700Y-112080000D01*
X118302300Y-89452000D02*
X114780300Y-85930000D01*
X125324100Y-89452000D02*
X118302300Y-89452000D01*
X128955300Y-93083200D02*
X125324100Y-89452000D01*
X132725400Y-89313100D02*
X128955300Y-93083200D01*
X138349600Y-89313100D02*
X132725400Y-89313100D01*
X142470900Y-93434400D02*
X138349600Y-89313100D01*
X142470900Y-93954700D02*
X142470900Y-93434400D01*
X114030000Y-85930000D02*
X114405200Y-85930000D01*
X114405200Y-85930000D02*
X114780300Y-85930000D01*
X114155500Y-85680300D02*
X114030000Y-85680300D01*
X114405200Y-85930000D02*
X114155500Y-85680300D01*
X114030000Y-84930000D02*
X114030000Y-85680300D01*
X128955300Y-93083200D02*
X128955300Y-95570000D01*
X137340000Y-101600000D02*
X136564700Y-101600000D01*
X128955300Y-95570000D02*
X128955300Y-97956800D01*
X125312100Y-101600000D02*
X122100000Y-101600000D01*
X128955300Y-97956800D02*
X125312100Y-101600000D01*
X133657500Y-102659000D02*
X128955300Y-97956800D01*
X133725500Y-102659000D02*
X133657500Y-102659000D01*
X133841800Y-102775300D02*
X133725500Y-102659000D01*
X135389400Y-102775300D02*
X133841800Y-102775300D01*
X136564700Y-101600000D02*
X135389400Y-102775300D01*
X158920000Y-95570000D02*
X158064700Y-95570000D01*
X152220000Y-96520000D02*
X152995300Y-96520000D01*
X154170700Y-92615400D02*
X152995300Y-91440000D01*
X154170700Y-95344600D02*
X154170700Y-92615400D01*
X157839300Y-95344600D02*
X154170700Y-95344600D01*
X158064700Y-95570000D02*
X157839300Y-95344600D01*
X154170700Y-95344600D02*
X152995300Y-96520000D01*
X152220000Y-91440000D02*
X152995300Y-91440000D01*
X134790000Y-79060000D02*
X133934700Y-79060000D01*
X128090000Y-85090000D02*
X128865300Y-85090000D01*
X128090000Y-74930000D02*
X128865300Y-74930000D01*
X131751600Y-81243100D02*
X129765200Y-81243100D01*
X133934700Y-79060000D02*
X131751600Y-81243100D01*
X129765200Y-75829900D02*
X128865300Y-74930000D01*
X129765200Y-81243100D02*
X129765200Y-75829900D01*
X128865300Y-82143000D02*
X128865300Y-85090000D01*
X129765200Y-81243100D02*
X128865300Y-82143000D01*
X134790000Y-112080000D02*
X133934700Y-112080000D01*
X128090000Y-113030000D02*
X128865300Y-113030000D01*
X133652700Y-111798000D02*
X133934700Y-112080000D01*
X129540000Y-111798000D02*
X133652700Y-111798000D01*
X129540000Y-112355300D02*
X129540000Y-111798000D01*
X128865300Y-113030000D02*
X129540000Y-112355300D01*
X128090000Y-109318400D02*
X128090000Y-107950000D01*
X145280700Y-73754600D02*
X144105300Y-74930000D01*
X146815400Y-73754600D02*
X145280700Y-73754600D01*
X149174700Y-76113900D02*
X146815400Y-73754600D01*
X149174700Y-79060000D02*
X149174700Y-76113900D01*
X150030000Y-79060000D02*
X149174700Y-79060000D01*
X143330000Y-74930000D02*
X143717700Y-74930000D01*
X143717700Y-74930000D02*
X144105300Y-74930000D01*
X143717700Y-78447000D02*
X143330000Y-78834700D01*
X143717700Y-74930000D02*
X143717700Y-78447000D01*
X143330000Y-80010000D02*
X143330000Y-78834700D01*
X151300000Y-112080000D02*
X150444700Y-112080000D01*
X143330000Y-113030000D02*
X144105300Y-113030000D01*
X143330000Y-109903900D02*
X143330000Y-107950000D01*
X145280700Y-111854600D02*
X143330000Y-109903900D01*
X150219300Y-111854600D02*
X145280700Y-111854600D01*
X150444700Y-112080000D02*
X150219300Y-111854600D01*
X145280700Y-111854600D02*
X144105300Y-113030000D01*
X169080000Y-80330000D02*
X168224700Y-80330000D01*
X162380000Y-76200000D02*
X163155300Y-76200000D01*
X162380000Y-81280000D02*
X163155300Y-81280000D01*
X167515400Y-79620700D02*
X163814100Y-79620700D01*
X168224700Y-80330000D02*
X167515400Y-79620700D01*
X163155300Y-80279500D02*
X163814100Y-79620700D01*
X163155300Y-81280000D02*
X163155300Y-80279500D01*
X163814100Y-76858800D02*
X163155300Y-76200000D01*
X163814100Y-79620700D02*
X163814100Y-76858800D01*
X161110000Y-113030000D02*
X161110000Y-107950000D01*
X163060700Y-106774600D02*
X161885300Y-107950000D01*
X164595700Y-106774600D02*
X163060700Y-106774600D01*
X169494700Y-111673600D02*
X164595700Y-106774600D01*
X169494700Y-112080000D02*
X169494700Y-111673600D01*
X161110000Y-107950000D02*
X161885300Y-107950000D01*
X170350000Y-112080000D02*
X169494700Y-112080000D01*
X125900000Y-95570000D02*
X125044700Y-95570000D01*
X119200000Y-96520000D02*
X119975300Y-96520000D01*
X121150700Y-95344600D02*
X119975300Y-96520000D01*
X124819300Y-95344600D02*
X121150700Y-95344600D01*
X125044700Y-95570000D02*
X124819300Y-95344600D01*
X119200000Y-93393900D02*
X119200000Y-91440000D01*
X121150700Y-95344600D02*
X119200000Y-93393900D01*
X118280000Y-112080000D02*
X119135300Y-112080000D01*
X111580000Y-113030000D02*
X112355300Y-113030000D01*
X113530700Y-109125400D02*
X112355300Y-107950000D01*
X113530700Y-111854600D02*
X113530700Y-109125400D01*
X115078500Y-111854600D02*
X113530700Y-111854600D01*
X116523900Y-113300000D02*
X115078500Y-111854600D01*
X116523900Y-113782000D02*
X116523900Y-113300000D01*
X117384100Y-114642200D02*
X116523900Y-113782000D01*
X121146200Y-114642200D02*
X117384100Y-114642200D01*
X121335400Y-114453000D02*
X121146200Y-114642200D01*
X121335400Y-113494500D02*
X121335400Y-114453000D01*
X120862800Y-113021900D02*
X121335400Y-113494500D01*
X120077200Y-113021900D02*
X120862800Y-113021900D01*
X119135300Y-112080000D02*
X120077200Y-113021900D01*
X113530700Y-111854600D02*
X112355300Y-113030000D01*
X111580000Y-107950000D02*
X112355300Y-107950000D01*
X134440000Y-91440000D02*
X134827700Y-91440000D01*
X134827700Y-91440000D02*
X135215300Y-91440000D01*
X134827700Y-94957000D02*
X134440000Y-95344700D01*
X134827700Y-91440000D02*
X134827700Y-94957000D01*
X134440000Y-96520000D02*
X134440000Y-95344700D01*
X141140000Y-95570000D02*
X140284700Y-95570000D01*
X139807100Y-95092400D02*
X140284700Y-95570000D01*
X139807100Y-92107000D02*
X139807100Y-95092400D01*
X137964700Y-90264600D02*
X139807100Y-92107000D01*
X136390700Y-90264600D02*
X137964700Y-90264600D01*
X135215300Y-91440000D02*
X136390700Y-90264600D01*
D17*
G36*
X180900000Y-123750000D02*
X104850000Y-123750000D01*
X104850000Y-75559500D01*
X109349900Y-75559500D01*
X109349900Y-96125300D01*
X109407752Y-96416139D01*
X109572499Y-96662701D01*
X118257599Y-105347801D01*
X118504160Y-105512548D01*
X118795000Y-105570400D01*
X120282098Y-105570400D01*
X117116300Y-108736198D01*
X115792701Y-107412599D01*
X115577440Y-107268767D01*
X115577440Y-107100000D01*
X115533162Y-106864683D01*
X115394090Y-106648559D01*
X115181890Y-106503569D01*
X114930000Y-106452560D01*
X114030000Y-106452560D01*
X113794683Y-106496838D01*
X113578559Y-106635910D01*
X113433569Y-106848110D01*
X113382560Y-107100000D01*
X113382560Y-107902458D01*
X112892701Y-107412599D01*
X112677440Y-107268767D01*
X112677440Y-107100000D01*
X112633162Y-106864683D01*
X112494090Y-106648559D01*
X112281890Y-106503569D01*
X112030000Y-106452560D01*
X111130000Y-106452560D01*
X110894683Y-106496838D01*
X110678559Y-106635910D01*
X110533569Y-106848110D01*
X110482560Y-107100000D01*
X110482560Y-108800000D01*
X110526838Y-109035317D01*
X110665910Y-109251441D01*
X110878110Y-109396431D01*
X111130000Y-109447440D01*
X112030000Y-109447440D01*
X112265317Y-109403162D01*
X112481441Y-109264090D01*
X112527369Y-109196871D01*
X112770700Y-109440202D01*
X112770700Y-111539798D01*
X112528486Y-111782012D01*
X112494090Y-111728559D01*
X112281890Y-111583569D01*
X112030000Y-111532560D01*
X111130000Y-111532560D01*
X110894683Y-111576838D01*
X110678559Y-111715910D01*
X110533569Y-111928110D01*
X110482560Y-112180000D01*
X110482560Y-113880000D01*
X110526838Y-114115317D01*
X110665910Y-114331441D01*
X110878110Y-114476431D01*
X111130000Y-114527440D01*
X112030000Y-114527440D01*
X112265317Y-114483162D01*
X112481441Y-114344090D01*
X112626431Y-114131890D01*
X112677440Y-113880000D01*
X112677440Y-113711233D01*
X112892701Y-113567401D01*
X113382560Y-113077542D01*
X113382560Y-113880000D01*
X113426838Y-114115317D01*
X113565910Y-114331441D01*
X113778110Y-114476431D01*
X114030000Y-114527440D01*
X114723900Y-114527440D01*
X114723900Y-114666598D01*
X112528486Y-116862012D01*
X112494090Y-116808559D01*
X112281890Y-116663569D01*
X112030000Y-116612560D01*
X111130000Y-116612560D01*
X110894683Y-116656838D01*
X110678559Y-116795910D01*
X110533569Y-117008110D01*
X110482560Y-117260000D01*
X110482560Y-118960000D01*
X110526838Y-119195317D01*
X110665910Y-119411441D01*
X110878110Y-119556431D01*
X111130000Y-119607440D01*
X112030000Y-119607440D01*
X112265317Y-119563162D01*
X112481441Y-119424090D01*
X112626431Y-119211890D01*
X112677440Y-118960000D01*
X112677440Y-118791233D01*
X112892701Y-118647401D01*
X113395000Y-118145102D01*
X113395000Y-118237002D01*
X113553748Y-118237002D01*
X113395000Y-118395750D01*
X113395000Y-119086310D01*
X113491673Y-119319699D01*
X113670302Y-119498327D01*
X113903691Y-119595000D01*
X114194250Y-119595000D01*
X114353000Y-119436250D01*
X114353000Y-118237000D01*
X114607000Y-118237000D01*
X114607000Y-119436250D01*
X114765750Y-119595000D01*
X115056309Y-119595000D01*
X115289698Y-119498327D01*
X115468327Y-119319699D01*
X115565000Y-119086310D01*
X115565000Y-118395750D01*
X115406250Y-118237000D01*
X114607000Y-118237000D01*
X114353000Y-118237000D01*
X114333000Y-118237000D01*
X114333000Y-117983000D01*
X114353000Y-117983000D01*
X114353000Y-117963000D01*
X114607000Y-117963000D01*
X114607000Y-117983000D01*
X115406250Y-117983000D01*
X115565000Y-117824250D01*
X115565000Y-117133690D01*
X115468327Y-116900301D01*
X115289698Y-116721673D01*
X115056309Y-116625000D01*
X114915102Y-116625000D01*
X116021301Y-115518801D01*
X116186048Y-115272239D01*
X116243900Y-114981400D01*
X116243900Y-114576802D01*
X116846699Y-115179602D01*
X117093261Y-115344348D01*
X117384100Y-115402200D01*
X121146200Y-115402200D01*
X121437039Y-115344348D01*
X121683601Y-115179601D01*
X121872801Y-114990401D01*
X122037548Y-114743840D01*
X122095400Y-114453000D01*
X122095400Y-113494500D01*
X122068042Y-113356961D01*
X122037548Y-113203660D01*
X121872801Y-112957099D01*
X121587011Y-112671309D01*
X121645000Y-112531310D01*
X121645000Y-112365750D01*
X121486250Y-112207000D01*
X120607000Y-112207000D01*
X120607000Y-112227000D01*
X120357102Y-112227000D01*
X120353000Y-112222898D01*
X120353000Y-112207000D01*
X120337102Y-112207000D01*
X120333000Y-112202898D01*
X120333000Y-111953000D01*
X120353000Y-111953000D01*
X120353000Y-111933000D01*
X120607000Y-111933000D01*
X120607000Y-111953000D01*
X121486250Y-111953000D01*
X121645000Y-111794250D01*
X121645000Y-111628690D01*
X121590162Y-111496300D01*
X122399298Y-111496300D01*
X125713699Y-114810701D01*
X125960260Y-114975448D01*
X126251100Y-115033300D01*
X128105300Y-115033300D01*
X128105300Y-116612560D01*
X127640000Y-116612560D01*
X127404683Y-116656838D01*
X127188559Y-116795910D01*
X127043569Y-117008110D01*
X126992560Y-117260000D01*
X126992560Y-118960000D01*
X127036838Y-119195317D01*
X127175910Y-119411441D01*
X127388110Y-119556431D01*
X127640000Y-119607440D01*
X128540000Y-119607440D01*
X128775317Y-119563162D01*
X128991441Y-119424090D01*
X129136431Y-119211890D01*
X129187440Y-118960000D01*
X129187440Y-118791233D01*
X129402701Y-118647401D01*
X129567448Y-118400839D01*
X129568460Y-118395750D01*
X129905000Y-118395750D01*
X129905000Y-119086310D01*
X130001673Y-119319699D01*
X130180302Y-119498327D01*
X130413691Y-119595000D01*
X130704250Y-119595000D01*
X130863000Y-119436250D01*
X130863000Y-118237000D01*
X131117000Y-118237000D01*
X131117000Y-119436250D01*
X131275750Y-119595000D01*
X131566309Y-119595000D01*
X131799698Y-119498327D01*
X131978327Y-119319699D01*
X132075000Y-119086310D01*
X132075000Y-118395750D01*
X131916250Y-118237000D01*
X131117000Y-118237000D01*
X130863000Y-118237000D01*
X130063750Y-118237000D01*
X129905000Y-118395750D01*
X129568460Y-118395750D01*
X129625300Y-118110000D01*
X129625300Y-117133690D01*
X129905000Y-117133690D01*
X129905000Y-117824250D01*
X130063750Y-117983000D01*
X130863000Y-117983000D01*
X130863000Y-116783750D01*
X131117000Y-116783750D01*
X131117000Y-117983000D01*
X131916250Y-117983000D01*
X132075000Y-117824250D01*
X132075000Y-117133690D01*
X131978327Y-116900301D01*
X131799698Y-116721673D01*
X131566309Y-116625000D01*
X131275750Y-116625000D01*
X131117000Y-116783750D01*
X130863000Y-116783750D01*
X130704250Y-116625000D01*
X130413691Y-116625000D01*
X130180302Y-116721673D01*
X130001673Y-116900301D01*
X129905000Y-117133690D01*
X129625300Y-117133690D01*
X129625300Y-114694202D01*
X130041514Y-114277988D01*
X130075910Y-114331441D01*
X130288110Y-114476431D01*
X130540000Y-114527440D01*
X131440000Y-114527440D01*
X131675317Y-114483162D01*
X131835023Y-114380394D01*
X131883883Y-114498643D01*
X132146673Y-114761892D01*
X132490201Y-114904538D01*
X132862167Y-114904862D01*
X133205943Y-114762817D01*
X133228800Y-114740000D01*
X133785331Y-114740000D01*
X133795910Y-114756441D01*
X134008110Y-114901431D01*
X134260000Y-114952440D01*
X135320000Y-114952440D01*
X135555317Y-114908162D01*
X135771441Y-114769090D01*
X135834925Y-114676177D01*
X135843861Y-114682148D01*
X135963405Y-114705927D01*
X135995910Y-114756441D01*
X136208110Y-114901431D01*
X136460000Y-114952440D01*
X137520000Y-114952440D01*
X137556232Y-114945623D01*
X137556038Y-115167867D01*
X137698083Y-115511643D01*
X137960873Y-115774892D01*
X138304401Y-115917538D01*
X138676367Y-115917862D01*
X139020143Y-115775817D01*
X139053318Y-115742700D01*
X143345300Y-115742700D01*
X143345300Y-116612560D01*
X142880000Y-116612560D01*
X142644683Y-116656838D01*
X142428559Y-116795910D01*
X142283569Y-117008110D01*
X142232560Y-117260000D01*
X142232560Y-118960000D01*
X142276838Y-119195317D01*
X142415910Y-119411441D01*
X142628110Y-119556431D01*
X142880000Y-119607440D01*
X143780000Y-119607440D01*
X144015317Y-119563162D01*
X144231441Y-119424090D01*
X144376431Y-119211890D01*
X144427440Y-118960000D01*
X144427440Y-118791233D01*
X144642701Y-118647401D01*
X144807448Y-118400839D01*
X144808460Y-118395750D01*
X145145000Y-118395750D01*
X145145000Y-119086310D01*
X145241673Y-119319699D01*
X145420302Y-119498327D01*
X145653691Y-119595000D01*
X145944250Y-119595000D01*
X146103000Y-119436250D01*
X146103000Y-118237000D01*
X146357000Y-118237000D01*
X146357000Y-119436250D01*
X146515750Y-119595000D01*
X146806309Y-119595000D01*
X147039698Y-119498327D01*
X147218327Y-119319699D01*
X147315000Y-119086310D01*
X147315000Y-118395750D01*
X147156250Y-118237000D01*
X146357000Y-118237000D01*
X146103000Y-118237000D01*
X145303750Y-118237000D01*
X145145000Y-118395750D01*
X144808460Y-118395750D01*
X144865300Y-118110000D01*
X144865300Y-117133690D01*
X145145000Y-117133690D01*
X145145000Y-117824250D01*
X145303750Y-117983000D01*
X146103000Y-117983000D01*
X146103000Y-116783750D01*
X146357000Y-116783750D01*
X146357000Y-117983000D01*
X147156250Y-117983000D01*
X147315000Y-117824250D01*
X147315000Y-117133690D01*
X147218327Y-116900301D01*
X147039698Y-116721673D01*
X146806309Y-116625000D01*
X146515750Y-116625000D01*
X146357000Y-116783750D01*
X146103000Y-116783750D01*
X145944250Y-116625000D01*
X145653691Y-116625000D01*
X145420302Y-116721673D01*
X145241673Y-116900301D01*
X145145000Y-117133690D01*
X144865300Y-117133690D01*
X144865300Y-115297502D01*
X145659719Y-114503083D01*
X145780000Y-114527440D01*
X146680000Y-114527440D01*
X146915317Y-114483162D01*
X147131441Y-114344090D01*
X147276431Y-114131890D01*
X147327440Y-113880000D01*
X147327440Y-112614600D01*
X149825781Y-112614600D01*
X149742552Y-112739161D01*
X149684700Y-113030000D01*
X149684700Y-114474200D01*
X149742552Y-114765039D01*
X149907299Y-115011601D01*
X154718499Y-119822801D01*
X154965060Y-119987548D01*
X155255900Y-120045400D01*
X161713100Y-120045400D01*
X162003939Y-119987548D01*
X162250501Y-119822801D01*
X162873101Y-119200201D01*
X162934261Y-119108668D01*
X163021673Y-119319699D01*
X163200302Y-119498327D01*
X163433691Y-119595000D01*
X163724250Y-119595000D01*
X163883000Y-119436250D01*
X163883000Y-118237000D01*
X164137000Y-118237000D01*
X164137000Y-119436250D01*
X164295750Y-119595000D01*
X164586309Y-119595000D01*
X164819698Y-119498327D01*
X164998327Y-119319699D01*
X165095000Y-119086310D01*
X165095000Y-118395750D01*
X164936250Y-118237000D01*
X164137000Y-118237000D01*
X163883000Y-118237000D01*
X163863000Y-118237000D01*
X163863000Y-117983000D01*
X163883000Y-117983000D01*
X163883000Y-117963000D01*
X164137000Y-117963000D01*
X164137000Y-117983000D01*
X164936250Y-117983000D01*
X165095000Y-117824250D01*
X165095000Y-117133690D01*
X164998327Y-116900301D01*
X164819698Y-116721673D01*
X164708846Y-116675756D01*
X165994302Y-115390300D01*
X171044400Y-115390300D01*
X171335239Y-115332448D01*
X171581801Y-115167701D01*
X171834605Y-114914897D01*
X172020000Y-114952440D01*
X173080000Y-114952440D01*
X173315317Y-114908162D01*
X173531441Y-114769090D01*
X173676431Y-114556890D01*
X173727440Y-114305000D01*
X173727440Y-113655000D01*
X173683162Y-113419683D01*
X173544090Y-113203559D01*
X173331890Y-113058569D01*
X173217435Y-113035391D01*
X173439698Y-112943327D01*
X173618327Y-112764699D01*
X173715000Y-112531310D01*
X173715000Y-112365750D01*
X173556250Y-112207000D01*
X172677000Y-112207000D01*
X172677000Y-112227000D01*
X172423000Y-112227000D01*
X172423000Y-112207000D01*
X172403000Y-112207000D01*
X172403000Y-111953000D01*
X172423000Y-111953000D01*
X172423000Y-111278750D01*
X172677000Y-111278750D01*
X172677000Y-111953000D01*
X173556250Y-111953000D01*
X173715000Y-111794250D01*
X173715000Y-111628690D01*
X173618327Y-111395301D01*
X173439698Y-111216673D01*
X173206309Y-111120000D01*
X172835750Y-111120000D01*
X172677000Y-111278750D01*
X172423000Y-111278750D01*
X172264250Y-111120000D01*
X171893691Y-111120000D01*
X171827242Y-111147524D01*
X171742701Y-111020999D01*
X162959601Y-102237899D01*
X162713039Y-102073152D01*
X162422200Y-102015300D01*
X156205000Y-102015300D01*
X156205000Y-101885750D01*
X156046250Y-101727000D01*
X155247000Y-101727000D01*
X155247000Y-101747000D01*
X155104600Y-101747000D01*
X155104600Y-101453000D01*
X155247000Y-101453000D01*
X155247000Y-101473000D01*
X156046250Y-101473000D01*
X156205000Y-101314250D01*
X156205000Y-100623690D01*
X156108327Y-100390301D01*
X155929698Y-100211673D01*
X155850595Y-100178907D01*
X157415802Y-98613700D01*
X157600098Y-98613700D01*
X157644099Y-98657701D01*
X157890660Y-98822448D01*
X158181500Y-98880300D01*
X159777100Y-98880300D01*
X160067939Y-98822448D01*
X160314501Y-98657701D01*
X160539906Y-98432296D01*
X160590000Y-98442440D01*
X161650000Y-98442440D01*
X161885317Y-98398162D01*
X162101441Y-98259090D01*
X162246431Y-98046890D01*
X162297440Y-97795000D01*
X162297440Y-97145000D01*
X162253162Y-96909683D01*
X162114090Y-96693559D01*
X161901890Y-96548569D01*
X161787435Y-96525391D01*
X162009698Y-96433327D01*
X162188327Y-96254699D01*
X162285000Y-96021310D01*
X162285000Y-95855750D01*
X162126250Y-95697000D01*
X161247000Y-95697000D01*
X161247000Y-95717000D01*
X160993000Y-95717000D01*
X160993000Y-95697000D01*
X160973000Y-95697000D01*
X160973000Y-95443000D01*
X160993000Y-95443000D01*
X160993000Y-94768750D01*
X161247000Y-94768750D01*
X161247000Y-95443000D01*
X162126250Y-95443000D01*
X162285000Y-95284250D01*
X162285000Y-95118690D01*
X162188327Y-94885301D01*
X162009698Y-94706673D01*
X161776309Y-94610000D01*
X161405750Y-94610000D01*
X161247000Y-94768750D01*
X160993000Y-94768750D01*
X160834250Y-94610000D01*
X160463691Y-94610000D01*
X160369558Y-94648991D01*
X160312701Y-94563899D01*
X156651401Y-90902599D01*
X156404839Y-90737852D01*
X156217440Y-90700576D01*
X156217440Y-90590000D01*
X156173162Y-90354683D01*
X156034090Y-90138559D01*
X155821890Y-89993569D01*
X155570000Y-89942560D01*
X154670000Y-89942560D01*
X154434683Y-89986838D01*
X154218559Y-90125910D01*
X154172631Y-90193129D01*
X151740001Y-87760499D01*
X151493439Y-87595752D01*
X151202600Y-87537900D01*
X141181602Y-87537900D01*
X142381514Y-86337988D01*
X142415910Y-86391441D01*
X142628110Y-86536431D01*
X142880000Y-86587440D01*
X143780000Y-86587440D01*
X144015317Y-86543162D01*
X144231441Y-86404090D01*
X144376431Y-86191890D01*
X144427440Y-85940000D01*
X144427440Y-85375750D01*
X145145000Y-85375750D01*
X145145000Y-86066310D01*
X145241673Y-86299699D01*
X145420302Y-86478327D01*
X145653691Y-86575000D01*
X145944250Y-86575000D01*
X146103000Y-86416250D01*
X146103000Y-85217000D01*
X146357000Y-85217000D01*
X146357000Y-86416250D01*
X146515750Y-86575000D01*
X146806309Y-86575000D01*
X147039698Y-86478327D01*
X147218327Y-86299699D01*
X147315000Y-86066310D01*
X147315000Y-85375750D01*
X147156250Y-85217000D01*
X146357000Y-85217000D01*
X146103000Y-85217000D01*
X145303750Y-85217000D01*
X145145000Y-85375750D01*
X144427440Y-85375750D01*
X144427440Y-84240000D01*
X144403674Y-84113690D01*
X145145000Y-84113690D01*
X145145000Y-84804250D01*
X145303750Y-84963000D01*
X146103000Y-84963000D01*
X146103000Y-83763750D01*
X146357000Y-83763750D01*
X146357000Y-84963000D01*
X147156250Y-84963000D01*
X147315000Y-84804250D01*
X147315000Y-84113690D01*
X147218327Y-83880301D01*
X147039698Y-83701673D01*
X146806309Y-83605000D01*
X146515750Y-83605000D01*
X146357000Y-83763750D01*
X146103000Y-83763750D01*
X145944250Y-83605000D01*
X145653691Y-83605000D01*
X145420302Y-83701673D01*
X145241673Y-83880301D01*
X145145000Y-84113690D01*
X144403674Y-84113690D01*
X144383162Y-84004683D01*
X144244090Y-83788559D01*
X144090000Y-83683274D01*
X144090000Y-83224802D01*
X145807362Y-81507440D01*
X146680000Y-81507440D01*
X146915317Y-81463162D01*
X147131441Y-81324090D01*
X147276431Y-81111890D01*
X147327440Y-80860000D01*
X147327440Y-80187542D01*
X148637299Y-81497402D01*
X148849458Y-81639161D01*
X148883861Y-81662148D01*
X149003405Y-81685927D01*
X149035910Y-81736441D01*
X149248110Y-81881431D01*
X149500000Y-81932440D01*
X150560000Y-81932440D01*
X150795317Y-81888162D01*
X151011441Y-81749090D01*
X151131233Y-81573768D01*
X151235910Y-81736441D01*
X151448110Y-81881431D01*
X151700000Y-81932440D01*
X152760000Y-81932440D01*
X152947632Y-81897134D01*
X154043299Y-82992801D01*
X154289861Y-83157548D01*
X154580700Y-83215400D01*
X161359440Y-83215400D01*
X161359138Y-83561767D01*
X161501183Y-83905543D01*
X161763973Y-84168792D01*
X162107501Y-84311438D01*
X162154377Y-84311479D01*
X162395300Y-84552402D01*
X162395300Y-84862560D01*
X161930000Y-84862560D01*
X161694683Y-84906838D01*
X161478559Y-85045910D01*
X161333569Y-85258110D01*
X161282560Y-85510000D01*
X161282560Y-87210000D01*
X161326838Y-87445317D01*
X161465910Y-87661441D01*
X161678110Y-87806431D01*
X161930000Y-87857440D01*
X162830000Y-87857440D01*
X163065317Y-87813162D01*
X163281441Y-87674090D01*
X163426431Y-87461890D01*
X163477440Y-87210000D01*
X163477440Y-87041233D01*
X163692701Y-86897401D01*
X163857448Y-86650839D01*
X163858460Y-86645750D01*
X164195000Y-86645750D01*
X164195000Y-87336310D01*
X164291673Y-87569699D01*
X164470302Y-87748327D01*
X164703691Y-87845000D01*
X164994250Y-87845000D01*
X165153000Y-87686250D01*
X165153000Y-86487000D01*
X165407000Y-86487000D01*
X165407000Y-87686250D01*
X165565750Y-87845000D01*
X165856309Y-87845000D01*
X166089698Y-87748327D01*
X166268327Y-87569699D01*
X166365000Y-87336310D01*
X166365000Y-86645750D01*
X166206250Y-86487000D01*
X165407000Y-86487000D01*
X165153000Y-86487000D01*
X164353750Y-86487000D01*
X164195000Y-86645750D01*
X163858460Y-86645750D01*
X163915300Y-86360000D01*
X163915300Y-85383690D01*
X164195000Y-85383690D01*
X164195000Y-86074250D01*
X164353750Y-86233000D01*
X165153000Y-86233000D01*
X165153000Y-85033750D01*
X165407000Y-85033750D01*
X165407000Y-86233000D01*
X166206250Y-86233000D01*
X166365000Y-86074250D01*
X166365000Y-85383690D01*
X166268327Y-85150301D01*
X166089698Y-84971673D01*
X165856309Y-84875000D01*
X165565750Y-84875000D01*
X165407000Y-85033750D01*
X165153000Y-85033750D01*
X164994250Y-84875000D01*
X164703691Y-84875000D01*
X164470302Y-84971673D01*
X164291673Y-85150301D01*
X164195000Y-85383690D01*
X163915300Y-85383690D01*
X163915300Y-84237600D01*
X163857448Y-83946761D01*
X163692701Y-83700199D01*
X163619802Y-83627300D01*
X164543987Y-82703115D01*
X164578110Y-82726431D01*
X164830000Y-82777440D01*
X165730000Y-82777440D01*
X165965317Y-82733162D01*
X166181441Y-82594090D01*
X166326431Y-82381890D01*
X166377440Y-82130000D01*
X166377440Y-81334442D01*
X166860399Y-81817401D01*
X167106960Y-81982148D01*
X167397800Y-82040000D01*
X167902560Y-82040000D01*
X167902560Y-82555000D01*
X167946838Y-82790317D01*
X168085910Y-83006441D01*
X168298110Y-83151431D01*
X168550000Y-83202440D01*
X169610000Y-83202440D01*
X169797632Y-83167135D01*
X170048299Y-83417802D01*
X170263760Y-83561767D01*
X170294861Y-83582548D01*
X170585700Y-83640400D01*
X171970800Y-83640400D01*
X172261639Y-83582548D01*
X172508201Y-83417801D01*
X172707001Y-83219001D01*
X172871748Y-82972439D01*
X172929600Y-82681600D01*
X172929600Y-81764300D01*
X172871748Y-81473461D01*
X172757476Y-81302440D01*
X172707001Y-81226898D01*
X172391228Y-80911126D01*
X172445000Y-80781310D01*
X172445000Y-80615750D01*
X172286250Y-80457000D01*
X171894493Y-80457000D01*
X171776339Y-80378052D01*
X171485500Y-80320200D01*
X171133000Y-80320200D01*
X171133000Y-80203000D01*
X171153000Y-80203000D01*
X171153000Y-79528750D01*
X171407000Y-79528750D01*
X171407000Y-80203000D01*
X172286250Y-80203000D01*
X172445000Y-80044250D01*
X172445000Y-79878690D01*
X172348327Y-79645301D01*
X172169698Y-79466673D01*
X171936309Y-79370000D01*
X171565750Y-79370000D01*
X171407000Y-79528750D01*
X171153000Y-79528750D01*
X170994250Y-79370000D01*
X170623691Y-79370000D01*
X170540721Y-79404367D01*
X170522701Y-79377399D01*
X166807901Y-75662599D01*
X166561339Y-75497852D01*
X166377440Y-75461272D01*
X166377440Y-75350000D01*
X166333162Y-75114683D01*
X166194090Y-74898559D01*
X165981890Y-74753569D01*
X165730000Y-74702560D01*
X164830000Y-74702560D01*
X164594683Y-74746838D01*
X164378559Y-74885910D01*
X164332631Y-74953129D01*
X161693701Y-72314199D01*
X161447139Y-72149452D01*
X161156300Y-72091600D01*
X113768000Y-72091600D01*
X113477161Y-72149452D01*
X113230599Y-72314199D01*
X111742299Y-73802499D01*
X111577552Y-74049061D01*
X111519700Y-74339900D01*
X111519700Y-74479797D01*
X111384639Y-74389552D01*
X111093800Y-74331700D01*
X110577700Y-74331700D01*
X110286861Y-74389552D01*
X110040299Y-74554299D01*
X109572499Y-75022099D01*
X109407752Y-75268661D01*
X109349900Y-75559500D01*
X104850000Y-75559500D01*
X104850000Y-70560000D01*
X180900000Y-70560000D01*
X180900000Y-123750000D01*
X180900000Y-123750000D01*
G37*
X180900000Y-123750000D02*
X104850000Y-123750000D01*
X104850000Y-75559500D01*
X109349900Y-75559500D01*
X109349900Y-96125300D01*
X109407752Y-96416139D01*
X109572499Y-96662701D01*
X118257599Y-105347801D01*
X118504160Y-105512548D01*
X118795000Y-105570400D01*
X120282098Y-105570400D01*
X117116300Y-108736198D01*
X115792701Y-107412599D01*
X115577440Y-107268767D01*
X115577440Y-107100000D01*
X115533162Y-106864683D01*
X115394090Y-106648559D01*
X115181890Y-106503569D01*
X114930000Y-106452560D01*
X114030000Y-106452560D01*
X113794683Y-106496838D01*
X113578559Y-106635910D01*
X113433569Y-106848110D01*
X113382560Y-107100000D01*
X113382560Y-107902458D01*
X112892701Y-107412599D01*
X112677440Y-107268767D01*
X112677440Y-107100000D01*
X112633162Y-106864683D01*
X112494090Y-106648559D01*
X112281890Y-106503569D01*
X112030000Y-106452560D01*
X111130000Y-106452560D01*
X110894683Y-106496838D01*
X110678559Y-106635910D01*
X110533569Y-106848110D01*
X110482560Y-107100000D01*
X110482560Y-108800000D01*
X110526838Y-109035317D01*
X110665910Y-109251441D01*
X110878110Y-109396431D01*
X111130000Y-109447440D01*
X112030000Y-109447440D01*
X112265317Y-109403162D01*
X112481441Y-109264090D01*
X112527369Y-109196871D01*
X112770700Y-109440202D01*
X112770700Y-111539798D01*
X112528486Y-111782012D01*
X112494090Y-111728559D01*
X112281890Y-111583569D01*
X112030000Y-111532560D01*
X111130000Y-111532560D01*
X110894683Y-111576838D01*
X110678559Y-111715910D01*
X110533569Y-111928110D01*
X110482560Y-112180000D01*
X110482560Y-113880000D01*
X110526838Y-114115317D01*
X110665910Y-114331441D01*
X110878110Y-114476431D01*
X111130000Y-114527440D01*
X112030000Y-114527440D01*
X112265317Y-114483162D01*
X112481441Y-114344090D01*
X112626431Y-114131890D01*
X112677440Y-113880000D01*
X112677440Y-113711233D01*
X112892701Y-113567401D01*
X113382560Y-113077542D01*
X113382560Y-113880000D01*
X113426838Y-114115317D01*
X113565910Y-114331441D01*
X113778110Y-114476431D01*
X114030000Y-114527440D01*
X114723900Y-114527440D01*
X114723900Y-114666598D01*
X112528486Y-116862012D01*
X112494090Y-116808559D01*
X112281890Y-116663569D01*
X112030000Y-116612560D01*
X111130000Y-116612560D01*
X110894683Y-116656838D01*
X110678559Y-116795910D01*
X110533569Y-117008110D01*
X110482560Y-117260000D01*
X110482560Y-118960000D01*
X110526838Y-119195317D01*
X110665910Y-119411441D01*
X110878110Y-119556431D01*
X111130000Y-119607440D01*
X112030000Y-119607440D01*
X112265317Y-119563162D01*
X112481441Y-119424090D01*
X112626431Y-119211890D01*
X112677440Y-118960000D01*
X112677440Y-118791233D01*
X112892701Y-118647401D01*
X113395000Y-118145102D01*
X113395000Y-118237002D01*
X113553748Y-118237002D01*
X113395000Y-118395750D01*
X113395000Y-119086310D01*
X113491673Y-119319699D01*
X113670302Y-119498327D01*
X113903691Y-119595000D01*
X114194250Y-119595000D01*
X114353000Y-119436250D01*
X114353000Y-118237000D01*
X114607000Y-118237000D01*
X114607000Y-119436250D01*
X114765750Y-119595000D01*
X115056309Y-119595000D01*
X115289698Y-119498327D01*
X115468327Y-119319699D01*
X115565000Y-119086310D01*
X115565000Y-118395750D01*
X115406250Y-118237000D01*
X114607000Y-118237000D01*
X114353000Y-118237000D01*
X114333000Y-118237000D01*
X114333000Y-117983000D01*
X114353000Y-117983000D01*
X114353000Y-117963000D01*
X114607000Y-117963000D01*
X114607000Y-117983000D01*
X115406250Y-117983000D01*
X115565000Y-117824250D01*
X115565000Y-117133690D01*
X115468327Y-116900301D01*
X115289698Y-116721673D01*
X115056309Y-116625000D01*
X114915102Y-116625000D01*
X116021301Y-115518801D01*
X116186048Y-115272239D01*
X116243900Y-114981400D01*
X116243900Y-114576802D01*
X116846699Y-115179602D01*
X117093261Y-115344348D01*
X117384100Y-115402200D01*
X121146200Y-115402200D01*
X121437039Y-115344348D01*
X121683601Y-115179601D01*
X121872801Y-114990401D01*
X122037548Y-114743840D01*
X122095400Y-114453000D01*
X122095400Y-113494500D01*
X122068042Y-113356961D01*
X122037548Y-113203660D01*
X121872801Y-112957099D01*
X121587011Y-112671309D01*
X121645000Y-112531310D01*
X121645000Y-112365750D01*
X121486250Y-112207000D01*
X120607000Y-112207000D01*
X120607000Y-112227000D01*
X120357102Y-112227000D01*
X120353000Y-112222898D01*
X120353000Y-112207000D01*
X120337102Y-112207000D01*
X120333000Y-112202898D01*
X120333000Y-111953000D01*
X120353000Y-111953000D01*
X120353000Y-111933000D01*
X120607000Y-111933000D01*
X120607000Y-111953000D01*
X121486250Y-111953000D01*
X121645000Y-111794250D01*
X121645000Y-111628690D01*
X121590162Y-111496300D01*
X122399298Y-111496300D01*
X125713699Y-114810701D01*
X125960260Y-114975448D01*
X126251100Y-115033300D01*
X128105300Y-115033300D01*
X128105300Y-116612560D01*
X127640000Y-116612560D01*
X127404683Y-116656838D01*
X127188559Y-116795910D01*
X127043569Y-117008110D01*
X126992560Y-117260000D01*
X126992560Y-118960000D01*
X127036838Y-119195317D01*
X127175910Y-119411441D01*
X127388110Y-119556431D01*
X127640000Y-119607440D01*
X128540000Y-119607440D01*
X128775317Y-119563162D01*
X128991441Y-119424090D01*
X129136431Y-119211890D01*
X129187440Y-118960000D01*
X129187440Y-118791233D01*
X129402701Y-118647401D01*
X129567448Y-118400839D01*
X129568460Y-118395750D01*
X129905000Y-118395750D01*
X129905000Y-119086310D01*
X130001673Y-119319699D01*
X130180302Y-119498327D01*
X130413691Y-119595000D01*
X130704250Y-119595000D01*
X130863000Y-119436250D01*
X130863000Y-118237000D01*
X131117000Y-118237000D01*
X131117000Y-119436250D01*
X131275750Y-119595000D01*
X131566309Y-119595000D01*
X131799698Y-119498327D01*
X131978327Y-119319699D01*
X132075000Y-119086310D01*
X132075000Y-118395750D01*
X131916250Y-118237000D01*
X131117000Y-118237000D01*
X130863000Y-118237000D01*
X130063750Y-118237000D01*
X129905000Y-118395750D01*
X129568460Y-118395750D01*
X129625300Y-118110000D01*
X129625300Y-117133690D01*
X129905000Y-117133690D01*
X129905000Y-117824250D01*
X130063750Y-117983000D01*
X130863000Y-117983000D01*
X130863000Y-116783750D01*
X131117000Y-116783750D01*
X131117000Y-117983000D01*
X131916250Y-117983000D01*
X132075000Y-117824250D01*
X132075000Y-117133690D01*
X131978327Y-116900301D01*
X131799698Y-116721673D01*
X131566309Y-116625000D01*
X131275750Y-116625000D01*
X131117000Y-116783750D01*
X130863000Y-116783750D01*
X130704250Y-116625000D01*
X130413691Y-116625000D01*
X130180302Y-116721673D01*
X130001673Y-116900301D01*
X129905000Y-117133690D01*
X129625300Y-117133690D01*
X129625300Y-114694202D01*
X130041514Y-114277988D01*
X130075910Y-114331441D01*
X130288110Y-114476431D01*
X130540000Y-114527440D01*
X131440000Y-114527440D01*
X131675317Y-114483162D01*
X131835023Y-114380394D01*
X131883883Y-114498643D01*
X132146673Y-114761892D01*
X132490201Y-114904538D01*
X132862167Y-114904862D01*
X133205943Y-114762817D01*
X133228800Y-114740000D01*
X133785331Y-114740000D01*
X133795910Y-114756441D01*
X134008110Y-114901431D01*
X134260000Y-114952440D01*
X135320000Y-114952440D01*
X135555317Y-114908162D01*
X135771441Y-114769090D01*
X135834925Y-114676177D01*
X135843861Y-114682148D01*
X135963405Y-114705927D01*
X135995910Y-114756441D01*
X136208110Y-114901431D01*
X136460000Y-114952440D01*
X137520000Y-114952440D01*
X137556232Y-114945623D01*
X137556038Y-115167867D01*
X137698083Y-115511643D01*
X137960873Y-115774892D01*
X138304401Y-115917538D01*
X138676367Y-115917862D01*
X139020143Y-115775817D01*
X139053318Y-115742700D01*
X143345300Y-115742700D01*
X143345300Y-116612560D01*
X142880000Y-116612560D01*
X142644683Y-116656838D01*
X142428559Y-116795910D01*
X142283569Y-117008110D01*
X142232560Y-117260000D01*
X142232560Y-118960000D01*
X142276838Y-119195317D01*
X142415910Y-119411441D01*
X142628110Y-119556431D01*
X142880000Y-119607440D01*
X143780000Y-119607440D01*
X144015317Y-119563162D01*
X144231441Y-119424090D01*
X144376431Y-119211890D01*
X144427440Y-118960000D01*
X144427440Y-118791233D01*
X144642701Y-118647401D01*
X144807448Y-118400839D01*
X144808460Y-118395750D01*
X145145000Y-118395750D01*
X145145000Y-119086310D01*
X145241673Y-119319699D01*
X145420302Y-119498327D01*
X145653691Y-119595000D01*
X145944250Y-119595000D01*
X146103000Y-119436250D01*
X146103000Y-118237000D01*
X146357000Y-118237000D01*
X146357000Y-119436250D01*
X146515750Y-119595000D01*
X146806309Y-119595000D01*
X147039698Y-119498327D01*
X147218327Y-119319699D01*
X147315000Y-119086310D01*
X147315000Y-118395750D01*
X147156250Y-118237000D01*
X146357000Y-118237000D01*
X146103000Y-118237000D01*
X145303750Y-118237000D01*
X145145000Y-118395750D01*
X144808460Y-118395750D01*
X144865300Y-118110000D01*
X144865300Y-117133690D01*
X145145000Y-117133690D01*
X145145000Y-117824250D01*
X145303750Y-117983000D01*
X146103000Y-117983000D01*
X146103000Y-116783750D01*
X146357000Y-116783750D01*
X146357000Y-117983000D01*
X147156250Y-117983000D01*
X147315000Y-117824250D01*
X147315000Y-117133690D01*
X147218327Y-116900301D01*
X147039698Y-116721673D01*
X146806309Y-116625000D01*
X146515750Y-116625000D01*
X146357000Y-116783750D01*
X146103000Y-116783750D01*
X145944250Y-116625000D01*
X145653691Y-116625000D01*
X145420302Y-116721673D01*
X145241673Y-116900301D01*
X145145000Y-117133690D01*
X144865300Y-117133690D01*
X144865300Y-115297502D01*
X145659719Y-114503083D01*
X145780000Y-114527440D01*
X146680000Y-114527440D01*
X146915317Y-114483162D01*
X147131441Y-114344090D01*
X147276431Y-114131890D01*
X147327440Y-113880000D01*
X147327440Y-112614600D01*
X149825781Y-112614600D01*
X149742552Y-112739161D01*
X149684700Y-113030000D01*
X149684700Y-114474200D01*
X149742552Y-114765039D01*
X149907299Y-115011601D01*
X154718499Y-119822801D01*
X154965060Y-119987548D01*
X155255900Y-120045400D01*
X161713100Y-120045400D01*
X162003939Y-119987548D01*
X162250501Y-119822801D01*
X162873101Y-119200201D01*
X162934261Y-119108668D01*
X163021673Y-119319699D01*
X163200302Y-119498327D01*
X163433691Y-119595000D01*
X163724250Y-119595000D01*
X163883000Y-119436250D01*
X163883000Y-118237000D01*
X164137000Y-118237000D01*
X164137000Y-119436250D01*
X164295750Y-119595000D01*
X164586309Y-119595000D01*
X164819698Y-119498327D01*
X164998327Y-119319699D01*
X165095000Y-119086310D01*
X165095000Y-118395750D01*
X164936250Y-118237000D01*
X164137000Y-118237000D01*
X163883000Y-118237000D01*
X163863000Y-118237000D01*
X163863000Y-117983000D01*
X163883000Y-117983000D01*
X163883000Y-117963000D01*
X164137000Y-117963000D01*
X164137000Y-117983000D01*
X164936250Y-117983000D01*
X165095000Y-117824250D01*
X165095000Y-117133690D01*
X164998327Y-116900301D01*
X164819698Y-116721673D01*
X164708846Y-116675756D01*
X165994302Y-115390300D01*
X171044400Y-115390300D01*
X171335239Y-115332448D01*
X171581801Y-115167701D01*
X171834605Y-114914897D01*
X172020000Y-114952440D01*
X173080000Y-114952440D01*
X173315317Y-114908162D01*
X173531441Y-114769090D01*
X173676431Y-114556890D01*
X173727440Y-114305000D01*
X173727440Y-113655000D01*
X173683162Y-113419683D01*
X173544090Y-113203559D01*
X173331890Y-113058569D01*
X173217435Y-113035391D01*
X173439698Y-112943327D01*
X173618327Y-112764699D01*
X173715000Y-112531310D01*
X173715000Y-112365750D01*
X173556250Y-112207000D01*
X172677000Y-112207000D01*
X172677000Y-112227000D01*
X172423000Y-112227000D01*
X172423000Y-112207000D01*
X172403000Y-112207000D01*
X172403000Y-111953000D01*
X172423000Y-111953000D01*
X172423000Y-111278750D01*
X172677000Y-111278750D01*
X172677000Y-111953000D01*
X173556250Y-111953000D01*
X173715000Y-111794250D01*
X173715000Y-111628690D01*
X173618327Y-111395301D01*
X173439698Y-111216673D01*
X173206309Y-111120000D01*
X172835750Y-111120000D01*
X172677000Y-111278750D01*
X172423000Y-111278750D01*
X172264250Y-111120000D01*
X171893691Y-111120000D01*
X171827242Y-111147524D01*
X171742701Y-111020999D01*
X162959601Y-102237899D01*
X162713039Y-102073152D01*
X162422200Y-102015300D01*
X156205000Y-102015300D01*
X156205000Y-101885750D01*
X156046250Y-101727000D01*
X155247000Y-101727000D01*
X155247000Y-101747000D01*
X155104600Y-101747000D01*
X155104600Y-101453000D01*
X155247000Y-101453000D01*
X155247000Y-101473000D01*
X156046250Y-101473000D01*
X156205000Y-101314250D01*
X156205000Y-100623690D01*
X156108327Y-100390301D01*
X155929698Y-100211673D01*
X155850595Y-100178907D01*
X157415802Y-98613700D01*
X157600098Y-98613700D01*
X157644099Y-98657701D01*
X157890660Y-98822448D01*
X158181500Y-98880300D01*
X159777100Y-98880300D01*
X160067939Y-98822448D01*
X160314501Y-98657701D01*
X160539906Y-98432296D01*
X160590000Y-98442440D01*
X161650000Y-98442440D01*
X161885317Y-98398162D01*
X162101441Y-98259090D01*
X162246431Y-98046890D01*
X162297440Y-97795000D01*
X162297440Y-97145000D01*
X162253162Y-96909683D01*
X162114090Y-96693559D01*
X161901890Y-96548569D01*
X161787435Y-96525391D01*
X162009698Y-96433327D01*
X162188327Y-96254699D01*
X162285000Y-96021310D01*
X162285000Y-95855750D01*
X162126250Y-95697000D01*
X161247000Y-95697000D01*
X161247000Y-95717000D01*
X160993000Y-95717000D01*
X160993000Y-95697000D01*
X160973000Y-95697000D01*
X160973000Y-95443000D01*
X160993000Y-95443000D01*
X160993000Y-94768750D01*
X161247000Y-94768750D01*
X161247000Y-95443000D01*
X162126250Y-95443000D01*
X162285000Y-95284250D01*
X162285000Y-95118690D01*
X162188327Y-94885301D01*
X162009698Y-94706673D01*
X161776309Y-94610000D01*
X161405750Y-94610000D01*
X161247000Y-94768750D01*
X160993000Y-94768750D01*
X160834250Y-94610000D01*
X160463691Y-94610000D01*
X160369558Y-94648991D01*
X160312701Y-94563899D01*
X156651401Y-90902599D01*
X156404839Y-90737852D01*
X156217440Y-90700576D01*
X156217440Y-90590000D01*
X156173162Y-90354683D01*
X156034090Y-90138559D01*
X155821890Y-89993569D01*
X155570000Y-89942560D01*
X154670000Y-89942560D01*
X154434683Y-89986838D01*
X154218559Y-90125910D01*
X154172631Y-90193129D01*
X151740001Y-87760499D01*
X151493439Y-87595752D01*
X151202600Y-87537900D01*
X141181602Y-87537900D01*
X142381514Y-86337988D01*
X142415910Y-86391441D01*
X142628110Y-86536431D01*
X142880000Y-86587440D01*
X143780000Y-86587440D01*
X144015317Y-86543162D01*
X144231441Y-86404090D01*
X144376431Y-86191890D01*
X144427440Y-85940000D01*
X144427440Y-85375750D01*
X145145000Y-85375750D01*
X145145000Y-86066310D01*
X145241673Y-86299699D01*
X145420302Y-86478327D01*
X145653691Y-86575000D01*
X145944250Y-86575000D01*
X146103000Y-86416250D01*
X146103000Y-85217000D01*
X146357000Y-85217000D01*
X146357000Y-86416250D01*
X146515750Y-86575000D01*
X146806309Y-86575000D01*
X147039698Y-86478327D01*
X147218327Y-86299699D01*
X147315000Y-86066310D01*
X147315000Y-85375750D01*
X147156250Y-85217000D01*
X146357000Y-85217000D01*
X146103000Y-85217000D01*
X145303750Y-85217000D01*
X145145000Y-85375750D01*
X144427440Y-85375750D01*
X144427440Y-84240000D01*
X144403674Y-84113690D01*
X145145000Y-84113690D01*
X145145000Y-84804250D01*
X145303750Y-84963000D01*
X146103000Y-84963000D01*
X146103000Y-83763750D01*
X146357000Y-83763750D01*
X146357000Y-84963000D01*
X147156250Y-84963000D01*
X147315000Y-84804250D01*
X147315000Y-84113690D01*
X147218327Y-83880301D01*
X147039698Y-83701673D01*
X146806309Y-83605000D01*
X146515750Y-83605000D01*
X146357000Y-83763750D01*
X146103000Y-83763750D01*
X145944250Y-83605000D01*
X145653691Y-83605000D01*
X145420302Y-83701673D01*
X145241673Y-83880301D01*
X145145000Y-84113690D01*
X144403674Y-84113690D01*
X144383162Y-84004683D01*
X144244090Y-83788559D01*
X144090000Y-83683274D01*
X144090000Y-83224802D01*
X145807362Y-81507440D01*
X146680000Y-81507440D01*
X146915317Y-81463162D01*
X147131441Y-81324090D01*
X147276431Y-81111890D01*
X147327440Y-80860000D01*
X147327440Y-80187542D01*
X148637299Y-81497402D01*
X148849458Y-81639161D01*
X148883861Y-81662148D01*
X149003405Y-81685927D01*
X149035910Y-81736441D01*
X149248110Y-81881431D01*
X149500000Y-81932440D01*
X150560000Y-81932440D01*
X150795317Y-81888162D01*
X151011441Y-81749090D01*
X151131233Y-81573768D01*
X151235910Y-81736441D01*
X151448110Y-81881431D01*
X151700000Y-81932440D01*
X152760000Y-81932440D01*
X152947632Y-81897134D01*
X154043299Y-82992801D01*
X154289861Y-83157548D01*
X154580700Y-83215400D01*
X161359440Y-83215400D01*
X161359138Y-83561767D01*
X161501183Y-83905543D01*
X161763973Y-84168792D01*
X162107501Y-84311438D01*
X162154377Y-84311479D01*
X162395300Y-84552402D01*
X162395300Y-84862560D01*
X161930000Y-84862560D01*
X161694683Y-84906838D01*
X161478559Y-85045910D01*
X161333569Y-85258110D01*
X161282560Y-85510000D01*
X161282560Y-87210000D01*
X161326838Y-87445317D01*
X161465910Y-87661441D01*
X161678110Y-87806431D01*
X161930000Y-87857440D01*
X162830000Y-87857440D01*
X163065317Y-87813162D01*
X163281441Y-87674090D01*
X163426431Y-87461890D01*
X163477440Y-87210000D01*
X163477440Y-87041233D01*
X163692701Y-86897401D01*
X163857448Y-86650839D01*
X163858460Y-86645750D01*
X164195000Y-86645750D01*
X164195000Y-87336310D01*
X164291673Y-87569699D01*
X164470302Y-87748327D01*
X164703691Y-87845000D01*
X164994250Y-87845000D01*
X165153000Y-87686250D01*
X165153000Y-86487000D01*
X165407000Y-86487000D01*
X165407000Y-87686250D01*
X165565750Y-87845000D01*
X165856309Y-87845000D01*
X166089698Y-87748327D01*
X166268327Y-87569699D01*
X166365000Y-87336310D01*
X166365000Y-86645750D01*
X166206250Y-86487000D01*
X165407000Y-86487000D01*
X165153000Y-86487000D01*
X164353750Y-86487000D01*
X164195000Y-86645750D01*
X163858460Y-86645750D01*
X163915300Y-86360000D01*
X163915300Y-85383690D01*
X164195000Y-85383690D01*
X164195000Y-86074250D01*
X164353750Y-86233000D01*
X165153000Y-86233000D01*
X165153000Y-85033750D01*
X165407000Y-85033750D01*
X165407000Y-86233000D01*
X166206250Y-86233000D01*
X166365000Y-86074250D01*
X166365000Y-85383690D01*
X166268327Y-85150301D01*
X166089698Y-84971673D01*
X165856309Y-84875000D01*
X165565750Y-84875000D01*
X165407000Y-85033750D01*
X165153000Y-85033750D01*
X164994250Y-84875000D01*
X164703691Y-84875000D01*
X164470302Y-84971673D01*
X164291673Y-85150301D01*
X164195000Y-85383690D01*
X163915300Y-85383690D01*
X163915300Y-84237600D01*
X163857448Y-83946761D01*
X163692701Y-83700199D01*
X163619802Y-83627300D01*
X164543987Y-82703115D01*
X164578110Y-82726431D01*
X164830000Y-82777440D01*
X165730000Y-82777440D01*
X165965317Y-82733162D01*
X166181441Y-82594090D01*
X166326431Y-82381890D01*
X166377440Y-82130000D01*
X166377440Y-81334442D01*
X166860399Y-81817401D01*
X167106960Y-81982148D01*
X167397800Y-82040000D01*
X167902560Y-82040000D01*
X167902560Y-82555000D01*
X167946838Y-82790317D01*
X168085910Y-83006441D01*
X168298110Y-83151431D01*
X168550000Y-83202440D01*
X169610000Y-83202440D01*
X169797632Y-83167135D01*
X170048299Y-83417802D01*
X170263760Y-83561767D01*
X170294861Y-83582548D01*
X170585700Y-83640400D01*
X171970800Y-83640400D01*
X172261639Y-83582548D01*
X172508201Y-83417801D01*
X172707001Y-83219001D01*
X172871748Y-82972439D01*
X172929600Y-82681600D01*
X172929600Y-81764300D01*
X172871748Y-81473461D01*
X172757476Y-81302440D01*
X172707001Y-81226898D01*
X172391228Y-80911126D01*
X172445000Y-80781310D01*
X172445000Y-80615750D01*
X172286250Y-80457000D01*
X171894493Y-80457000D01*
X171776339Y-80378052D01*
X171485500Y-80320200D01*
X171133000Y-80320200D01*
X171133000Y-80203000D01*
X171153000Y-80203000D01*
X171153000Y-79528750D01*
X171407000Y-79528750D01*
X171407000Y-80203000D01*
X172286250Y-80203000D01*
X172445000Y-80044250D01*
X172445000Y-79878690D01*
X172348327Y-79645301D01*
X172169698Y-79466673D01*
X171936309Y-79370000D01*
X171565750Y-79370000D01*
X171407000Y-79528750D01*
X171153000Y-79528750D01*
X170994250Y-79370000D01*
X170623691Y-79370000D01*
X170540721Y-79404367D01*
X170522701Y-79377399D01*
X166807901Y-75662599D01*
X166561339Y-75497852D01*
X166377440Y-75461272D01*
X166377440Y-75350000D01*
X166333162Y-75114683D01*
X166194090Y-74898559D01*
X165981890Y-74753569D01*
X165730000Y-74702560D01*
X164830000Y-74702560D01*
X164594683Y-74746838D01*
X164378559Y-74885910D01*
X164332631Y-74953129D01*
X161693701Y-72314199D01*
X161447139Y-72149452D01*
X161156300Y-72091600D01*
X113768000Y-72091600D01*
X113477161Y-72149452D01*
X113230599Y-72314199D01*
X111742299Y-73802499D01*
X111577552Y-74049061D01*
X111519700Y-74339900D01*
X111519700Y-74479797D01*
X111384639Y-74389552D01*
X111093800Y-74331700D01*
X110577700Y-74331700D01*
X110286861Y-74389552D01*
X110040299Y-74554299D01*
X109572499Y-75022099D01*
X109407752Y-75268661D01*
X109349900Y-75559500D01*
X104850000Y-75559500D01*
X104850000Y-70560000D01*
X180900000Y-70560000D01*
X180900000Y-123750000D01*
G36*
X142232560Y-107100000D02*
X142232560Y-108800000D01*
X142276838Y-109035317D01*
X142415910Y-109251441D01*
X142570000Y-109356726D01*
X142570000Y-109903900D01*
X142627852Y-110194739D01*
X142792599Y-110441301D01*
X143910230Y-111558932D01*
X143780000Y-111532560D01*
X142880000Y-111532560D01*
X142644683Y-111576838D01*
X142428559Y-111715910D01*
X142283569Y-111928110D01*
X142232560Y-112180000D01*
X142232560Y-113880000D01*
X142276838Y-114115317D01*
X142345937Y-114222700D01*
X139053663Y-114222700D01*
X139021527Y-114190508D01*
X138677999Y-114047862D01*
X138306033Y-114047538D01*
X138167440Y-114104803D01*
X138167440Y-113655000D01*
X138123162Y-113419683D01*
X137984090Y-113203559D01*
X137771890Y-113058569D01*
X137657435Y-113035391D01*
X137879698Y-112943327D01*
X138058327Y-112764699D01*
X138155000Y-112531310D01*
X138155000Y-112365750D01*
X137996250Y-112207000D01*
X137117000Y-112207000D01*
X137117000Y-112227000D01*
X136863000Y-112227000D01*
X136863000Y-112207000D01*
X136843000Y-112207000D01*
X136843000Y-111953000D01*
X136863000Y-111953000D01*
X136863000Y-111933000D01*
X137117000Y-111933000D01*
X137117000Y-111953000D01*
X137996250Y-111953000D01*
X138155000Y-111794250D01*
X138155000Y-111628690D01*
X138058327Y-111395301D01*
X137879698Y-111216673D01*
X137646309Y-111120000D01*
X137275750Y-111120000D01*
X137117002Y-111278748D01*
X137117002Y-111208400D01*
X141256202Y-107069200D01*
X142238797Y-107069200D01*
X142232560Y-107100000D01*
X142232560Y-107100000D01*
G37*
X142232560Y-107100000D02*
X142232560Y-108800000D01*
X142276838Y-109035317D01*
X142415910Y-109251441D01*
X142570000Y-109356726D01*
X142570000Y-109903900D01*
X142627852Y-110194739D01*
X142792599Y-110441301D01*
X143910230Y-111558932D01*
X143780000Y-111532560D01*
X142880000Y-111532560D01*
X142644683Y-111576838D01*
X142428559Y-111715910D01*
X142283569Y-111928110D01*
X142232560Y-112180000D01*
X142232560Y-113880000D01*
X142276838Y-114115317D01*
X142345937Y-114222700D01*
X139053663Y-114222700D01*
X139021527Y-114190508D01*
X138677999Y-114047862D01*
X138306033Y-114047538D01*
X138167440Y-114104803D01*
X138167440Y-113655000D01*
X138123162Y-113419683D01*
X137984090Y-113203559D01*
X137771890Y-113058569D01*
X137657435Y-113035391D01*
X137879698Y-112943327D01*
X138058327Y-112764699D01*
X138155000Y-112531310D01*
X138155000Y-112365750D01*
X137996250Y-112207000D01*
X137117000Y-112207000D01*
X137117000Y-112227000D01*
X136863000Y-112227000D01*
X136863000Y-112207000D01*
X136843000Y-112207000D01*
X136843000Y-111953000D01*
X136863000Y-111953000D01*
X136863000Y-111933000D01*
X137117000Y-111933000D01*
X137117000Y-111953000D01*
X137996250Y-111953000D01*
X138155000Y-111794250D01*
X138155000Y-111628690D01*
X138058327Y-111395301D01*
X137879698Y-111216673D01*
X137646309Y-111120000D01*
X137275750Y-111120000D01*
X137117002Y-111278748D01*
X137117002Y-111208400D01*
X141256202Y-107069200D01*
X142238797Y-107069200D01*
X142232560Y-107100000D01*
G36*
X153595400Y-112227000D02*
X153373000Y-112227000D01*
X153373000Y-112207000D01*
X153353000Y-112207000D01*
X153353000Y-111953000D01*
X153373000Y-111953000D01*
X153373000Y-111933000D01*
X153595400Y-111933000D01*
X153595400Y-112227000D01*
X153595400Y-112227000D01*
G37*
X153595400Y-112227000D02*
X153373000Y-112227000D01*
X153373000Y-112207000D01*
X153353000Y-112207000D01*
X153353000Y-111953000D01*
X153373000Y-111953000D01*
X153373000Y-111933000D01*
X153595400Y-111933000D01*
X153595400Y-112227000D01*
G36*
X144628800Y-107829302D02*
X144628800Y-108896500D01*
X144686652Y-109187339D01*
X144851399Y-109433901D01*
X145329299Y-109911801D01*
X145575861Y-110076548D01*
X145866700Y-110134400D01*
X151848798Y-110134400D01*
X152837120Y-111122722D01*
X152610302Y-111216673D01*
X152431673Y-111395301D01*
X152400912Y-111469565D01*
X152294090Y-111303559D01*
X152081890Y-111158569D01*
X151830000Y-111107560D01*
X150770000Y-111107560D01*
X150534683Y-111151838D01*
X150521712Y-111160185D01*
X150510139Y-111152452D01*
X150219300Y-111094600D01*
X145595502Y-111094600D01*
X144090000Y-109589098D01*
X144090000Y-109355105D01*
X144231441Y-109264090D01*
X144376431Y-109051890D01*
X144427440Y-108800000D01*
X144427440Y-107627942D01*
X144628800Y-107829302D01*
X144628800Y-107829302D01*
G37*
X144628800Y-107829302D02*
X144628800Y-108896500D01*
X144686652Y-109187339D01*
X144851399Y-109433901D01*
X145329299Y-109911801D01*
X145575861Y-110076548D01*
X145866700Y-110134400D01*
X151848798Y-110134400D01*
X152837120Y-111122722D01*
X152610302Y-111216673D01*
X152431673Y-111395301D01*
X152400912Y-111469565D01*
X152294090Y-111303559D01*
X152081890Y-111158569D01*
X151830000Y-111107560D01*
X150770000Y-111107560D01*
X150534683Y-111151838D01*
X150521712Y-111160185D01*
X150510139Y-111152452D01*
X150219300Y-111094600D01*
X145595502Y-111094600D01*
X144090000Y-109589098D01*
X144090000Y-109355105D01*
X144231441Y-109264090D01*
X144376431Y-109051890D01*
X144427440Y-108800000D01*
X144427440Y-107627942D01*
X144628800Y-107829302D01*
G36*
X129888999Y-89700301D02*
X130135561Y-89865048D01*
X130426400Y-89922900D01*
X132060629Y-89922900D01*
X132060438Y-90142667D01*
X132202483Y-90486443D01*
X132465273Y-90749692D01*
X132808801Y-90892338D01*
X133180767Y-90892662D01*
X133342560Y-90825811D01*
X133342560Y-92290000D01*
X133386838Y-92525317D01*
X133525910Y-92741441D01*
X133738110Y-92886431D01*
X133990000Y-92937440D01*
X134067700Y-92937440D01*
X134067700Y-94642198D01*
X133902599Y-94807299D01*
X133737852Y-95053861D01*
X133732421Y-95081163D01*
X133538559Y-95205910D01*
X133393569Y-95418110D01*
X133342560Y-95670000D01*
X133342560Y-97370000D01*
X133386838Y-97605317D01*
X133525910Y-97821441D01*
X133738110Y-97966431D01*
X133990000Y-98017440D01*
X134890000Y-98017440D01*
X135125317Y-97973162D01*
X135341441Y-97834090D01*
X135486431Y-97621890D01*
X135537440Y-97370000D01*
X135537440Y-95670000D01*
X135493162Y-95434683D01*
X135449912Y-95367471D01*
X135529848Y-95247839D01*
X135587700Y-94957000D01*
X135587700Y-92087651D01*
X135665648Y-92035567D01*
X135837373Y-92207592D01*
X136180901Y-92350238D01*
X136253907Y-92350302D01*
X136286838Y-92525317D01*
X136425910Y-92741441D01*
X136580000Y-92846726D01*
X136580000Y-94525300D01*
X136637852Y-94816139D01*
X136788535Y-95041652D01*
X136654683Y-95066838D01*
X136438559Y-95205910D01*
X136293569Y-95418110D01*
X136242560Y-95670000D01*
X136242560Y-97370000D01*
X136286838Y-97605317D01*
X136425910Y-97821441D01*
X136580000Y-97926726D01*
X136580000Y-99160498D01*
X135388486Y-100352012D01*
X135354090Y-100298559D01*
X135141890Y-100153569D01*
X134890000Y-100102560D01*
X133990000Y-100102560D01*
X133754683Y-100146838D01*
X133538559Y-100285910D01*
X133393569Y-100498110D01*
X133342560Y-100750000D01*
X133342560Y-102135516D01*
X133235900Y-102114300D01*
X123185000Y-102114300D01*
X123185000Y-101885750D01*
X123026250Y-101727000D01*
X122227000Y-101727000D01*
X122227000Y-101747000D01*
X121973000Y-101747000D01*
X121973000Y-101727000D01*
X121173750Y-101727000D01*
X121015000Y-101885750D01*
X121015000Y-102114300D01*
X120528137Y-102114300D01*
X120677448Y-101890839D01*
X120735300Y-101600000D01*
X120735300Y-100623690D01*
X121015000Y-100623690D01*
X121015000Y-101314250D01*
X121173750Y-101473000D01*
X121973000Y-101473000D01*
X121973000Y-100273750D01*
X122227000Y-100273750D01*
X122227000Y-101473000D01*
X123026250Y-101473000D01*
X123185000Y-101314250D01*
X123185000Y-100623690D01*
X123088327Y-100390301D01*
X122909698Y-100211673D01*
X122676309Y-100115000D01*
X122385750Y-100115000D01*
X122227000Y-100273750D01*
X121973000Y-100273750D01*
X121814250Y-100115000D01*
X121523691Y-100115000D01*
X121290302Y-100211673D01*
X121111673Y-100390301D01*
X121015000Y-100623690D01*
X120735300Y-100623690D01*
X120735300Y-98184202D01*
X121151514Y-97767988D01*
X121185910Y-97821441D01*
X121398110Y-97966431D01*
X121650000Y-98017440D01*
X122550000Y-98017440D01*
X122785317Y-97973162D01*
X123001441Y-97834090D01*
X123146431Y-97621890D01*
X123197440Y-97370000D01*
X123197440Y-96104600D01*
X123966564Y-96104600D01*
X123930562Y-96191301D01*
X123930238Y-96563267D01*
X124072283Y-96907043D01*
X124284700Y-97119831D01*
X124284700Y-97470000D01*
X124342552Y-97760839D01*
X124507299Y-98007401D01*
X124753861Y-98172148D01*
X124873405Y-98195927D01*
X124905910Y-98246441D01*
X125118110Y-98391431D01*
X125370000Y-98442440D01*
X126430000Y-98442440D01*
X126665317Y-98398162D01*
X126881441Y-98259090D01*
X126944925Y-98166177D01*
X126953861Y-98172148D01*
X127073405Y-98195927D01*
X127105910Y-98246441D01*
X127318110Y-98391431D01*
X127570000Y-98442440D01*
X128630000Y-98442440D01*
X128865317Y-98398162D01*
X129081441Y-98259090D01*
X129226431Y-98046890D01*
X129277440Y-97795000D01*
X129277440Y-97145000D01*
X129233162Y-96909683D01*
X129094090Y-96693559D01*
X128881890Y-96548569D01*
X128767435Y-96525391D01*
X128989698Y-96433327D01*
X129168327Y-96254699D01*
X129265000Y-96021310D01*
X129265000Y-95855750D01*
X129106250Y-95697000D01*
X128227000Y-95697000D01*
X128227000Y-95717000D01*
X127973000Y-95717000D01*
X127973000Y-95697000D01*
X127953000Y-95697000D01*
X127953000Y-95443000D01*
X127973000Y-95443000D01*
X127973000Y-94768750D01*
X128227000Y-94768750D01*
X128227000Y-95443000D01*
X129106250Y-95443000D01*
X129265000Y-95284250D01*
X129265000Y-95118690D01*
X129168327Y-94885301D01*
X128989698Y-94706673D01*
X128756309Y-94610000D01*
X128385750Y-94610000D01*
X128227000Y-94768750D01*
X127973000Y-94768750D01*
X127814250Y-94610000D01*
X127443691Y-94610000D01*
X127347098Y-94650010D01*
X127292701Y-94568599D01*
X126634988Y-93910886D01*
X126573617Y-93762357D01*
X126310827Y-93499108D01*
X125967299Y-93356462D01*
X125595333Y-93356138D01*
X125251557Y-93498183D01*
X125218382Y-93531300D01*
X123475902Y-93531300D01*
X122817229Y-92872627D01*
X123001441Y-92754090D01*
X123146431Y-92541890D01*
X123197440Y-92290000D01*
X123197440Y-90590000D01*
X123153162Y-90354683D01*
X123014090Y-90138559D01*
X122806725Y-89996873D01*
X122802148Y-89973861D01*
X122637401Y-89727299D01*
X122494327Y-89631700D01*
X129820398Y-89631700D01*
X129888999Y-89700301D01*
X129888999Y-89700301D01*
G37*
X129888999Y-89700301D02*
X130135561Y-89865048D01*
X130426400Y-89922900D01*
X132060629Y-89922900D01*
X132060438Y-90142667D01*
X132202483Y-90486443D01*
X132465273Y-90749692D01*
X132808801Y-90892338D01*
X133180767Y-90892662D01*
X133342560Y-90825811D01*
X133342560Y-92290000D01*
X133386838Y-92525317D01*
X133525910Y-92741441D01*
X133738110Y-92886431D01*
X133990000Y-92937440D01*
X134067700Y-92937440D01*
X134067700Y-94642198D01*
X133902599Y-94807299D01*
X133737852Y-95053861D01*
X133732421Y-95081163D01*
X133538559Y-95205910D01*
X133393569Y-95418110D01*
X133342560Y-95670000D01*
X133342560Y-97370000D01*
X133386838Y-97605317D01*
X133525910Y-97821441D01*
X133738110Y-97966431D01*
X133990000Y-98017440D01*
X134890000Y-98017440D01*
X135125317Y-97973162D01*
X135341441Y-97834090D01*
X135486431Y-97621890D01*
X135537440Y-97370000D01*
X135537440Y-95670000D01*
X135493162Y-95434683D01*
X135449912Y-95367471D01*
X135529848Y-95247839D01*
X135587700Y-94957000D01*
X135587700Y-92087651D01*
X135665648Y-92035567D01*
X135837373Y-92207592D01*
X136180901Y-92350238D01*
X136253907Y-92350302D01*
X136286838Y-92525317D01*
X136425910Y-92741441D01*
X136580000Y-92846726D01*
X136580000Y-94525300D01*
X136637852Y-94816139D01*
X136788535Y-95041652D01*
X136654683Y-95066838D01*
X136438559Y-95205910D01*
X136293569Y-95418110D01*
X136242560Y-95670000D01*
X136242560Y-97370000D01*
X136286838Y-97605317D01*
X136425910Y-97821441D01*
X136580000Y-97926726D01*
X136580000Y-99160498D01*
X135388486Y-100352012D01*
X135354090Y-100298559D01*
X135141890Y-100153569D01*
X134890000Y-100102560D01*
X133990000Y-100102560D01*
X133754683Y-100146838D01*
X133538559Y-100285910D01*
X133393569Y-100498110D01*
X133342560Y-100750000D01*
X133342560Y-102135516D01*
X133235900Y-102114300D01*
X123185000Y-102114300D01*
X123185000Y-101885750D01*
X123026250Y-101727000D01*
X122227000Y-101727000D01*
X122227000Y-101747000D01*
X121973000Y-101747000D01*
X121973000Y-101727000D01*
X121173750Y-101727000D01*
X121015000Y-101885750D01*
X121015000Y-102114300D01*
X120528137Y-102114300D01*
X120677448Y-101890839D01*
X120735300Y-101600000D01*
X120735300Y-100623690D01*
X121015000Y-100623690D01*
X121015000Y-101314250D01*
X121173750Y-101473000D01*
X121973000Y-101473000D01*
X121973000Y-100273750D01*
X122227000Y-100273750D01*
X122227000Y-101473000D01*
X123026250Y-101473000D01*
X123185000Y-101314250D01*
X123185000Y-100623690D01*
X123088327Y-100390301D01*
X122909698Y-100211673D01*
X122676309Y-100115000D01*
X122385750Y-100115000D01*
X122227000Y-100273750D01*
X121973000Y-100273750D01*
X121814250Y-100115000D01*
X121523691Y-100115000D01*
X121290302Y-100211673D01*
X121111673Y-100390301D01*
X121015000Y-100623690D01*
X120735300Y-100623690D01*
X120735300Y-98184202D01*
X121151514Y-97767988D01*
X121185910Y-97821441D01*
X121398110Y-97966431D01*
X121650000Y-98017440D01*
X122550000Y-98017440D01*
X122785317Y-97973162D01*
X123001441Y-97834090D01*
X123146431Y-97621890D01*
X123197440Y-97370000D01*
X123197440Y-96104600D01*
X123966564Y-96104600D01*
X123930562Y-96191301D01*
X123930238Y-96563267D01*
X124072283Y-96907043D01*
X124284700Y-97119831D01*
X124284700Y-97470000D01*
X124342552Y-97760839D01*
X124507299Y-98007401D01*
X124753861Y-98172148D01*
X124873405Y-98195927D01*
X124905910Y-98246441D01*
X125118110Y-98391431D01*
X125370000Y-98442440D01*
X126430000Y-98442440D01*
X126665317Y-98398162D01*
X126881441Y-98259090D01*
X126944925Y-98166177D01*
X126953861Y-98172148D01*
X127073405Y-98195927D01*
X127105910Y-98246441D01*
X127318110Y-98391431D01*
X127570000Y-98442440D01*
X128630000Y-98442440D01*
X128865317Y-98398162D01*
X129081441Y-98259090D01*
X129226431Y-98046890D01*
X129277440Y-97795000D01*
X129277440Y-97145000D01*
X129233162Y-96909683D01*
X129094090Y-96693559D01*
X128881890Y-96548569D01*
X128767435Y-96525391D01*
X128989698Y-96433327D01*
X129168327Y-96254699D01*
X129265000Y-96021310D01*
X129265000Y-95855750D01*
X129106250Y-95697000D01*
X128227000Y-95697000D01*
X128227000Y-95717000D01*
X127973000Y-95717000D01*
X127973000Y-95697000D01*
X127953000Y-95697000D01*
X127953000Y-95443000D01*
X127973000Y-95443000D01*
X127973000Y-94768750D01*
X128227000Y-94768750D01*
X128227000Y-95443000D01*
X129106250Y-95443000D01*
X129265000Y-95284250D01*
X129265000Y-95118690D01*
X129168327Y-94885301D01*
X128989698Y-94706673D01*
X128756309Y-94610000D01*
X128385750Y-94610000D01*
X128227000Y-94768750D01*
X127973000Y-94768750D01*
X127814250Y-94610000D01*
X127443691Y-94610000D01*
X127347098Y-94650010D01*
X127292701Y-94568599D01*
X126634988Y-93910886D01*
X126573617Y-93762357D01*
X126310827Y-93499108D01*
X125967299Y-93356462D01*
X125595333Y-93356138D01*
X125251557Y-93498183D01*
X125218382Y-93531300D01*
X123475902Y-93531300D01*
X122817229Y-92872627D01*
X123001441Y-92754090D01*
X123146431Y-92541890D01*
X123197440Y-92290000D01*
X123197440Y-90590000D01*
X123153162Y-90354683D01*
X123014090Y-90138559D01*
X122806725Y-89996873D01*
X122802148Y-89973861D01*
X122637401Y-89727299D01*
X122494327Y-89631700D01*
X129820398Y-89631700D01*
X129888999Y-89700301D01*
G36*
X143651198Y-94610000D02*
X143625750Y-94610000D01*
X143467000Y-94768750D01*
X143467000Y-95443000D01*
X144346250Y-95443000D01*
X144415224Y-95374026D01*
X147273999Y-98232801D01*
X147520560Y-98397548D01*
X147811400Y-98455400D01*
X152235300Y-98455400D01*
X152235300Y-100102560D01*
X151770000Y-100102560D01*
X151534683Y-100146838D01*
X151318559Y-100285910D01*
X151173569Y-100498110D01*
X151122560Y-100750000D01*
X151122560Y-102015400D01*
X149815502Y-102015400D01*
X144732701Y-96932599D01*
X144486139Y-96767852D01*
X144366595Y-96744073D01*
X144334090Y-96693559D01*
X144121890Y-96548569D01*
X144007435Y-96525391D01*
X144229698Y-96433327D01*
X144408327Y-96254699D01*
X144505000Y-96021310D01*
X144505000Y-95855750D01*
X144346250Y-95697000D01*
X143467000Y-95697000D01*
X143467000Y-95717000D01*
X143213000Y-95717000D01*
X143213000Y-95697000D01*
X143193000Y-95697000D01*
X143193000Y-95443000D01*
X143213000Y-95443000D01*
X143213000Y-94768750D01*
X143054250Y-94610000D01*
X142683691Y-94610000D01*
X142620408Y-94636213D01*
X142532801Y-94505099D01*
X141242500Y-93214798D01*
X141242500Y-92201302D01*
X143651198Y-94610000D01*
X143651198Y-94610000D01*
G37*
X143651198Y-94610000D02*
X143625750Y-94610000D01*
X143467000Y-94768750D01*
X143467000Y-95443000D01*
X144346250Y-95443000D01*
X144415224Y-95374026D01*
X147273999Y-98232801D01*
X147520560Y-98397548D01*
X147811400Y-98455400D01*
X152235300Y-98455400D01*
X152235300Y-100102560D01*
X151770000Y-100102560D01*
X151534683Y-100146838D01*
X151318559Y-100285910D01*
X151173569Y-100498110D01*
X151122560Y-100750000D01*
X151122560Y-102015400D01*
X149815502Y-102015400D01*
X144732701Y-96932599D01*
X144486139Y-96767852D01*
X144366595Y-96744073D01*
X144334090Y-96693559D01*
X144121890Y-96548569D01*
X144007435Y-96525391D01*
X144229698Y-96433327D01*
X144408327Y-96254699D01*
X144505000Y-96021310D01*
X144505000Y-95855750D01*
X144346250Y-95697000D01*
X143467000Y-95697000D01*
X143467000Y-95717000D01*
X143213000Y-95717000D01*
X143213000Y-95697000D01*
X143193000Y-95697000D01*
X143193000Y-95443000D01*
X143213000Y-95443000D01*
X143213000Y-94768750D01*
X143054250Y-94610000D01*
X142683691Y-94610000D01*
X142620408Y-94636213D01*
X142532801Y-94505099D01*
X141242500Y-93214798D01*
X141242500Y-92201302D01*
X143651198Y-94610000D01*
G36*
X137355400Y-101747000D02*
X137213000Y-101747000D01*
X137213000Y-101727000D01*
X137193000Y-101727000D01*
X137193000Y-101473000D01*
X137213000Y-101473000D01*
X137213000Y-101453000D01*
X137355400Y-101453000D01*
X137355400Y-101747000D01*
X137355400Y-101747000D01*
G37*
X137355400Y-101747000D02*
X137213000Y-101747000D01*
X137213000Y-101727000D01*
X137193000Y-101727000D01*
X137193000Y-101473000D01*
X137213000Y-101473000D01*
X137213000Y-101453000D01*
X137355400Y-101453000D01*
X137355400Y-101747000D01*
G36*
X121165172Y-89389674D02*
X121009033Y-89389538D01*
X120665257Y-89531583D01*
X120425562Y-89770860D01*
X120019701Y-89364999D01*
X119773139Y-89200252D01*
X119482300Y-89142400D01*
X116566902Y-89142400D01*
X114355764Y-86931262D01*
X114688152Y-86760942D01*
X114956041Y-86445826D01*
X115049540Y-86220062D01*
X114922257Y-86057000D01*
X114157000Y-86057000D01*
X114157000Y-86077000D01*
X114081527Y-86077000D01*
X114098832Y-85990000D01*
X114157002Y-85990000D01*
X114157002Y-85823630D01*
X114320065Y-85949554D01*
X114606073Y-85803000D01*
X114922257Y-85803000D01*
X115049540Y-85639938D01*
X114962595Y-85430000D01*
X115049540Y-85220062D01*
X114922257Y-85057000D01*
X114606073Y-85057000D01*
X114356598Y-84929166D01*
X114456411Y-84909312D01*
X114615518Y-84803000D01*
X114922257Y-84803000D01*
X115049540Y-84639938D01*
X114964293Y-84434100D01*
X115030079Y-84335644D01*
X115110767Y-83930000D01*
X115030079Y-83524356D01*
X114967032Y-83430000D01*
X115030079Y-83335644D01*
X115043528Y-83268030D01*
X121165172Y-89389674D01*
X121165172Y-89389674D01*
G37*
X121165172Y-89389674D02*
X121009033Y-89389538D01*
X120665257Y-89531583D01*
X120425562Y-89770860D01*
X120019701Y-89364999D01*
X119773139Y-89200252D01*
X119482300Y-89142400D01*
X116566902Y-89142400D01*
X114355764Y-86931262D01*
X114688152Y-86760942D01*
X114956041Y-86445826D01*
X115049540Y-86220062D01*
X114922257Y-86057000D01*
X114157000Y-86057000D01*
X114157000Y-86077000D01*
X114081527Y-86077000D01*
X114098832Y-85990000D01*
X114157002Y-85990000D01*
X114157002Y-85823630D01*
X114320065Y-85949554D01*
X114606073Y-85803000D01*
X114922257Y-85803000D01*
X115049540Y-85639938D01*
X114962595Y-85430000D01*
X115049540Y-85220062D01*
X114922257Y-85057000D01*
X114606073Y-85057000D01*
X114356598Y-84929166D01*
X114456411Y-84909312D01*
X114615518Y-84803000D01*
X114922257Y-84803000D01*
X115049540Y-84639938D01*
X114964293Y-84434100D01*
X115030079Y-84335644D01*
X115110767Y-83930000D01*
X115030079Y-83524356D01*
X114967032Y-83430000D01*
X115030079Y-83335644D01*
X115043528Y-83268030D01*
X121165172Y-89389674D01*
G36*
X136679698Y-78100000D02*
X136333691Y-78100000D01*
X136100302Y-78196673D01*
X135921673Y-78375301D01*
X135890912Y-78449565D01*
X135784090Y-78283559D01*
X135571890Y-78138569D01*
X135320000Y-78087560D01*
X134260000Y-78087560D01*
X134024683Y-78131838D01*
X133808559Y-78270910D01*
X133765716Y-78333613D01*
X133643861Y-78357852D01*
X133397299Y-78522599D01*
X132036900Y-79882998D01*
X131916252Y-79882998D01*
X132075000Y-79724250D01*
X132075000Y-79033690D01*
X131978327Y-78800301D01*
X131799698Y-78621673D01*
X131566309Y-78525000D01*
X131275750Y-78525000D01*
X131117000Y-78683750D01*
X131117000Y-79883000D01*
X131137000Y-79883000D01*
X131137000Y-80137000D01*
X131117000Y-80137000D01*
X131117000Y-80157000D01*
X130863000Y-80157000D01*
X130863000Y-80137000D01*
X130843000Y-80137000D01*
X130843000Y-79883000D01*
X130863000Y-79883000D01*
X130863000Y-78683750D01*
X130704250Y-78525000D01*
X130525200Y-78525000D01*
X130525200Y-76424443D01*
X130540000Y-76427440D01*
X131440000Y-76427440D01*
X131675317Y-76383162D01*
X131891441Y-76244090D01*
X132036431Y-76031890D01*
X132087440Y-75780000D01*
X132087440Y-75690000D01*
X134269698Y-75690000D01*
X136679698Y-78100000D01*
X136679698Y-78100000D01*
G37*
X136679698Y-78100000D02*
X136333691Y-78100000D01*
X136100302Y-78196673D01*
X135921673Y-78375301D01*
X135890912Y-78449565D01*
X135784090Y-78283559D01*
X135571890Y-78138569D01*
X135320000Y-78087560D01*
X134260000Y-78087560D01*
X134024683Y-78131838D01*
X133808559Y-78270910D01*
X133765716Y-78333613D01*
X133643861Y-78357852D01*
X133397299Y-78522599D01*
X132036900Y-79882998D01*
X131916252Y-79882998D01*
X132075000Y-79724250D01*
X132075000Y-79033690D01*
X131978327Y-78800301D01*
X131799698Y-78621673D01*
X131566309Y-78525000D01*
X131275750Y-78525000D01*
X131117000Y-78683750D01*
X131117000Y-79883000D01*
X131137000Y-79883000D01*
X131137000Y-80137000D01*
X131117000Y-80137000D01*
X131117000Y-80157000D01*
X130863000Y-80157000D01*
X130863000Y-80137000D01*
X130843000Y-80137000D01*
X130843000Y-79883000D01*
X130863000Y-79883000D01*
X130863000Y-78683750D01*
X130704250Y-78525000D01*
X130525200Y-78525000D01*
X130525200Y-76424443D01*
X130540000Y-76427440D01*
X131440000Y-76427440D01*
X131675317Y-76383162D01*
X131891441Y-76244090D01*
X132036431Y-76031890D01*
X132087440Y-75780000D01*
X132087440Y-75690000D01*
X134269698Y-75690000D01*
X136679698Y-78100000D01*
G36*
X137114100Y-79179898D02*
X137086998Y-79207000D01*
X136863000Y-79207000D01*
X136863000Y-79187000D01*
X136843000Y-79187000D01*
X136843000Y-78933000D01*
X136863000Y-78933000D01*
X136863000Y-78913000D01*
X137114100Y-78913000D01*
X137114100Y-79179898D01*
X137114100Y-79179898D01*
G37*
X137114100Y-79179898D02*
X137086998Y-79207000D01*
X136863000Y-79207000D01*
X136863000Y-79187000D01*
X136843000Y-79187000D01*
X136843000Y-78933000D01*
X136863000Y-78933000D01*
X136863000Y-78913000D01*
X137114100Y-78913000D01*
X137114100Y-79179898D01*
M02*
