G04 #@! TF.FileFunction,Legend,Top*
%FSLAX46Y46*%
G04 Gerber Fmt 4.6, Leading zero omitted, Abs format (unit mm)*
G04 Created by KiCad (PCBNEW 4.0.7) date 04/16/19 21:40:38*
%MOMM*%
%LPD*%
G01*
G04 APERTURE LIST*
%ADD10C,0.100000*%
%ADD11C,0.120000*%
%ADD12C,0.150000*%
G04 APERTURE END LIST*
D10*
D11*
X112320000Y-86490000D02*
X112635507Y-86490000D01*
X114424493Y-86490000D02*
X114740000Y-86490000D01*
X113424493Y-86490000D02*
X113635507Y-86490000D01*
X112320000Y-75615000D02*
X112320000Y-86490000D01*
X114740000Y-74370000D02*
X114740000Y-86490000D01*
X112320000Y-75615000D02*
X112421724Y-75615000D01*
X114424493Y-74370000D02*
X114740000Y-74370000D01*
X112320000Y-74930000D02*
X112320000Y-74245000D01*
X112320000Y-74245000D02*
X113030000Y-74245000D01*
X154670000Y-92510000D02*
X152670000Y-92510000D01*
X152670000Y-90370000D02*
X154670000Y-90370000D01*
X130540000Y-76000000D02*
X128540000Y-76000000D01*
X128540000Y-73860000D02*
X130540000Y-73860000D01*
X130540000Y-81080000D02*
X128540000Y-81080000D01*
X128540000Y-78940000D02*
X130540000Y-78940000D01*
X130540000Y-86160000D02*
X128540000Y-86160000D01*
X128540000Y-84020000D02*
X130540000Y-84020000D01*
X154670000Y-102670000D02*
X152670000Y-102670000D01*
X152670000Y-100530000D02*
X154670000Y-100530000D01*
X154670000Y-97590000D02*
X152670000Y-97590000D01*
X152670000Y-95450000D02*
X154670000Y-95450000D01*
X130540000Y-109020000D02*
X128540000Y-109020000D01*
X128540000Y-106880000D02*
X130540000Y-106880000D01*
X145780000Y-76000000D02*
X143780000Y-76000000D01*
X143780000Y-73860000D02*
X145780000Y-73860000D01*
X130540000Y-119180000D02*
X128540000Y-119180000D01*
X128540000Y-117040000D02*
X130540000Y-117040000D01*
X130540000Y-114100000D02*
X128540000Y-114100000D01*
X128540000Y-111960000D02*
X130540000Y-111960000D01*
X145780000Y-86160000D02*
X143780000Y-86160000D01*
X143780000Y-84020000D02*
X145780000Y-84020000D01*
X145780000Y-81080000D02*
X143780000Y-81080000D01*
X143780000Y-78940000D02*
X145780000Y-78940000D01*
X145780000Y-109020000D02*
X143780000Y-109020000D01*
X143780000Y-106880000D02*
X145780000Y-106880000D01*
X164830000Y-77270000D02*
X162830000Y-77270000D01*
X162830000Y-75130000D02*
X164830000Y-75130000D01*
X145780000Y-119180000D02*
X143780000Y-119180000D01*
X143780000Y-117040000D02*
X145780000Y-117040000D01*
X145780000Y-114100000D02*
X143780000Y-114100000D01*
X143780000Y-111960000D02*
X145780000Y-111960000D01*
X164830000Y-87430000D02*
X162830000Y-87430000D01*
X162830000Y-85290000D02*
X164830000Y-85290000D01*
X164830000Y-82350000D02*
X162830000Y-82350000D01*
X162830000Y-80210000D02*
X164830000Y-80210000D01*
X163560000Y-109020000D02*
X161560000Y-109020000D01*
X161560000Y-106880000D02*
X163560000Y-106880000D01*
X121650000Y-92510000D02*
X119650000Y-92510000D01*
X119650000Y-90370000D02*
X121650000Y-90370000D01*
X163560000Y-119180000D02*
X161560000Y-119180000D01*
X161560000Y-117040000D02*
X163560000Y-117040000D01*
X163560000Y-114100000D02*
X161560000Y-114100000D01*
X161560000Y-111960000D02*
X163560000Y-111960000D01*
X121650000Y-102670000D02*
X119650000Y-102670000D01*
X119650000Y-100530000D02*
X121650000Y-100530000D01*
X121650000Y-97590000D02*
X119650000Y-97590000D01*
X119650000Y-95450000D02*
X121650000Y-95450000D01*
X114030000Y-109020000D02*
X112030000Y-109020000D01*
X112030000Y-106880000D02*
X114030000Y-106880000D01*
X136890000Y-92510000D02*
X134890000Y-92510000D01*
X134890000Y-90370000D02*
X136890000Y-90370000D01*
X136890000Y-102670000D02*
X134890000Y-102670000D01*
X134890000Y-100530000D02*
X136890000Y-100530000D01*
X136890000Y-97590000D02*
X134890000Y-97590000D01*
X134890000Y-95450000D02*
X136890000Y-95450000D01*
X114030000Y-119180000D02*
X112030000Y-119180000D01*
X112030000Y-117040000D02*
X114030000Y-117040000D01*
X114030000Y-114100000D02*
X112030000Y-114100000D01*
X112030000Y-111960000D02*
X114030000Y-111960000D01*
X134990000Y-81620000D02*
X136790000Y-81620000D01*
X136790000Y-78400000D02*
X134340000Y-78400000D01*
X150230000Y-81620000D02*
X152030000Y-81620000D01*
X152030000Y-78400000D02*
X149580000Y-78400000D01*
X169280000Y-82890000D02*
X171080000Y-82890000D01*
X171080000Y-79670000D02*
X168630000Y-79670000D01*
X126100000Y-98130000D02*
X127900000Y-98130000D01*
X127900000Y-94910000D02*
X125450000Y-94910000D01*
X141340000Y-98130000D02*
X143140000Y-98130000D01*
X143140000Y-94910000D02*
X140690000Y-94910000D01*
X159120000Y-98130000D02*
X160920000Y-98130000D01*
X160920000Y-94910000D02*
X158470000Y-94910000D01*
X134990000Y-114640000D02*
X136790000Y-114640000D01*
X136790000Y-111420000D02*
X134340000Y-111420000D01*
X151500000Y-114640000D02*
X153300000Y-114640000D01*
X153300000Y-111420000D02*
X150850000Y-111420000D01*
X170550000Y-114640000D02*
X172350000Y-114640000D01*
X172350000Y-111420000D02*
X169900000Y-111420000D01*
X118480000Y-114640000D02*
X120280000Y-114640000D01*
X120280000Y-111420000D02*
X117830000Y-111420000D01*
D12*
X113196667Y-72822381D02*
X113196667Y-73536667D01*
X113149047Y-73679524D01*
X113053809Y-73774762D01*
X112910952Y-73822381D01*
X112815714Y-73822381D01*
X114196667Y-73822381D02*
X113625238Y-73822381D01*
X113910952Y-73822381D02*
X113910952Y-72822381D01*
X113815714Y-72965238D01*
X113720476Y-73060476D01*
X113625238Y-73108095D01*
X153503334Y-90042381D02*
X153170000Y-89566190D01*
X152931905Y-90042381D02*
X152931905Y-89042381D01*
X153312858Y-89042381D01*
X153408096Y-89090000D01*
X153455715Y-89137619D01*
X153503334Y-89232857D01*
X153503334Y-89375714D01*
X153455715Y-89470952D01*
X153408096Y-89518571D01*
X153312858Y-89566190D01*
X152931905Y-89566190D01*
X154455715Y-90042381D02*
X153884286Y-90042381D01*
X154170000Y-90042381D02*
X154170000Y-89042381D01*
X154074762Y-89185238D01*
X153979524Y-89280476D01*
X153884286Y-89328095D01*
X129373334Y-73532381D02*
X129040000Y-73056190D01*
X128801905Y-73532381D02*
X128801905Y-72532381D01*
X129182858Y-72532381D01*
X129278096Y-72580000D01*
X129325715Y-72627619D01*
X129373334Y-72722857D01*
X129373334Y-72865714D01*
X129325715Y-72960952D01*
X129278096Y-73008571D01*
X129182858Y-73056190D01*
X128801905Y-73056190D01*
X129754286Y-72627619D02*
X129801905Y-72580000D01*
X129897143Y-72532381D01*
X130135239Y-72532381D01*
X130230477Y-72580000D01*
X130278096Y-72627619D01*
X130325715Y-72722857D01*
X130325715Y-72818095D01*
X130278096Y-72960952D01*
X129706667Y-73532381D01*
X130325715Y-73532381D01*
X129373334Y-78612381D02*
X129040000Y-78136190D01*
X128801905Y-78612381D02*
X128801905Y-77612381D01*
X129182858Y-77612381D01*
X129278096Y-77660000D01*
X129325715Y-77707619D01*
X129373334Y-77802857D01*
X129373334Y-77945714D01*
X129325715Y-78040952D01*
X129278096Y-78088571D01*
X129182858Y-78136190D01*
X128801905Y-78136190D01*
X129706667Y-77612381D02*
X130325715Y-77612381D01*
X129992381Y-77993333D01*
X130135239Y-77993333D01*
X130230477Y-78040952D01*
X130278096Y-78088571D01*
X130325715Y-78183810D01*
X130325715Y-78421905D01*
X130278096Y-78517143D01*
X130230477Y-78564762D01*
X130135239Y-78612381D01*
X129849524Y-78612381D01*
X129754286Y-78564762D01*
X129706667Y-78517143D01*
X129373334Y-83692381D02*
X129040000Y-83216190D01*
X128801905Y-83692381D02*
X128801905Y-82692381D01*
X129182858Y-82692381D01*
X129278096Y-82740000D01*
X129325715Y-82787619D01*
X129373334Y-82882857D01*
X129373334Y-83025714D01*
X129325715Y-83120952D01*
X129278096Y-83168571D01*
X129182858Y-83216190D01*
X128801905Y-83216190D01*
X130230477Y-83025714D02*
X130230477Y-83692381D01*
X129992381Y-82644762D02*
X129754286Y-83359048D01*
X130373334Y-83359048D01*
X153503334Y-100202381D02*
X153170000Y-99726190D01*
X152931905Y-100202381D02*
X152931905Y-99202381D01*
X153312858Y-99202381D01*
X153408096Y-99250000D01*
X153455715Y-99297619D01*
X153503334Y-99392857D01*
X153503334Y-99535714D01*
X153455715Y-99630952D01*
X153408096Y-99678571D01*
X153312858Y-99726190D01*
X152931905Y-99726190D01*
X154408096Y-99202381D02*
X153931905Y-99202381D01*
X153884286Y-99678571D01*
X153931905Y-99630952D01*
X154027143Y-99583333D01*
X154265239Y-99583333D01*
X154360477Y-99630952D01*
X154408096Y-99678571D01*
X154455715Y-99773810D01*
X154455715Y-100011905D01*
X154408096Y-100107143D01*
X154360477Y-100154762D01*
X154265239Y-100202381D01*
X154027143Y-100202381D01*
X153931905Y-100154762D01*
X153884286Y-100107143D01*
X153503334Y-95122381D02*
X153170000Y-94646190D01*
X152931905Y-95122381D02*
X152931905Y-94122381D01*
X153312858Y-94122381D01*
X153408096Y-94170000D01*
X153455715Y-94217619D01*
X153503334Y-94312857D01*
X153503334Y-94455714D01*
X153455715Y-94550952D01*
X153408096Y-94598571D01*
X153312858Y-94646190D01*
X152931905Y-94646190D01*
X154360477Y-94122381D02*
X154170000Y-94122381D01*
X154074762Y-94170000D01*
X154027143Y-94217619D01*
X153931905Y-94360476D01*
X153884286Y-94550952D01*
X153884286Y-94931905D01*
X153931905Y-95027143D01*
X153979524Y-95074762D01*
X154074762Y-95122381D01*
X154265239Y-95122381D01*
X154360477Y-95074762D01*
X154408096Y-95027143D01*
X154455715Y-94931905D01*
X154455715Y-94693810D01*
X154408096Y-94598571D01*
X154360477Y-94550952D01*
X154265239Y-94503333D01*
X154074762Y-94503333D01*
X153979524Y-94550952D01*
X153931905Y-94598571D01*
X153884286Y-94693810D01*
X129373334Y-106552381D02*
X129040000Y-106076190D01*
X128801905Y-106552381D02*
X128801905Y-105552381D01*
X129182858Y-105552381D01*
X129278096Y-105600000D01*
X129325715Y-105647619D01*
X129373334Y-105742857D01*
X129373334Y-105885714D01*
X129325715Y-105980952D01*
X129278096Y-106028571D01*
X129182858Y-106076190D01*
X128801905Y-106076190D01*
X129706667Y-105552381D02*
X130373334Y-105552381D01*
X129944762Y-106552381D01*
X144613334Y-73532381D02*
X144280000Y-73056190D01*
X144041905Y-73532381D02*
X144041905Y-72532381D01*
X144422858Y-72532381D01*
X144518096Y-72580000D01*
X144565715Y-72627619D01*
X144613334Y-72722857D01*
X144613334Y-72865714D01*
X144565715Y-72960952D01*
X144518096Y-73008571D01*
X144422858Y-73056190D01*
X144041905Y-73056190D01*
X145184762Y-72960952D02*
X145089524Y-72913333D01*
X145041905Y-72865714D01*
X144994286Y-72770476D01*
X144994286Y-72722857D01*
X145041905Y-72627619D01*
X145089524Y-72580000D01*
X145184762Y-72532381D01*
X145375239Y-72532381D01*
X145470477Y-72580000D01*
X145518096Y-72627619D01*
X145565715Y-72722857D01*
X145565715Y-72770476D01*
X145518096Y-72865714D01*
X145470477Y-72913333D01*
X145375239Y-72960952D01*
X145184762Y-72960952D01*
X145089524Y-73008571D01*
X145041905Y-73056190D01*
X144994286Y-73151429D01*
X144994286Y-73341905D01*
X145041905Y-73437143D01*
X145089524Y-73484762D01*
X145184762Y-73532381D01*
X145375239Y-73532381D01*
X145470477Y-73484762D01*
X145518096Y-73437143D01*
X145565715Y-73341905D01*
X145565715Y-73151429D01*
X145518096Y-73056190D01*
X145470477Y-73008571D01*
X145375239Y-72960952D01*
X129373334Y-116712381D02*
X129040000Y-116236190D01*
X128801905Y-116712381D02*
X128801905Y-115712381D01*
X129182858Y-115712381D01*
X129278096Y-115760000D01*
X129325715Y-115807619D01*
X129373334Y-115902857D01*
X129373334Y-116045714D01*
X129325715Y-116140952D01*
X129278096Y-116188571D01*
X129182858Y-116236190D01*
X128801905Y-116236190D01*
X129849524Y-116712381D02*
X130040000Y-116712381D01*
X130135239Y-116664762D01*
X130182858Y-116617143D01*
X130278096Y-116474286D01*
X130325715Y-116283810D01*
X130325715Y-115902857D01*
X130278096Y-115807619D01*
X130230477Y-115760000D01*
X130135239Y-115712381D01*
X129944762Y-115712381D01*
X129849524Y-115760000D01*
X129801905Y-115807619D01*
X129754286Y-115902857D01*
X129754286Y-116140952D01*
X129801905Y-116236190D01*
X129849524Y-116283810D01*
X129944762Y-116331429D01*
X130135239Y-116331429D01*
X130230477Y-116283810D01*
X130278096Y-116236190D01*
X130325715Y-116140952D01*
X128897143Y-111632381D02*
X128563809Y-111156190D01*
X128325714Y-111632381D02*
X128325714Y-110632381D01*
X128706667Y-110632381D01*
X128801905Y-110680000D01*
X128849524Y-110727619D01*
X128897143Y-110822857D01*
X128897143Y-110965714D01*
X128849524Y-111060952D01*
X128801905Y-111108571D01*
X128706667Y-111156190D01*
X128325714Y-111156190D01*
X129849524Y-111632381D02*
X129278095Y-111632381D01*
X129563809Y-111632381D02*
X129563809Y-110632381D01*
X129468571Y-110775238D01*
X129373333Y-110870476D01*
X129278095Y-110918095D01*
X130468571Y-110632381D02*
X130563810Y-110632381D01*
X130659048Y-110680000D01*
X130706667Y-110727619D01*
X130754286Y-110822857D01*
X130801905Y-111013333D01*
X130801905Y-111251429D01*
X130754286Y-111441905D01*
X130706667Y-111537143D01*
X130659048Y-111584762D01*
X130563810Y-111632381D01*
X130468571Y-111632381D01*
X130373333Y-111584762D01*
X130325714Y-111537143D01*
X130278095Y-111441905D01*
X130230476Y-111251429D01*
X130230476Y-111013333D01*
X130278095Y-110822857D01*
X130325714Y-110727619D01*
X130373333Y-110680000D01*
X130468571Y-110632381D01*
X144137143Y-83692381D02*
X143803809Y-83216190D01*
X143565714Y-83692381D02*
X143565714Y-82692381D01*
X143946667Y-82692381D01*
X144041905Y-82740000D01*
X144089524Y-82787619D01*
X144137143Y-82882857D01*
X144137143Y-83025714D01*
X144089524Y-83120952D01*
X144041905Y-83168571D01*
X143946667Y-83216190D01*
X143565714Y-83216190D01*
X145089524Y-83692381D02*
X144518095Y-83692381D01*
X144803809Y-83692381D02*
X144803809Y-82692381D01*
X144708571Y-82835238D01*
X144613333Y-82930476D01*
X144518095Y-82978095D01*
X146041905Y-83692381D02*
X145470476Y-83692381D01*
X145756190Y-83692381D02*
X145756190Y-82692381D01*
X145660952Y-82835238D01*
X145565714Y-82930476D01*
X145470476Y-82978095D01*
X144137143Y-78612381D02*
X143803809Y-78136190D01*
X143565714Y-78612381D02*
X143565714Y-77612381D01*
X143946667Y-77612381D01*
X144041905Y-77660000D01*
X144089524Y-77707619D01*
X144137143Y-77802857D01*
X144137143Y-77945714D01*
X144089524Y-78040952D01*
X144041905Y-78088571D01*
X143946667Y-78136190D01*
X143565714Y-78136190D01*
X145089524Y-78612381D02*
X144518095Y-78612381D01*
X144803809Y-78612381D02*
X144803809Y-77612381D01*
X144708571Y-77755238D01*
X144613333Y-77850476D01*
X144518095Y-77898095D01*
X145470476Y-77707619D02*
X145518095Y-77660000D01*
X145613333Y-77612381D01*
X145851429Y-77612381D01*
X145946667Y-77660000D01*
X145994286Y-77707619D01*
X146041905Y-77802857D01*
X146041905Y-77898095D01*
X145994286Y-78040952D01*
X145422857Y-78612381D01*
X146041905Y-78612381D01*
X144137143Y-106552381D02*
X143803809Y-106076190D01*
X143565714Y-106552381D02*
X143565714Y-105552381D01*
X143946667Y-105552381D01*
X144041905Y-105600000D01*
X144089524Y-105647619D01*
X144137143Y-105742857D01*
X144137143Y-105885714D01*
X144089524Y-105980952D01*
X144041905Y-106028571D01*
X143946667Y-106076190D01*
X143565714Y-106076190D01*
X145089524Y-106552381D02*
X144518095Y-106552381D01*
X144803809Y-106552381D02*
X144803809Y-105552381D01*
X144708571Y-105695238D01*
X144613333Y-105790476D01*
X144518095Y-105838095D01*
X145422857Y-105552381D02*
X146041905Y-105552381D01*
X145708571Y-105933333D01*
X145851429Y-105933333D01*
X145946667Y-105980952D01*
X145994286Y-106028571D01*
X146041905Y-106123810D01*
X146041905Y-106361905D01*
X145994286Y-106457143D01*
X145946667Y-106504762D01*
X145851429Y-106552381D01*
X145565714Y-106552381D01*
X145470476Y-106504762D01*
X145422857Y-106457143D01*
X163187143Y-74802381D02*
X162853809Y-74326190D01*
X162615714Y-74802381D02*
X162615714Y-73802381D01*
X162996667Y-73802381D01*
X163091905Y-73850000D01*
X163139524Y-73897619D01*
X163187143Y-73992857D01*
X163187143Y-74135714D01*
X163139524Y-74230952D01*
X163091905Y-74278571D01*
X162996667Y-74326190D01*
X162615714Y-74326190D01*
X164139524Y-74802381D02*
X163568095Y-74802381D01*
X163853809Y-74802381D02*
X163853809Y-73802381D01*
X163758571Y-73945238D01*
X163663333Y-74040476D01*
X163568095Y-74088095D01*
X164996667Y-74135714D02*
X164996667Y-74802381D01*
X164758571Y-73754762D02*
X164520476Y-74469048D01*
X165139524Y-74469048D01*
X144137143Y-116712381D02*
X143803809Y-116236190D01*
X143565714Y-116712381D02*
X143565714Y-115712381D01*
X143946667Y-115712381D01*
X144041905Y-115760000D01*
X144089524Y-115807619D01*
X144137143Y-115902857D01*
X144137143Y-116045714D01*
X144089524Y-116140952D01*
X144041905Y-116188571D01*
X143946667Y-116236190D01*
X143565714Y-116236190D01*
X145089524Y-116712381D02*
X144518095Y-116712381D01*
X144803809Y-116712381D02*
X144803809Y-115712381D01*
X144708571Y-115855238D01*
X144613333Y-115950476D01*
X144518095Y-115998095D01*
X145994286Y-115712381D02*
X145518095Y-115712381D01*
X145470476Y-116188571D01*
X145518095Y-116140952D01*
X145613333Y-116093333D01*
X145851429Y-116093333D01*
X145946667Y-116140952D01*
X145994286Y-116188571D01*
X146041905Y-116283810D01*
X146041905Y-116521905D01*
X145994286Y-116617143D01*
X145946667Y-116664762D01*
X145851429Y-116712381D01*
X145613333Y-116712381D01*
X145518095Y-116664762D01*
X145470476Y-116617143D01*
X144137143Y-111632381D02*
X143803809Y-111156190D01*
X143565714Y-111632381D02*
X143565714Y-110632381D01*
X143946667Y-110632381D01*
X144041905Y-110680000D01*
X144089524Y-110727619D01*
X144137143Y-110822857D01*
X144137143Y-110965714D01*
X144089524Y-111060952D01*
X144041905Y-111108571D01*
X143946667Y-111156190D01*
X143565714Y-111156190D01*
X145089524Y-111632381D02*
X144518095Y-111632381D01*
X144803809Y-111632381D02*
X144803809Y-110632381D01*
X144708571Y-110775238D01*
X144613333Y-110870476D01*
X144518095Y-110918095D01*
X145946667Y-110632381D02*
X145756190Y-110632381D01*
X145660952Y-110680000D01*
X145613333Y-110727619D01*
X145518095Y-110870476D01*
X145470476Y-111060952D01*
X145470476Y-111441905D01*
X145518095Y-111537143D01*
X145565714Y-111584762D01*
X145660952Y-111632381D01*
X145851429Y-111632381D01*
X145946667Y-111584762D01*
X145994286Y-111537143D01*
X146041905Y-111441905D01*
X146041905Y-111203810D01*
X145994286Y-111108571D01*
X145946667Y-111060952D01*
X145851429Y-111013333D01*
X145660952Y-111013333D01*
X145565714Y-111060952D01*
X145518095Y-111108571D01*
X145470476Y-111203810D01*
X163187143Y-84962381D02*
X162853809Y-84486190D01*
X162615714Y-84962381D02*
X162615714Y-83962381D01*
X162996667Y-83962381D01*
X163091905Y-84010000D01*
X163139524Y-84057619D01*
X163187143Y-84152857D01*
X163187143Y-84295714D01*
X163139524Y-84390952D01*
X163091905Y-84438571D01*
X162996667Y-84486190D01*
X162615714Y-84486190D01*
X164139524Y-84962381D02*
X163568095Y-84962381D01*
X163853809Y-84962381D02*
X163853809Y-83962381D01*
X163758571Y-84105238D01*
X163663333Y-84200476D01*
X163568095Y-84248095D01*
X164472857Y-83962381D02*
X165139524Y-83962381D01*
X164710952Y-84962381D01*
X163187143Y-79882381D02*
X162853809Y-79406190D01*
X162615714Y-79882381D02*
X162615714Y-78882381D01*
X162996667Y-78882381D01*
X163091905Y-78930000D01*
X163139524Y-78977619D01*
X163187143Y-79072857D01*
X163187143Y-79215714D01*
X163139524Y-79310952D01*
X163091905Y-79358571D01*
X162996667Y-79406190D01*
X162615714Y-79406190D01*
X164139524Y-79882381D02*
X163568095Y-79882381D01*
X163853809Y-79882381D02*
X163853809Y-78882381D01*
X163758571Y-79025238D01*
X163663333Y-79120476D01*
X163568095Y-79168095D01*
X164710952Y-79310952D02*
X164615714Y-79263333D01*
X164568095Y-79215714D01*
X164520476Y-79120476D01*
X164520476Y-79072857D01*
X164568095Y-78977619D01*
X164615714Y-78930000D01*
X164710952Y-78882381D01*
X164901429Y-78882381D01*
X164996667Y-78930000D01*
X165044286Y-78977619D01*
X165091905Y-79072857D01*
X165091905Y-79120476D01*
X165044286Y-79215714D01*
X164996667Y-79263333D01*
X164901429Y-79310952D01*
X164710952Y-79310952D01*
X164615714Y-79358571D01*
X164568095Y-79406190D01*
X164520476Y-79501429D01*
X164520476Y-79691905D01*
X164568095Y-79787143D01*
X164615714Y-79834762D01*
X164710952Y-79882381D01*
X164901429Y-79882381D01*
X164996667Y-79834762D01*
X165044286Y-79787143D01*
X165091905Y-79691905D01*
X165091905Y-79501429D01*
X165044286Y-79406190D01*
X164996667Y-79358571D01*
X164901429Y-79310952D01*
X161917143Y-106552381D02*
X161583809Y-106076190D01*
X161345714Y-106552381D02*
X161345714Y-105552381D01*
X161726667Y-105552381D01*
X161821905Y-105600000D01*
X161869524Y-105647619D01*
X161917143Y-105742857D01*
X161917143Y-105885714D01*
X161869524Y-105980952D01*
X161821905Y-106028571D01*
X161726667Y-106076190D01*
X161345714Y-106076190D01*
X162869524Y-106552381D02*
X162298095Y-106552381D01*
X162583809Y-106552381D02*
X162583809Y-105552381D01*
X162488571Y-105695238D01*
X162393333Y-105790476D01*
X162298095Y-105838095D01*
X163345714Y-106552381D02*
X163536190Y-106552381D01*
X163631429Y-106504762D01*
X163679048Y-106457143D01*
X163774286Y-106314286D01*
X163821905Y-106123810D01*
X163821905Y-105742857D01*
X163774286Y-105647619D01*
X163726667Y-105600000D01*
X163631429Y-105552381D01*
X163440952Y-105552381D01*
X163345714Y-105600000D01*
X163298095Y-105647619D01*
X163250476Y-105742857D01*
X163250476Y-105980952D01*
X163298095Y-106076190D01*
X163345714Y-106123810D01*
X163440952Y-106171429D01*
X163631429Y-106171429D01*
X163726667Y-106123810D01*
X163774286Y-106076190D01*
X163821905Y-105980952D01*
X120007143Y-90042381D02*
X119673809Y-89566190D01*
X119435714Y-90042381D02*
X119435714Y-89042381D01*
X119816667Y-89042381D01*
X119911905Y-89090000D01*
X119959524Y-89137619D01*
X120007143Y-89232857D01*
X120007143Y-89375714D01*
X119959524Y-89470952D01*
X119911905Y-89518571D01*
X119816667Y-89566190D01*
X119435714Y-89566190D01*
X120388095Y-89137619D02*
X120435714Y-89090000D01*
X120530952Y-89042381D01*
X120769048Y-89042381D01*
X120864286Y-89090000D01*
X120911905Y-89137619D01*
X120959524Y-89232857D01*
X120959524Y-89328095D01*
X120911905Y-89470952D01*
X120340476Y-90042381D01*
X120959524Y-90042381D01*
X121578571Y-89042381D02*
X121673810Y-89042381D01*
X121769048Y-89090000D01*
X121816667Y-89137619D01*
X121864286Y-89232857D01*
X121911905Y-89423333D01*
X121911905Y-89661429D01*
X121864286Y-89851905D01*
X121816667Y-89947143D01*
X121769048Y-89994762D01*
X121673810Y-90042381D01*
X121578571Y-90042381D01*
X121483333Y-89994762D01*
X121435714Y-89947143D01*
X121388095Y-89851905D01*
X121340476Y-89661429D01*
X121340476Y-89423333D01*
X121388095Y-89232857D01*
X121435714Y-89137619D01*
X121483333Y-89090000D01*
X121578571Y-89042381D01*
X161917143Y-116712381D02*
X161583809Y-116236190D01*
X161345714Y-116712381D02*
X161345714Y-115712381D01*
X161726667Y-115712381D01*
X161821905Y-115760000D01*
X161869524Y-115807619D01*
X161917143Y-115902857D01*
X161917143Y-116045714D01*
X161869524Y-116140952D01*
X161821905Y-116188571D01*
X161726667Y-116236190D01*
X161345714Y-116236190D01*
X162298095Y-115807619D02*
X162345714Y-115760000D01*
X162440952Y-115712381D01*
X162679048Y-115712381D01*
X162774286Y-115760000D01*
X162821905Y-115807619D01*
X162869524Y-115902857D01*
X162869524Y-115998095D01*
X162821905Y-116140952D01*
X162250476Y-116712381D01*
X162869524Y-116712381D01*
X163821905Y-116712381D02*
X163250476Y-116712381D01*
X163536190Y-116712381D02*
X163536190Y-115712381D01*
X163440952Y-115855238D01*
X163345714Y-115950476D01*
X163250476Y-115998095D01*
X161917143Y-111632381D02*
X161583809Y-111156190D01*
X161345714Y-111632381D02*
X161345714Y-110632381D01*
X161726667Y-110632381D01*
X161821905Y-110680000D01*
X161869524Y-110727619D01*
X161917143Y-110822857D01*
X161917143Y-110965714D01*
X161869524Y-111060952D01*
X161821905Y-111108571D01*
X161726667Y-111156190D01*
X161345714Y-111156190D01*
X162298095Y-110727619D02*
X162345714Y-110680000D01*
X162440952Y-110632381D01*
X162679048Y-110632381D01*
X162774286Y-110680000D01*
X162821905Y-110727619D01*
X162869524Y-110822857D01*
X162869524Y-110918095D01*
X162821905Y-111060952D01*
X162250476Y-111632381D01*
X162869524Y-111632381D01*
X163250476Y-110727619D02*
X163298095Y-110680000D01*
X163393333Y-110632381D01*
X163631429Y-110632381D01*
X163726667Y-110680000D01*
X163774286Y-110727619D01*
X163821905Y-110822857D01*
X163821905Y-110918095D01*
X163774286Y-111060952D01*
X163202857Y-111632381D01*
X163821905Y-111632381D01*
X120007143Y-100202381D02*
X119673809Y-99726190D01*
X119435714Y-100202381D02*
X119435714Y-99202381D01*
X119816667Y-99202381D01*
X119911905Y-99250000D01*
X119959524Y-99297619D01*
X120007143Y-99392857D01*
X120007143Y-99535714D01*
X119959524Y-99630952D01*
X119911905Y-99678571D01*
X119816667Y-99726190D01*
X119435714Y-99726190D01*
X120388095Y-99297619D02*
X120435714Y-99250000D01*
X120530952Y-99202381D01*
X120769048Y-99202381D01*
X120864286Y-99250000D01*
X120911905Y-99297619D01*
X120959524Y-99392857D01*
X120959524Y-99488095D01*
X120911905Y-99630952D01*
X120340476Y-100202381D01*
X120959524Y-100202381D01*
X121292857Y-99202381D02*
X121911905Y-99202381D01*
X121578571Y-99583333D01*
X121721429Y-99583333D01*
X121816667Y-99630952D01*
X121864286Y-99678571D01*
X121911905Y-99773810D01*
X121911905Y-100011905D01*
X121864286Y-100107143D01*
X121816667Y-100154762D01*
X121721429Y-100202381D01*
X121435714Y-100202381D01*
X121340476Y-100154762D01*
X121292857Y-100107143D01*
X120007143Y-95122381D02*
X119673809Y-94646190D01*
X119435714Y-95122381D02*
X119435714Y-94122381D01*
X119816667Y-94122381D01*
X119911905Y-94170000D01*
X119959524Y-94217619D01*
X120007143Y-94312857D01*
X120007143Y-94455714D01*
X119959524Y-94550952D01*
X119911905Y-94598571D01*
X119816667Y-94646190D01*
X119435714Y-94646190D01*
X120388095Y-94217619D02*
X120435714Y-94170000D01*
X120530952Y-94122381D01*
X120769048Y-94122381D01*
X120864286Y-94170000D01*
X120911905Y-94217619D01*
X120959524Y-94312857D01*
X120959524Y-94408095D01*
X120911905Y-94550952D01*
X120340476Y-95122381D01*
X120959524Y-95122381D01*
X121816667Y-94455714D02*
X121816667Y-95122381D01*
X121578571Y-94074762D02*
X121340476Y-94789048D01*
X121959524Y-94789048D01*
X112387143Y-106552381D02*
X112053809Y-106076190D01*
X111815714Y-106552381D02*
X111815714Y-105552381D01*
X112196667Y-105552381D01*
X112291905Y-105600000D01*
X112339524Y-105647619D01*
X112387143Y-105742857D01*
X112387143Y-105885714D01*
X112339524Y-105980952D01*
X112291905Y-106028571D01*
X112196667Y-106076190D01*
X111815714Y-106076190D01*
X112768095Y-105647619D02*
X112815714Y-105600000D01*
X112910952Y-105552381D01*
X113149048Y-105552381D01*
X113244286Y-105600000D01*
X113291905Y-105647619D01*
X113339524Y-105742857D01*
X113339524Y-105838095D01*
X113291905Y-105980952D01*
X112720476Y-106552381D01*
X113339524Y-106552381D01*
X114244286Y-105552381D02*
X113768095Y-105552381D01*
X113720476Y-106028571D01*
X113768095Y-105980952D01*
X113863333Y-105933333D01*
X114101429Y-105933333D01*
X114196667Y-105980952D01*
X114244286Y-106028571D01*
X114291905Y-106123810D01*
X114291905Y-106361905D01*
X114244286Y-106457143D01*
X114196667Y-106504762D01*
X114101429Y-106552381D01*
X113863333Y-106552381D01*
X113768095Y-106504762D01*
X113720476Y-106457143D01*
X135247143Y-90042381D02*
X134913809Y-89566190D01*
X134675714Y-90042381D02*
X134675714Y-89042381D01*
X135056667Y-89042381D01*
X135151905Y-89090000D01*
X135199524Y-89137619D01*
X135247143Y-89232857D01*
X135247143Y-89375714D01*
X135199524Y-89470952D01*
X135151905Y-89518571D01*
X135056667Y-89566190D01*
X134675714Y-89566190D01*
X135628095Y-89137619D02*
X135675714Y-89090000D01*
X135770952Y-89042381D01*
X136009048Y-89042381D01*
X136104286Y-89090000D01*
X136151905Y-89137619D01*
X136199524Y-89232857D01*
X136199524Y-89328095D01*
X136151905Y-89470952D01*
X135580476Y-90042381D01*
X136199524Y-90042381D01*
X137056667Y-89042381D02*
X136866190Y-89042381D01*
X136770952Y-89090000D01*
X136723333Y-89137619D01*
X136628095Y-89280476D01*
X136580476Y-89470952D01*
X136580476Y-89851905D01*
X136628095Y-89947143D01*
X136675714Y-89994762D01*
X136770952Y-90042381D01*
X136961429Y-90042381D01*
X137056667Y-89994762D01*
X137104286Y-89947143D01*
X137151905Y-89851905D01*
X137151905Y-89613810D01*
X137104286Y-89518571D01*
X137056667Y-89470952D01*
X136961429Y-89423333D01*
X136770952Y-89423333D01*
X136675714Y-89470952D01*
X136628095Y-89518571D01*
X136580476Y-89613810D01*
X135247143Y-100202381D02*
X134913809Y-99726190D01*
X134675714Y-100202381D02*
X134675714Y-99202381D01*
X135056667Y-99202381D01*
X135151905Y-99250000D01*
X135199524Y-99297619D01*
X135247143Y-99392857D01*
X135247143Y-99535714D01*
X135199524Y-99630952D01*
X135151905Y-99678571D01*
X135056667Y-99726190D01*
X134675714Y-99726190D01*
X135628095Y-99297619D02*
X135675714Y-99250000D01*
X135770952Y-99202381D01*
X136009048Y-99202381D01*
X136104286Y-99250000D01*
X136151905Y-99297619D01*
X136199524Y-99392857D01*
X136199524Y-99488095D01*
X136151905Y-99630952D01*
X135580476Y-100202381D01*
X136199524Y-100202381D01*
X136532857Y-99202381D02*
X137199524Y-99202381D01*
X136770952Y-100202381D01*
X135247143Y-95122381D02*
X134913809Y-94646190D01*
X134675714Y-95122381D02*
X134675714Y-94122381D01*
X135056667Y-94122381D01*
X135151905Y-94170000D01*
X135199524Y-94217619D01*
X135247143Y-94312857D01*
X135247143Y-94455714D01*
X135199524Y-94550952D01*
X135151905Y-94598571D01*
X135056667Y-94646190D01*
X134675714Y-94646190D01*
X135628095Y-94217619D02*
X135675714Y-94170000D01*
X135770952Y-94122381D01*
X136009048Y-94122381D01*
X136104286Y-94170000D01*
X136151905Y-94217619D01*
X136199524Y-94312857D01*
X136199524Y-94408095D01*
X136151905Y-94550952D01*
X135580476Y-95122381D01*
X136199524Y-95122381D01*
X136770952Y-94550952D02*
X136675714Y-94503333D01*
X136628095Y-94455714D01*
X136580476Y-94360476D01*
X136580476Y-94312857D01*
X136628095Y-94217619D01*
X136675714Y-94170000D01*
X136770952Y-94122381D01*
X136961429Y-94122381D01*
X137056667Y-94170000D01*
X137104286Y-94217619D01*
X137151905Y-94312857D01*
X137151905Y-94360476D01*
X137104286Y-94455714D01*
X137056667Y-94503333D01*
X136961429Y-94550952D01*
X136770952Y-94550952D01*
X136675714Y-94598571D01*
X136628095Y-94646190D01*
X136580476Y-94741429D01*
X136580476Y-94931905D01*
X136628095Y-95027143D01*
X136675714Y-95074762D01*
X136770952Y-95122381D01*
X136961429Y-95122381D01*
X137056667Y-95074762D01*
X137104286Y-95027143D01*
X137151905Y-94931905D01*
X137151905Y-94741429D01*
X137104286Y-94646190D01*
X137056667Y-94598571D01*
X136961429Y-94550952D01*
X112387143Y-116712381D02*
X112053809Y-116236190D01*
X111815714Y-116712381D02*
X111815714Y-115712381D01*
X112196667Y-115712381D01*
X112291905Y-115760000D01*
X112339524Y-115807619D01*
X112387143Y-115902857D01*
X112387143Y-116045714D01*
X112339524Y-116140952D01*
X112291905Y-116188571D01*
X112196667Y-116236190D01*
X111815714Y-116236190D01*
X112768095Y-115807619D02*
X112815714Y-115760000D01*
X112910952Y-115712381D01*
X113149048Y-115712381D01*
X113244286Y-115760000D01*
X113291905Y-115807619D01*
X113339524Y-115902857D01*
X113339524Y-115998095D01*
X113291905Y-116140952D01*
X112720476Y-116712381D01*
X113339524Y-116712381D01*
X113815714Y-116712381D02*
X114006190Y-116712381D01*
X114101429Y-116664762D01*
X114149048Y-116617143D01*
X114244286Y-116474286D01*
X114291905Y-116283810D01*
X114291905Y-115902857D01*
X114244286Y-115807619D01*
X114196667Y-115760000D01*
X114101429Y-115712381D01*
X113910952Y-115712381D01*
X113815714Y-115760000D01*
X113768095Y-115807619D01*
X113720476Y-115902857D01*
X113720476Y-116140952D01*
X113768095Y-116236190D01*
X113815714Y-116283810D01*
X113910952Y-116331429D01*
X114101429Y-116331429D01*
X114196667Y-116283810D01*
X114244286Y-116236190D01*
X114291905Y-116140952D01*
X112387143Y-111632381D02*
X112053809Y-111156190D01*
X111815714Y-111632381D02*
X111815714Y-110632381D01*
X112196667Y-110632381D01*
X112291905Y-110680000D01*
X112339524Y-110727619D01*
X112387143Y-110822857D01*
X112387143Y-110965714D01*
X112339524Y-111060952D01*
X112291905Y-111108571D01*
X112196667Y-111156190D01*
X111815714Y-111156190D01*
X112720476Y-110632381D02*
X113339524Y-110632381D01*
X113006190Y-111013333D01*
X113149048Y-111013333D01*
X113244286Y-111060952D01*
X113291905Y-111108571D01*
X113339524Y-111203810D01*
X113339524Y-111441905D01*
X113291905Y-111537143D01*
X113244286Y-111584762D01*
X113149048Y-111632381D01*
X112863333Y-111632381D01*
X112768095Y-111584762D01*
X112720476Y-111537143D01*
X113958571Y-110632381D02*
X114053810Y-110632381D01*
X114149048Y-110680000D01*
X114196667Y-110727619D01*
X114244286Y-110822857D01*
X114291905Y-111013333D01*
X114291905Y-111251429D01*
X114244286Y-111441905D01*
X114196667Y-111537143D01*
X114149048Y-111584762D01*
X114053810Y-111632381D01*
X113958571Y-111632381D01*
X113863333Y-111584762D01*
X113815714Y-111537143D01*
X113768095Y-111441905D01*
X113720476Y-111251429D01*
X113720476Y-111013333D01*
X113768095Y-110822857D01*
X113815714Y-110727619D01*
X113863333Y-110680000D01*
X113958571Y-110632381D01*
X135128095Y-76562381D02*
X135128095Y-77371905D01*
X135175714Y-77467143D01*
X135223333Y-77514762D01*
X135318571Y-77562381D01*
X135509048Y-77562381D01*
X135604286Y-77514762D01*
X135651905Y-77467143D01*
X135699524Y-77371905D01*
X135699524Y-76562381D01*
X136699524Y-77562381D02*
X136128095Y-77562381D01*
X136413809Y-77562381D02*
X136413809Y-76562381D01*
X136318571Y-76705238D01*
X136223333Y-76800476D01*
X136128095Y-76848095D01*
X150368095Y-76562381D02*
X150368095Y-77371905D01*
X150415714Y-77467143D01*
X150463333Y-77514762D01*
X150558571Y-77562381D01*
X150749048Y-77562381D01*
X150844286Y-77514762D01*
X150891905Y-77467143D01*
X150939524Y-77371905D01*
X150939524Y-76562381D01*
X151368095Y-76657619D02*
X151415714Y-76610000D01*
X151510952Y-76562381D01*
X151749048Y-76562381D01*
X151844286Y-76610000D01*
X151891905Y-76657619D01*
X151939524Y-76752857D01*
X151939524Y-76848095D01*
X151891905Y-76990952D01*
X151320476Y-77562381D01*
X151939524Y-77562381D01*
X169418095Y-77832381D02*
X169418095Y-78641905D01*
X169465714Y-78737143D01*
X169513333Y-78784762D01*
X169608571Y-78832381D01*
X169799048Y-78832381D01*
X169894286Y-78784762D01*
X169941905Y-78737143D01*
X169989524Y-78641905D01*
X169989524Y-77832381D01*
X170370476Y-77832381D02*
X170989524Y-77832381D01*
X170656190Y-78213333D01*
X170799048Y-78213333D01*
X170894286Y-78260952D01*
X170941905Y-78308571D01*
X170989524Y-78403810D01*
X170989524Y-78641905D01*
X170941905Y-78737143D01*
X170894286Y-78784762D01*
X170799048Y-78832381D01*
X170513333Y-78832381D01*
X170418095Y-78784762D01*
X170370476Y-78737143D01*
X126238095Y-93072381D02*
X126238095Y-93881905D01*
X126285714Y-93977143D01*
X126333333Y-94024762D01*
X126428571Y-94072381D01*
X126619048Y-94072381D01*
X126714286Y-94024762D01*
X126761905Y-93977143D01*
X126809524Y-93881905D01*
X126809524Y-93072381D01*
X127714286Y-93405714D02*
X127714286Y-94072381D01*
X127476190Y-93024762D02*
X127238095Y-93739048D01*
X127857143Y-93739048D01*
X141478095Y-93072381D02*
X141478095Y-93881905D01*
X141525714Y-93977143D01*
X141573333Y-94024762D01*
X141668571Y-94072381D01*
X141859048Y-94072381D01*
X141954286Y-94024762D01*
X142001905Y-93977143D01*
X142049524Y-93881905D01*
X142049524Y-93072381D01*
X143001905Y-93072381D02*
X142525714Y-93072381D01*
X142478095Y-93548571D01*
X142525714Y-93500952D01*
X142620952Y-93453333D01*
X142859048Y-93453333D01*
X142954286Y-93500952D01*
X143001905Y-93548571D01*
X143049524Y-93643810D01*
X143049524Y-93881905D01*
X143001905Y-93977143D01*
X142954286Y-94024762D01*
X142859048Y-94072381D01*
X142620952Y-94072381D01*
X142525714Y-94024762D01*
X142478095Y-93977143D01*
X159258095Y-93072381D02*
X159258095Y-93881905D01*
X159305714Y-93977143D01*
X159353333Y-94024762D01*
X159448571Y-94072381D01*
X159639048Y-94072381D01*
X159734286Y-94024762D01*
X159781905Y-93977143D01*
X159829524Y-93881905D01*
X159829524Y-93072381D01*
X160734286Y-93072381D02*
X160543809Y-93072381D01*
X160448571Y-93120000D01*
X160400952Y-93167619D01*
X160305714Y-93310476D01*
X160258095Y-93500952D01*
X160258095Y-93881905D01*
X160305714Y-93977143D01*
X160353333Y-94024762D01*
X160448571Y-94072381D01*
X160639048Y-94072381D01*
X160734286Y-94024762D01*
X160781905Y-93977143D01*
X160829524Y-93881905D01*
X160829524Y-93643810D01*
X160781905Y-93548571D01*
X160734286Y-93500952D01*
X160639048Y-93453333D01*
X160448571Y-93453333D01*
X160353333Y-93500952D01*
X160305714Y-93548571D01*
X160258095Y-93643810D01*
X135128095Y-109582381D02*
X135128095Y-110391905D01*
X135175714Y-110487143D01*
X135223333Y-110534762D01*
X135318571Y-110582381D01*
X135509048Y-110582381D01*
X135604286Y-110534762D01*
X135651905Y-110487143D01*
X135699524Y-110391905D01*
X135699524Y-109582381D01*
X136080476Y-109582381D02*
X136747143Y-109582381D01*
X136318571Y-110582381D01*
X151638095Y-109582381D02*
X151638095Y-110391905D01*
X151685714Y-110487143D01*
X151733333Y-110534762D01*
X151828571Y-110582381D01*
X152019048Y-110582381D01*
X152114286Y-110534762D01*
X152161905Y-110487143D01*
X152209524Y-110391905D01*
X152209524Y-109582381D01*
X152828571Y-110010952D02*
X152733333Y-109963333D01*
X152685714Y-109915714D01*
X152638095Y-109820476D01*
X152638095Y-109772857D01*
X152685714Y-109677619D01*
X152733333Y-109630000D01*
X152828571Y-109582381D01*
X153019048Y-109582381D01*
X153114286Y-109630000D01*
X153161905Y-109677619D01*
X153209524Y-109772857D01*
X153209524Y-109820476D01*
X153161905Y-109915714D01*
X153114286Y-109963333D01*
X153019048Y-110010952D01*
X152828571Y-110010952D01*
X152733333Y-110058571D01*
X152685714Y-110106190D01*
X152638095Y-110201429D01*
X152638095Y-110391905D01*
X152685714Y-110487143D01*
X152733333Y-110534762D01*
X152828571Y-110582381D01*
X153019048Y-110582381D01*
X153114286Y-110534762D01*
X153161905Y-110487143D01*
X153209524Y-110391905D01*
X153209524Y-110201429D01*
X153161905Y-110106190D01*
X153114286Y-110058571D01*
X153019048Y-110010952D01*
X170688095Y-109582381D02*
X170688095Y-110391905D01*
X170735714Y-110487143D01*
X170783333Y-110534762D01*
X170878571Y-110582381D01*
X171069048Y-110582381D01*
X171164286Y-110534762D01*
X171211905Y-110487143D01*
X171259524Y-110391905D01*
X171259524Y-109582381D01*
X171783333Y-110582381D02*
X171973809Y-110582381D01*
X172069048Y-110534762D01*
X172116667Y-110487143D01*
X172211905Y-110344286D01*
X172259524Y-110153810D01*
X172259524Y-109772857D01*
X172211905Y-109677619D01*
X172164286Y-109630000D01*
X172069048Y-109582381D01*
X171878571Y-109582381D01*
X171783333Y-109630000D01*
X171735714Y-109677619D01*
X171688095Y-109772857D01*
X171688095Y-110010952D01*
X171735714Y-110106190D01*
X171783333Y-110153810D01*
X171878571Y-110201429D01*
X172069048Y-110201429D01*
X172164286Y-110153810D01*
X172211905Y-110106190D01*
X172259524Y-110010952D01*
X118141905Y-109582381D02*
X118141905Y-110391905D01*
X118189524Y-110487143D01*
X118237143Y-110534762D01*
X118332381Y-110582381D01*
X118522858Y-110582381D01*
X118618096Y-110534762D01*
X118665715Y-110487143D01*
X118713334Y-110391905D01*
X118713334Y-109582381D01*
X119713334Y-110582381D02*
X119141905Y-110582381D01*
X119427619Y-110582381D02*
X119427619Y-109582381D01*
X119332381Y-109725238D01*
X119237143Y-109820476D01*
X119141905Y-109868095D01*
X120332381Y-109582381D02*
X120427620Y-109582381D01*
X120522858Y-109630000D01*
X120570477Y-109677619D01*
X120618096Y-109772857D01*
X120665715Y-109963333D01*
X120665715Y-110201429D01*
X120618096Y-110391905D01*
X120570477Y-110487143D01*
X120522858Y-110534762D01*
X120427620Y-110582381D01*
X120332381Y-110582381D01*
X120237143Y-110534762D01*
X120189524Y-110487143D01*
X120141905Y-110391905D01*
X120094286Y-110201429D01*
X120094286Y-109963333D01*
X120141905Y-109772857D01*
X120189524Y-109677619D01*
X120237143Y-109630000D01*
X120332381Y-109582381D01*
M02*
